<?xml version="1.0" encoding="iso-8859-1"?>
<!-- Generator: Adobe Illustrator 18.1.1, SVG Export Plug-In . SVG Version: 6.00 Build 0)  -->
<svg version="1.1" id="Capa_1" xmlns="http://www.w3.org/2000/svg" xmlns:xlink="http://www.w3.org/1999/xlink" x="0px" y="0px"
	 viewBox="0 0 146.905 146.905" style="enable-background:new 0 0 146.905 146.905;" xml:space="preserve">
<g>
	<path style="fill:#010002;" d="M69.641,68.973l1.399,2.867c2.426,1.618,4.52,3.693,6.163,6.098h0.047V75.05
		C75.149,72.549,72.565,70.477,69.641,68.973z"/>
	<path style="fill:#010002;" d="M70.421,70.405l0.136,0.283c0.322,0.659,0.197,1.41-0.254,1.936c1.5,1.124,2.881,2.398,4.03,3.876
		h2.248C74.938,74.098,72.844,72.026,70.421,70.405z"/>
	<path style="fill:#010002;" d="M75.031,74.692L74.304,73.2c-0.218-0.447-0.608-0.784-1.084-0.931
		c-0.19-0.057-0.383-0.061-0.58-0.054c-0.243,0.379-0.515,0.752-0.791,1.117C72.948,73.715,74.011,74.163,75.031,74.692z"/>
	<path style="fill:#010002;" d="M73.18,74.177l-0.115,0.068c0.523,0.322,0.981,0.719,1.467,1.092
		c0.451-0.526,0.576-1.278,0.254-1.94l-0.136-0.283c-0.87-0.58-1.789-1.084-2.741-1.539L73.18,74.177z"/>
	<path style="fill:#010002;" d="M73.51,73.107l-0.97,0.558c0.344,0.1,0.673,0.222,1.013,0.347c0.276-0.372,0.54-0.737,0.791-1.117
		C74.05,72.903,73.764,72.957,73.51,73.107z"/>
	<path style="fill:#010002;" d="M73.774,72.434l-1.653,0.956c0.913,0.304,1.789,0.673,2.641,1.084L73.774,72.434z"/>
	<path style="fill:#010002;" d="M146.887,106.727c0-5.941-2.144-11.395-5.683-15.636v2.892h-0.043h-2.251
		c2.394,3.085,3.962,6.846,4.316,10.958h-33.52c-1.285-3.207-2.992-6.199-5.039-8.933c0.419-0.687,0.823-1.392,1.321-2.022
		c1.149-1.482,2.53-2.759,4.026-3.879c0.129,0.15,0.276,0.29,0.462,0.394l6.03,3.486l2.849,1.646
		c0.272,0.161,0.583,0.236,0.895,0.236c0.175,0,0.351-0.021,0.523-0.072c0.476-0.147,0.866-0.483,1.088-0.93l0.429-0.884h0.329
		l0.433,0.884c0.222,0.447,0.612,0.784,1.088,0.93c0.172,0.05,0.347,0.072,0.523,0.072c0.315,0,0.626-0.075,0.895-0.236l2.852-1.646
		l6.03-3.486c0.186-0.104,0.333-0.243,0.458-0.394c-0.487-0.369-0.948-0.766-1.467-1.088l0.115-0.072l-1.267-2.605
		c-0.848-0.412-1.725-0.78-2.638-1.088l1.653-0.956l0.984,2.036c0.956,0.455,1.868,0.959,2.745,1.539l-1.396-2.867
		c-1.02-0.523-2.083-0.97-3.182-1.356c-0.344-0.118-0.673-0.24-1.02-0.344l-2.201,1.27l-2.58,1.489l-2.172,1.26l-2.176-1.26
		l-2.577-1.492l-2.205-1.267l-0.97-0.558c-0.261-0.161-0.565-0.211-0.87-0.218c-0.837-1.313-1.521-2.702-1.933-4.062
		c-0.784,0.19-2.602-0.866-2.956-2.405c-0.372-1.56-0.025-3.021,0.777-3.25c0.24-0.075,0.483-0.021,0.727,0.118v-1.6l1.568-0.118
		c5.855,0,10.919-2.477,13.693-6.138c2.011,2.648,5.236,4.642,9.101,5.551v2.308c0.247-0.14,0.497-0.197,0.734-0.118
		c0.795,0.229,1.138,1.693,0.777,3.25c-0.358,1.525-2.162,2.577-2.945,2.419c-0.412,1.335-1.117,2.724-1.983,4.044
		c0.2-0.007,0.394,0,0.587,0.057c0.476,0.147,0.866,0.483,1.084,0.931l0.727,1.492c2.917,1.51,5.508,3.575,7.598,6.077V71.754
		c0-15.876-8.403-21.906-18.757-21.906c-8.732,0-16.058,4.323-18.141,15.203v-3.242c0-26.136-13.832-36.068-30.878-36.068
		c-17.06,0-30.878,9.931-30.878,36.068v3.26c-2.076-10.894-9.405-15.221-18.145-15.221c-10.354,0-18.753,6.034-18.753,21.906v19.333
		C2.14,95.328,0,100.775,0,106.723v1.789h35.935c-0.999,3.454-1.568,7.086-1.568,10.862v1.789h78.155v-1.789
		c0-3.776-0.565-7.408-1.568-10.862h35.95v-1.789h-0.018V106.727z M108.883,117.589H37.979c0.161-3.153,0.762-6.188,1.693-9.072
		c0.2-0.601,0.397-1.195,0.63-1.789c0.229-0.601,0.472-1.202,0.734-1.789c0.82-1.843,1.807-3.586,2.92-5.243
		c0.293-0.44,0.573-0.88,0.888-1.306c0.129-0.175,0.276-0.344,0.408-0.523c0.401-0.523,0.802-1.049,1.235-1.55
		c2.018-2.362,4.355-4.438,6.932-6.202c0.004,0.619,0.308,1.213,0.87,1.542l11.656,6.732l2.967,1.714
		c0.272,0.161,0.587,0.24,0.895,0.24c0.179,0,0.354-0.029,0.523-0.075c0.476-0.147,0.866-0.48,1.092-0.927l0.469-0.956l1.553-3.174
		l1.553,3.174l0.469,0.956c0.222,0.447,0.616,0.78,1.092,0.927c0.172,0.057,0.347,0.075,0.523,0.075c0.308,0,0.623-0.079,0.895-0.24
		l2.963-1.714l11.646-6.732c0.565-0.329,0.87-0.931,0.87-1.55c2.577,1.764,4.917,3.844,6.943,6.209
		c0.426,0.501,0.823,1.027,1.231,1.55c0.132,0.179,0.279,0.347,0.408,0.523c0.315,0.426,0.598,0.866,0.891,1.299
		c1.117,1.664,2.097,3.407,2.92,5.25c0.258,0.587,0.505,1.188,0.734,1.789c0.222,0.594,0.426,1.188,0.623,1.789
		C108.121,111.404,108.722,114.436,108.883,117.589z M11.492,72.824c0.236-0.075,0.487-0.021,0.727,0.118v-1.6l1.568-0.118
		c5.855,0,10.923-2.48,13.693-6.141c2.011,2.652,5.236,4.645,9.097,5.554v2.308c0.251-0.14,0.494-0.197,0.734-0.118
		c0.795,0.229,1.138,1.693,0.777,3.25c-0.358,1.528-2.162,2.577-2.945,2.423c-0.408,1.331-1.117,2.72-1.979,4.041
		c-0.29,0.014-0.58,0.072-0.834,0.222l-0.97,0.555l-2.201,1.274L26.58,86.08l-2.176,1.263l-2.172-1.263l-2.58-1.492l-2.201-1.27
		l-0.97-0.555c-0.265-0.157-0.565-0.215-0.87-0.215c-0.834-1.313-1.521-2.706-1.933-4.066c-0.784,0.193-2.598-0.863-2.956-2.405
		C10.354,74.517,10.697,73.057,11.492,72.824z M52.183,63.562c0.387-0.125,0.795-0.036,1.188,0.197v-2.63l2.58-0.193
		c9.602,0,17.969-4.015,22.557-9.996c3.328,4.338,8.639,7.641,14.981,9.126v3.693c0.408-0.229,0.816-0.322,1.202-0.197
		c1.313,0.39,1.886,2.788,1.288,5.361c-0.594,2.502-3.561,4.23-4.846,3.969c-0.83,2.698-2.355,5.529-4.252,8.124l-1.822,1.052
		l-2.197,1.267l-2.222,1.292l-7.204,4.159l-7.204-4.159l-2.222-1.292l-2.197-1.267l-1.958-1.127
		c-1.807-2.552-3.26-5.347-4.087-8.056c-1.281,0.308-4.28-1.439-4.874-3.955C50.29,66.357,50.859,63.956,52.183,63.562z
		 M89.325,89.391l-11.506,6.653l-2.158-4.409l9.738-5.633l1.775-1.027l1.07,2.194L89.325,89.391z M58.604,87.175l1.077-2.201
		l1.775,1.027l9.742,5.633l-2.162,4.409l-11.513-6.653L58.604,87.175z M33.147,88.231l-5.773,3.339l-0.691-1.417l5.046-2.917
		l0.727-0.419l0.462,0.948L33.147,88.231z M15.897,87.755l0.458-0.945l0.727,0.419l5.053,2.92l-0.687,1.414l-5.78-3.343
		L15.897,87.755z M7.945,93.975c1.149-1.482,2.527-2.759,4.03-3.883c0.125,0.154,0.272,0.293,0.458,0.394l6.03,3.489l2.852,1.646
		c0.272,0.161,0.58,0.24,0.895,0.24c0.175,0,0.351-0.029,0.523-0.075c0.476-0.147,0.866-0.48,1.088-0.927l0.433-0.884h0.322
		l0.433,0.884c0.222,0.447,0.616,0.78,1.092,0.927c0.168,0.057,0.347,0.075,0.523,0.075c0.311,0,0.623-0.079,0.895-0.24l2.849-1.646
		l6.034-3.489c0.183-0.1,0.329-0.24,0.455-0.39c1.503,1.124,2.885,2.398,4.033,3.879c0.494,0.637,0.902,1.335,1.321,2.026
		c-2.047,2.731-3.754,5.723-5.035,8.933H3.64C3.98,100.825,5.547,97.067,7.945,93.975z M113.711,88.231l0.233-0.476l0.458-0.945
		l0.723,0.419l5.053,2.92l-0.691,1.414L113.711,88.231z M130.506,86.814l0.458,0.948l0.229,0.469l-5.78,3.343l-0.687-1.414
		l5.05-2.92L130.506,86.814z"/>
</g>
<g>
</g>
<g>
</g>
<g>
</g>
<g>
</g>
<g>
</g>
<g>
</g>
<g>
</g>
<g>
</g>
<g>
</g>
<g>
</g>
<g>
</g>
<g>
</g>
<g>
</g>
<g>
</g>
<g>
</g>
</svg>
