<?xml version="1.0" encoding="iso-8859-1"?>
<!-- Generator: Adobe Illustrator 18.1.1, SVG Export Plug-In . SVG Version: 6.00 Build 0)  -->
<svg version="1.1" id="Capa_1" xmlns="http://www.w3.org/2000/svg" xmlns:xlink="http://www.w3.org/1999/xlink" x="0px" y="0px"
	 viewBox="0 0 106.818 106.818" style="enable-background:new 0 0 106.818 106.818;" xml:space="preserve">
<g>
	<g>
		<path style="fill:#010002;" d="M62.369,29.579h-6.313v-3.157h6.313V29.579L62.369,29.579z M74.991,26.423h-6.313v3.157h6.313
			V26.423z M12.898,18.725c0.029-0.007,0.047-0.029,0.072-0.036c1.5,5.397,5.368,9.437,9.291,9.52
			c3.575-0.168,7.963-4.144,9.42-9.52c0.673,0.043,1.342-0.755,1.535-1.861c0.19-1.145-0.225-2.18-0.916-2.298
			c-0.047-0.011-0.082,0.018-0.132,0.025c-0.215-8.89-4.434-12.011-9.756-12.147c-5.479,0.032-10.382,3.847-10.064,12.165
			c-0.047,0-0.1-0.036-0.154-0.029c-0.687,0.122-1.095,1.145-0.898,2.308C11.481,18.009,12.197,18.843,12.898,18.725z M82.879,31.15
			h3.157v-4.728h-4.731v3.157h1.575V31.15z M29.615,29.733l-4.964,9.76l-0.798-6.338l1.231-0.998H22.11h-2.724l1.228,1.006
			L19.838,39.5l-4.989-9.752C6.195,30.932-0.011,34.65,0,43.666l44.492-0.057C44.478,34.597,38.265,30.893,29.615,29.733z
			 M86.036,37.467h-3.157v6.317h3.157V37.467z M82.879,56.403h3.157v-6.317h-3.157V56.403z M74.512,75.306
			c-0.687,0.125-1.102,1.145-0.902,2.308c0.2,1.152,0.916,1.979,1.614,1.865c0.029-0.011,0.047-0.032,0.075-0.039
			c1.496,5.397,5.368,9.434,9.291,9.52c3.572-0.172,7.963-4.144,9.416-9.52c0.676,0.043,1.342-0.755,1.539-1.861
			c0.19-1.145-0.222-2.18-0.916-2.301c-0.05-0.007-0.082,0.021-0.132,0.025c-0.218-8.89-4.431-12.011-9.76-12.139
			c-5.476,0.029-10.379,3.84-10.064,12.161C74.623,75.335,74.573,75.303,74.512,75.306z M22.915,50.086h-3.157v6.317h3.157V50.086z
			 M43.429,92.699h6.313v-3.153h-6.313V92.699z M22.915,62.719h-3.157v6.313h3.157V62.719z M43.429,29.579h6.313v-3.157h-6.313
			V29.579z M91.944,90.481l-4.964,9.76l-0.798-6.338l1.224-1.006h-2.97L81.709,92.9l1.231,1.002l-0.777,6.342l-4.992-9.749
			c-8.654,1.181-14.859,4.899-14.845,13.915l44.492-0.054C106.811,95.348,100.594,91.644,91.944,90.481z M62.369,89.546h-6.313
			v3.153h6.313V89.546L62.369,89.546z M19.766,81.655h3.157v-6.317h-3.157V81.655z M30.81,92.699h6.313v-3.153H30.81V92.699z
			 M22.915,87.957h-3.157v4.738h4.735v-3.16h-1.578V87.957z"/>
	</g>
</g>
<g>
</g>
<g>
</g>
<g>
</g>
<g>
</g>
<g>
</g>
<g>
</g>
<g>
</g>
<g>
</g>
<g>
</g>
<g>
</g>
<g>
</g>
<g>
</g>
<g>
</g>
<g>
</g>
<g>
</g>
</svg>
