<?xml version="1.0" encoding="iso-8859-1"?>
<!-- Generator: Adobe Illustrator 18.1.1, SVG Export Plug-In . SVG Version: 6.00 Build 0)  -->
<svg version="1.1" id="Capa_1" xmlns="http://www.w3.org/2000/svg" xmlns:xlink="http://www.w3.org/1999/xlink" x="0px" y="0px"
	 viewBox="0 0 109.162 109.162" style="enable-background:new 0 0 109.162 109.162;" xml:space="preserve">
<g>
	<g>
		<path style="fill:#010002;" d="M27.988,89.328c0-8.772-4.635-12.1-10.357-12.1s-10.357,3.328-10.357,12.1v11.434
			c-1.668,2.19-2.673,4.917-2.673,7.877v0.523h26.061v-0.523c0-2.96-1.006-5.687-2.673-7.877V89.328L27.988,89.328z M10.502,89.915
			c0.136-0.043,0.268-0.007,0.404,0.072v-0.88l0.863-0.072c3.217,0,6.027-1.349,7.566-3.357c1.117,1.457,2.902,2.566,5.028,3.06
			v1.242c0.136-0.075,0.272-0.107,0.404-0.068c0.44,0.132,0.633,0.938,0.429,1.797c-0.197,0.837-1.192,1.417-1.628,1.335
			c-0.336,1.084-1.006,2.237-1.822,3.232c-0.122,0.147-0.24,0.283-0.365,0.422c-0.136,0.147-0.272,0.293-0.412,0.429
			c0.569,0.168,1.117,0.372,1.643,0.623c-1.374,1.185-3.103,1.829-4.946,1.829c-1.829,0-3.593-0.673-4.967-1.857
			c0.501-0.225,1.016-0.426,1.557-0.587c-0.136-0.136-0.272-0.279-0.404-0.426c-0.125-0.136-0.243-0.279-0.361-0.422
			c-0.798-0.984-1.449-2.14-1.786-3.25c-0.433,0.097-1.435-0.483-1.639-1.328C9.869,90.853,10.062,90.047,10.502,89.915z
			 M29.606,108.117H5.66c0.104-2.426,0.941-4.67,2.287-6.514c0.999-1.371,2.287-2.516,3.769-3.361
			c1.6,1.525,3.733,2.398,5.955,2.398c2.237,0,4.323-0.845,5.93-2.369c1.46,0.841,2.727,1.979,3.718,3.339
			C28.665,103.447,29.502,105.691,29.606,108.117z M101.892,100.763V89.328c0-8.772-4.635-12.1-10.357-12.1
			c-5.723,0-10.357,3.328-10.357,12.1v11.434c-1.671,2.19-2.677,4.917-2.677,7.877v0.523h26.061v-0.523
			C104.565,105.68,103.563,102.96,101.892,100.763z M84.402,89.915c0.136-0.043,0.268-0.007,0.404,0.072v-0.88l0.859-0.072
			c3.217,0,6.03-1.349,7.566-3.357c1.117,1.457,2.906,2.566,5.028,3.06v1.242c0.136-0.075,0.272-0.107,0.404-0.068
			c0.44,0.132,0.633,0.938,0.426,1.797c-0.197,0.837-1.188,1.417-1.628,1.335c-0.336,1.084-1.002,2.237-1.818,3.232
			c-0.125,0.147-0.24,0.283-0.369,0.422c-0.136,0.147-0.272,0.293-0.412,0.429c0.569,0.168,1.117,0.372,1.643,0.623
			c-1.374,1.185-3.099,1.829-4.946,1.829c-1.829,0-3.593-0.673-4.971-1.857c0.505-0.225,1.02-0.426,1.56-0.587
			c-0.136-0.136-0.272-0.279-0.404-0.426c-0.125-0.136-0.24-0.279-0.361-0.422c-0.802-0.984-1.449-2.14-1.786-3.25
			c-0.433,0.097-1.432-0.483-1.639-1.328C83.765,90.853,83.962,90.047,84.402,89.915z M79.56,108.117
			c0.104-2.426,0.945-4.67,2.29-6.514c0.995-1.371,2.287-2.516,3.769-3.361c1.6,1.525,3.733,2.398,5.955,2.398
			c2.237,0,4.323-0.845,5.93-2.369c1.46,0.841,2.727,1.979,3.718,3.339c1.346,1.85,2.18,4.094,2.287,6.517H79.563v-0.011H79.56z
			 M88.238,68.471L83.4,63.625l-1.84,1.847l7.977,7.974l7.97-7.974l-1.84-1.847l-4.828,4.831
			c-0.533-13.249-8.11-24.662-19.043-30.721V21.47C71.797,5.909,63.566,0,53.416,0S35.039,5.909,35.039,21.47v16.656
			C24.46,44.278,17.162,55.479,16.643,68.46l-4.824-4.831l-1.84,1.847l7.97,7.974l7.974-7.974l-1.84-1.847l-4.839,4.846
			c0.494-11.485,6.7-21.444,15.793-27.289v0.58c-2.963,3.887-4.746,8.722-4.746,13.972v0.931h46.246v-0.931
			c0-5.254-1.782-10.085-4.742-13.972v-1.002C81.252,46.532,87.737,56.714,88.238,68.471z M40.772,22.511
			c0.233-0.072,0.472-0.018,0.712,0.118v-1.568l1.532-0.115c5.712,0,10.694-2.391,13.424-5.948c1.983,2.584,5.146,4.549,8.919,5.433
			v2.197c0.236-0.136,0.483-0.19,0.712-0.118c0.784,0.233,1.124,1.661,0.762,3.196c-0.351,1.489-2.119,2.516-2.885,2.358
			c-0.598,1.933-1.786,3.976-3.232,5.748c-0.211,0.254-0.426,0.505-0.644,0.744c-0.24,0.265-0.483,0.519-0.73,0.762
			c1.002,0.297,1.976,0.673,2.91,1.106c-2.441,2.101-5.508,3.242-8.779,3.242c-3.242,0-6.378-1.185-8.811-3.289
			c0.891-0.404,1.807-0.762,2.759-1.041c-0.243-0.243-0.483-0.497-0.719-0.759c-0.218-0.243-0.429-0.497-0.637-0.752
			c-1.417-1.754-2.573-3.801-3.167-5.769c-0.769,0.183-2.548-0.852-2.902-2.351C39.648,24.168,39.988,22.744,40.772,22.511z
			 M74.664,54.803H32.176c0.186-4.313,1.668-8.289,4.058-11.567c1.775-2.434,4.058-4.463,6.685-5.966
			c2.838,2.706,6.628,4.252,10.568,4.252c3.969,0,7.666-1.496,10.522-4.202c2.591,1.496,4.842,3.504,6.603,5.912
			C72.996,46.518,74.485,50.49,74.664,54.803z"/>
	</g>
</g>
<g>
</g>
<g>
</g>
<g>
</g>
<g>
</g>
<g>
</g>
<g>
</g>
<g>
</g>
<g>
</g>
<g>
</g>
<g>
</g>
<g>
</g>
<g>
</g>
<g>
</g>
<g>
</g>
<g>
</g>
</svg>
