<?xml version="1.0" encoding="iso-8859-1"?>
<!-- Generator: Adobe Illustrator 18.1.1, SVG Export Plug-In . SVG Version: 6.00 Build 0)  -->
<svg version="1.1" id="Capa_1" xmlns="http://www.w3.org/2000/svg" xmlns:xlink="http://www.w3.org/1999/xlink" x="0px" y="0px"
	 viewBox="0 0 104.681 104.681" style="enable-background:new 0 0 104.681 104.681;" xml:space="preserve">
<g>
	<g>
		<g>
			<path style="fill:#010002;" d="M101.568,93.462V80.116c0-9.692-4.86-13.643-11.044-14.047v-9.853H53.189v-5.887h19.118v-0.802
				c0-4.538-1.542-8.711-4.098-12.064V19.949c0-13.435-7.1-18.535-15.865-18.535s-15.865,5.1-15.865,18.535v17.515
				c-2.555,3.357-4.094,7.53-4.094,12.064v0.802h18.27v5.887H14.169v9.853C7.984,66.466,3.121,70.425,3.121,80.116v13.346
				C1.174,96.017,0,99.202,0,102.652v0.616h30.424v-0.616c0-3.457-1.174-6.635-3.121-9.19V80.116
				c0-9.462-4.635-13.453-10.604-14.015v-7.355h71.284v7.355c-5.97,0.562-10.604,4.552-10.604,14.015v13.346
				c-1.943,2.555-3.117,5.74-3.117,9.19v0.616h30.42v-0.616C104.692,99.202,103.518,96.017,101.568,93.462z M26.526,94.439
				c1.571,2.158,2.548,4.771,2.67,7.609H1.238c0.122-2.838,1.099-5.451,2.67-7.609c0.859-1.177,1.897-2.205,3.074-3.063l2.698,3.063
				l5.182,5.887c0.115,0.129,0.283,0.208,0.458,0.208h0.004c0.175,0,0.344-0.075,0.458-0.218l5.028-5.876l2.627-3.071
				C24.622,92.227,25.664,93.261,26.526,94.439z M17.207,75.854c1.306,1.704,3.386,2.992,5.869,3.572v1.446
				c0.157-0.086,0.315-0.125,0.469-0.079c0.515,0.154,0.741,1.099,0.501,2.108c-0.229,0.977-1.392,1.653-1.897,1.553
				c-0.394,1.267-1.177,2.613-2.129,3.783c-0.14,0.172-0.279,0.333-0.426,0.494c-0.157,0.175-0.315,0.347-0.48,0.508
				c1.174,0.344,2.276,0.83,3.303,1.453l-3.21,3.754l-3.89,4.549l-4.005-4.549l-3.303-3.754c1.016-0.612,2.108-1.109,3.271-1.446
				c-0.161-0.161-0.319-0.329-0.472-0.501c-0.147-0.161-0.283-0.326-0.419-0.494c-0.934-1.156-1.693-2.498-2.086-3.801
				c-0.508,0.122-1.678-0.558-1.911-1.546c-0.236-1.009-0.014-1.954,0.501-2.108c0.154-0.047,0.311-0.007,0.469,0.079v-1.027
				l1.009-0.075C12.132,79.769,15.411,78.198,17.207,75.854z M41.432,20.847c0.204-0.061,0.412-0.014,0.616,0.1v-1.349l1.324-0.097
				c4.928,0,9.23-2.061,11.588-5.136c1.714,2.23,4.441,3.926,7.702,4.692v1.897c0.208-0.122,0.412-0.168,0.616-0.107
				c0.673,0.2,0.97,1.435,0.659,2.759c-0.301,1.285-1.829,2.169-2.487,2.036c-0.515,1.668-1.542,3.432-2.788,4.96
				c-0.183,0.222-0.365,0.433-0.558,0.648c-0.204,0.222-0.412,0.447-0.626,0.659c1.539,0.447,2.988,1.099,4.334,1.911l-4.212,4.924
				l-5.103,5.966l-5.254-5.966l-4.334-4.921c1.331-0.809,2.766-1.457,4.291-1.904c-0.211-0.211-0.419-0.426-0.623-0.655
				c-0.19-0.211-0.372-0.426-0.551-0.648c-1.224-1.517-2.222-3.278-2.734-4.982c-0.666,0.157-2.201-0.737-2.505-2.029
				C40.462,22.286,40.752,21.047,41.432,20.847z M34.01,48.726c0.161-3.718,1.439-7.154,3.504-9.981
				c1.124-1.546,2.491-2.899,4.033-4.023l3.543,4.023l6.796,7.716c0.15,0.175,0.372,0.272,0.601,0.272h0.004
				c0.233,0,0.451-0.1,0.601-0.279l6.596-7.709l3.446-4.03c1.546,1.127,2.913,2.48,4.041,4.03c2.065,2.827,3.343,6.263,3.504,9.981
				C70.679,48.726,34.01,48.726,34.01,48.726z M81.158,80.793c0.154-0.047,0.308-0.007,0.469,0.079v-1.027l1.006-0.075
				c3.761,0,7.04-1.571,8.836-3.915c1.306,1.704,3.382,2.992,5.869,3.572v1.446c0.157-0.086,0.319-0.125,0.472-0.079
				c0.515,0.154,0.741,1.099,0.497,2.108c-0.225,0.977-1.392,1.653-1.893,1.553c-0.39,1.267-1.177,2.613-2.133,3.783
				c-0.14,0.172-0.276,0.333-0.422,0.494c-0.157,0.175-0.319,0.347-0.48,0.508c1.174,0.344,2.276,0.83,3.3,1.453l-3.207,3.754
				l-3.89,4.549l-4.001-4.549l-3.307-3.754c1.016-0.612,2.112-1.109,3.271-1.446c-0.161-0.161-0.319-0.329-0.472-0.501
				c-0.147-0.161-0.283-0.326-0.419-0.494c-0.934-1.156-1.696-2.498-2.086-3.801c-0.512,0.122-1.678-0.558-1.908-1.546
				C80.417,81.891,80.639,80.946,81.158,80.793z M75.507,102.047c0.122-2.838,1.099-5.451,2.666-7.609
				c0.859-1.177,1.9-2.205,3.074-3.063l2.698,3.063l5.182,5.887c0.115,0.129,0.283,0.208,0.458,0.208h0.007
				c0.175,0,0.344-0.075,0.455-0.218l5.028-5.876l2.623-3.071c1.181,0.859,2.222,1.893,3.081,3.071
				c1.571,2.158,2.552,4.771,2.67,7.609H75.507z"/>
		</g>
	</g>
</g>
<g>
</g>
<g>
</g>
<g>
</g>
<g>
</g>
<g>
</g>
<g>
</g>
<g>
</g>
<g>
</g>
<g>
</g>
<g>
</g>
<g>
</g>
<g>
</g>
<g>
</g>
<g>
</g>
<g>
</g>
</svg>
