<?xml version="1.0" encoding="iso-8859-1"?>
<!-- Generator: Adobe Illustrator 18.1.1, SVG Export Plug-In . SVG Version: 6.00 Build 0)  -->
<svg version="1.1" id="Capa_1" xmlns="http://www.w3.org/2000/svg" xmlns:xlink="http://www.w3.org/1999/xlink" x="0px" y="0px"
	 viewBox="0 0 121.844 121.844" style="enable-background:new 0 0 121.844 121.844;" xml:space="preserve">
<g>
	<g>
		<path style="fill:#010002;" d="M121.735,96.702l-2.473-13.907c-0.662-3.693-4.055-7.208-7.723-7.984l-2.326-0.497V49.554
			c0-22.994-12.161-31.727-27.163-31.727c-12.454,0-22.93,6.059-26.126,21.287h-8.947V57.76H23.567v14.981H0v29.672h3.579V76.32
			h19.684v26.093h0.301h3.278h0.301V61.339h19.684v17.246c-0.991,1.267-1.718,2.716-1.99,4.209l-2.469,13.911
			c-0.344,1.922,0.111,3.747,1.274,5.15c1.174,1.392,2.899,2.162,4.846,2.162h67.107c1.961,0,3.675-0.769,4.849-2.162
			C121.62,100.449,122.075,98.624,121.735,96.702z M63.356,51.079c0.351-0.093,0.694-0.014,1.056,0.179v-3.124h5.823h3.579h11.653
			l1.768-10.568v10.994h12.451v2.702c0.354-0.197,0.701-0.276,1.056-0.179c1.152,0.347,1.661,2.462,1.12,4.724
			c-0.519,2.201-3.124,3.722-4.252,3.489c-1.195,3.862-3.973,8.035-7.165,11.073c-0.433,0.412-0.873,0.805-1.317,1.167
			c-0.497,0.404-0.991,0.791-1.5,1.131l10.855,2.287l-5.794,6.764l-7.165,8.375l-1.825-8.375l-0.251-1.142l2.609-2.609l-3.285-3.282
			l-0.727-0.73l-0.73,0.734l-3.289,3.278l2.613,2.609l-0.251,1.142l-1.75,8.056l-4.828-5.479l-2.273-2.577l-1.306-1.489
			l-4.649-5.275l4.649-0.977l3.579-0.752l2.559-0.533c-0.512-0.344-1.002-0.719-1.503-1.127c-0.361-0.293-0.705-0.619-1.056-0.941
			c-0.082-0.079-0.175-0.147-0.258-0.225c-1.202-1.149-2.308-2.498-3.321-3.919c-1.636-2.265-2.985-4.746-3.726-7.179
			c-1.127,0.258-3.769-1.267-4.284-3.486C61.696,53.541,62.197,51.429,63.356,51.079z M50.551,42.693h4.774
			c-0.265,2.14-0.433,4.398-0.433,6.861v24.758L52.57,74.81c-0.687,0.147-1.36,0.412-2.011,0.734v-32.85
			C50.558,42.693,50.551,42.693,50.551,42.693z M118.281,100.037c-0.63,0.748-1.575,1.16-2.684,1.16h-13.056v-7.136
			c0-0.777-0.633-1.414-1.414-1.414c-0.784,0-1.417,0.637-1.417,1.414v7.136h-25.9h-3.579h-5.859v-7.136
			c0-0.777-0.633-1.414-1.414-1.414c-0.78,0-1.414,0.637-1.414,1.414v7.136H50.544H48.49c-0.623,0-1.174-0.161-1.671-0.408V87.747
			l0.798-4.466c0.286-1.636,1.474-3.242,2.928-4.37c0.816-0.626,1.686-1.145,2.602-1.342l1.739-0.372l7.53-1.578l5.368,6.091
			l2.455,2.777l3.579,4.066l7.415,8.425c0.265,0.301,0.651,0.476,1.056,0.476c0.004,0,0.007,0,0.007,0
			c0.412,0,0.805-0.183,1.063-0.49l13.048-15.257l5.229-6.106l7.569,1.593l1.739,0.372c2.545,0.537,5.075,3.16,5.529,5.712
			l2.473,13.911C119.151,98.28,118.907,99.296,118.281,100.037z"/>
	</g>
</g>
<g>
</g>
<g>
</g>
<g>
</g>
<g>
</g>
<g>
</g>
<g>
</g>
<g>
</g>
<g>
</g>
<g>
</g>
<g>
</g>
<g>
</g>
<g>
</g>
<g>
</g>
<g>
</g>
<g>
</g>
</svg>
