<?xml version="1.0" encoding="iso-8859-1"?>
<!-- Generator: Adobe Illustrator 18.1.1, SVG Export Plug-In . SVG Version: 6.00 Build 0)  -->
<svg version="1.1" id="Capa_1" xmlns="http://www.w3.org/2000/svg" xmlns:xlink="http://www.w3.org/1999/xlink" x="0px" y="0px"
	 viewBox="0 0 109.159 109.159" style="enable-background:new 0 0 109.159 109.159;" xml:space="preserve">
<g>
	<path style="fill:#010002;" d="M106.01,99.965l-3.096-17.425c-0.823-4.635-5.086-9.026-9.699-10.01l-23.094-4.871
		c4.352-4.209,7.687-10.046,9.903-15.908c2.863-1.041,5.737-3.586,6.564-6.911c1.113-4.398-0.057-8.332-2.784-10.046v-3.11
		c2.491-7.516,3.794-19.795-7.53-26.408c-5.075-2.963-9.276-3.153-12.451-2.112c-0.501-1.285,0.981-3.16,0.981-3.16
		c-2.605-0.089-3.973,1.292-4.549,2.083C56.769,0.48,52.206-0.2,46.365,1.024C27.644,4.954,25.254,29.48,28.679,34.855
		c-2.67,1.721-3.808,5.608-2.72,9.974c0.83,3.335,3.729,5.891,6.599,6.921c2.18,5.873,5.494,11.71,9.835,15.912L31.917,69.87
		c-0.73-1.872-1.836-3.64-3.346-5.146c-2.831-2.831-6.592-4.395-10.597-4.395c-3.998,0-7.759,1.564-10.59,4.388
		c-5.837,5.844-5.837,15.339,0.007,21.187c0.44,0.44,0.952,0.809,1.435,1.181L6.533,99.969c-0.429,2.416,0.143,4.71,1.61,6.471
		c1.474,1.754,3.636,2.72,6.08,2.72h84.082c2.462,0,4.617-0.966,6.088-2.727C105.874,104.675,106.443,102.381,106.01,99.965z
		 M101.655,104.138c-0.777,0.93-1.965,1.439-3.343,1.439H81.964v-4.166h20.503C102.489,102.438,102.27,103.404,101.655,104.138z
		 M14.234,105.577c-1.374,0-2.559-0.512-3.339-1.439c-0.616-0.734-0.827-1.7-0.82-2.727h20.503v4.166H14.234z M34.158,105.577
		V95.363c0-0.991-0.802-1.789-1.789-1.789c-0.988,0-1.789,0.798-1.789,1.789v2.462H10.552l1.557-8.743
		c1.84,0.787,3.819,1.213,5.88,1.213c3.998,0,7.759-1.564,10.583-4.395c3.425-3.418,4.781-8.099,4.194-12.558l3.629-0.762
		c5.304,5.254,12.512,8.274,20.009,8.274c7.58,0,14.627-2.924,19.981-8.228l16.098,3.393c3.182,0.673,6.345,3.947,6.922,7.136
		l2.609,14.67H81.982v-2.462c0-0.991-0.802-1.789-1.789-1.789c-0.988,0-1.789,0.798-1.789,1.789v10.214H34.158z M17.971,63.915
		c3.049,0,5.909,1.188,8.067,3.346c0.998,0.995,1.739,2.154,2.294,3.364c0.243,0.558,0.437,1.124,0.594,1.711
		c0.157,0.587,0.265,1.163,0.333,1.757c0.354,3.318-0.68,6.757-3.217,9.287c-3.468,3.468-8.99,4.094-13.26,1.972
		c-0.573-0.279-1.12-0.608-1.643-0.988c-0.415-0.308-0.837-0.608-1.217-0.977c-0.132-0.132-0.222-0.293-0.354-0.433
		c-4.051-4.466-3.958-11.381,0.354-15.693C12.069,65.096,14.929,63.915,17.971,63.915z M35.539,48.243
		c-1.525,0.329-5.032-1.585-5.733-4.363c-0.712-2.838-0.036-5.486,1.51-5.919c0.455-0.125,0.931-0.029,1.406,0.222v-4.245
		c0.007-0.007,0.021-0.025,0.029-0.032c-0.014-0.05-0.014-0.122-0.029-0.19v-1.489c0.394-3.6,3.819-10.368,22.472-4.252
		c6.446,2.112,10.418-1.235,12.422-5.669c6.349,0.701,10.583,7.92,12.211,12.365v3.511c0.233-0.132,0.476-0.222,0.709-0.258
		c-0.011,0.032-0.004,0.089-0.018,0.111c0.05,0.068,0.147,0.021,0.276-0.104c0.143,0,0.29-0.021,0.437,0.025
		c1.546,0.433,2.222,3.078,1.51,5.916c-0.691,2.759-4.18,4.66-5.69,4.373c-2.026,6.159-6.059,14.029-11.814,18.377
		c-0.691,0.519-1.417,0.97-2.158,1.385c-1.045,0.58-2.137,1.041-3.278,1.356c1.177,0.104,2.258,0.243,3.146,0.433l3.604,0.762
		l5.494,1.16c-4.409,3.593-9.856,5.558-15.654,5.558c-5.737,0-11.27-2.026-15.683-5.604l5.247-1.106l3.647-0.769
		c0.873-0.183,1.929-0.329,3.081-0.426c-1.145-0.315-2.237-0.777-3.285-1.349c-0.748-0.412-1.467-0.866-2.162-1.385
		C41.523,62.344,37.565,54.557,35.539,48.243z M10.412,80.356l5.035-5.039l-0.651-0.651l-4.391-4.395l1.267-1.267l1.267-1.267
		l5.035,5.039l5.039-5.039l1.267,1.267l1.267,1.267l-1.188,1.188l-2.312,2.316l-1.532,1.535l0.515,0.515l4.527,4.524l-1.267,1.267
		l-1.267,1.267l-5.032-5.028l-4.627,4.627l-0.412,0.408l-1.224-1.224l-0.043-0.043L10.412,80.356z"/>
</g>
<g>
</g>
<g>
</g>
<g>
</g>
<g>
</g>
<g>
</g>
<g>
</g>
<g>
</g>
<g>
</g>
<g>
</g>
<g>
</g>
<g>
</g>
<g>
</g>
<g>
</g>
<g>
</g>
<g>
</g>
</svg>
