<?xml version="1.0" encoding="iso-8859-1"?>
<!-- Generator: Adobe Illustrator 18.1.1, SVG Export Plug-In . SVG Version: 6.00 Build 0)  -->
<svg version="1.1" id="Capa_1" xmlns="http://www.w3.org/2000/svg" xmlns:xlink="http://www.w3.org/1999/xlink" x="0px" y="0px"
	 viewBox="0 0 141.365 141.365" style="enable-background:new 0 0 141.365 141.365;" xml:space="preserve">
<g>
	<path style="fill:#010002;" d="M141.365,104.064c0-10.114-6.664-18.717-16.026-22.089c2.162-2.112,3.711-5.293,4.42-9.713
		c0.948,0.175,2.201-0.812,2.634-2.462c0.447-1.704,0.963-4.556-0.007-4.817c-0.286-0.075-0.587-0.014-0.88,0.136v-4.724
		c0.154-5.139-0.544-10.092-6.145-12.243c-1.02-2.101-1.092-4.015-1.092-4.015c-2.52,2.269-12.093,3.192-12.093,3.192l0.104,0.032
		c-12.132,1.245-10.382,5.608-10.382,13.038v4.724c-0.297-0.15-0.594-0.211-0.88-0.136c-0.97,0.258-0.673,3.006-0.225,4.706
		c0.44,1.671,1.922,2.759,2.874,2.566c0.727,4.653,2.18,7.741,4.173,9.767c-3.071,1.124-5.816,2.859-8.153,4.985
		c-0.63-7.312-0.97-15.067-1.335-20.832c-1.503-23.381-12.394-32.328-27.672-32.328c-15.285,0-26.169,8.947-27.672,32.328
		c-0.383,6.016-0.583,13.689-1.177,20.965c-2.409-2.215-5.25-4.012-8.443-5.157c2.162-2.112,3.711-5.293,4.42-9.717
		c0.952,0.175,2.201-0.812,2.634-2.462c0.447-1.704,0.966-4.556-0.004-4.817c-0.286-0.075-0.587-0.014-0.884,0.136v-4.724
		c0.157-5.139-0.544-10.092-6.145-12.243c-1.02-2.101-1.088-4.015-1.088-4.015c-2.523,2.269-12.093,3.192-12.093,3.192l0.107,0.032
		C8.196,48.613,9.949,52.976,9.949,60.406v4.724c-0.297-0.15-0.598-0.211-0.884-0.136C8.095,65.251,8.392,68,8.84,69.7
		c0.437,1.671,1.925,2.759,2.877,2.566c0.73,4.653,2.176,7.745,4.173,9.767C6.607,85.425,0,94,0,104.068h38.909
		c-0.476,1.324-1.016,2.484-1.639,3.446h66.831c-0.63-0.787-1.167-1.99-1.65-3.446L141.365,104.064L141.365,104.064z M90.881,72.545
		c-0.526,2.244-3.192,3.794-4.345,3.557c-2.251,7.301-10.071,15.736-15.858,15.736c-5.944,0-13.557-8.253-15.826-15.743
		c-1.156,0.261-3.84-1.292-4.37-3.55c-0.54-2.308-0.032-4.459,1.149-4.814c0.351-0.1,0.712-0.021,1.074,0.183v-2.351l2.308-0.172
		c8.636,0,16.112-3.658,20.21-9.062c2.978,3.919,7.73,6.853,13.431,8.196v3.393c0.365-0.204,0.723-0.283,1.074-0.183
		C90.903,68.086,91.422,70.24,90.881,72.545z"/>
</g>
<g>
</g>
<g>
</g>
<g>
</g>
<g>
</g>
<g>
</g>
<g>
</g>
<g>
</g>
<g>
</g>
<g>
</g>
<g>
</g>
<g>
</g>
<g>
</g>
<g>
</g>
<g>
</g>
<g>
</g>
</svg>
