<?xml version="1.0" encoding="iso-8859-1"?>
<!-- Generator: Adobe Illustrator 18.1.1, SVG Export Plug-In . SVG Version: 6.00 Build 0)  -->
<svg version="1.1" id="Capa_1" xmlns="http://www.w3.org/2000/svg" xmlns:xlink="http://www.w3.org/1999/xlink" x="0px" y="0px"
	 viewBox="0 0 94.163 94.163" style="enable-background:new 0 0 94.163 94.163;" xml:space="preserve">
<g>
	<path style="fill:#010002;" d="M33.895,73.102H26.87l8.8-8.804c-4.252,0.419-8.235,1.117-11.903,2.122
		c-2.251-3.711-6.292-6.213-10.941-6.213C5.751,60.207,0,65.955,0,73.026c0,3.475,1.399,6.621,3.65,8.933
		c-1.378,3.307-2.154,7.143-2.154,11.646h43.129L29.014,77.99L33.895,73.102z M12.837,63.779c3.035,0,5.705,1.489,7.387,3.747
		c1.145,1.546,1.861,3.432,1.861,5.501c0,5.096-4.151,9.241-9.248,9.241c-3.056,0-5.74-1.503-7.423-3.786
		c-1.131-1.535-1.829-3.407-1.829-5.454C3.59,67.93,7.734,63.779,12.837,63.779z M94.163,93.605H51.034L66.645,77.99l-4.882-4.882
		h7.032l-8.808-8.808C79.672,66.234,94.163,73.721,94.163,93.605z M51.378,24.265c-4.23,5.443-11.932,9.137-20.843,9.137
		l-0.204,0.014c0.812,8.55,4.495,18.284,9.681,23.588H19.294V33.895c0-24.161,12.776-33.337,28.541-33.337
		c15.754,0,28.541,9.176,28.541,33.337v23.109H55.658c5.361-5.476,9.094-15.69,9.731-24.44
		C59.438,31.222,54.474,28.241,51.378,24.265z M6.861,76.466l3.446-3.439l-0.025-0.021l-3.987-3.99l1.267-1.267l1.267-1.267
		l4.005,4.005l4.008-4.005l1.267,1.267l0.412,0.419l0.848,0.845l-4.008,4.012l4.008,4.005l-1.267,1.267l-1.267,1.267L12.83,75.55
		l-4.012,4.012l-1.267-1.267l-1.177-1.177l-0.086-0.089L6.861,76.466z"/>
</g>
<g>
</g>
<g>
</g>
<g>
</g>
<g>
</g>
<g>
</g>
<g>
</g>
<g>
</g>
<g>
</g>
<g>
</g>
<g>
</g>
<g>
</g>
<g>
</g>
<g>
</g>
<g>
</g>
<g>
</g>
</svg>
