<?xml version="1.0" encoding="iso-8859-1"?>
<!-- Generator: Adobe Illustrator 18.1.1, SVG Export Plug-In . SVG Version: 6.00 Build 0)  -->
<svg version="1.1" id="Capa_1" xmlns="http://www.w3.org/2000/svg" xmlns:xlink="http://www.w3.org/1999/xlink" x="0px" y="0px"
	 viewBox="0 0 94.163 94.163" style="enable-background:new 0 0 94.163 94.163;" xml:space="preserve">
<g>
	<path style="fill:#010002;" d="M33.895,73.102h-7.029l8.804-8.804c-4.252,0.419-8.235,1.117-11.903,2.122
		c-2.251-3.711-6.292-6.213-10.941-6.213C5.751,60.207,0,65.955,0,73.026c0,3.475,1.399,6.621,3.65,8.933
		c-1.378,3.307-2.154,7.143-2.154,11.646h43.129L29.01,77.99L33.895,73.102z M12.83,63.779c3.035,0,5.705,1.489,7.387,3.747
		c1.152,1.546,1.861,3.432,1.861,5.501c0,5.096-4.148,9.241-9.248,9.241c-3.056,0-5.74-1.503-7.423-3.786
		c-1.131-1.535-1.825-3.407-1.825-5.454C3.582,67.93,7.73,63.779,12.83,63.779z M51.378,24.265
		c-4.234,5.443-11.932,9.137-20.843,9.137l-0.204,0.014c0.812,8.55,4.495,18.284,9.681,23.588H19.294V33.895
		c0-24.161,12.773-33.337,28.541-33.337c15.754,0,28.538,9.176,28.538,33.337v23.109H55.658c5.361-5.476,9.09-15.69,9.731-24.44
		C59.43,31.222,54.474,28.241,51.378,24.265z M94.163,93.605H51.034L66.645,77.99l-4.882-4.882h7.032l-8.808-8.808
		C79.669,66.234,94.163,73.721,94.163,93.605z M5.372,74.816v-1.789v-1.789h5.669v-5.669h1.789h1.789v4.474v1.195h5.669v1.789v1.789
		H14.62v5.669H12.83h-1.789v-5.669H8.328H5.372z"/>
</g>
<g>
</g>
<g>
</g>
<g>
</g>
<g>
</g>
<g>
</g>
<g>
</g>
<g>
</g>
<g>
</g>
<g>
</g>
<g>
</g>
<g>
</g>
<g>
</g>
<g>
</g>
<g>
</g>
<g>
</g>
</svg>
