<?xml version="1.0" encoding="iso-8859-1"?>
<!-- Generator: Adobe Illustrator 18.1.1, SVG Export Plug-In . SVG Version: 6.00 Build 0)  -->
<svg version="1.1" id="Capa_1" xmlns="http://www.w3.org/2000/svg" xmlns:xlink="http://www.w3.org/1999/xlink" x="0px" y="0px"
	 viewBox="0 0 126.537 126.537" style="enable-background:new 0 0 126.537 126.537;" xml:space="preserve">
<g>
	<g>
		<path style="fill:#010002;" d="M54.134,56.331v13.421H42.116c3.106-3.182,5.279-9.101,5.647-14.183
			c-3.454-0.78-6.331-2.509-8.128-4.821c-2.459,3.164-6.929,5.3-12.093,5.3h-0.118c0.472,4.967,2.609,10.626,5.619,13.693H21.026
			V56.328c0-14.015,7.408-19.34,16.556-19.34C46.718,36.995,54.134,42.323,54.134,56.331z M60.919,32.403h53.175v40.949H60.919
			V32.403z M71.552,64.233H71.52c-5.078,4.796-7.054,6.556-7.859,7.226h7.891C71.552,71.459,71.552,64.233,71.552,64.233z
			 M81.712,54.499c-3.267,3.139-5.97,5.73-8.185,7.831h8.185V54.499z M91.869,54.076h-3.393l3.393,1.335V54.076z M112.19,36.529
			l-3.285,5.472h3.285V36.529z M103.933,42.012h2.749l4.62-7.698h-7.369V42.012z M103.933,46.586l1.603-2.677h-1.603V46.586z
			 M103.933,52.158h8.256v-8.253h-4.427l-3.826,6.381v1.872H103.933z M103.933,62.322h8.256v-8.249h-8.256V62.322z M103.933,71.452
			h8.256v-7.229h-8.256V71.452z M93.777,42.012h8.253v-7.698h-8.253V42.012z M93.777,52.158h6.807l1.442-2.405v-5.848h-8.253v8.253
			H93.777z M93.777,56.166l3.568,1.41l2.097-3.5h-5.665V56.166z M93.777,62.322h8.253v-8.249h-0.365l-3.518,5.859l-4.37-1.721
			C93.777,58.21,93.777,62.322,93.777,62.322z M93.777,71.452h8.253v-7.229h-8.253V71.452z M83.62,42.012h8.253v-7.698H83.62V42.012
			z M83.62,52.155l0.039,0.014h8.213v-8.26H83.62V52.155z M83.62,62.322h8.253v-4.864l-8.253-3.257V62.322z M83.62,71.452h8.253
			v-7.229H83.62V71.452z M73.459,42.012h8.256v-7.698h-8.256V42.012z M73.459,52.158h7.931c0.072-0.068,0.15-0.132,0.218-0.211
			l0.104-0.097v-7.945h-8.256L73.459,52.158L73.459,52.158z M73.459,59.76c2.004-1.908,4.044-3.858,5.944-5.683h-5.944V59.76z
			 M73.459,71.452h8.256v-7.229h-8.256V71.452z M62.823,42.012h8.729v-7.698h-8.729V42.012z M62.823,52.158h8.729v-8.253h-8.729
			V52.158z M62.823,62.322h7.931c0.265-0.247,0.53-0.505,0.802-0.755v-7.494h-8.729v8.249H62.823z M62.823,69.702
			c1.006-0.87,3.207-2.91,5.912-5.468h-5.912V69.702z M62.823,71.452h0.079l-0.079-0.229V71.452z M83.004,94.163v6.564h4.119v6.041
			h-4.119H43.537h-4.123v-6.041h4.123v-6.564H0V19.77h126.537v74.394H83.004z M121.173,88.795V25.138H5.368v63.657h5.536
			c1.052-9.838,8.983-13.764,19.619-14.813L25.413,79.1h4.076l-2.831,2.831l6.864,6.864h8.106l6.868-6.864L45.659,79.1h4.087
			l-5.114-5.118c10.64,1.049,18.567,4.975,19.619,14.813H121.173z"/>
	</g>
</g>
<g>
</g>
<g>
</g>
<g>
</g>
<g>
</g>
<g>
</g>
<g>
</g>
<g>
</g>
<g>
</g>
<g>
</g>
<g>
</g>
<g>
</g>
<g>
</g>
<g>
</g>
<g>
</g>
<g>
</g>
</svg>
