<?xml version="1.0" encoding="iso-8859-1"?>
<!-- Generator: Adobe Illustrator 18.1.1, SVG Export Plug-In . SVG Version: 6.00 Build 0)  -->
<svg version="1.1" id="Capa_1" xmlns="http://www.w3.org/2000/svg" xmlns:xlink="http://www.w3.org/1999/xlink" x="0px" y="0px"
	 viewBox="0 0 389.847 389.847" style="enable-background:new 0 0 389.847 389.847;" xml:space="preserve">
<g>
	<g>
		<path style="fill:#010002;" d="M384.068,354.916l-10.945-66.277c-2.919-17.783-18.972-34.821-36.596-38.721l-73.795-16.546
			c10.232-13.358,18.464-28.952,24.605-44.623c10.913-3.761,21.923-13.326,25.223-25.872c4.395-16.688,0.191-31.631-10.136-38.229
			l0.317-23.954C303.454,43.111,260.052,0.755,199.518,0.01S94.579,40.52,93.866,98.12l-0.301,23.954
			c-10.453,6.297-15.069,21.194-11.072,37.976c2.983,12.675,13.88,22.525,24.715,26.555c5.633,15.768,13.42,31.569,23.209,45.164
			l-9.138,1.791c-7.599-22.493-28.65-38.848-53.667-38.848c-31.378,0-56.854,25.492-56.854,56.838
			c0,10.913,3.252,21.035,8.613,29.713c-0.301,0.985-0.651,1.982-0.872,2.999L5.919,350.251c-1.762,9.232,0.334,18.101,5.886,24.89
			s13.818,10.628,23.241,10.77l319.041,3.935h0.412c9.329,0,17.528-3.648,23.176-10.31
			C383.323,372.874,385.607,364.115,384.068,354.916z M26.572,251.518c0-22.59,18.386-40.992,40.992-40.992
			c17.323,0,32.091,10.851,38.07,26.095c0.285,0.651,0.395,1.332,0.635,2.015c0.508,1.603,1.127,3.158,1.461,4.855
			c0.46,2.316,0.667,4.71,0.729,7.107c0,0.334,0.094,0.619,0.094,0.952c0,2.141-0.317,4.237-0.619,6.281
			c-3.045,19.591-19.924,34.708-40.373,34.708c-12.643,0-23.827-5.853-31.362-14.897c-1.649-1.95-3.061-4.062-4.298-6.281
			c-1.332-2.364-2.394-4.917-3.252-7.583C27.398,259.862,26.572,255.803,26.572,251.518z M124.004,247.521l16.608-3.284
			c10.913,11.739,23.795,20.669,38.501,24.763l-2.222,1.95l12.263,11.516l-9.374,37.121l-55.727-64.881
			c0.065-1.046,0.334-2.093,0.334-3.158C124.418,250.154,124.101,248.855,124.004,247.521z M211.284,321.491l-8.804-38.88
			l12.581-11.185l-2.109-1.982c14.784-3.68,27.886-12.293,39.165-23.795l21.479,4.807L211.284,321.491z M118.643,173.392
			c-5.791,1.143-19.02-6.265-21.527-16.847c-2.569-10.787,0.126-20.796,6.012-22.367c1.73-0.412,3.537-0.065,5.299,0.952
			l0.46-36.804c0.651-52.031,41.056-83.821,90.406-83.202c49.382,0.57,88.977,33.377,88.326,85.424l-0.428,36.787
			c1.791-0.936,3.631-1.253,5.329-0.777c5.821,1.681,8.263,11.803,5.458,22.493c-2.76,10.437-16.086,17.514-21.813,16.322
			c-5.918,17.291-16.118,38.087-29.998,54.331c-1.791,2.109-3.648,4.124-5.617,6.077c-2.079,2.093-4.25,4.03-6.44,5.853
			c-10.278,8.551-22.098,14.149-35.249,14.657c-0.888,0.032-1.681,0.175-2.569,0.175c-0.985,0-1.888-0.207-2.857-0.269
			c-13.229-0.92-24.874-6.725-34.915-15.515c-2.19-1.872-4.298-3.855-6.297-6.012c-1.856-1.982-3.664-4.062-5.426-6.235
			C133.585,212.051,124.117,191.142,118.643,173.392z M354.245,375.553l-61.693-0.777l0.395-33.455
			c0.065-3.935-3.093-7.185-7.029-7.217c-4.124-0.366-7.185,3.093-7.233,7.029l-0.412,33.471l-167.12-2.079l0.395-33.471
			c0.048-3.935-3.11-7.155-7.029-7.217c-3.68-0.094-7.185,3.11-7.249,7.042l-0.395,33.455l-61.661-0.761
			c-5.14-0.065-9.533-2.015-12.358-5.52c-2.857-3.475-3.871-8.153-2.919-13.199l11.072-58.186
			c9.915,8.36,22.574,13.627,36.548,13.627c24.018,0,44.497-14.991,52.792-36.058l70.401,81.919
			c1.348,1.587,3.317,2.475,5.393,2.507c0,0,0.016,0,0.032,0c2.063,0,4.013-0.904,5.361-2.442l87.947-100.256l43.94,9.818
			c11.93,2.666,23.636,15.085,25.587,27.109l10.961,66.325c0.842,4.998-0.317,9.614-3.188,13.025
			c-2.886,3.427-7.233,5.267-12.263,5.267v7.091L354.245,375.553z M43.863,259.45h-9.358v-1.762v-6.171v-7.933h35.913h30.076h0.143
			v1.27v4.425v2.238v0.619v7.314H63.803C63.803,259.45,43.863,259.45,43.863,259.45z"/>
	</g>
</g>
<g>
</g>
<g>
</g>
<g>
</g>
<g>
</g>
<g>
</g>
<g>
</g>
<g>
</g>
<g>
</g>
<g>
</g>
<g>
</g>
<g>
</g>
<g>
</g>
<g>
</g>
<g>
</g>
<g>
</g>
</svg>
