<?xml version="1.0" encoding="iso-8859-1"?>
<!-- Generator: Adobe Illustrator 18.1.1, SVG Export Plug-In . SVG Version: 6.00 Build 0)  -->
<svg version="1.1" id="Capa_1" xmlns="http://www.w3.org/2000/svg" xmlns:xlink="http://www.w3.org/1999/xlink" x="0px" y="0px"
	 viewBox="0 0 507.623 507.623" style="enable-background:new 0 0 507.623 507.623;" xml:space="preserve">
<g>
	<g>
		<g>
			<path style="fill:#010002;" d="M253.812,0C147.275,0,60.915,86.36,60.915,192.897c0,148.909,192.897,314.726,192.897,314.726
				S446.709,335.03,446.709,192.897C446.709,86.36,360.349,0,253.812,0z M320.04,311.84v-3.919c0-2.539-2.047-4.6-4.6-4.6
				c-2.539,0-4.616,2.063-4.616,4.6v8.344c-17.466,7.661-36.707,11.992-57.013,11.992s-39.58-4.315-57.045-11.992v-8.344
				c0-2.539-2.047-4.6-4.6-4.6s-4.6,2.063-4.6,4.6v3.919c-17.226-9.089-32.346-21.605-44.464-36.661
				c2.047-7.836,9.581-15.499,17.355-17.132l9.073-1.921l33.011-6.948c10.09,9.977,22.794,16.847,36.58,19.766
				c4.901,1.014,9.931,1.587,15.007,1.587c5.173,0,10.265-0.554,15.198-1.587c13.659-2.857,26.143-9.598,36.311-19.655l39.308,8.296
				l2.206,0.46c7.774,1.633,15.324,9.28,17.372,17.132C352.371,290.235,337.269,302.751,320.04,311.84z M313.014,162.74v7.868
				c1.143-0.651,2.316-0.904,3.411-0.603c3.744,1.127,5.377,7.962,3.631,15.244c-1.649,7.107-10.106,12.024-13.77,11.279
				c-4.172,13.501-14.308,28.142-25.683,38.07c-1.555,1.332-3.077,2.569-4.648,3.728c-1.808,1.332-3.631,2.553-5.426,3.602
				c0.159,0.016,0.334,0.048,0.46,0.065l23.462,4.949c-11.373,9.296-25.412,14.356-40.357,14.356
				c-14.816,0-29.094-5.235-40.451-14.466l22.937-4.839c1.127-0.253,2.364-0.444,3.68-0.635c-1.824-1.095-3.648-2.332-5.458-3.696
				c-1.555-1.173-3.061-2.394-4.567-3.744c-10.867-9.805-20.32-23.986-24.398-37.406c-3.664,0.842-12.167-4.091-13.848-11.263
				c-1.713-7.282-0.094-14.133,3.631-15.244c1.111-0.301,2.268-0.048,3.395,0.603v-9.248h68.959l5.743-34.423v35.803H313.014
				L313.014,162.74z M349.04,249.055l-4.091-0.872v-83.111c0-74.271-39.308-102.478-87.724-102.478s-87.678,28.207-87.678,102.478
				v81.631l-10.961,2.316c-9.027,1.888-17.498,8.898-21.987,17.385c-15.688-22.843-24.906-50.493-24.906-80.3
				c0-78.508,63.627-142.119,142.119-142.119s142.119,63.627,142.119,142.119c0,29.807-9.216,57.457-24.906,80.316
				C366.52,257.953,358.081,250.94,349.04,249.055z"/>
		</g>
	</g>
</g>
<g>
</g>
<g>
</g>
<g>
</g>
<g>
</g>
<g>
</g>
<g>
</g>
<g>
</g>
<g>
</g>
<g>
</g>
<g>
</g>
<g>
</g>
<g>
</g>
<g>
</g>
<g>
</g>
<g>
</g>
</svg>
