<?xml version="1.0" encoding="iso-8859-1"?>
<!-- Generator: Adobe Illustrator 18.1.1, SVG Export Plug-In . SVG Version: 6.00 Build 0)  -->
<svg version="1.1" id="Capa_1" xmlns="http://www.w3.org/2000/svg" xmlns:xlink="http://www.w3.org/1999/xlink" x="0px" y="0px"
	 viewBox="0 0 566.651 566.651" style="enable-background:new 0 0 566.651 566.651;" xml:space="preserve">
<g>
	<g>
		<g>
			<path style="fill:#010002;" d="M49.287,410.906l18.894-4.839H54.363c-2.316,0-4.266-0.842-5.52-2.381
				c-1.302-1.522-1.762-3.602-1.38-5.821l5.076-28.728c0.985-5.267,6.171-10.644,11.405-11.739l3.586-0.745l21.067-4.457
				l12.183,12.183l20.734,20.734c0.525,0.554,1.302,0.872,2.079,0.872c0.777,0,1.555-0.317,2.079-0.872l20.78-20.734l0.842-0.842
				l-4.188,23.478l8.027-2.063l4.998-28.061c0.207-1.221,0.794-2.381,1.331-3.57c2.442-5.504,7.742-10.407,13.342-11.564
				l4.616-0.985l4.221-0.888l22.891-4.855l15.593,15.642l26.697,26.681c0.683,0.683,1.587,1.014,2.523,1.046l0.175,0.032
				c1.001,0,1.982-0.382,2.666-1.079l8.28-8.328l-1.982,11.311l9.391,1.95l4.425-25.065l2.348-13.041l0.334-2.015
				c0.619-3.57,2.633-7.029,5.157-10.168c3.618-4.363,8.393-7.916,13.404-8.979l5.853-1.237l22.146-4.648l12.15-2.601l19.798,19.83
				l33.82,33.804c0.872,0.888,2.141,1.396,3.379,1.396c1.237,0,2.491-0.508,3.379-1.396l33.804-33.804l19.798-19.83l34.297,7.249
				l5.853,1.237c5.947,1.237,11.723,5.98,15.308,11.564l9.17-3.553c-4.791-8.519-13.404-15.467-22.493-17.417l-7.836-1.633v-85.752
				c-0.011-77.271-40.873-106.618-91.288-106.618c-44.513,0-81.537,22.907-89.564,81.411
				c-13.135-13.912-31.394-19.957-51.652-19.957c-39.784,0-72.066,23.16-72.066,84.187v3.284
				c-8.328-25.619-28.346-36.026-51.808-36.026c-30.95,0-56.045,18.004-56.045,65.435v52.601l-4.775,0.984
				c-7.599,1.619-14.563,8.853-15.975,16.513l-5.092,28.68c-0.713,3.981,0.223,7.774,2.633,10.676
				C45.67,409.082,47.367,410.161,49.287,410.906z M325.879,231.461c1.143-0.334,2.316-0.078,3.505,0.586v-9.582h67.689
				l6.012-35.835v37.264h44.924v8.153c1.143-0.667,2.381-0.92,3.553-0.586c3.903,1.159,5.584,8.263,3.76,15.862
				c-1.713,7.376-10.485,12.5-14.324,11.723c-4.266,13.864-14.595,28.903-26.237,39.214c-1.587,1.412-3.188,2.682-4.775,3.903
				c-1.856,1.396-3.777,2.682-5.633,3.79c0.777,0.143,1.619,0.253,2.316,0.395l27.825,5.869l-22.146,22.162l-23.604,23.636
				l-23.636-23.636l-22.162-22.162l27.903-5.869c0.651-0.143,1.364-0.237,2.015-0.334c-1.888-1.079-3.744-2.381-5.662-3.777
				c-1.619-1.221-3.22-2.475-4.807-3.887c-11.454-10.232-21.527-25.159-25.81-39.324c-3.806,0.888-12.643-4.25-14.437-11.707
				C320.262,239.725,321.946,232.618,325.879,231.461z M197.847,269.438c0.936-0.269,1.856-0.065,2.792,0.46v-7.583h53.443
				l4.742-28.317v29.441h35.502v6.456c0.872-0.525,1.856-0.729,2.728-0.46c0.159,0.032,0.253,0.191,0.334,0.253v17.006
				c-2.711,3.077-6.536,4.949-8.662,4.522c-3.346,10.945-11.532,22.827-20.734,30.996c-1.237,1.079-2.507,2.109-3.777,3.045
				c-1.49,1.095-2.983,2.109-4.409,2.983c0.586,0.126,1.237,0.223,1.775,0.334l6.251,1.286c-2.079,3.362-3.631,6.948-4.298,10.676
				l-2.76,15.529l-13.326,13.326l-18.622-18.655l-17.53-17.514l22.033-4.632c0.46-0.126,1.046-0.223,1.603-0.285
				c-1.474-0.888-2.983-1.888-4.489-2.983c-1.27-0.985-2.507-1.966-3.728-3.045c-9.073-8.075-17.006-19.86-20.449-31.061
				c-2.983,0.697-9.977-3.33-11.389-9.232C193.451,275.958,194.785,270.325,197.847,269.438z M85.012,301.165
				c0.713-0.191,1.428-0.032,2.173,0.366v-5.902h41.546l3.648-22.004v22.891h27.572v4.998c0.713-0.382,1.49-0.57,2.173-0.35
				c2.41,0.713,3.443,5.06,2.332,9.74c-1.095,4.522-6.456,7.661-8.804,7.185c-2.601,8.519-8.963,17.735-16.164,24.096
				c-0.968,0.872-1.921,1.649-2.951,2.381c-1.143,0.872-2.3,1.649-3.443,2.316c0.492,0.094,0.985,0.159,1.428,0.253l15.895,3.33
				c-0.334,0.761-0.619,1.539-0.842,2.316l-11.564,11.564l-14.483,14.515l-14.499-14.515l-13.627-13.611l17.132-3.602
				c0.382-0.094,0.81-0.159,1.237-0.223c-1.173-0.651-2.316-1.461-3.489-2.316c-0.985-0.761-2.015-1.539-2.951-2.394
				c-7.026-6.251-13.277-15.451-15.862-24.129c-2.348,0.554-7.803-2.617-8.882-7.185C81.602,306.241,82.632,301.878,85.012,301.165z
				 M527.136,305.399l-6.378,13.977l17.355,9.614l-198.766,76.953l-130.65-27.316L0,431.799l3.171,15.244L208.98,394.6
				l131.492,27.443l203.003-78.57l-9.17,20.417l12.675,6.948l19.671-43.577L527.136,305.399z M547.155,333.985l0.46,0.269
				l-0.223,0.525L547.155,333.985z M324.547,370.202c2.633,0,4.775,2.125,4.775,4.775v20.637l-9.582-1.982v-18.638
				C319.74,372.311,321.882,370.202,324.547,370.202z M84.203,386.334c1.649,0,2.951,1.302,2.951,2.919v12.024l-5.853,1.49v-13.514
				C81.3,387.635,82.599,386.334,84.203,386.334z"/>
		</g>
	</g>
</g>
<g>
</g>
<g>
</g>
<g>
</g>
<g>
</g>
<g>
</g>
<g>
</g>
<g>
</g>
<g>
</g>
<g>
</g>
<g>
</g>
<g>
</g>
<g>
</g>
<g>
</g>
<g>
</g>
<g>
</g>
</svg>
