<?xml version="1.0" encoding="iso-8859-1"?>
<!-- Generator: Adobe Illustrator 18.1.1, SVG Export Plug-In . SVG Version: 6.00 Build 0)  -->
<svg version="1.1" id="Capa_1" xmlns="http://www.w3.org/2000/svg" xmlns:xlink="http://www.w3.org/1999/xlink" x="0px" y="0px"
	 viewBox="0 0 412.446 412.446" style="enable-background:new 0 0 412.446 412.446;" xml:space="preserve">
<g>
	<g>
		<path style="fill:#010002;" d="M411.597,412.446H220.446l69.212-69.212l-21.654-21.622h31.155l-39.039-39.039
			C347.351,291.122,411.597,324.324,411.597,412.446z M144.442,321.564h-31.139l39.023-39.007
			C65.079,291.106,0.849,324.324,0.849,412.446h191.167l-69.196-69.212L144.442,321.564z M284.025,141.864
			c-2.824,38.77-19.354,84.044-43.117,108.331h91.818v-102.43C332.723,40.674,276.092,0,206.23,0S79.72,40.674,79.72,147.766v102.43
			h91.818c-22.969-23.478-39.308-66.656-42.91-104.538l0.92-0.065c39.499,0,73.653-16.355,92.404-40.499
			C235.657,122.733,257.674,135.949,284.025,141.864z"/>
	</g>
</g>
<g>
</g>
<g>
</g>
<g>
</g>
<g>
</g>
<g>
</g>
<g>
</g>
<g>
</g>
<g>
</g>
<g>
</g>
<g>
</g>
<g>
</g>
<g>
</g>
<g>
</g>
<g>
</g>
<g>
</g>
</svg>
