<?xml version="1.0" encoding="iso-8859-1"?>
<!-- Generator: Adobe Illustrator 16.0.0, SVG Export Plug-In . SVG Version: 6.00 Build 0)  -->
<!DOCTYPE svg PUBLIC "-//W3C//DTD SVG 1.1//EN" "http://www.w3.org/Graphics/SVG/1.1/DTD/svg11.dtd">
<svg version="1.1" id="Capa_1" xmlns="http://www.w3.org/2000/svg" xmlns:xlink="http://www.w3.org/1999/xlink" x="0px" y="0px"
	 width="25.168px" height="25.168px" viewBox="0 0 25.168 25.168" style="enable-background:new 0 0 25.168 25.168;"
	 xml:space="preserve">
<g>
	<g>
		<path d="M18.726,21.188l-0.384-2.15c-0.103-0.572-0.629-1.114-1.196-1.235L14.295,17.2c0.535-0.521,0.949-1.24,1.224-1.966
			c0.353-0.129,0.707-0.442,0.812-0.854c0.135-0.542-0.009-1.025-0.347-1.236v-0.386c0.308-0.928,0.47-2.443-0.93-3.261
			c-0.628-0.366-1.146-0.39-1.538-0.263c-0.062-0.159,0.121-0.389,0.121-0.389c-0.322-0.013-0.492,0.159-0.564,0.258
			c-0.428-0.199-0.991-0.283-1.713-0.133c-2.311,0.486-2.606,3.514-2.184,4.177c-0.33,0.213-0.471,0.692-0.334,1.23
			c0.102,0.413,0.459,0.729,0.814,0.855c0.268,0.725,0.678,1.444,1.213,1.965l-2.848,0.6c-0.568,0.121-1.095,0.663-1.195,1.235
			l-0.383,2.151c-0.053,0.299,0.018,0.582,0.199,0.799c0.181,0.217,0.446,0.334,0.752,0.334h10.378c0.304,0,0.569-0.117,0.752-0.334
			C18.707,21.771,18.776,21.486,18.726,21.188z M18.188,21.703c-0.099,0.115-0.242,0.178-0.414,0.178h-2.019v-0.516h2.531
			C18.289,21.493,18.263,21.611,18.188,21.703z M7.395,21.881c-0.172,0-0.315-0.062-0.414-0.178
			c-0.073-0.092-0.104-0.21-0.102-0.338h2.533v0.516H7.395L7.395,21.881z M9.852,21.881V20.62c0-0.122-0.098-0.222-0.219-0.222
			c-0.123,0-0.221,0.1-0.221,0.222v0.304H6.937l0.321-1.809c0.072-0.396,0.464-0.801,0.854-0.883l2.015-0.426
			c0.654,0.648,1.543,1.021,2.472,1.021c0.934,0,1.804-0.361,2.466-1.019l1.988,0.42c0.393,0.084,0.782,0.487,0.852,0.885
			l0.322,1.809h-2.474v-0.304c0-0.122-0.099-0.224-0.221-0.224c-0.123,0-0.222,0.102-0.222,0.224v1.261L9.852,21.881L9.852,21.881z
			 M12.584,17.963c0.469,0,0.893-0.152,1.268-0.404l0.681,0.145c-0.546,0.443-1.218,0.688-1.933,0.688
			c-0.709,0-1.393-0.25-1.936-0.691l0.645-0.137C11.688,17.811,12.111,17.963,12.584,17.963z M10.023,14.803
			c-0.188,0.041-0.621-0.195-0.707-0.537c-0.088-0.352-0.004-0.679,0.186-0.73c0.057-0.018,0.115-0.003,0.174,0.025v-0.521
			c0.002-0.001,0.002-0.003,0.004-0.004c-0.002-0.008-0.002-0.018-0.004-0.025v-0.179c0.047-0.441,0.467-1.285,2.775-0.528
			c0.795,0.261,1.285-0.151,1.533-0.7c0.783,0.088,1.307,0.979,1.505,1.527v0.435c0.029-0.017,0.062-0.026,0.089-0.03
			c0,0.003,0,0.011-0.002,0.014c0.008,0.007,0.021,0.002,0.034-0.014c0.019,0,0.035-0.003,0.054,0.003
			c0.19,0.054,0.274,0.381,0.188,0.73c-0.088,0.34-0.519,0.573-0.705,0.537c-0.25,0.762-0.748,1.733-1.458,2.271
			c-0.084,0.062-0.172,0.119-0.265,0.171c-0.131,0.071-0.266,0.13-0.405,0.168s-0.285,0.062-0.437,0.062
			c-0.153,0-0.301-0.021-0.442-0.062c-0.142-0.038-0.275-0.097-0.404-0.167c-0.094-0.051-0.185-0.105-0.269-0.171
			C10.764,16.543,10.273,15.582,10.023,14.803z M16.776,2.236V0H15.66v2.236H9.508V0H8.391v2.236H3.216v22.932h18.736V2.236H16.776z
			 M20.834,24.05h-16.5V3.355h4.057v2.071c-0.289,0.188-0.49,0.496-0.49,0.865c0,0.58,0.469,1.049,1.049,1.049
			c0.578,0,1.049-0.469,1.049-1.049c0-0.369-0.202-0.679-0.489-0.864V3.355h6.152v2.071c-0.288,0.188-0.489,0.496-0.489,0.865
			c0,0.58,0.469,1.049,1.049,1.049c0.578,0,1.049-0.469,1.049-1.049c0-0.369-0.201-0.679-0.49-0.864V3.355h4.058v20.694
			L20.834,24.05L20.834,24.05z"/>
	</g>
</g>
<g>
</g>
<g>
</g>
<g>
</g>
<g>
</g>
<g>
</g>
<g>
</g>
<g>
</g>
<g>
</g>
<g>
</g>
<g>
</g>
<g>
</g>
<g>
</g>
<g>
</g>
<g>
</g>
<g>
</g>
</svg>
