<?xml version="1.0" encoding="iso-8859-1"?>
<!-- Generator: Adobe Illustrator 16.0.0, SVG Export Plug-In . SVG Version: 6.00 Build 0)  -->
<!DOCTYPE svg PUBLIC "-//W3C//DTD SVG 1.1//EN" "http://www.w3.org/Graphics/SVG/1.1/DTD/svg11.dtd">
<svg version="1.1" id="Capa_1" xmlns="http://www.w3.org/2000/svg" xmlns:xlink="http://www.w3.org/1999/xlink" x="0px" y="0px"
	 width="26.312px" height="26.312px" viewBox="0 0 26.312 26.312" style="enable-background:new 0 0 26.312 26.312;"
	 xml:space="preserve">
<g>
	<path d="M26.312,26.156H14.26l4.363-4.363l-1.365-1.363h1.965l-2.461-2.461C22.261,18.507,26.312,20.601,26.312,26.156z
		 M8.107,21.792l4.363,4.363H0.418c0-1.257,0.218-2.329,0.603-3.254C0.392,22.255,0,21.376,0,20.407
		c0-1.976,1.607-3.583,3.584-3.583c1.299,0,2.428,0.7,3.057,1.736c1.025-0.28,2.14-0.477,3.326-0.592l-2.46,2.459h1.964
		L8.107,21.792z M1.001,20.407c0,0.572,0.193,1.097,0.511,1.524c0.471,0.639,1.222,1.059,2.073,1.059
		c1.425,0,2.584-1.159,2.584-2.583c0-0.577-0.196-1.104-0.519-1.536c-0.472-0.632-1.218-1.047-2.065-1.047
		C2.16,17.823,1.001,18.983,1.001,20.407z M18.269,9.099c-0.18,2.444-1.221,5.298-2.719,6.829h5.787V9.471
		c0-6.751-3.568-9.315-7.973-9.315C8.96,0.156,5.39,2.72,5.39,9.471v6.457h5.788c-1.449-1.479-2.479-4.202-2.705-6.589L8.53,9.333
		c2.49,0,4.643-1.031,5.825-2.553C15.22,7.893,16.607,8.726,18.269,9.099z M1.893,21.4l1.138,0.923l2.651-2.558l-0.348-0.359
		l-0.289-0.3l-0.058-0.06l-0.16,0.152L4.26,19.746l-1.286,1.241l-0.406-0.331l-0.329-0.268l-0.255-0.207L1.669,20.57l-0.314,0.388
		L1.893,21.4z"/>
</g>
<g>
</g>
<g>
</g>
<g>
</g>
<g>
</g>
<g>
</g>
<g>
</g>
<g>
</g>
<g>
</g>
<g>
</g>
<g>
</g>
<g>
</g>
<g>
</g>
<g>
</g>
<g>
</g>
<g>
</g>
</svg>
