<?xml version="1.0" encoding="iso-8859-1"?>
<!-- Generator: Adobe Illustrator 16.0.0, SVG Export Plug-In . SVG Version: 6.00 Build 0)  -->
<!DOCTYPE svg PUBLIC "-//W3C//DTD SVG 1.1//EN" "http://www.w3.org/Graphics/SVG/1.1/DTD/svg11.dtd">
<svg version="1.1" id="Capa_1" xmlns="http://www.w3.org/2000/svg" xmlns:xlink="http://www.w3.org/1999/xlink" x="0px" y="0px"
	 width="27.434px" height="27.434px" viewBox="0 0 27.434 27.434" style="enable-background:new 0 0 27.434 27.434;"
	 xml:space="preserve">
<g>
	<g>
		<path d="M20.107,18.244l-0.232,0.232l-1.279-1.277c3.416-4.125,3.197-10.265-0.664-14.125c-4.096-4.097-10.763-4.097-14.86,0
			C-1,7.145-1.022,13.751,3,17.854c0.023,0.026,0.047,0.056,0.072,0.08c0.131,0.131,0.269,0.245,0.403,0.367
			c0.07,0.064,0.143,0.132,0.214,0.195c0.228,0.193,0.46,0.373,0.699,0.543c0.321,0.229,0.65,0.445,0.989,0.636
			c0.371,0.207,0.752,0.386,1.141,0.544c2.544,1.039,5.412,1.038,7.957,0c0.391-0.159,0.772-0.336,1.146-0.544
			c0.339-0.188,0.668-0.404,0.988-0.636c0.196-0.141,0.396-0.283,0.588-0.44l0.765,0.766l0.514,0.514l-0.231,0.232l7.322,7.323
			l1.867-1.866L20.107,18.244z M16.529,16.535c-0.665,0.664-1.416,1.189-2.215,1.59v-0.002c0-0.152-0.123-0.273-0.272-0.273
			c-0.148,0-0.272,0.121-0.272,0.273v0.254c-2.155,0.892-4.602,0.857-6.737-0.092v-0.162c0-0.152-0.12-0.273-0.271-0.273
			c-0.123,0-0.206,0.087-0.243,0.197c-0.735-0.389-1.429-0.893-2.048-1.512c-0.187-0.187-0.356-0.379-0.521-0.578
			c0.186-0.373,0.559-0.699,0.939-0.78l2.483-0.521c0.809,0.799,1.903,1.26,3.048,1.26c1.155,0,2.229-0.446,3.042-1.254l2.454,0.517
			c0.434,0.092,0.849,0.501,0.997,0.936C16.787,16.253,16.666,16.401,16.529,16.535z M6.813,8.73V8.51
			c0.058-0.547,0.574-1.587,3.425-0.653c0.979,0.321,1.585-0.187,1.892-0.863c0.967,0.108,1.612,1.208,1.859,1.884v0.535
			c0.038-0.019,0.071-0.033,0.106-0.039c0,0.004,0,0.014-0.003,0.017c0.008,0.008,0.025,0.002,0.043-0.017
			c0.022,0,0.045-0.003,0.067,0.003c0.232,0.065,0.335,0.47,0.228,0.902c-0.104,0.418-0.635,0.709-0.867,0.665
			c-0.31,0.938-0.924,2.138-1.8,2.8c-0.104,0.08-0.214,0.146-0.327,0.211c-0.156,0.088-0.323,0.161-0.501,0.207
			c-0.171,0.048-0.35,0.077-0.538,0.077s-0.369-0.028-0.544-0.077c-0.176-0.046-0.342-0.116-0.502-0.206
			c-0.112-0.063-0.225-0.131-0.329-0.21c-0.869-0.655-1.475-1.841-1.78-2.801c-0.232,0.05-0.769-0.242-0.873-0.665
			c-0.11-0.432-0.007-0.837,0.227-0.902c0.072-0.02,0.146-0.004,0.217,0.034V8.766c0,0,0.003-0.003,0.005-0.004
			C6.816,8.753,6.813,8.741,6.813,8.73z M8.831,14.346c0.464,0.312,0.988,0.498,1.568,0.498s1.104-0.188,1.565-0.499l0.84,0.176
			c-0.674,0.55-1.501,0.849-2.386,0.849c-0.873,0-1.716-0.311-2.387-0.855L8.831,14.346z M17.303,15.628
			c-0.271-0.479-0.757-0.875-1.273-0.985l-3.519-0.741c0.663-0.641,1.171-1.529,1.51-2.424c0.433-0.158,0.868-0.546,1-1.052
			c0.166-0.669-0.01-1.27-0.427-1.529V8.424c0.378-1.145,0.579-3.018-1.145-4.024c-0.774-0.45-1.414-0.479-1.898-0.322
			c-0.074-0.197,0.15-0.48,0.15-0.48c-0.397-0.014-0.608,0.197-0.694,0.317c-0.53-0.246-1.226-0.349-2.114-0.162
			c-2.85,0.598-3.218,4.334-2.692,5.153c-0.408,0.262-0.582,0.855-0.413,1.52c0.125,0.508,0.565,0.897,1.004,1.055
			c0.332,0.894,0.837,1.783,1.497,2.423l-3.514,0.739C4.31,14.745,3.881,15.081,3.6,15.498C1.189,12.164,1.474,7.476,4.472,4.476
			c3.325-3.324,8.734-3.324,12.061,0C19.567,7.514,19.82,12.291,17.303,15.628z"/>
	</g>
</g>
<g>
</g>
<g>
</g>
<g>
</g>
<g>
</g>
<g>
</g>
<g>
</g>
<g>
</g>
<g>
</g>
<g>
</g>
<g>
</g>
<g>
</g>
<g>
</g>
<g>
</g>
<g>
</g>
<g>
</g>
</svg>
