<?xml version="1.0" encoding="iso-8859-1"?>
<!-- Generator: Adobe Illustrator 16.0.0, SVG Export Plug-In . SVG Version: 6.00 Build 0)  -->
<!DOCTYPE svg PUBLIC "-//W3C//DTD SVG 1.1//EN" "http://www.w3.org/Graphics/SVG/1.1/DTD/svg11.dtd">
<svg version="1.1" id="Capa_1" xmlns="http://www.w3.org/2000/svg" xmlns:xlink="http://www.w3.org/1999/xlink" x="0px" y="0px"
	 width="30.5px" height="30.5px" viewBox="0 0 30.5 30.5" style="enable-background:new 0 0 30.5 30.5;" xml:space="preserve">
<g>
	<path d="M25.144,22.479V11.557C25.144,3.18,20.713,0,15.25,0C9.787,0,5.358,3.18,5.358,11.557v10.921
		C3.764,24.57,2.805,27.172,2.805,30v0.5h24.891V30C27.695,27.172,26.736,24.568,25.144,22.479z M3.815,29.5
		c0.1-2.32,0.898-4.462,2.185-6.227c0.702-0.963,1.554-1.807,2.515-2.51l2.209,2.51l4.239,4.812c0.095,0.106,0.231,0.17,0.375,0.17
		c0.001,0,0.002,0,0.003,0c0.145-0.001,0.282-0.063,0.376-0.175l4.113-4.809l2.148-2.513c0.963,0.703,1.816,1.548,2.521,2.513
		c1.285,1.765,2.084,3.904,2.185,6.227L3.815,29.5L3.815,29.5z M9.649,11.276c3.074,0,5.755-1.287,7.226-3.203
		c1.066,1.391,2.771,2.448,4.803,2.924v1.184c0.128-0.074,0.259-0.103,0.384-0.067c0.422,0.126,0.604,0.896,0.412,1.722
		c-0.188,0.802-1.142,1.354-1.554,1.271c-0.321,1.04-0.961,2.141-1.741,3.092c-0.113,0.139-0.228,0.271-0.347,0.402
		c-0.127,0.143-0.259,0.277-0.393,0.409c0.959,0.279,1.863,0.687,2.703,1.192l-2.627,3.068l-1.994,2.33l-0.508-2.33l-0.252-1.154
		l0.952-0.952l-0.595-0.595l-0.868-0.866l-0.875,0.874l-0.588,0.587l0.952,0.952l-0.252,1.154l-0.482,2.213l-1.948-2.213
		l-2.703-3.066c0.831-0.502,1.725-0.907,2.675-1.188c-0.132-0.132-0.261-0.268-0.388-0.408c-0.117-0.131-0.231-0.267-0.343-0.402
		c-0.763-0.945-1.385-2.045-1.706-3.105c-0.414,0.097-1.373-0.46-1.562-1.268c-0.194-0.824-0.01-1.596,0.411-1.722
		c0.125-0.035,0.255-0.007,0.384,0.064v-0.841L9.649,11.276z"/>
</g>
<g>
</g>
<g>
</g>
<g>
</g>
<g>
</g>
<g>
</g>
<g>
</g>
<g>
</g>
<g>
</g>
<g>
</g>
<g>
</g>
<g>
</g>
<g>
</g>
<g>
</g>
<g>
</g>
<g>
</g>
</svg>
