<?xml version="1.0" encoding="iso-8859-1"?>
<!-- Generator: Adobe Illustrator 16.0.0, SVG Export Plug-In . SVG Version: 6.00 Build 0)  -->
<!DOCTYPE svg PUBLIC "-//W3C//DTD SVG 1.1//EN" "http://www.w3.org/Graphics/SVG/1.1/DTD/svg11.dtd">
<svg version="1.1" id="Capa_1" xmlns="http://www.w3.org/2000/svg" xmlns:xlink="http://www.w3.org/1999/xlink" x="0px" y="0px"
	 width="39.603px" height="39.603px" viewBox="0 0 39.603 39.603" style="enable-background:new 0 0 39.603 39.603;"
	 xml:space="preserve">
<g>
	<path d="M39.579,26.546l-0.439-2.468c-0.133-0.75-0.819-1.459-1.563-1.615l-0.401-0.085v-5.225c0-4.079-2.158-5.628-4.816-5.628
		c-2.662,0-4.818,1.549-4.818,5.628v5.198l-0.528,0.111c-0.118,0.024-0.229,0.084-0.341,0.135v-6.461
		c0-5.737-3.035-7.919-6.778-7.919c-3.744,0-6.778,2.182-6.778,7.919v6.472c-0.166-0.096-0.342-0.168-0.521-0.205l-0.4-0.084v-5.225
		c0-4.079-2.158-5.63-4.818-5.63c-2.662,0-4.818,1.551-4.818,5.63v5.195L2.027,22.4c-0.745,0.156-1.432,0.866-1.565,1.616
		l-0.439,2.468c-0.073,0.409,0.029,0.815,0.281,1.117c0.252,0.303,0.636,0.475,1.053,0.475h8.627l-0.232,1.31
		c-0.092,0.517,0.036,1.026,0.352,1.404c0.316,0.379,0.799,0.596,1.323,0.596H28.18c0.524,0,1.009-0.217,1.323-0.596
		c0.316-0.378,0.444-0.89,0.354-1.404l-0.224-1.247h8.616c0.416,0,0.799-0.173,1.052-0.477
		C39.549,27.363,39.653,26.953,39.579,26.546z M35.677,25.539c-0.274,0-0.5,0.224-0.5,0.5v1.1h-5.726l-0.218-1.227
		c-0.176-0.979-1.072-1.905-2.044-2.109l-0.438-0.092c0.138-0.133,0.301-0.236,0.461-0.271l2.262-0.478l1.999,1.155
		c0.077,0.045,0.164,0.067,0.25,0.067c0.051,0,0.1-0.007,0.146-0.021c0.132-0.041,0.243-0.135,0.303-0.26l0.117-0.238l0.117,0.238
		c0.061,0.125,0.171,0.219,0.304,0.26c0.047,0.015,0.097,0.021,0.146,0.021c0.087,0,0.174-0.022,0.25-0.067l1.998-1.154l2.263,0.479
		c0.349,0.072,0.724,0.461,0.787,0.812l0.438,2.468c0.021,0.118-0.001,0.226-0.062,0.3c-0.063,0.075-0.165,0.116-0.285,0.116h-2.069
		v-1.101C36.177,25.763,35.953,25.539,35.677,25.539z M28.866,29.562c0.041,0.229-0.007,0.438-0.135,0.589s-0.325,0.235-0.558,0.235
		h-3.111v-1.751c0-0.275-0.226-0.5-0.5-0.5c-0.276,0-0.5,0.225-0.5,0.5v1.751h-8.529v-1.751c0-0.275-0.224-0.5-0.5-0.5
		s-0.5,0.225-0.5,0.5v1.751h-3.113c-0.231,0-0.429-0.084-0.556-0.235s-0.175-0.36-0.135-0.589l0.264-1.483l0.089-0.5l0.089-0.5
		l0.176-0.987c0.103-0.577,0.694-1.188,1.266-1.31l0.636-0.133l0.49-0.104l0.489-0.104l1.311-0.275l0.332-0.069l0.121,0.069
		l2.759,1.597c0.077,0.045,0.164,0.067,0.25,0.067c0.049,0,0.098-0.008,0.146-0.021c0.132-0.041,0.242-0.135,0.303-0.259l0.347-0.71
		l0.347,0.71c0.061,0.124,0.171,0.218,0.303,0.259c0.048,0.016,0.097,0.021,0.146,0.021c0.087,0,0.174-0.022,0.25-0.067l2.761-1.597
		l0.119-0.069l0.333,0.069l1.32,0.279l0.489,0.103l0.49,0.104l0.626,0.131c0.569,0.121,1.163,0.73,1.265,1.31l0.188,1.05l0.09,0.5
		l0.089,0.5L28.866,29.562z M3.921,25.479c-0.276,0-0.5,0.225-0.5,0.5v1.1H1.353c-0.122,0-0.223-0.041-0.286-0.114
		c-0.062-0.074-0.084-0.183-0.063-0.299l0.439-2.47c0.062-0.354,0.438-0.739,0.787-0.812l2.262-0.479l1.999,1.156
		c0.077,0.045,0.164,0.067,0.25,0.067c0.049,0,0.098-0.007,0.146-0.021c0.133-0.041,0.243-0.135,0.304-0.26l0.117-0.238l0.117,0.238
		c0.061,0.124,0.171,0.219,0.303,0.26c0.048,0.014,0.097,0.021,0.146,0.021c0.087,0,0.173-0.022,0.25-0.067l1.999-1.156l2.262,0.479
		c0.181,0.038,0.366,0.161,0.514,0.318l-0.488,0.104c-0.972,0.204-1.87,1.131-2.044,2.11l-0.207,1.163H4.423v-1.1
		C4.421,25.701,4.197,25.479,3.921,25.479z M3.99,17.368c0.061-0.018,0.124-0.004,0.187,0.031v-0.173h3.689l0.336-2.008v2.088h2.235
		v0.093c0.062-0.035,0.126-0.049,0.187-0.031c0.205,0.061,0.295,0.436,0.201,0.837c-0.092,0.39-0.556,0.66-0.756,0.618
		c-0.33,1.07-1.341,2.265-2.253,2.625c-0.174,0.068-0.346,0.117-0.508,0.117c-0.167,0-0.343-0.049-0.521-0.117
		c-0.919-0.354-1.904-1.528-2.235-2.625c-0.201,0.046-0.668-0.226-0.761-0.618C3.695,17.803,3.784,17.428,3.99,17.368z
		 M5.113,22.109l0.142-0.291l0.526,0.306l0.649,0.375l0.239,0.139l-0.081,0.166l-0.061,0.125l-0.216-0.125l-0.355-0.205
		l-0.648-0.375L5.113,22.109z M9.306,22.222l-0.647,0.374l-0.355,0.206l-0.216,0.125l-0.061-0.125l-0.082-0.166l0.239-0.14
		l0.649-0.375l0.526-0.305l0.142,0.291L9.306,22.222z M22.262,23.787l-0.652,0.377l-0.799,0.463l-0.227-0.463l-0.154-0.313
		l0.562-0.323l0.659-0.381l0.646-0.375l0.479-0.275l0.205,0.421l0.174,0.356l-0.242,0.139L22.262,23.787z M17.336,23.787
		l-0.647-0.375l-0.242-0.142l0.174-0.356l0.205-0.418l0.477,0.273l0.647,0.375l0.658,0.381l0.56,0.323l-0.154,0.313l-0.226,0.462
		l-0.798-0.462L17.336,23.787z M20.586,16.323l0.472-2.826v2.938h3.146v0.13c0.087-0.05,0.177-0.069,0.263-0.044
		c0.289,0.086,0.415,0.612,0.282,1.178c-0.129,0.549-0.781,0.928-1.064,0.871c-0.552,1.79-2.468,3.855-3.885,3.855
		c-1.456,0-3.321-2.019-3.876-3.855c-0.283,0.063-0.94-0.317-1.07-0.871c-0.133-0.565-0.007-1.092,0.281-1.178
		c0.086-0.025,0.175-0.006,0.263,0.044v-0.242H20.586z M28.974,17.427c0.062-0.018,0.125-0.005,0.188,0.031v-0.172h3.688l0.338-2.01
		v2.09h2.233v0.092c0.062-0.036,0.125-0.049,0.188-0.031c0.206,0.061,0.294,0.436,0.198,0.837c-0.091,0.391-0.555,0.661-0.756,0.619
		c-0.33,1.068-1.341,2.266-2.254,2.624c-0.174,0.067-0.346,0.116-0.507,0.116c-0.167,0-0.343-0.049-0.52-0.116
		c-0.921-0.354-1.905-1.528-2.235-2.624c-0.201,0.045-0.668-0.226-0.761-0.619C28.679,17.863,28.771,17.488,28.974,17.427z
		 M30.098,22.168l0.144-0.29l0.522,0.303l0.649,0.375l0.241,0.14l-0.081,0.166l-0.062,0.127l-0.219-0.127l-0.353-0.205l-0.646-0.375
		L30.098,22.168z M34.291,22.281l-0.646,0.375l-0.354,0.205l-0.219,0.127l-0.063-0.127l-0.08-0.166l0.241-0.14l0.649-0.376
		l0.522-0.303l0.144,0.29L34.291,22.281z"/>
</g>
<g>
</g>
<g>
</g>
<g>
</g>
<g>
</g>
<g>
</g>
<g>
</g>
<g>
</g>
<g>
</g>
<g>
</g>
<g>
</g>
<g>
</g>
<g>
</g>
<g>
</g>
<g>
</g>
<g>
</g>
</svg>
