<?xml version="1.0" encoding="iso-8859-1"?>
<!-- Generator: Adobe Illustrator 16.0.0, SVG Export Plug-In . SVG Version: 6.00 Build 0)  -->
<!DOCTYPE svg PUBLIC "-//W3C//DTD SVG 1.1//EN" "http://www.w3.org/Graphics/SVG/1.1/DTD/svg11.dtd">
<svg version="1.1" id="Capa_1" xmlns="http://www.w3.org/2000/svg" xmlns:xlink="http://www.w3.org/1999/xlink" x="0px" y="0px"
	 width="41.434px" height="41.433px" viewBox="0 0 41.434 41.433" style="enable-background:new 0 0 41.434 41.433;"
	 xml:space="preserve">
<g>
	<path d="M41.409,29.011l-0.446-2.52c-0.136-0.763-0.832-1.482-1.591-1.646l-0.473-0.101V20.51c0-4.167-2.203-5.749-4.92-5.749
		c-2.718,0-4.921,1.582-4.921,5.749v3.873c-0.188-0.095-0.379-0.172-0.577-0.213l-0.639-0.136v-6.366
		c0-6.036-3.191-8.327-7.127-8.327s-7.127,2.291-7.127,8.327v6.366l-0.639,0.136c-0.196,0.041-0.39,0.118-0.575,0.213V20.51
		c0-4.167-2.203-5.749-4.921-5.749c-2.717,0-4.92,1.582-4.92,5.749v4.235l-0.475,0.101c-0.756,0.162-1.453,0.883-1.588,1.644
		l-0.447,2.521c-0.074,0.414,0.028,0.828,0.283,1.133c0.256,0.307,0.645,0.479,1.064,0.479h8.8c0.046,0.314,0.163,0.612,0.364,0.854
		c0.328,0.392,0.826,0.615,1.371,0.615h17.616c0.543,0,1.043-0.226,1.37-0.615c0.202-0.241,0.319-0.539,0.365-0.854h8.8
		c0.422,0,0.811-0.175,1.063-0.479C41.382,29.839,41.486,29.425,41.409,29.011z M37.438,28.076c-0.275,0-0.5,0.225-0.5,0.5v1.049
		h-5.746l-0.168-0.938v-0.11c0-0.082-0.022-0.156-0.06-0.226l-0.354-1.979c-0.002-0.01-0.008-0.021-0.01-0.031
		c-0.055-0.285-0.172-0.562-0.328-0.824l0.062-0.012l0.734,0.836l2.578,2.926c0.096,0.108,0.231,0.17,0.375,0.17
		c0.002,0,0.002,0,0.004,0c0.146,0,0.282-0.062,0.377-0.174l2.5-2.922l0.717-0.838l1.279,0.27l0.268,0.057
		c0.359,0.076,0.746,0.478,0.812,0.841l0.448,2.521c0.021,0.123-0.001,0.234-0.065,0.312c-0.065,0.078-0.172,0.122-0.3,0.122h-2.124
		v-1.048C37.938,28.3,37.714,28.076,37.438,28.076z M30.13,30.835c-0.141,0.166-0.354,0.258-0.604,0.258h-3.3v-1.742
		c0-0.275-0.224-0.5-0.5-0.5s-0.5,0.225-0.5,0.5v1.742H16.21v-1.742c0-0.275-0.225-0.5-0.5-0.5c-0.276,0-0.5,0.225-0.5,0.5v1.742
		h-3.301c-0.25,0-0.465-0.092-0.604-0.258c-0.051-0.061-0.077-0.137-0.104-0.212c-0.012-0.03-0.03-0.056-0.037-0.089
		c-0.022-0.104-0.026-0.219-0.006-0.338l0.014-0.074l0.089-0.5l0.151-0.855l0.396-2.221c0.013-0.07,0.054-0.139,0.077-0.207
		c0.075-0.211,0.191-0.414,0.354-0.598c0.045-0.051,0.09-0.097,0.139-0.144c0.107-0.101,0.219-0.194,0.341-0.269
		c0.144-0.086,0.293-0.149,0.442-0.184l0.271-0.057l0.159-0.033l1.927-0.404l1.284,1.457l3.604,4.09
		c0.096,0.107,0.231,0.17,0.375,0.17c0.002,0,0.002,0,0.004,0c0.146,0,0.283-0.063,0.377-0.174l3.497-4.086l1.25-1.461l1.938,0.408
		l0.16,0.033l0.271,0.057c0.148,0.031,0.299,0.098,0.441,0.184c0.122,0.072,0.233,0.168,0.342,0.271
		c0.049,0.048,0.094,0.091,0.137,0.142c0.162,0.184,0.277,0.387,0.354,0.598c0.022,0.068,0.063,0.139,0.077,0.207l0.396,2.229
		l0.151,0.851l0.089,0.5l0.014,0.073c0.021,0.117,0.019,0.232-0.006,0.338c-0.007,0.033-0.025,0.06-0.037,0.089
		C30.206,30.699,30.181,30.775,30.13,30.835z M4,28.076c-0.276,0-0.5,0.225-0.5,0.5v1.049H1.375c-0.128,0-0.232-0.043-0.3-0.121
		c-0.064-0.078-0.088-0.189-0.065-0.314l0.448-2.521c0.064-0.361,0.451-0.763,0.811-0.839l0.268-0.059l1.272-0.268l0.736,0.836
		l2.58,2.928c0.095,0.107,0.231,0.17,0.375,0.17c0.001,0,0.002,0,0.004,0c0.146-0.002,0.282-0.063,0.376-0.176l2.5-2.922
		l0.716-0.836l0.065,0.014c-0.158,0.26-0.274,0.537-0.33,0.822c-0.002,0.012-0.006,0.021-0.008,0.031l-0.354,1.981
		c-0.034,0.068-0.059,0.144-0.059,0.224v0.104l-0.168,0.943H4.497v-1.048C4.5,28.3,4.276,28.076,4,28.076z M30.594,20.789
		c0.062-0.019,0.127-0.004,0.188,0.031v-0.565h3.814l0.321-1.915v1.991h2.257v0.49c0.062-0.036,0.128-0.051,0.19-0.032
		c0.209,0.062,0.302,0.445,0.203,0.854c-0.095,0.397-0.565,0.675-0.771,0.634c-0.189,0.614-0.605,1.272-1.099,1.799
		c-0.143,0.151-0.289,0.293-0.439,0.418c-0.205,0.168-0.413,0.299-0.621,0.397c0.089,0.013,0.185,0.021,0.256,0.035l1.609,0.34
		l-0.918,1.07l-1.042,1.219l-0.267-1.219l-0.045-0.205l0.473-0.476l-0.604-0.604l-0.124-0.123l-0.125,0.123l-0.602,0.604
		l0.473,0.476l-0.045,0.205L33.426,27.5l-1.026-1.164l-0.943-1.072l1.607-0.338c0.067-0.015,0.158-0.021,0.24-0.033
		c-0.21-0.1-0.419-0.229-0.624-0.396c-0.151-0.125-0.298-0.266-0.438-0.418c-0.48-0.521-0.887-1.176-1.075-1.805
		c-0.206,0.047-0.685-0.229-0.777-0.632C30.292,21.236,30.384,20.852,30.594,20.789z M16.641,20.224
		c-0.3,0.068-0.99-0.331-1.126-0.913c-0.141-0.594-0.009-1.148,0.295-1.24c0.093-0.024,0.185-0.005,0.276,0.047v-0.819h5.526
		l0.465-2.774v2.886h3.271v0.709c0.093-0.053,0.185-0.072,0.273-0.048c0.306,0.092,0.438,0.646,0.298,1.24
		c-0.138,0.576-0.821,0.977-1.118,0.915c-0.299,0.969-0.979,2.011-1.772,2.798c-0.146,0.147-0.301,0.286-0.455,0.413
		c-0.187,0.152-0.373,0.283-0.562,0.398c0.021,0.004,0.056,0.006,0.078,0.012l2.701,0.568l-1.45,1.694l-1.747,2.037l-0.444-2.037
		l-0.065-0.301l0.687-0.687l-0.875-0.875l-0.181-0.177l-0.18,0.18l-0.873,0.874l0.686,0.687l-0.064,0.301l-0.428,1.957l-1.725-1.957
		l-1.492-1.694l2.704-0.568c0.017-0.004,0.038-0.006,0.056-0.008c-0.189-0.115-0.377-0.246-0.562-0.396
		c-0.156-0.129-0.311-0.267-0.458-0.416C17.601,22.25,16.94,21.214,16.641,20.224z M4.641,22.277
		c-0.206,0.047-0.683-0.229-0.777-0.633c-0.097-0.408-0.006-0.792,0.205-0.854c0.062-0.02,0.127-0.004,0.19,0.031v-0.565h3.813
		l0.32-1.915v1.991h2.258v0.49c0.063-0.036,0.127-0.051,0.19-0.032c0.209,0.062,0.301,0.445,0.204,0.854
		c-0.096,0.398-0.567,0.676-0.771,0.635c-0.189,0.615-0.605,1.271-1.098,1.799c-0.143,0.15-0.289,0.293-0.441,0.418
		c-0.205,0.168-0.412,0.299-0.621,0.398c0.09,0.012,0.186,0.02,0.258,0.035l1.607,0.338l-0.916,1.072l-1.044,1.219l-0.266-1.219
		l-0.045-0.207l0.473-0.475l-0.603-0.603L7.452,24.93l-0.125,0.125l-0.603,0.603l0.474,0.475l-0.045,0.207l-0.254,1.162
		l-1.024-1.162l-0.944-1.072l1.608-0.338c0.067-0.016,0.157-0.021,0.239-0.033c-0.209-0.1-0.42-0.229-0.623-0.396
		c-0.152-0.124-0.299-0.268-0.439-0.418C5.237,23.56,4.831,22.906,4.641,22.277z"/>
</g>
<g>
</g>
<g>
</g>
<g>
</g>
<g>
</g>
<g>
</g>
<g>
</g>
<g>
</g>
<g>
</g>
<g>
</g>
<g>
</g>
<g>
</g>
<g>
</g>
<g>
</g>
<g>
</g>
<g>
</g>
</svg>
