<?xml version="1.0" encoding="iso-8859-1"?>
<!-- Generator: Adobe Illustrator 16.0.0, SVG Export Plug-In . SVG Version: 6.00 Build 0)  -->
<!DOCTYPE svg PUBLIC "-//W3C//DTD SVG 1.1//EN" "http://www.w3.org/Graphics/SVG/1.1/DTD/svg11.dtd">
<svg version="1.1" id="Capa_1" xmlns="http://www.w3.org/2000/svg" xmlns:xlink="http://www.w3.org/1999/xlink" x="0px" y="0px"
	 width="29.146px" height="29.146px" viewBox="0 0 29.146 29.146" style="enable-background:new 0 0 29.146 29.146;"
	 xml:space="preserve">
<g>
	<g>
		<path d="M5.018,24.809h0.5v1h-1.5v-1.5h1V24.809z M21.518,4.808h-2v1h2V4.808z M5.018,12.308h-1v2h1V12.308z M4.018,18.309h1v-2
			h-1V18.309z M15.518,5.808h2v-1h-2V5.808z M25.018,8.308h-1v2h1V8.308z M24.018,14.308h1v-2h-1V14.308z M24.018,6.308h1v-1.5h-1.5
			v1h0.5V6.308z M11.518,5.808h2v-1h-2V5.808z M15.518,25.809h2v-1h-2V25.809z M11.518,25.809h2v-1h-2V25.809z M10.318,8.654
			l0.328,1.85c0.047,0.258-0.014,0.502-0.17,0.689c-0.156,0.184-0.386,0.285-0.646,0.285H0.893c-0.26,0-0.49-0.102-0.646-0.285
			c-0.156-0.188-0.217-0.432-0.171-0.689l0.33-1.852C0.493,8.16,0.945,7.693,1.435,7.59l0.31-0.063v-3.3
			C1.745,1.164,3.364,0,5.361,0s3.616,1.162,3.616,4.228v3.3l0.31,0.063C9.777,7.693,10.23,8.159,10.318,8.654z M2.721,5.058
			c0.069,0.297,0.42,0.5,0.571,0.465C3.451,6.046,3.811,6.599,4.23,7c0.059,0.055,0.116,0.107,0.175,0.156
			c0.066,0.055,0.133,0.105,0.2,0.148L3.168,7.607l0.793,0.9L4.906,9.58l0.233-1.073l0.034-0.148l-0.349-0.35l0.438-0.438
			l0.097-0.099l0.097,0.099l0.438,0.438l-0.349,0.35L5.58,8.507l0.242,1.114l0.954-1.114l0.771-0.9L6.102,7.304
			c0.066-0.047,0.134-0.099,0.199-0.15c0.06-0.051,0.118-0.102,0.176-0.156c0.425-0.404,0.795-0.961,0.954-1.475
			c0.15,0.031,0.499-0.17,0.567-0.465c0.071-0.303,0.003-0.582-0.15-0.629C7.801,4.417,7.755,4.427,7.707,4.451V4.093H6.048V2.63
			L5.813,4.035H3.01v0.416C2.962,4.427,2.915,4.417,2.869,4.429C2.719,4.476,2.652,4.755,2.721,5.058z M10.276,10.57L9.947,8.718
			C9.886,8.376,9.55,8.029,9.211,7.957L8.979,7.908L7.971,7.693L7.275,8.505l-1.738,2.033c-0.034,0.041-0.086,0.064-0.141,0.064
			c0,0-0.001,0-0.002,0c-0.054,0-0.104-0.021-0.14-0.062L3.462,8.505L2.748,7.694L1.746,7.907L1.514,7.956
			c-0.339,0.07-0.676,0.418-0.736,0.76l-0.329,1.853c-0.025,0.146,0.006,0.278,0.088,0.379c0.084,0.103,0.21,0.153,0.357,0.153h1.74
			v-0.95c0-0.103,0.084-0.188,0.187-0.188c0.104,0,0.189,0.086,0.189,0.188v0.95h4.705v-0.95c0-0.103,0.085-0.188,0.189-0.188
			c0.103,0,0.187,0.086,0.187,0.188v0.95H9.83c0.148,0,0.274-0.053,0.357-0.153C10.27,10.849,10.302,10.714,10.276,10.57z
			 M7.518,25.809h2v-1h-2V25.809z M29.07,28.17c0.046,0.256-0.016,0.498-0.171,0.687c-0.156,0.188-0.387,0.289-0.646,0.289h-8.938
			c-0.262,0-0.49-0.104-0.646-0.289c-0.155-0.188-0.218-0.431-0.17-0.687l0.328-1.852c0.088-0.492,0.539-0.959,1.029-1.062
			l0.311-0.065v-3.3c0-3.062,1.618-4.225,3.615-4.225s3.616,1.162,3.616,4.225v3.3l0.311,0.065c0.488,0.104,0.941,0.57,1.029,1.062
			L29.07,28.17z M21.145,22.723c0.069,0.295,0.421,0.5,0.571,0.465c0.159,0.525,0.52,1.076,0.938,1.479
			c0.06,0.053,0.115,0.105,0.175,0.156c0.065,0.053,0.134,0.104,0.2,0.148l-1.437,0.303l0.793,0.9l0.943,1.069l0.233-1.069
			l0.033-0.152l-0.35-0.348l0.438-0.438l0.098-0.099l0.098,0.099l0.438,0.438l-0.35,0.348l0.034,0.152l0.242,1.112l0.953-1.112
			l0.771-0.9l-1.444-0.305c0.065-0.045,0.134-0.101,0.199-0.15c0.06-0.049,0.117-0.1,0.176-0.156
			c0.426-0.406,0.795-0.959,0.954-1.475c0.149,0.031,0.498-0.17,0.566-0.465c0.07-0.301,0.004-0.582-0.149-0.629
			c-0.048-0.015-0.094-0.002-0.142,0.022v-0.358h-1.659v-1.463L24.234,21.7h-2.802v0.416c-0.048-0.024-0.095-0.037-0.141-0.022
			C21.142,22.141,21.075,22.422,21.145,22.723z M28.699,28.234l-0.329-1.852c-0.061-0.341-0.396-0.689-0.735-0.765l-0.233-0.046
			l-1.009-0.213l-0.695,0.814l-1.736,2.028c-0.035,0.043-0.088,0.063-0.143,0.063c0,0-0.001,0-0.002,0
			c-0.055,0-0.104-0.021-0.141-0.062l-1.791-2.03l-0.715-0.812l-1.002,0.209l-0.232,0.049c-0.339,0.072-0.676,0.422-0.735,0.764
			l-0.329,1.853c-0.024,0.146,0.007,0.28,0.089,0.379c0.084,0.101,0.211,0.153,0.357,0.153h1.738v-0.948
			c0-0.104,0.084-0.188,0.188-0.188c0.104,0,0.188,0.086,0.188,0.188v0.948h4.705v-0.948c0-0.104,0.085-0.188,0.188-0.188
			s0.188,0.086,0.188,0.188v0.948h1.74c0.146,0,0.272-0.055,0.356-0.153C28.694,28.516,28.725,28.381,28.699,28.234z M4.018,22.309
			h1v-2h-1V22.309z"/>
	</g>
</g>
<g>
</g>
<g>
</g>
<g>
</g>
<g>
</g>
<g>
</g>
<g>
</g>
<g>
</g>
<g>
</g>
<g>
</g>
<g>
</g>
<g>
</g>
<g>
</g>
<g>
</g>
<g>
</g>
<g>
</g>
</svg>
