<?xml version="1.0" encoding="iso-8859-1"?>
<!-- Generator: Adobe Illustrator 16.0.0, SVG Export Plug-In . SVG Version: 6.00 Build 0)  -->
<!DOCTYPE svg PUBLIC "-//W3C//DTD SVG 1.1//EN" "http://www.w3.org/Graphics/SVG/1.1/DTD/svg11.dtd">
<svg version="1.1" id="Capa_1" xmlns="http://www.w3.org/2000/svg" xmlns:xlink="http://www.w3.org/1999/xlink" x="0px" y="0px"
	 width="37.236px" height="37.236px" viewBox="0 0 37.236 37.236" style="enable-background:new 0 0 37.236 37.236;"
	 xml:space="preserve">
<g>
	<g>
		<path d="M13.264,13.12h10.708v-0.214c0-1.217-0.412-2.337-1.1-3.237V4.972C22.872,1.366,20.968,0,18.617,0
			c-2.351,0-4.256,1.366-4.256,4.972v4.697c-0.687,0.899-1.099,2.02-1.099,3.237v0.214H13.264z M15.688,5.211
			c0.055-0.016,0.109-0.003,0.166,0.028V4.877l0.354-0.026c1.322,0,2.475-0.553,3.11-1.378c0.459,0.598,1.19,1.054,2.065,1.258
			v0.508c0.055-0.031,0.107-0.044,0.164-0.028c0.182,0.055,0.26,0.386,0.176,0.741c-0.08,0.345-0.487,0.583-0.668,0.547
			c-0.139,0.447-0.412,0.921-0.748,1.331c-0.048,0.059-0.1,0.116-0.147,0.172c-0.057,0.062-0.111,0.121-0.17,0.177
			c0.414,0.12,0.806,0.294,1.164,0.513l-1.131,1.321l-0.857,1.002l-0.219-1.002l-0.109-0.497l0.411-0.41l-0.256-0.255l-0.375-0.373
			l-0.377,0.375l-0.252,0.253l0.41,0.41l-0.109,0.497l-0.207,0.951l-0.838-0.951l-1.164-1.32c0.357-0.215,0.742-0.39,1.15-0.51
			c-0.057-0.057-0.111-0.115-0.168-0.176c-0.049-0.056-0.098-0.115-0.146-0.174c-0.329-0.406-0.596-0.879-0.735-1.335
			C16.006,6.54,15.592,6.3,15.51,5.952C15.428,5.597,15.506,5.265,15.688,5.211z M14.637,10.013
			c0.304-0.414,0.668-0.777,1.082-1.079l0.951,1.079l1.822,2.07c0.043,0.047,0.102,0.073,0.162,0.073c0.002,0,0.002,0,0.002,0
			c0.062,0,0.121-0.028,0.162-0.075l1.771-2.068l0.924-1.08c0.416,0.302,0.783,0.666,1.084,1.08c0.555,0.758,0.897,1.68,0.938,2.679
			h-9.837C13.741,11.692,14.084,10.771,14.637,10.013z M14.846,31.24c0-1.217-0.412-2.337-1.098-3.237v-4.696
			c0-3.605-1.906-4.973-4.257-4.973S5.235,19.7,5.235,23.307v4.696c-0.685,0.899-1.099,2.021-1.099,3.237v0.214h10.709L14.846,31.24
			L14.846,31.24z M6.561,23.544c0.056-0.016,0.111-0.003,0.168,0.028V23.21l0.354-0.024c1.322,0,2.475-0.553,3.108-1.379
			c0.46,0.599,1.192,1.055,2.065,1.258v0.509c0.055-0.031,0.11-0.044,0.166-0.028c0.182,0.055,0.258,0.387,0.176,0.741
			c-0.082,0.345-0.489,0.583-0.668,0.547c-0.138,0.447-0.412,0.921-0.748,1.331c-0.051,0.059-0.099,0.116-0.148,0.172
			c-0.057,0.062-0.111,0.121-0.17,0.178c0.413,0.119,0.804,0.293,1.163,0.514l-1.132,1.32L10.04,29.35l-0.22-1.002L9.712,27.85
			l0.409-0.409l-0.255-0.255l-0.374-0.373l-0.377,0.375L8.863,27.44l0.409,0.409l-0.107,0.498l-0.208,0.951l-0.838-0.951
			l-1.164-1.319c0.358-0.216,0.743-0.392,1.151-0.511c-0.057-0.058-0.112-0.114-0.168-0.176c-0.049-0.057-0.1-0.115-0.146-0.175
			c-0.328-0.405-0.596-0.879-0.734-1.335c-0.178,0.042-0.59-0.197-0.672-0.546C6.303,23.93,6.381,23.598,6.561,23.544z
			 M4.573,31.025c0.043-1,0.386-1.922,0.939-2.68c0.301-0.414,0.668-0.776,1.082-1.08l0.95,1.08l1.822,2.069
			c0.042,0.047,0.101,0.073,0.162,0.073c0.001,0,0.001,0,0.001,0c0.062,0,0.122-0.028,0.162-0.075l1.771-2.067l0.922-1.08
			c0.416,0.303,0.783,0.666,1.086,1.08c0.555,0.758,0.896,1.681,0.938,2.68H4.573z M31.999,23.307c0-3.605-1.904-4.973-4.256-4.973
			c-2.35,0-4.256,1.366-4.256,4.973v4.696c-0.686,0.899-1.098,2.021-1.098,3.237v0.214h10.707V31.24
			c0-1.217-0.412-2.337-1.099-3.237L31.999,23.307L31.999,23.307z M24.813,23.544c0.055-0.016,0.111-0.003,0.166,0.028V23.21
			l0.354-0.024c1.322,0,2.477-0.553,3.109-1.379c0.459,0.599,1.191,1.055,2.066,1.258v0.509c0.055-0.031,0.108-0.044,0.164-0.028
			c0.182,0.055,0.26,0.387,0.178,0.741c-0.082,0.345-0.49,0.583-0.67,0.547c-0.138,0.447-0.412,0.921-0.748,1.331
			c-0.049,0.059-0.099,0.116-0.148,0.172c-0.055,0.062-0.109,0.121-0.168,0.178c0.412,0.119,0.803,0.293,1.162,0.514l-1.131,1.32
			L28.29,29.35l-0.219-1.002l-0.107-0.498l0.408-0.409l-0.256-0.255l-0.373-0.373l-0.377,0.375l-0.252,0.253l0.41,0.409
			l-0.109,0.498l-0.207,0.951l-0.838-0.951l-1.164-1.319c0.357-0.216,0.744-0.392,1.15-0.511c-0.055-0.058-0.111-0.114-0.168-0.176
			c-0.047-0.057-0.098-0.115-0.146-0.175c-0.328-0.405-0.596-0.879-0.732-1.335c-0.178,0.042-0.592-0.197-0.672-0.546
			C24.556,23.93,24.634,23.598,24.813,23.544z M32.663,31.025h-9.838c0.041-1,0.385-1.922,0.939-2.68
			c0.301-0.414,0.668-0.776,1.08-1.08l0.953,1.08l1.82,2.07c0.043,0.047,0.102,0.073,0.162,0.073c0.002,0,0.002,0,0.002,0
			c0.062,0,0.121-0.028,0.16-0.075l1.771-2.066l0.924-1.08c0.416,0.302,0.782,0.666,1.086,1.08
			C32.276,29.104,32.62,30.025,32.663,31.025z M33.95,21.903c0,0.721-0.066,1.424-0.164,2.118l-0.896-0.897
			c0.035-0.403,0.062-0.809,0.062-1.221c0-6.237-4.012-11.541-9.584-13.507V7.332C29.503,9.337,33.95,15.107,33.95,21.903z
			 M4.346,23.124L3.45,24.021c-0.098-0.694-0.164-1.397-0.164-2.118c0-6.796,4.448-12.566,10.583-14.571v1.064
			c-5.571,1.966-9.583,7.27-9.583,13.507C4.285,22.315,4.311,22.721,4.346,23.124z M28.548,32.217l0.707,0.707
			c-2.762,2.664-6.508,4.312-10.637,4.312c-4.13,0-7.876-1.646-10.637-4.312l0.707-0.707c2.578,2.482,6.076,4.021,9.93,4.021
			C22.472,36.236,25.97,34.699,28.548,32.217z"/>
	</g>
</g>
<g>
</g>
<g>
</g>
<g>
</g>
<g>
</g>
<g>
</g>
<g>
</g>
<g>
</g>
<g>
</g>
<g>
</g>
<g>
</g>
<g>
</g>
<g>
</g>
<g>
</g>
<g>
</g>
<g>
</g>
</svg>
