<?xml version="1.0" encoding="iso-8859-1"?>
<!-- Generator: Adobe Illustrator 16.0.0, SVG Export Plug-In . SVG Version: 6.00 Build 0)  -->
<!DOCTYPE svg PUBLIC "-//W3C//DTD SVG 1.1//EN" "http://www.w3.org/Graphics/SVG/1.1/DTD/svg11.dtd">
<svg version="1.1" id="Capa_1" xmlns="http://www.w3.org/2000/svg" xmlns:xlink="http://www.w3.org/1999/xlink" x="0px" y="0px"
	 width="30.393px" height="30.393px" viewBox="0 0 30.393 30.393" style="enable-background:new 0 0 30.393 30.393;"
	 xml:space="preserve">
<g>
	<path d="M15.15,15.176c0.021,0.012,0.043,0.022,0.062,0.037c0.011-0.004,0.021-0.008,0.03-0.013L15.15,15.176z"/>
	<path d="M15.532,15.641c0.009-0.004,0.017-0.006,0.024-0.01c-0.137-0.359,0.275-0.881,0.275-0.881
		c-0.729-0.025-1.113,0.365-1.271,0.584c0.123,0.057,0.244,0.115,0.357,0.18C15.127,15.547,15.333,15.592,15.532,15.641z"/>
	<path d="M15.503,15.217c-0.2-0.049-0.405-0.094-0.614-0.127c0.104,0.059,0.201,0.119,0.297,0.184l0.091,0.025
		C15.348,15.268,15.426,15.243,15.503,15.217z"/>
	<path d="M15.414,15.285c-0.112-0.064-0.233-0.123-0.356-0.18c-0.041,0.057-0.067,0.098-0.079,0.121
		C15.123,15.244,15.271,15.261,15.414,15.285z"/>
	<path d="M14.837,15.074c-0.006,0.012-0.013,0.023-0.013,0.023l0.744,0.219c-0.094-0.064-0.192-0.125-0.295-0.185
		C15.13,15.109,14.982,15.091,14.837,15.074z"/>
	<path d="M15.21,15.203c-0.002-0.006-0.002-0.01-0.004-0.016c-0.01,0.004-0.016,0.006-0.024,0.01
		C15.193,15.199,15.2,15.201,15.21,15.203z"/>
	<path d="M15.418,15.3c-0.103-0.053-0.154-0.127-0.188-0.205c-0.009-0.002-0.019-0.004-0.028-0.006
		c-0.076,0.025-0.154,0.051-0.228,0.082L15.418,15.3z"/>
	<path d="M15.033,15.147c0.082,0.045,0.188,0.078,0.326,0.096L15.033,15.147z"/>
	<g>
		<path d="M29.568,27.82l-0.865-4.871c-0.229-1.295-1.421-2.523-2.71-2.797l-6.45-1.359c1.213-1.176,2.146-2.809,2.766-4.447
			c0.799-0.289,1.602-1.002,1.834-1.928c0.31-1.23-0.016-2.33-0.779-2.807V8.74c0.695-2.1,1.061-5.531-2.104-7.379
			c-1.418-0.826-2.594-0.881-3.48-0.592c0.002,0.006,0.002,0.01,0.004,0.016c0.034,0.078,0.087,0.152,0.189,0.205l-0.445-0.129
			c-0.01,0.004-0.021,0.008-0.03,0.012c-0.019-0.014-0.041-0.025-0.062-0.037l-0.744-0.219c0,0,0.007-0.012,0.013-0.023
			c0.013-0.022,0.038-0.063,0.079-0.121c-0.975-0.449-2.249-0.641-3.88-0.297C7.67,1.274,7.004,8.127,7.961,9.629
			c-0.746,0.482-1.064,1.568-0.76,2.787c0.232,0.93,1.042,1.646,1.844,1.932c0.609,1.642,1.535,3.271,2.748,4.447l-2.931,0.617
			c-0.61-1.557-2.119-2.664-3.89-2.664c-2.309,0-4.187,1.877-4.187,4.184c0,1.343,0.646,2.523,1.629,3.289l-0.641,3.602
			c-0.12,0.676,0.04,1.316,0.45,1.809c0.412,0.491,1.016,0.762,1.699,0.762h23.496c0.688,0,1.289-0.271,1.7-0.764
			S29.689,28.494,29.568,27.82z M28.352,28.984c-0.219,0.26-0.551,0.403-0.936,0.403H22.85v-1.164h5.729
			C28.586,28.511,28.523,28.779,28.352,28.984z M3.924,29.388c-0.385,0-0.715-0.143-0.934-0.4c-0.172-0.205-0.232-0.477-0.229-0.764
			H8.49v1.164H3.924z M9.49,29.388v-2.854c0-0.274-0.225-0.5-0.5-0.5s-0.5,0.226-0.5,0.5v0.689H2.895l0.435-2.441
			c0.505,0.215,1.06,0.336,1.642,0.336c2.308,0,4.186-1.877,4.186-4.188c0-0.188-0.031-0.366-0.057-0.547l1.015-0.215
			c1.483,1.469,3.496,2.312,5.591,2.312c2.118,0,4.087-0.82,5.583-2.3l4.498,0.946c0.891,0.189,1.771,1.104,1.934,1.994l0.729,4.101
			h-5.598v-0.69c0-0.275-0.225-0.5-0.5-0.5s-0.5,0.225-0.5,0.5v2.854L9.49,29.388L9.49,29.388z M4.969,17.748
			c1.289,0,2.396,0.771,2.896,1.873c0.068,0.152,0.12,0.314,0.165,0.477c0.044,0.16,0.072,0.324,0.091,0.492
			c0.012,0.115,0.034,0.226,0.034,0.342c0,1.757-1.429,3.188-3.187,3.188c-0.526,0-1.018-0.144-1.455-0.369
			c-0.161-0.084-0.314-0.178-0.457-0.287c-0.158-0.118-0.305-0.252-0.438-0.396c-0.514-0.564-0.835-1.31-0.835-2.131
			C1.784,19.175,3.213,17.748,4.969,17.748z M15.67,20.52c1.062,0,2.021-0.347,2.875-0.916l1.534,0.323
			c-1.231,1.004-2.753,1.556-4.374,1.556c-1.603,0-3.15-0.566-4.382-1.566l1.466-0.309C13.641,20.174,14.602,20.52,15.67,20.52z
			 M9.875,13.369c-0.425,0.09-1.406-0.443-1.601-1.221c-0.199-0.793-0.011-1.531,0.422-1.654c0.127-0.035,0.261-0.006,0.394,0.062
			V9.371c0.002-0.004,0.004-0.006,0.006-0.01C9.094,9.346,9.092,9.326,9.09,9.307V8.891c0.109-1.006,1.066-2.896,6.278-1.188
			c1.8,0.59,2.912-0.346,3.47-1.584c1.775,0.197,2.959,2.211,3.414,3.453v0.982c0.064-0.035,0.131-0.062,0.196-0.072
			c-0.002,0.01,0,0.027-0.004,0.033c0.015,0.016,0.041,0.006,0.077-0.029c0.041-0.002,0.082-0.006,0.121,0.004
			c0.433,0.123,0.621,0.861,0.423,1.654c-0.193,0.77-1.168,1.301-1.591,1.221c-0.565,1.721-1.692,3.922-3.301,5.135
			c-0.192,0.146-0.396,0.273-0.603,0.387c-0.293,0.162-0.599,0.293-0.917,0.382c-0.317,0.089-0.646,0.14-0.988,0.14
			c-0.347,0-0.68-0.051-0.998-0.138c-0.322-0.089-0.629-0.218-0.922-0.38c-0.207-0.111-0.41-0.238-0.604-0.385
			C11.549,17.308,10.443,15.131,9.875,13.369z"/>
		<polygon points="3.375,21.431 4.053,21.431 4.852,21.431 7.461,21.431 7.461,20.931 7.461,20.729 7.461,20.431 6.452,20.431 
			4.6,20.431 2.48,20.431 2.48,20.931 2.48,21.431 		"/>
	</g>
</g>
<g>
</g>
<g>
</g>
<g>
</g>
<g>
</g>
<g>
</g>
<g>
</g>
<g>
</g>
<g>
</g>
<g>
</g>
<g>
</g>
<g>
</g>
<g>
</g>
<g>
</g>
<g>
</g>
<g>
</g>
</svg>
