<?xml version="1.0" encoding="iso-8859-1"?>
<!-- Generator: Adobe Illustrator 16.0.0, SVG Export Plug-In . SVG Version: 6.00 Build 0)  -->
<!DOCTYPE svg PUBLIC "-//W3C//DTD SVG 1.1//EN" "http://www.w3.org/Graphics/SVG/1.1/DTD/svg11.dtd">
<svg version="1.1" id="Capa_1" xmlns="http://www.w3.org/2000/svg" xmlns:xlink="http://www.w3.org/1999/xlink" x="0px" y="0px"
	 width="31.397px" height="31.397px" viewBox="0 0 31.397 31.397" style="enable-background:new 0 0 31.397 31.397;"
	 xml:space="preserve">
<g>
	<g>
		<path d="M20.843,21.619c-0.178-1.002-1.098-1.951-2.09-2.161l-0.632-0.135v-6.701c0-6.224-3.291-8.586-7.349-8.586
			c-4.061,0-7.35,2.362-7.35,8.586v6.701l-0.631,0.135c-0.992,0.21-1.914,1.159-2.091,2.161l-0.67,3.763
			c-0.093,0.521,0.03,1.018,0.346,1.396c0.317,0.376,0.783,0.585,1.312,0.585h18.165c0.531,0,0.996-0.209,1.312-0.585
			c0.314-0.38,0.439-0.875,0.349-1.396L20.843,21.619z M5.713,13.037c0.096-0.027,0.188-0.005,0.285,0.047v-0.846h5.698l0.478-2.859
			v2.975h3.371v0.729c0.098-0.052,0.191-0.074,0.285-0.047c0.314,0.092,0.449,0.664,0.307,1.277
			c-0.141,0.595-0.849,1.008-1.152,0.943c-0.324,1.044-1.076,2.173-1.939,2.996c-0.117,0.11-0.236,0.217-0.354,0.316
			c-0.136,0.109-0.271,0.213-0.404,0.306l2.937,0.619l-1.568,1.829l-1.938,2.27l-0.494-2.27l-0.069-0.309l0.709-0.707l-0.89-0.89
			l-0.197-0.194l-0.199,0.197l-0.887,0.887l0.709,0.707l-0.07,0.309l-0.475,2.18l-1.92-2.18l-1.613-1.829l2.92-0.614
			c-0.139-0.091-0.273-0.195-0.408-0.306c-0.119-0.101-0.236-0.204-0.354-0.313c-0.852-0.813-1.582-1.937-1.906-3.003
			c-0.309,0.069-1.021-0.345-1.16-0.943C5.264,13.701,5.399,13.129,5.713,13.037z M20.579,26.285
			c-0.169,0.202-0.427,0.312-0.726,0.312h-3.536v-1.931c0-0.211-0.169-0.383-0.381-0.383c-0.213,0-0.383,0.172-0.383,0.383v1.931
			H5.991v-1.931c0-0.211-0.171-0.383-0.383-0.383c-0.213,0-0.383,0.172-0.383,0.383v1.931H1.69c-0.299,0-0.557-0.109-0.727-0.312
			c-0.168-0.201-0.231-0.476-0.181-0.771l0.671-3.767c0.123-0.688,0.809-1.397,1.495-1.545l0.474-0.098l2.037-0.431l1.45,1.646
			l3.64,4.134c0.073,0.081,0.18,0.129,0.287,0.129h0.004c0.109,0,0.215-0.05,0.285-0.132l3.533-4.131l1.414-1.648l2.047,0.433
			l0.473,0.098c0.688,0.147,1.373,0.854,1.498,1.547l0.67,3.765C20.811,25.809,20.748,26.083,20.579,26.285z M31.397,8.34v5.119
			c0,1.754-1.423,3.179-3.177,3.179h-1.59l-3.354,3.354v-3.354H23.1c-1.754,0-3.176-1.424-3.176-3.179V8.34
			c0-1.755,1.422-3.177,3.176-3.177h5.119C29.975,5.163,31.397,6.584,31.397,8.34z"/>
	</g>
</g>
<g>
</g>
<g>
</g>
<g>
</g>
<g>
</g>
<g>
</g>
<g>
</g>
<g>
</g>
<g>
</g>
<g>
</g>
<g>
</g>
<g>
</g>
<g>
</g>
<g>
</g>
<g>
</g>
<g>
</g>
</svg>
