<?xml version="1.0" encoding="iso-8859-1"?>
<!-- Generator: Adobe Illustrator 16.0.0, SVG Export Plug-In . SVG Version: 6.00 Build 0)  -->
<!DOCTYPE svg PUBLIC "-//W3C//DTD SVG 1.1//EN" "http://www.w3.org/Graphics/SVG/1.1/DTD/svg11.dtd">
<svg version="1.1" id="Capa_1" xmlns="http://www.w3.org/2000/svg" xmlns:xlink="http://www.w3.org/1999/xlink" x="0px" y="0px"
	 width="32.521px" height="32.521px" viewBox="0 0 32.521 32.521" style="enable-background:new 0 0 32.521 32.521;"
	 xml:space="preserve">
<g>
	<g>
		<path d="M28.93,20.798v-3.879h-11.92v-2.038h5.389V2.607H10.122v12.275h5.388v2.038H3.59v3.879H0v9.116h9.118v-9.116H5.091v-2.379
			h10.42v2.379h-3.809v9.116h9.117v-9.116h-3.81v-2.379h10.42v2.379h-4.026v9.116h9.118v-9.116H28.93z M11.621,4.107h9.275v9.275
			h-9.275V4.107z M7.616,28.415H1.498v-6.116h6.118V28.415z M19.319,28.415h-6.118v-6.116h6.117L19.319,28.415L19.319,28.415z
			 M31.02,28.415h-6.116v-6.116h6.116V28.415z"/>
	</g>
</g>
<g>
</g>
<g>
</g>
<g>
</g>
<g>
</g>
<g>
</g>
<g>
</g>
<g>
</g>
<g>
</g>
<g>
</g>
<g>
</g>
<g>
</g>
<g>
</g>
<g>
</g>
<g>
</g>
<g>
</g>
</svg>
