<?xml version="1.0" encoding="iso-8859-1"?>
<!-- Generator: Adobe Illustrator 16.0.0, SVG Export Plug-In . SVG Version: 6.00 Build 0)  -->
<!DOCTYPE svg PUBLIC "-//W3C//DTD SVG 1.1//EN" "http://www.w3.org/Graphics/SVG/1.1/DTD/svg11.dtd">
<svg version="1.1" id="Capa_1" xmlns="http://www.w3.org/2000/svg" xmlns:xlink="http://www.w3.org/1999/xlink" x="0px" y="0px"
	 width="33.742px" height="33.742px" viewBox="0 0 33.742 33.742" style="enable-background:new 0 0 33.742 33.742;"
	 xml:space="preserve">
<g>
	<g>
		<path d="M33.742,25.764c-0.005-3.463-2.393-4.887-5.717-5.33l-1.906,3.748l-0.309-2.438l0.475-0.388h-1.145h-1.047l0.473,0.391
			l-0.299,2.438l-1.916-3.748c-0.666,0.094-1.28,0.235-1.86,0.414V10.079h1.53v-2.12H0v2.12h1.148v12.522h16.51
			c-0.641,0.795-1.014,1.828-1.012,3.182L33.742,25.764z M1.853,21.893V10.078h17.932V21.1c-0.521,0.215-0.997,0.476-1.405,0.795
			H1.853V21.893z M21.393,14.611c-0.123-3.196,1.761-4.662,3.863-4.675c2.045,0.048,3.67,1.248,3.75,4.664
			c0.02-0.004,0.03-0.012,0.051-0.01c0.267,0.045,0.424,0.44,0.353,0.885c-0.074,0.422-0.331,0.729-0.588,0.713
			c-0.562,2.062-2.245,3.593-3.62,3.656c-1.508-0.033-2.991-1.584-3.566-3.656c-0.012,0.004-0.02,0.012-0.029,0.014
			c-0.269,0.044-0.545-0.271-0.617-0.717c-0.077-0.443,0.082-0.838,0.346-0.885C21.352,14.599,21.373,14.609,21.393,14.611z
			 M4.06,20.393h13.692v0.354H3.707v-9.462h0.354v6.529l3.808-1.5l3.137,0.406l1.995-2.035l3.512-1.562l-0.791-0.346l0.141-0.324
			l1.35,0.59l-0.588,1.349l-0.324-0.143l0.35-0.799l-3.473,1.543l-2.039,2.1l-3.224-0.417l-3.843,1.515l-0.008-0.021v2.222H4.06z"/>
	</g>
</g>
<g>
</g>
<g>
</g>
<g>
</g>
<g>
</g>
<g>
</g>
<g>
</g>
<g>
</g>
<g>
</g>
<g>
</g>
<g>
</g>
<g>
</g>
<g>
</g>
<g>
</g>
<g>
</g>
<g>
</g>
</svg>
