<?xml version="1.0" encoding="iso-8859-1"?>
<!-- Generator: Adobe Illustrator 16.0.0, SVG Export Plug-In . SVG Version: 6.00 Build 0)  -->
<!DOCTYPE svg PUBLIC "-//W3C//DTD SVG 1.1//EN" "http://www.w3.org/Graphics/SVG/1.1/DTD/svg11.dtd">
<svg version="1.1" id="Capa_1" xmlns="http://www.w3.org/2000/svg" xmlns:xlink="http://www.w3.org/1999/xlink" x="0px" y="0px"
	 width="32.968px" height="32.968px" viewBox="0 0 32.968 32.968" style="enable-background:new 0 0 32.968 32.968;"
	 xml:space="preserve">
<g>
	<g>
		<path d="M20.843,23.093c-0.178-1.002-1.098-1.951-2.09-2.162l-0.631-0.135v-6.701c0-6.223-3.291-8.586-7.35-8.586
			s-7.351,2.363-7.351,8.586v6.701l-0.629,0.135c-0.994,0.211-1.914,1.16-2.092,2.162l-0.67,3.762
			c-0.093,0.521,0.03,1.017,0.346,1.396c0.317,0.375,0.783,0.584,1.312,0.584h18.164c0.528,0,0.995-0.209,1.312-0.584
			c0.314-0.381,0.438-0.875,0.348-1.396L20.843,23.093z M5.715,14.511C5.812,14.482,5.903,14.505,6,14.559v-0.846h5.698l0.478-2.861
			v2.977h3.371v0.73c0.098-0.053,0.191-0.076,0.285-0.047c0.314,0.092,0.449,0.664,0.307,1.277
			c-0.141,0.594-0.848,1.008-1.152,0.942c-0.324,1.044-1.076,2.173-1.939,2.996c-0.117,0.11-0.236,0.217-0.354,0.315
			c-0.136,0.108-0.271,0.213-0.404,0.308l2.937,0.618l-1.568,1.828l-1.938,2.271l-0.494-2.271l-0.069-0.308l0.709-0.707l-0.89-0.891
			l-0.197-0.195l-0.199,0.199l-0.887,0.887l0.709,0.707l-0.07,0.308l-0.475,2.181l-1.919-2.181l-1.614-1.828l2.92-0.614
			c-0.139-0.091-0.273-0.195-0.408-0.306c-0.119-0.101-0.236-0.205-0.354-0.313c-0.852-0.812-1.582-1.937-1.906-3.003
			c-0.309,0.069-1.021-0.345-1.16-0.942C5.266,15.175,5.401,14.604,5.715,14.511z M20.582,27.759
			c-0.17,0.201-0.428,0.312-0.727,0.312h-3.536v-1.93c0-0.213-0.17-0.385-0.382-0.385c-0.213,0-0.383,0.172-0.383,0.385v1.93H5.992
			v-1.93c0-0.213-0.171-0.385-0.383-0.385s-0.382,0.172-0.382,0.385v1.93H1.691c-0.299,0-0.557-0.11-0.727-0.312
			c-0.168-0.201-0.231-0.477-0.181-0.771l0.671-3.766c0.123-0.689,0.809-1.398,1.495-1.546l0.474-0.099l2.037-0.43l1.45,1.646
			l3.64,4.135c0.074,0.08,0.18,0.127,0.287,0.127h0.004c0.109,0,0.215-0.049,0.285-0.131l3.533-4.131l1.414-1.648l2.047,0.432
			l0.472,0.099c0.688,0.146,1.373,0.854,1.498,1.548l0.67,3.764C20.813,27.285,20.75,27.558,20.582,27.759z M32.968,11.3
			c0,1.748-1.418,3.166-3.168,3.166c-0.629,0-1.211-0.189-1.703-0.506c-0.562,0.516-1.307,0.838-2.131,0.838
			c-1.273,0-2.367-0.758-2.869-1.847c-0.045,0.003-0.086,0.015-0.131,0.015c-1.748,0-3.166-1.418-3.166-3.166
			c0-1.717,1.367-3.105,3.069-3.158c0.304-1.434,1.573-2.51,3.097-2.51c1.099,0,2.062,0.559,2.631,1.406
			c0.371-0.152,0.777-0.24,1.203-0.24c1.748,0,3.166,1.418,3.166,3.168c0,0.512-0.133,0.988-0.349,1.416
			C32.836,10.311,32.968,10.787,32.968,11.3z M25.216,16.298c0,0.69-0.56,1.25-1.25,1.25c-0.688,0-1.25-0.56-1.25-1.25
			c0-0.689,0.562-1.25,1.25-1.25C24.657,15.048,25.216,15.609,25.216,16.298z M22.8,18.331c-0.019,0.551-0.479,0.985-1.029,0.969
			c-0.555-0.017-0.986-0.479-0.971-1.028c0.019-0.554,0.479-0.986,1.029-0.97C22.382,17.316,22.817,17.777,22.8,18.331z"/>
	</g>
</g>
<g>
</g>
<g>
</g>
<g>
</g>
<g>
</g>
<g>
</g>
<g>
</g>
<g>
</g>
<g>
</g>
<g>
</g>
<g>
</g>
<g>
</g>
<g>
</g>
<g>
</g>
<g>
</g>
<g>
</g>
</svg>
