<?xml version="1.0" encoding="iso-8859-1"?>
<!-- Generator: Adobe Illustrator 16.0.0, SVG Export Plug-In . SVG Version: 6.00 Build 0)  -->
<!DOCTYPE svg PUBLIC "-//W3C//DTD SVG 1.1//EN" "http://www.w3.org/Graphics/SVG/1.1/DTD/svg11.dtd">
<svg version="1.1" id="Capa_1" xmlns="http://www.w3.org/2000/svg" xmlns:xlink="http://www.w3.org/1999/xlink" x="0px" y="0px"
	 width="28.613px" height="28.613px" viewBox="0 0 28.613 28.613" style="enable-background:new 0 0 28.613 28.613;"
	 xml:space="preserve">
<g>
	<path d="M14.095,14.302c0.107-0.002,0.212,0.006,0.318,0.008c0.035,0,0.069-0.008,0.105-0.008H14.095z"/>
	<path d="M14.543,17.576c0.014,0,0.027-0.004,0.041-0.004c0.019,0,0.036,0.004,0.055,0.004H14.543z M8.692,11.587
		c0.015-0.002,0.025-0.019,0.041-0.023c0.941,3.406,3.377,5.953,5.852,6.008c2.255-0.102,5.022-2.604,5.944-5.991
		c0.424,0.024,0.85-0.476,0.967-1.171c0.123-0.727-0.133-1.372-0.572-1.448c-0.027-0.004-0.057,0.014-0.084,0.014
		c-0.127-5.604-2.787-7.578-6.141-7.664c-3.456,0.016-6.551,2.42-6.355,7.666C8.311,8.976,8.28,8.957,8.248,8.962
		C7.809,9.038,7.553,9.685,7.676,10.41C7.795,11.131,8.25,11.66,8.692,11.587z M0.557,27.301c0-1.552,0.301-2.847,0.836-3.935
		C0.552,22.708,0,21.699,0,20.551c0-1.976,1.608-3.582,3.584-3.582c1.491,0,2.771,0.916,3.31,2.215
		c0.94-0.285,1.956-0.496,3.035-0.642l3.137,6.146l0.497-3.998l-0.776-0.635h1.717h1.878l-0.777,0.635l0.498,3.998l3.139-6.146
		c5.455,0.733,9.371,3.072,9.371,8.759H0.557z M1,20.551c0,0.778,0.354,1.471,0.901,1.944c0.454,0.394,1.037,0.64,1.683,0.64
		c1.425,0,2.584-1.158,2.584-2.584c0-0.371-0.082-0.724-0.224-1.041c-0.402-0.906-1.307-1.541-2.36-1.541
		C2.16,17.969,1,19.128,1,20.551z M3.216,21.051h2.452v-0.5v-0.5H4.74H1.5v0.5v0.5H3.216z"/>
</g>
<g>
</g>
<g>
</g>
<g>
</g>
<g>
</g>
<g>
</g>
<g>
</g>
<g>
</g>
<g>
</g>
<g>
</g>
<g>
</g>
<g>
</g>
<g>
</g>
<g>
</g>
<g>
</g>
<g>
</g>
</svg>
