<?xml version="1.0" encoding="iso-8859-1"?>
<!-- Generator: Adobe Illustrator 16.0.0, SVG Export Plug-In . SVG Version: 6.00 Build 0)  -->
<!DOCTYPE svg PUBLIC "-//W3C//DTD SVG 1.1//EN" "http://www.w3.org/Graphics/SVG/1.1/DTD/svg11.dtd">
<svg version="1.1" id="Capa_1" xmlns="http://www.w3.org/2000/svg" xmlns:xlink="http://www.w3.org/1999/xlink" x="0px" y="0px"
	 width="28.503px" height="28.504px" viewBox="0 0 28.503 28.504" style="enable-background:new 0 0 28.503 28.504;"
	 xml:space="preserve">
<g>
	<g>
		<g>
			<path d="M17.792,6.547c0.835,0,1.517,0.682,1.517,1.518c0,0.4,0.324,0.727,0.729,0.727c0.401,0,0.728-0.325,0.728-0.727
				c0-1.638-1.333-2.972-2.971-2.972c-0.401,0-0.729,0.325-0.729,0.728C17.066,6.224,17.39,6.547,17.792,6.547z"/>
		</g>
		<g>
			<path d="M18.035,2.606c-0.402,0-0.728,0.326-0.728,0.728c0,0.403,0.324,0.729,0.728,0.729c2.105,0,3.819,1.713,3.819,3.816
				c0,0.404,0.325,0.729,0.729,0.729c0.402,0,0.728-0.324,0.728-0.729C23.31,4.973,20.943,2.606,18.035,2.606z"/>
		</g>
		<g>
			<path d="M22.297,23.091c-0.167-0.944-1.032-1.841-1.972-2.039l-0.595-0.127v-6.317c0-5.869-3.104-8.096-6.93-8.096
				s-6.93,2.227-6.93,8.096v6.317l-0.593,0.127c-0.938,0.198-1.804,1.095-1.971,2.039l-0.632,3.547
				c-0.087,0.491,0.029,0.956,0.328,1.316c0.299,0.354,0.738,0.55,1.236,0.55h17.125c0.499,0,0.938-0.195,1.237-0.55
				c0.298-0.36,0.414-0.825,0.328-1.316L22.297,23.091z M8.033,14.998c0.088-0.025,0.178-0.004,0.269,0.044v-0.797h5.371
				l0.451-2.695v2.804h3.179v0.688c0.091-0.048,0.182-0.069,0.271-0.044c0.295,0.088,0.424,0.627,0.287,1.203
				c-0.132,0.562-0.798,0.951-1.088,0.891c-0.305,0.986-1.014,2.051-1.828,2.824c-0.11,0.105-0.222,0.206-0.335,0.3
				c-0.126,0.104-0.254,0.2-0.382,0.288l2.77,0.583l-1.479,1.728l-1.829,2.138l-0.466-2.138l-0.064-0.291l0.667-0.666l-0.838-0.838
				l-0.186-0.187l-0.188,0.187l-0.837,0.838l0.668,0.666l-0.064,0.291l-0.448,2.055l-1.811-2.055l-1.52-1.728l2.751-0.579
				c-0.128-0.085-0.255-0.184-0.383-0.285c-0.113-0.097-0.224-0.195-0.334-0.3c-0.803-0.767-1.494-1.823-1.798-2.831
				c-0.29,0.064-0.961-0.322-1.094-0.891C7.609,15.625,7.737,15.086,8.033,14.998z M22.049,27.486
				c-0.159,0.19-0.402,0.297-0.685,0.297h-3.333v-1.82c0-0.197-0.161-0.359-0.359-0.359c-0.199,0-0.359,0.162-0.359,0.359v1.82
				H8.295v-1.82c0-0.197-0.162-0.359-0.361-0.359c-0.199,0-0.36,0.162-0.36,0.359v1.82H4.241c-0.282,0-0.524-0.104-0.684-0.297
				c-0.159-0.188-0.22-0.445-0.171-0.725l0.632-3.551c0.116-0.648,0.762-1.314,1.41-1.456l0.445-0.094l1.92-0.404l1.369,1.556
				l3.432,3.896c0.067,0.076,0.166,0.12,0.27,0.12c0.001,0,0.001,0,0.003,0c0.104,0,0.203-0.046,0.271-0.123l3.331-3.895
				l1.333-1.558l1.933,0.406l0.443,0.094c0.649,0.14,1.295,0.806,1.411,1.458l0.631,3.549
				C22.269,27.041,22.208,27.299,22.049,27.486z"/>
		</g>
		<g>
			<path d="M18.095,0c-0.401,0-0.728,0.325-0.728,0.727s0.324,0.729,0.728,0.729c3.477,0,6.306,2.829,6.306,6.306
				c0,0.402,0.325,0.728,0.728,0.728c0.401,0,0.729-0.324,0.729-0.728C25.855,3.481,22.375,0,18.095,0z"/>
		</g>
	</g>
</g>
<g>
</g>
<g>
</g>
<g>
</g>
<g>
</g>
<g>
</g>
<g>
</g>
<g>
</g>
<g>
</g>
<g>
</g>
<g>
</g>
<g>
</g>
<g>
</g>
<g>
</g>
<g>
</g>
<g>
</g>
</svg>
