<?xml version="1.0" encoding="iso-8859-1"?>
<!-- Generator: Adobe Illustrator 16.0.0, SVG Export Plug-In . SVG Version: 6.00 Build 0)  -->
<!DOCTYPE svg PUBLIC "-//W3C//DTD SVG 1.1//EN" "http://www.w3.org/Graphics/SVG/1.1/DTD/svg11.dtd">
<svg version="1.1" id="Capa_1" xmlns="http://www.w3.org/2000/svg" xmlns:xlink="http://www.w3.org/1999/xlink" x="0px" y="0px"
	 width="35.95px" height="35.951px" viewBox="0 0 35.95 35.951" style="enable-background:new 0 0 35.95 35.951;"
	 xml:space="preserve">
<g>
	<g>
		<path d="M5.522,16.859c-0.098-0.564,0.104-1.064,0.439-1.126c0.027-0.002,0.051,0.013,0.076,0.015
			c-0.158-4.068,2.242-5.936,4.922-5.951c2.604,0.062,4.666,1.588,4.771,5.938c0.021-0.002,0.043-0.016,0.062-0.011
			c0.341,0.056,0.543,0.562,0.451,1.123c-0.096,0.54-0.422,0.928-0.752,0.909c-0.713,2.627-2.856,4.573-4.604,4.655
			c-1.918-0.043-3.812-2.019-4.545-4.658c-0.011,0.005-0.021,0.016-0.033,0.019C5.969,17.828,5.616,17.423,5.522,16.859z
			 M14.485,23.158l-2.43,4.77l-0.389-3.1l0.602-0.492h-1.455l-1.332,0.002l0.602,0.492l-0.381,3.104l-2.438-4.768
			C3.032,23.744-0.006,25.561,0,29.968l21.76-0.025C21.758,25.535,18.717,23.723,14.485,23.158z M27.553,8.328v4.191h4.107
			C31.495,10.307,29.752,8.535,27.553,8.328z M26.868,17.59c2.457,0,4.453-1.948,4.543-4.383H26.78V8.483
			c-2.478,0.048-4.47,2.063-4.47,4.55C22.311,15.549,24.35,17.59,26.868,17.59z M35.95,5.982v14.206h-9.192l-4.57,4.568v-4.568
			h-4.189V5.982H35.95z M34.688,7.244h-15.43v11.682h4.189v2.784l2.783-2.784h8.455L34.688,7.244L34.688,7.244z"/>
	</g>
</g>
<g>
</g>
<g>
</g>
<g>
</g>
<g>
</g>
<g>
</g>
<g>
</g>
<g>
</g>
<g>
</g>
<g>
</g>
<g>
</g>
<g>
</g>
<g>
</g>
<g>
</g>
<g>
</g>
<g>
</g>
</svg>
