<?xml version="1.0" encoding="iso-8859-1"?>
<!-- Generator: Adobe Illustrator 16.0.0, SVG Export Plug-In . SVG Version: 6.00 Build 0)  -->
<!DOCTYPE svg PUBLIC "-//W3C//DTD SVG 1.1//EN" "http://www.w3.org/Graphics/SVG/1.1/DTD/svg11.dtd">
<svg version="1.1" id="Capa_1" xmlns="http://www.w3.org/2000/svg" xmlns:xlink="http://www.w3.org/1999/xlink" x="0px" y="0px"
	 width="23.762px" height="23.762px" viewBox="0 0 23.762 23.762" style="enable-background:new 0 0 23.762 23.762;"
	 xml:space="preserve">
<g>
	<g>
		<path d="M8.738,15.477L0.33,17.418c0.303-1.144,1.166-2.069,2.305-2.485c-0.307-0.311-0.527-0.781-0.639-1.494
			c-0.145,0.03-0.373-0.138-0.441-0.393c-0.068-0.262-0.113-0.682,0.035-0.721c0.045-0.012,0.092-0.004,0.135,0.021v-0.723
			c0-1.137-0.268-1.805,1.59-1.994L3.299,9.625c0,0,1.465-0.142,1.85-0.488c0,0,0.01,0.293,0.166,0.614
			c0.857,0.327,0.965,1.088,0.939,1.872v0.724c0.047-0.023,0.092-0.031,0.135-0.021c0.15,0.041,0.07,0.478,0.002,0.736
			c-0.064,0.254-0.258,0.403-0.402,0.377c-0.108,0.678-0.348,1.163-0.678,1.485c0.473,0.17,0.896,0.435,1.256,0.759
			c0.504-0.628,1.181-1.125,1.967-1.414c-0.364-0.369-0.631-0.937-0.762-1.787c-0.176,0.036-0.447-0.164-0.529-0.471
			c-0.079-0.312-0.135-0.812,0.044-0.86c0.053-0.014,0.106-0.004,0.159,0.024v-0.864c0-1.36-0.319-2.159,1.902-2.387l-0.02-0.005
			c0,0,1.752-0.169,2.213-0.584c0,0,0.014,0.35,0.199,0.733c1.025,0.395,1.154,1.301,1.125,2.241v0.864
			c0.055-0.028,0.109-0.038,0.161-0.024c0.178,0.049,0.084,0.569,0.002,0.881c-0.079,0.304-0.311,0.483-0.482,0.45
			c-0.129,0.812-0.412,1.394-0.809,1.779c0.363,0.131,0.699,0.312,1.01,0.521c0.631-0.727,1.453-1.297,2.393-1.642
			c-0.467-0.474-0.807-1.196-0.977-2.285c-0.223,0.045-0.572-0.211-0.674-0.603c-0.105-0.397-0.174-1.04,0.053-1.102
			c0.068-0.019,0.137-0.006,0.205,0.03V8.074c0-1.739-0.408-2.761,2.434-3.053l-0.025-0.007c0,0,2.242-0.216,2.832-0.747
			c0,0,0.018,0.448,0.258,0.94c1.312,0.502,1.475,1.663,1.437,2.865v1.105c0.069-0.036,0.144-0.049,0.209-0.03
			c0.228,0.062,0.104,0.729,0.003,1.127c-0.104,0.387-0.396,0.617-0.617,0.576c-0.168,1.036-0.529,1.78-1.035,2.274
			c0.643,0.23,1.229,0.57,1.742,0.992l-6.795,2.382L8.738,15.477z M23.762,14.948l-0.824,1.653l-0.531-0.264l0.387-0.774
			l-8.518,2.984l-5.514-1.043l-8.627,1.99L0,18.917l8.75-2.021l5.48,1.037l8.334-2.922l-0.729-0.365l0.27-0.529L23.762,14.948z
			 M22.955,15.235l0.01-0.021l-0.021-0.011L22.955,15.235z"/>
	</g>
</g>
<g>
</g>
<g>
</g>
<g>
</g>
<g>
</g>
<g>
</g>
<g>
</g>
<g>
</g>
<g>
</g>
<g>
</g>
<g>
</g>
<g>
</g>
<g>
</g>
<g>
</g>
<g>
</g>
<g>
</g>
</svg>
