<?xml version="1.0" encoding="iso-8859-1"?>
<!-- Generator: Adobe Illustrator 16.0.0, SVG Export Plug-In . SVG Version: 6.00 Build 0)  -->
<!DOCTYPE svg PUBLIC "-//W3C//DTD SVG 1.1//EN" "http://www.w3.org/Graphics/SVG/1.1/DTD/svg11.dtd">
<svg version="1.1" id="Capa_1" xmlns="http://www.w3.org/2000/svg" xmlns:xlink="http://www.w3.org/1999/xlink" x="0px" y="0px"
	 width="28.906px" height="28.906px" viewBox="0 0 28.906 28.906" style="enable-background:new 0 0 28.906 28.906;"
	 xml:space="preserve">
<g>
	<g>
		<path d="M5.466,11.459C5.37,10.9,5.569,10.404,5.903,10.346c0.026-0.004,0.052,0.01,0.075,0.012
			c-0.155-4.029,2.221-5.879,4.875-5.896c2.579,0.062,4.624,1.573,4.728,5.883c0.021-0.004,0.041-0.017,0.062-0.012
			c0.337,0.055,0.537,0.557,0.443,1.112c-0.093,0.534-0.417,0.919-0.741,0.899c-0.708,2.604-2.832,4.529-4.563,4.61
			c-1.899-0.042-3.773-1.997-4.5-4.612c-0.012,0.006-0.021,0.017-0.033,0.019C5.909,12.42,5.56,12.017,5.466,11.459z M14.346,17.696
			l-2.406,4.725l-0.386-3.069l0.596-0.486h-1.441L9.39,18.867l0.596,0.486l-0.377,3.072l-2.415-4.722
			c-4.192,0.572-7.2,2.374-7.194,6.739l21.557-0.025C21.551,20.053,18.536,18.258,14.346,17.696z M23.62,6.736v5.392h5.286
			C28.691,9.281,26.451,7.001,23.62,6.736z M22.625,6.935c-3.186,0.061-5.75,2.656-5.75,5.854c0,3.236,2.623,5.861,5.861,5.861
			c3.162,0,5.732-2.508,5.849-5.642h-5.96V6.935z"/>
	</g>
</g>
<g>
</g>
<g>
</g>
<g>
</g>
<g>
</g>
<g>
</g>
<g>
</g>
<g>
</g>
<g>
</g>
<g>
</g>
<g>
</g>
<g>
</g>
<g>
</g>
<g>
</g>
<g>
</g>
<g>
</g>
</svg>
