<?xml version="1.0" encoding="iso-8859-1"?>
<!-- Generator: Adobe Illustrator 16.0.0, SVG Export Plug-In . SVG Version: 6.00 Build 0)  -->
<!DOCTYPE svg PUBLIC "-//W3C//DTD SVG 1.1//EN" "http://www.w3.org/Graphics/SVG/1.1/DTD/svg11.dtd">
<svg version="1.1" id="Capa_1" xmlns="http://www.w3.org/2000/svg" xmlns:xlink="http://www.w3.org/1999/xlink" x="0px" y="0px"
	 width="31px" height="31px" viewBox="0 0 31 31" style="enable-background:new 0 0 31 31;" xml:space="preserve">
<g>
	<g>
		<path d="M4.788,0v4.104H0.684V31h25.527v-4.104h4.104V0H4.788z M24.163,23.707H2.735V6.154h21.428V23.707z M28.267,24.846h-2.054
			V4.104H6.84V2.053h21.427V24.846L28.267,24.846z M9.605,12.684c-0.074-0.437,0.08-0.822,0.34-0.867
			c0.021-0.004,0.039,0.009,0.059,0.01c-0.12-3.135,1.729-4.572,3.792-4.584c2.005,0.047,3.597,1.224,3.679,4.574
			c0.016-0.004,0.029-0.012,0.047-0.01c0.262,0.043,0.416,0.434,0.348,0.865c-0.074,0.416-0.326,0.717-0.578,0.7
			c-0.551,2.024-2.202,3.522-3.55,3.586c-1.477-0.032-2.934-1.554-3.498-3.587c-0.01,0.004-0.018,0.012-0.028,0.014
			C9.949,13.43,9.677,13.117,9.605,12.684z M22.116,22.761L5.351,22.781c-0.004-3.396,2.336-4.797,5.596-5.241l1.879,3.673
			l0.293-2.39l-0.465-0.38l1.027-0.002h1.121l-0.465,0.379l0.301,2.389l1.871-3.675C19.771,17.971,22.11,19.365,22.116,22.761z"/>
	</g>
</g>
<g>
</g>
<g>
</g>
<g>
</g>
<g>
</g>
<g>
</g>
<g>
</g>
<g>
</g>
<g>
</g>
<g>
</g>
<g>
</g>
<g>
</g>
<g>
</g>
<g>
</g>
<g>
</g>
<g>
</g>
</svg>
