<?xml version="1.0" encoding="iso-8859-1"?>
<!-- Generator: Adobe Illustrator 16.0.0, SVG Export Plug-In . SVG Version: 6.00 Build 0)  -->
<!DOCTYPE svg PUBLIC "-//W3C//DTD SVG 1.1//EN" "http://www.w3.org/Graphics/SVG/1.1/DTD/svg11.dtd">
<svg version="1.1" id="Capa_1" xmlns="http://www.w3.org/2000/svg" xmlns:xlink="http://www.w3.org/1999/xlink" x="0px" y="0px"
	 width="30.504px" height="30.504px" viewBox="0 0 30.504 30.504" style="enable-background:new 0 0 30.504 30.504;"
	 xml:space="preserve">
<g>
	<g>
		<path d="M30.065,27.911l-0.877-4.92c-0.231-1.31-1.435-2.552-2.733-2.826l-0.824-0.174v-8.764C25.631,3.09,21.328,0,16.023,0
			c-5.309,0-9.608,3.09-9.608,11.227v7.938c-0.556-0.272-1.172-0.438-1.831-0.438c-2.309,0-4.186,1.877-4.186,4.186
			c0,1.443,0.735,2.721,1.854,3.473l-0.271,1.531c-0.121,0.68,0.041,1.328,0.455,1.822c0.414,0.492,1.022,0.766,1.715,0.766h23.748
			c0.69,0,1.302-0.271,1.715-0.766C30.026,29.241,30.188,28.594,30.065,27.911z M28.844,29.094
			c-0.221,0.264-0.557,0.407-0.947,0.407h-4.621v-2.522c0-0.273-0.225-0.5-0.5-0.5s-0.5,0.227-0.5,0.5v2.522H9.77v-2.522
			c0-0.273-0.224-0.5-0.5-0.5c-0.275,0-0.5,0.227-0.5,0.5v2.522H4.148c-0.391,0-0.728-0.146-0.947-0.407
			c-0.223-0.265-0.307-0.621-0.237-1.006l0.224-1.25c0.438,0.155,0.904,0.258,1.396,0.258c2.309,0,4.186-1.877,4.186-4.187
			c0-0.103-0.022-0.198-0.029-0.302c-0.053-0.713-0.271-1.381-0.639-1.95l0.976-0.205l1.899,2.155l4.758,5.402
			c0.095,0.109,0.23,0.17,0.375,0.17c0,0,0.002,0,0.004,0c0.145,0,0.281-0.063,0.375-0.174l4.619-5.398l1.849-2.16l2.678,0.564
			l0.617,0.131c0.899,0.189,1.797,1.117,1.957,2.021l0.877,4.922C29.149,28.473,29.065,28.829,28.844,29.094z M4.583,19.727
			c0.515,0,0.994,0.135,1.424,0.354c0.142,0.068,0.279,0.145,0.407,0.232c0.064,0.049,0.122,0.104,0.184,0.152
			c0.154,0.127,0.295,0.268,0.424,0.422c0.398,0.479,0.654,1.069,0.717,1.725c0.011,0.102,0.031,0.197,0.031,0.301
			c0,1.756-1.43,3.186-3.187,3.186c-0.433,0-0.845-0.088-1.222-0.246c-0.164-0.067-0.315-0.154-0.463-0.248
			c-0.16-0.1-0.31-0.215-0.447-0.342c-0.643-0.582-1.055-1.416-1.055-2.35C1.397,21.154,2.826,19.727,4.583,19.727z M9.407,11.77
			c0.121-0.032,0.246-0.006,0.371,0.062v-1.104h7.451l0.625-3.74v3.889h4.408v0.957c0.124-0.069,0.252-0.098,0.372-0.063
			c0.408,0.123,0.589,0.871,0.4,1.673c-0.186,0.776-1.107,1.315-1.51,1.233c-0.422,1.366-1.404,2.845-2.537,3.918
			c-0.15,0.146-0.307,0.285-0.465,0.414c-0.174,0.144-0.352,0.276-0.527,0.397l3.84,0.81l-2.049,2.396l-2.535,2.964l-0.646-2.966
			l-0.088-0.403l0.926-0.924l-1.162-1.16l-0.26-0.261l-0.26,0.261l-1.16,1.16l0.924,0.924l-0.088,0.403l-0.621,2.853l-2.51-2.853
			L10.2,20.216l3.814-0.804c-0.18-0.121-0.355-0.256-0.531-0.399c-0.157-0.129-0.312-0.269-0.465-0.411
			c-1.113-1.063-2.07-2.531-2.492-3.929c-0.4,0.092-1.332-0.447-1.519-1.231C8.819,12.641,8.998,11.893,9.407,11.77z"/>
		<polygon points="2.78,23.409 3.289,23.409 3.795,23.409 7.073,23.409 7.073,22.909 7.073,22.609 7.073,22.409 6.414,22.409 
			4.143,22.409 3.577,22.409 3.028,22.409 2.092,22.409 2.092,22.909 2.092,23.409 		"/>
	</g>
</g>
<g>
</g>
<g>
</g>
<g>
</g>
<g>
</g>
<g>
</g>
<g>
</g>
<g>
</g>
<g>
</g>
<g>
</g>
<g>
</g>
<g>
</g>
<g>
</g>
<g>
</g>
<g>
</g>
<g>
</g>
</svg>
