<?xml version="1.0" encoding="iso-8859-1"?>
<!-- Generator: Adobe Illustrator 16.0.0, SVG Export Plug-In . SVG Version: 6.00 Build 0)  -->
<!DOCTYPE svg PUBLIC "-//W3C//DTD SVG 1.1//EN" "http://www.w3.org/Graphics/SVG/1.1/DTD/svg11.dtd">
<svg version="1.1" id="Capa_1" xmlns="http://www.w3.org/2000/svg" xmlns:xlink="http://www.w3.org/1999/xlink" x="0px" y="0px"
	 width="33.186px" height="33.186px" viewBox="0 0 33.186 33.186" style="enable-background:new 0 0 33.186 33.186;"
	 xml:space="preserve">
<g>
	<g>
		<path d="M21.854,14.643c0-1.225-0.414-2.352-1.104-3.256V6.661c0-3.627-1.916-5.002-4.281-5.002c-2.364,0-4.281,1.375-4.281,5.002
			v4.726c-0.69,0.904-1.104,2.031-1.104,3.256v0.215h10.771L21.854,14.643L21.854,14.643z M13.521,6.902
			c0.055-0.016,0.111-0.003,0.167,0.028V6.566l0.356-0.026c1.33,0,2.49-0.557,3.127-1.386c0.461,0.602,1.196,1.06,2.077,1.266v0.511
			c0.056-0.031,0.111-0.044,0.166-0.028c0.183,0.055,0.263,0.388,0.179,0.745c-0.082,0.347-0.494,0.586-0.672,0.55
			c-0.14,0.449-0.416,0.927-0.754,1.339c-0.05,0.06-0.101,0.117-0.15,0.174c-0.055,0.062-0.111,0.121-0.17,0.178
			c0.416,0.121,0.808,0.296,1.17,0.516l-1.137,1.329l-0.863,1.008l-0.22-1.008l-0.109-0.5l0.412-0.412l-0.257-0.258l-0.376-0.375
			l-0.379,0.378l-0.255,0.255l0.412,0.412l-0.108,0.5l-0.209,0.957l-0.843-0.957l-1.17-1.328c0.359-0.217,0.746-0.393,1.157-0.514
			c-0.057-0.057-0.112-0.115-0.168-0.177c-0.05-0.057-0.1-0.115-0.147-0.175c-0.331-0.408-0.6-0.885-0.738-1.343
			c-0.179,0.042-0.595-0.199-0.677-0.549C13.259,7.29,13.339,6.957,13.521,6.902z M11.519,14.426
			c0.043-1.005,0.388-1.932,0.945-2.694c0.303-0.417,0.672-0.782,1.088-1.086l0.957,1.086l1.833,2.082
			c0.042,0.048,0.101,0.074,0.163,0.074h0.001c0.063-0.001,0.123-0.028,0.163-0.076l1.78-2.08l0.931-1.087
			c0.416,0.304,0.787,0.67,1.09,1.087c0.558,0.763,0.901,1.689,0.944,2.694H11.519z M9.666,23.326c0-3.625-1.917-5-4.281-5
			s-4.281,1.375-4.281,5v4.728C0.414,28.958,0,30.085,0,31.31v0.217h10.771V31.31c0-1.225-0.415-2.352-1.104-3.256L9.666,23.326
			L9.666,23.326z M2.438,23.569c0.055-0.018,0.111-0.004,0.167,0.027v-0.363l0.356-0.025c1.33,0,2.49-0.557,3.127-1.387
			c0.462,0.602,1.198,1.061,2.078,1.266v0.512c0.056-0.03,0.111-0.045,0.166-0.028c0.183,0.058,0.262,0.39,0.178,0.746
			c-0.082,0.349-0.493,0.586-0.672,0.551c-0.139,0.449-0.415,0.927-0.753,1.338c-0.05,0.06-0.1,0.117-0.15,0.175
			c-0.056,0.062-0.112,0.121-0.17,0.178c0.416,0.121,0.807,0.297,1.17,0.516l-1.138,1.33l-0.862,1.008l-0.22-1.008l-0.109-0.5
			l0.412-0.412l-0.257-0.258l-0.376-0.375l-0.379,0.379l-0.255,0.254l0.412,0.412l-0.108,0.5L4.846,29.36l-0.843-0.957l-1.17-1.328
			c0.359-0.217,0.746-0.393,1.157-0.514c-0.057-0.057-0.112-0.115-0.168-0.178c-0.05-0.058-0.1-0.115-0.147-0.174
			c-0.331-0.408-0.6-0.886-0.738-1.345c-0.179,0.041-0.595-0.198-0.677-0.549C2.176,23.956,2.256,23.624,2.438,23.569z
			 M10.333,31.093H0.436c0.043-1.004,0.388-1.933,0.945-2.693c0.303-0.418,0.672-0.781,1.088-1.086l0.957,1.086l1.833,2.082
			c0.042,0.047,0.101,0.072,0.163,0.072h0.001c0.063,0,0.123-0.027,0.163-0.074l1.78-2.08l0.93-1.088
			c0.417,0.305,0.787,0.67,1.091,1.088C9.945,29.16,10.289,30.089,10.333,31.093z M32.08,28.054v-4.728c0-3.625-1.916-5-4.28-5
			c-2.362,0-4.281,1.375-4.281,5v4.728c-0.688,0.904-1.104,2.031-1.104,3.256v0.217h10.771V31.31
			C33.188,30.085,32.773,28.958,32.08,28.054z M24.855,23.569c0.055-0.018,0.108-0.004,0.166,0.027v-0.363l0.354-0.025
			c1.329,0,2.491-0.557,3.127-1.387c0.463,0.602,1.198,1.061,2.077,1.266v0.512c0.058-0.03,0.113-0.045,0.166-0.028
			c0.185,0.058,0.263,0.39,0.179,0.746c-0.08,0.349-0.492,0.586-0.672,0.551c-0.14,0.449-0.414,0.927-0.752,1.338
			c-0.05,0.06-0.101,0.117-0.15,0.175c-0.057,0.062-0.11,0.121-0.17,0.178c0.416,0.121,0.808,0.297,1.17,0.516l-1.137,1.33
			l-0.863,1.008l-0.221-1.008l-0.106-0.5l0.411-0.412l-0.258-0.258L27.8,26.858l-0.377,0.377l-0.256,0.254l0.411,0.412l-0.108,0.5
			l-0.209,0.957l-0.842-0.957l-1.171-1.328c0.359-0.218,0.746-0.393,1.158-0.514c-0.059-0.057-0.112-0.115-0.168-0.178
			c-0.051-0.058-0.102-0.115-0.147-0.174c-0.33-0.408-0.601-0.886-0.738-1.345c-0.18,0.041-0.594-0.198-0.676-0.549
			C24.593,23.956,24.671,23.624,24.855,23.569z M22.853,31.093c0.044-1.004,0.39-1.933,0.945-2.693
			c0.303-0.418,0.672-0.781,1.088-1.086l0.957,1.086l1.834,2.082c0.041,0.047,0.101,0.072,0.162,0.072c0,0,0,0,0.002,0
			c0.062,0,0.121-0.027,0.162-0.074l1.778-2.08l0.933-1.088c0.416,0.305,0.784,0.67,1.09,1.088c0.558,0.762,0.901,1.689,0.944,2.693
			H22.853z M22.486,24.255l-0.398,0.692l-5.619-3.244l-5.618,3.244l-0.4-0.692l5.618-3.244v-5.216h0.8v5.216L22.486,24.255z"/>
	</g>
</g>
<g>
</g>
<g>
</g>
<g>
</g>
<g>
</g>
<g>
</g>
<g>
</g>
<g>
</g>
<g>
</g>
<g>
</g>
<g>
</g>
<g>
</g>
<g>
</g>
<g>
</g>
<g>
</g>
<g>
</g>
</svg>
