<?xml version="1.0" encoding="iso-8859-1"?>
<!-- Generator: Adobe Illustrator 16.0.0, SVG Export Plug-In . SVG Version: 6.00 Build 0)  -->
<!DOCTYPE svg PUBLIC "-//W3C//DTD SVG 1.1//EN" "http://www.w3.org/Graphics/SVG/1.1/DTD/svg11.dtd">
<svg version="1.1" id="Capa_1" xmlns="http://www.w3.org/2000/svg" xmlns:xlink="http://www.w3.org/1999/xlink" x="0px" y="0px"
	 width="30.5px" height="30.5px" viewBox="0 0 30.5 30.5" style="enable-background:new 0 0 30.5 30.5;" xml:space="preserve">
<g>
	<path d="M29.98,27.911l-0.877-4.92c-0.229-1.31-1.433-2.552-2.733-2.826l-0.824-0.174v-8.764C25.545,3.09,21.245,0,15.938,0
		c-5.307,0-9.607,3.09-9.607,11.227v7.848c-0.512-0.224-1.073-0.351-1.665-0.351c-2.308,0-4.187,1.877-4.187,4.185
		c0,1.379,0.679,2.592,1.709,3.354l-0.293,1.648c-0.121,0.68,0.041,1.328,0.455,1.822C2.764,30.227,3.372,30.5,4.065,30.5h23.748
		c0.689,0,1.301-0.271,1.715-0.766C29.941,29.238,30.104,28.594,29.98,27.911z M28.76,29.094c-0.221,0.264-0.559,0.407-0.947,0.407
		h-4.621v-2.522c0-0.273-0.225-0.5-0.5-0.5s-0.5,0.227-0.5,0.5v2.522H9.686v-2.522c0-0.273-0.225-0.5-0.5-0.5
		c-0.276,0-0.5,0.227-0.5,0.5v2.522H4.065c-0.392,0-0.729-0.146-0.948-0.407c-0.222-0.265-0.306-0.621-0.237-1.006l0.23-1.3
		c0.481,0.192,1.006,0.308,1.556,0.308c2.308,0,4.187-1.877,4.187-4.187c0-0.103-0.023-0.198-0.031-0.302
		c-0.053-0.727-0.276-1.403-0.655-1.981l0.827-0.174l1.898,2.155l4.758,5.402c0.096,0.109,0.231,0.17,0.375,0.17
		c0.1-0.012,0.285-0.062,0.381-0.174l4.617-5.398l1.849-2.159l2.678,0.563l0.619,0.131c0.897,0.189,1.795,1.117,1.955,2.021
		L29,28.086C29.064,28.473,28.98,28.829,28.76,29.094z M4.665,19.727c0.495,0,0.959,0.123,1.378,0.326
		c0.099,0.047,0.194,0.1,0.287,0.155c0.11,0.067,0.214,0.146,0.315,0.228c0.158,0.127,0.301,0.27,0.433,0.42
		c0.413,0.484,0.679,1.09,0.741,1.756c0.011,0.102,0.031,0.197,0.031,0.301c0,1.756-1.43,3.186-3.187,3.186
		c-0.494,0-0.956-0.123-1.373-0.324c-0.161-0.078-0.315-0.164-0.461-0.266c-0.157-0.111-0.308-0.234-0.44-0.373
		c-0.562-0.574-0.91-1.357-0.91-2.223C1.479,21.154,2.908,19.727,4.665,19.727z M9.324,11.77c0.12-0.032,0.247-0.006,0.372,0.062
		v-1.104h7.449l0.625-3.74v3.889h4.41v0.957c0.123-0.069,0.25-0.098,0.371-0.063c0.408,0.123,0.588,0.871,0.4,1.673
		c-0.185,0.776-1.107,1.315-1.511,1.233c-0.422,1.366-1.403,2.845-2.535,3.918c-0.151,0.146-0.309,0.285-0.465,0.414
		c-0.176,0.144-0.353,0.276-0.528,0.397l3.84,0.81l-2.049,2.396l-2.537,2.966l-0.646-2.966l-0.088-0.403l0.924-0.924l-1.162-1.16
		l-0.258-0.261l-0.26,0.261l-1.161,1.16l0.926,0.924l-0.088,0.403l-0.623,2.853l-2.51-2.853l-2.106-2.394l3.813-0.804
		c-0.179-0.121-0.354-0.256-0.531-0.398c-0.156-0.13-0.312-0.27-0.463-0.412c-1.115-1.063-2.072-2.53-2.494-3.929
		c-0.399,0.092-1.332-0.447-1.518-1.231C8.735,12.641,8.914,11.893,9.324,11.77z M2.174,23.409v-0.5v-0.5h0.771h0.548h0.563h0.108
		v-0.166v-0.765v-0.67v-0.391h0.5h0.142h0.358v0.379v0.555v1.058h1.164h0.825v0.198v0.302v0.5H5.164v1.989h-0.5h-0.5v-1.989H3.71
		H3.203H2.694H2.174z"/>
</g>
<g>
</g>
<g>
</g>
<g>
</g>
<g>
</g>
<g>
</g>
<g>
</g>
<g>
</g>
<g>
</g>
<g>
</g>
<g>
</g>
<g>
</g>
<g>
</g>
<g>
</g>
<g>
</g>
<g>
</g>
</svg>
