<?xml version="1.0" encoding="iso-8859-1"?>
<!-- Generator: Adobe Illustrator 16.0.0, SVG Export Plug-In . SVG Version: 6.00 Build 0)  -->
<!DOCTYPE svg PUBLIC "-//W3C//DTD SVG 1.1//EN" "http://www.w3.org/Graphics/SVG/1.1/DTD/svg11.dtd">
<svg version="1.1" id="Capa_1" xmlns="http://www.w3.org/2000/svg" xmlns:xlink="http://www.w3.org/1999/xlink" x="0px" y="0px"
	 width="36.242px" height="36.242px" viewBox="0 0 36.242 36.242" style="enable-background:new 0 0 36.242 36.242;"
	 xml:space="preserve">
<g>
	<g>
		<path d="M15.87,21.42l-0.509-2.776c-0.135-0.735-0.812-1.432-1.545-1.582l-3.427-0.705c0.474-0.601,0.845-1.328,1.104-2.056
			c0.44-0.168,0.877-0.569,0.997-1.086c0.159-0.683-0.031-1.289-0.459-1.547l-0.009-0.481c0.363-1.168,0.533-3.071-1.236-4.065
			C9.993,6.681,9.342,6.662,8.852,6.83c-0.079-0.197,0.145-0.49,0.145-0.49C8.593,6.333,8.385,6.552,8.298,6.674
			c-0.543-0.236-1.25-0.332-2.149-0.127c-2.888,0.659-3.189,4.461-2.646,5.28c-0.409,0.276-0.575,0.881-0.395,1.552
			c0.139,0.516,0.594,0.9,1.04,1.055c0.275,0.707,0.661,1.406,1.142,1.985l-1.143,0.247l0,0l0,0l-2.116,0.458
			c-0.732,0.157-1.403,0.857-1.531,1.594l-0.479,2.784c-0.066,0.384,0.025,0.746,0.26,1.022c0.234,0.273,0.577,0.425,0.964,0.425
			l13.416-0.072h0.021c0.382-0.006,0.717-0.162,0.942-0.438C15.853,22.161,15.939,21.797,15.87,21.42z M7.622,18.513l-0.38,1.629
			l-2.678-3.01l1.165-0.252c0.483,0.449,1.049,0.77,1.683,0.868l-0.314,0.29L7.622,18.513z M8.581,20.144l-0.396-1.635l0.519-0.479
			l-0.335-0.301c0.607-0.125,1.143-0.451,1.602-0.899l1.21,0.248L8.581,20.144z M4.6,13.88c-0.233,0.057-0.782-0.23-0.897-0.658
			c-0.119-0.438-0.021-0.849,0.217-0.922c0.07-0.02,0.146-0.006,0.22,0.03l-0.013-0.654c0.001-0.003,0.002-0.003,0.002-0.007
			c-0.001-0.007-0.002-0.021-0.003-0.029l-0.004-0.226c0.049-0.556,0.557-1.62,3.466-0.724c1.002,0.311,1.607-0.221,1.906-0.91
			c0.984,0.093,1.659,1.195,1.924,1.881l0.011,0.543c0.034-0.02,0.071-0.033,0.107-0.042c-0.001,0.005-0.001,0.015-0.003,0.019
			c0.009,0.008,0.023,0.004,0.042-0.017c0.023-0.002,0.046-0.005,0.069,0c0.237,0.063,0.352,0.472,0.249,0.914
			c-0.101,0.427-0.635,0.729-0.869,0.69c-0.242,0.783-0.689,1.744-1.321,2.446c-0.073,0.08-0.148,0.158-0.229,0.232
			C9.389,16.525,9.3,16.598,9.207,16.67c-0.394,0.299-0.842,0.49-1.342,0.498c-0.51,0.01-0.969-0.167-1.376-0.454
			c-0.096-0.067-0.188-0.141-0.276-0.218c-0.081-0.072-0.158-0.148-0.235-0.229C5.335,15.598,4.868,14.667,4.6,13.88z M14.66,22.333
			l-2.62,0.015l-0.007-1.437c-0.001-0.149-0.123-0.271-0.275-0.271c-0.001,0-0.002,0-0.004,0c-0.148,0.004-0.267,0.125-0.267,0.272
			l0.007,1.438l-7.083,0.033L4.402,20.95c0-0.15-0.123-0.272-0.274-0.271c-0.001,0-0.002,0-0.003,0
			c-0.148,0.002-0.269,0.123-0.269,0.272l0.008,1.438l-2.622,0.014c-0.223,0-0.416-0.08-0.543-0.232
			c-0.128-0.15-0.177-0.355-0.14-0.574l0.479-2.783c0.088-0.516,0.596-1.046,1.108-1.156l1.804-0.391l3.778,4.247
			c0.052,0.06,0.128,0.094,0.207,0.092h0.001c0.079-0.002,0.151-0.036,0.203-0.098l3.646-4.305l1.919,0.395
			c0.514,0.106,1.024,0.631,1.119,1.145l0.509,2.778c0.04,0.218-0.006,0.423-0.13,0.572c-0.123,0.152-0.312,0.236-0.533,0.24
			l0.005,0.273L14.66,22.333z M34.37,33.254l-0.509-2.776c-0.136-0.734-0.812-1.433-1.546-1.58l-3.427-0.705
			c0.475-0.603,0.845-1.328,1.104-2.057c0.439-0.168,0.877-0.568,0.997-1.087c0.158-0.682-0.031-1.288-0.459-1.547l-0.01-0.479
			c0.363-1.168,0.533-3.072-1.235-4.066c-0.793-0.441-1.444-0.46-1.935-0.293c-0.079-0.197,0.146-0.49,0.146-0.49
			c-0.404-0.006-0.612,0.212-0.699,0.336c-0.543-0.237-1.25-0.333-2.149-0.128c-2.888,0.659-3.188,4.462-2.646,5.28
			c-0.409,0.277-0.575,0.881-0.396,1.553c0.14,0.516,0.595,0.9,1.04,1.055c0.275,0.707,0.661,1.406,1.143,1.984l-1.144,0.248l0,0
			l0,0l-2.115,0.459c-0.732,0.156-1.403,0.857-1.531,1.594l-0.479,2.782c-0.066,0.384,0.025,0.746,0.26,1.022
			c0.233,0.273,0.576,0.425,0.964,0.425l13.416-0.072h0.021c0.382-0.006,0.717-0.162,0.942-0.438
			C34.353,33.995,34.438,33.631,34.37,33.254z M26.122,30.349l-0.38,1.629l-2.679-3.01l1.165-0.253
			c0.483,0.449,1.05,0.771,1.684,0.867l-0.314,0.291L26.122,30.349z M27.081,31.978l-0.396-1.635l0.52-0.479l-0.335-0.302
			c0.606-0.125,1.143-0.45,1.602-0.899l1.21,0.248L27.081,31.978z M23.1,25.715c-0.232,0.058-0.782-0.229-0.896-0.657
			c-0.119-0.438-0.021-0.851,0.217-0.922c0.07-0.021,0.146-0.007,0.22,0.028l-0.013-0.651c0.001-0.004,0.002-0.004,0.002-0.009
			c-0.001-0.008-0.002-0.021-0.003-0.028l-0.004-0.228c0.049-0.555,0.557-1.619,3.466-0.724c1.002,0.312,1.607-0.221,1.906-0.909
			c0.983,0.092,1.659,1.194,1.924,1.881l0.011,0.543c0.034-0.021,0.071-0.033,0.107-0.043c-0.001,0.006-0.001,0.017-0.003,0.021
			c0.009,0.008,0.022,0.004,0.042-0.019c0.022-0.002,0.046-0.004,0.068,0c0.237,0.063,0.353,0.474,0.249,0.914
			c-0.101,0.428-0.635,0.729-0.869,0.69c-0.241,0.783-0.688,1.744-1.32,2.445c-0.073,0.08-0.148,0.158-0.229,0.232
			c-0.085,0.08-0.174,0.152-0.267,0.225c-0.395,0.299-0.842,0.49-1.342,0.498c-0.511,0.01-0.97-0.168-1.376-0.455
			c-0.097-0.066-0.188-0.141-0.276-0.217c-0.081-0.072-0.158-0.148-0.235-0.229C23.835,27.433,23.368,26.5,23.1,25.715z
			 M33.16,34.167l-2.62,0.015l-0.007-1.437c-0.001-0.147-0.123-0.271-0.275-0.271c-0.001,0-0.002,0-0.004,0
			c-0.148,0.004-0.267,0.125-0.267,0.272l0.007,1.438l-7.083,0.033l-0.01-1.435c0-0.15-0.122-0.272-0.273-0.271
			c-0.001,0-0.002,0-0.003,0c-0.148,0.002-0.27,0.123-0.27,0.272l0.009,1.438l-2.622,0.014c-0.224,0-0.416-0.08-0.543-0.232
			c-0.128-0.15-0.178-0.355-0.141-0.574l0.479-2.783c0.088-0.516,0.596-1.047,1.107-1.155l1.805-0.392l3.777,4.246
			c0.053,0.06,0.128,0.094,0.207,0.092h0.001c0.079-0.002,0.151-0.036,0.203-0.098l3.646-4.305l1.919,0.395
			c0.514,0.105,1.023,0.631,1.119,1.146l0.509,2.778c0.04,0.218-0.006,0.423-0.13,0.572c-0.123,0.152-0.312,0.236-0.533,0.24
			l0.005,0.273L33.16,34.167z M36.242,15.083h-1V2.458h-18.5v-1h19.5V15.083z M15.367,3.375V16.5h3.292v4.125l4.125-4.125h11.583
			V3.375H15.367z M24.667,14.662c-2.419,0-4.379-1.961-4.379-4.378c0-2.391,1.916-4.328,4.295-4.373v4.539h4.452
			C28.948,12.789,27.03,14.662,24.667,14.662z M25.328,9.789V5.762c2.11,0.198,3.787,1.9,3.945,4.027H25.328z"/>
	</g>
</g>
<g>
</g>
<g>
</g>
<g>
</g>
<g>
</g>
<g>
</g>
<g>
</g>
<g>
</g>
<g>
</g>
<g>
</g>
<g>
</g>
<g>
</g>
<g>
</g>
<g>
</g>
<g>
</g>
<g>
</g>
</svg>
