<?xml version="1.0" encoding="iso-8859-1"?>
<!-- Generator: Adobe Illustrator 16.0.0, SVG Export Plug-In . SVG Version: 6.00 Build 0)  -->
<!DOCTYPE svg PUBLIC "-//W3C//DTD SVG 1.1//EN" "http://www.w3.org/Graphics/SVG/1.1/DTD/svg11.dtd">
<svg version="1.1" id="Capa_1" xmlns="http://www.w3.org/2000/svg" xmlns:xlink="http://www.w3.org/1999/xlink" x="0px" y="0px"
	 width="24.493px" height="24.492px" viewBox="0 0 24.493 24.492" style="enable-background:new 0 0 24.493 24.492;"
	 xml:space="preserve">
<g>
	<g>
		<path d="M23.525,22.412l-0.705-3.949c-0.184-1.053-1.152-2.051-2.195-2.271l-0.662-0.141V9.016C19.962,2.479,16.508,0,12.244,0
			c-4.26,0-7.715,2.479-7.715,9.016v7.035l-0.66,0.141c-1.045,0.223-2.01,1.221-2.197,2.271l-0.705,3.949
			C0.871,22.961,1,23.48,1.332,23.877c0.332,0.395,0.824,0.615,1.377,0.615h19.072c0.56,0,1.047-0.221,1.381-0.615
			C23.492,23.48,23.621,22.961,23.525,22.412z M6.934,9.449C7.035,9.422,7.133,9.445,7.235,9.5V8.611h5.98l0.502-3.004v3.125h3.541
			V9.5c0.104-0.055,0.2-0.078,0.301-0.051c0.33,0.1,0.474,0.699,0.319,1.344c-0.146,0.623-0.891,1.057-1.211,0.99
			c-0.049,0.158-0.125,0.318-0.19,0.479l-0.024-0.021c-0.857,1.014-2.544,1.071-3.462,1.021c-0.125-0.265-0.39-0.449-0.701-0.449
			c-0.433,0-0.781,0.35-0.781,0.781c0,0.43,0.351,0.78,0.781,0.78c0.254,0,0.469-0.129,0.61-0.313
			c0.162,0.011,0.341,0.019,0.543,0.019c0.652,0,1.474-0.08,2.229-0.373c-0.312,0.442-0.658,0.865-1.035,1.226
			c-0.125,0.116-0.248,0.229-0.373,0.334c-0.145,0.114-0.285,0.224-0.425,0.321l3.08,0.648l-1.646,1.922l-2.035,2.383l-0.516-2.383
			l-0.076-0.324l0.746-0.741l-0.935-0.937l-0.211-0.203l-0.207,0.209l-0.931,0.931l0.744,0.741l-0.073,0.324l-0.5,2.287L9.26,18.157
			l-1.692-1.922l3.063-0.646c-0.145-0.096-0.287-0.206-0.43-0.319c-0.123-0.104-0.244-0.215-0.371-0.332
			c-0.891-0.854-1.662-2.032-2-3.151c-0.324,0.072-1.072-0.363-1.219-0.99C6.463,10.148,6.605,9.549,6.934,9.449z M22.542,23.361
			c-0.176,0.213-0.446,0.328-0.762,0.328h-3.713v-2.025c0-0.223-0.178-0.402-0.402-0.402c-0.221,0-0.397,0.18-0.397,0.402v2.025
			H7.226v-2.025c0-0.223-0.183-0.402-0.404-0.402c-0.223,0-0.4,0.18-0.4,0.402v2.025H2.709c-0.312,0-0.584-0.115-0.76-0.328
			c-0.178-0.211-0.246-0.498-0.191-0.807L2.463,18.6c0.129-0.727,0.848-1.469,1.568-1.623l0.498-0.102l2.141-0.453l1.521,1.73
			l3.82,4.34c0.077,0.086,0.188,0.133,0.303,0.133h0.004c0.115,0,0.225-0.049,0.299-0.137l3.712-4.336l1.484-1.732l2.146,0.455
			l0.496,0.102c0.723,0.154,1.44,0.896,1.572,1.625l0.702,3.953C22.789,22.863,22.723,23.15,22.542,23.361z"/>
	</g>
</g>
<g>
</g>
<g>
</g>
<g>
</g>
<g>
</g>
<g>
</g>
<g>
</g>
<g>
</g>
<g>
</g>
<g>
</g>
<g>
</g>
<g>
</g>
<g>
</g>
<g>
</g>
<g>
</g>
<g>
</g>
</svg>
