<?xml version="1.0" encoding="iso-8859-1"?>
<!-- Generator: Adobe Illustrator 16.0.0, SVG Export Plug-In . SVG Version: 6.00 Build 0)  -->
<!DOCTYPE svg PUBLIC "-//W3C//DTD SVG 1.1//EN" "http://www.w3.org/Graphics/SVG/1.1/DTD/svg11.dtd">
<svg version="1.1" id="Capa_1" xmlns="http://www.w3.org/2000/svg" xmlns:xlink="http://www.w3.org/1999/xlink" x="0px" y="0px"
	 width="30.502px" height="30.502px" viewBox="0 0 30.502 30.502" style="enable-background:new 0 0 30.502 30.502;"
	 xml:space="preserve">
<g>
	<g>
		<path d="M29.255,27.929l-0.865-4.881c-0.231-1.301-1.427-2.53-2.717-2.801l-0.445-0.095v-9.025C25.228,3.063,20.962,0,15.704,0
			c-5.26,0-9.523,3.062-9.523,11.127v7.023c-0.256-0.049-0.518-0.08-0.787-0.08c-2.308,0-4.186,1.878-4.186,4.187
			c0,0.9,0.293,1.731,0.779,2.416l-0.579,3.256c-0.12,0.677,0.04,1.318,0.45,1.81c0.412,0.492,1.018,0.764,1.703,0.764h23.542
			c0.688,0,1.293-0.271,1.703-0.764C29.216,29.247,29.376,28.605,29.255,27.929z M28.038,29.098
			c-0.221,0.26-0.553,0.403-0.938,0.403h-4.576v-1.172h5.742C28.272,28.618,28.21,28.891,28.038,29.098z M3.561,29.501
			c-0.385,0-0.718-0.146-0.936-0.403c-0.173-0.207-0.234-0.479-0.23-0.769h5.744v1.172H3.561z M9.139,29.501v-2.86
			c0-0.275-0.225-0.5-0.5-0.5c-0.277,0-0.5,0.225-0.5,0.5v0.688H2.53l0.316-1.775c0.707,0.548,1.584,0.888,2.547,0.888
			c2.256,0,4.088-1.797,4.17-4.031c0.002-0.053,0.016-0.102,0.016-0.152c0-0.67-0.174-1.297-0.456-1.857l0.644-0.137
			c1.096,1.086,2.478,1.834,3.973,2.146c0.531,0.111,1.076,0.17,1.628,0.17c0.562,0,1.113-0.059,1.648-0.17
			c1.486-0.311,2.842-1.044,3.944-2.135l4.269,0.899l0.239,0.052c0.89,0.188,1.776,1.102,1.937,1.998l0.729,4.104h-5.608v-0.688
			c0-0.275-0.225-0.5-0.5-0.5s-0.5,0.225-0.5,0.5v2.86H9.139z M5.393,19.07c0.272,0,0.533,0.046,0.787,0.109
			c0.428,0.109,0.816,0.307,1.156,0.57c0.16,0.125,0.309,0.264,0.441,0.418c0.121,0.137,0.231,0.283,0.328,0.441
			c0.293,0.479,0.472,1.041,0.472,1.645c0,0.053-0.013,0.102-0.017,0.152c-0.08,1.684-1.465,3.031-3.17,3.031
			c-0.929,0-1.759-0.405-2.341-1.041c-0.157-0.172-0.291-0.359-0.407-0.562c-0.154-0.268-0.276-0.555-0.349-0.859
			c-0.054-0.231-0.089-0.473-0.089-0.721C2.206,20.501,3.635,19.07,5.393,19.07z M9.02,11.665c0.121-0.034,0.246-0.006,0.369,0.062
			v-1.001h7.483l0.625-3.74v3.89h4.268v0.853c0.121-0.069,0.246-0.098,0.367-0.063c0.405,0.121,0.582,0.863,0.396,1.656
			c-0.182,0.771-1.098,1.305-1.494,1.225c-0.452,1.464-1.555,3.057-2.789,4.135c-0.166,0.146-0.335,0.278-0.506,0.403
			c-0.194,0.146-0.391,0.276-0.588,0.39c0.017,0.004,0.035,0.006,0.051,0.01l2.55,0.537c-1.235,1.008-2.761,1.561-4.386,1.561
			c-1.607,0-3.158-0.568-4.393-1.572l2.489-0.523c0.122-0.026,0.258-0.049,0.401-0.069c-0.198-0.117-0.396-0.252-0.594-0.399
			c-0.166-0.127-0.332-0.263-0.494-0.408c-1.181-1.062-2.207-2.603-2.647-4.061c-0.397,0.092-1.321-0.443-1.505-1.223
			C8.438,12.527,8.611,11.786,9.02,11.665z"/>
		<polygon points="3.631,24.018 3.984,24.37 5.393,22.964 6.8,24.37 7.152,24.018 7.507,23.663 6.252,22.408 6.18,22.335 
			6.1,22.257 6.18,22.177 7.507,20.85 7.415,20.757 7.152,20.495 6.993,20.335 6.8,20.143 6.503,20.439 6.18,20.764 5.855,21.085 
			5.393,21.55 5.098,21.255 4.699,20.855 4.325,20.482 3.984,20.143 3.631,20.495 3.277,20.85 3.475,21.044 3.829,21.4 
			4.182,21.751 4.686,22.257 3.277,23.663 		"/>
	</g>
</g>
<g>
</g>
<g>
</g>
<g>
</g>
<g>
</g>
<g>
</g>
<g>
</g>
<g>
</g>
<g>
</g>
<g>
</g>
<g>
</g>
<g>
</g>
<g>
</g>
<g>
</g>
<g>
</g>
<g>
</g>
</svg>
