<?xml version="1.0" encoding="iso-8859-1"?>
<!-- Generator: Adobe Illustrator 16.0.0, SVG Export Plug-In . SVG Version: 6.00 Build 0)  -->
<!DOCTYPE svg PUBLIC "-//W3C//DTD SVG 1.1//EN" "http://www.w3.org/Graphics/SVG/1.1/DTD/svg11.dtd">
<svg version="1.1" id="Capa_1" xmlns="http://www.w3.org/2000/svg" xmlns:xlink="http://www.w3.org/1999/xlink" x="0px" y="0px"
	 width="29.839px" height="29.84px" viewBox="0 0 29.839 29.84" style="enable-background:new 0 0 29.839 29.84;"
	 xml:space="preserve">
<g>
	<g>
		<g>
			<path d="M7.395,19.324h15.051c0.438,0,0.824-0.172,1.086-0.484c0.263-0.312,0.365-0.725,0.289-1.156l-0.558-3.118
				c-0.147-0.83-0.909-1.617-1.731-1.791l-0.521-0.109V7.113c0-5.155-2.728-7.113-6.09-7.113c-3.361,0-6.09,1.958-6.09,7.113v5.553
				L8.31,12.775c-0.822,0.174-1.586,0.961-1.73,1.791l-0.557,3.118c-0.076,0.432,0.025,0.844,0.287,1.156
				C6.568,19.152,6.956,19.324,7.395,19.324z M10.729,7.457c0.078-0.025,0.156-0.004,0.235,0.038V6.794h4.722l0.396-2.368v2.467
				h2.793v0.604c0.08-0.042,0.157-0.062,0.235-0.038c0.263,0.076,0.373,0.549,0.254,1.058c-0.114,0.494-0.702,0.836-0.955,0.782
				c-0.268,0.866-0.893,1.804-1.606,2.483c-0.098,0.091-0.195,0.18-0.293,0.263c-0.111,0.089-0.226,0.176-0.336,0.252l2.434,0.513
				l-1.299,1.516l-1.607,1.879l-0.408-1.879l-0.059-0.254l0.588-0.586l-0.737-0.736l-0.165-0.163l-0.165,0.163l-0.733,0.734
				l0.588,0.586l-0.061,0.254l-0.393,1.807l-1.592-1.807l-1.336-1.516l2.418-0.509c-0.112-0.073-0.227-0.163-0.338-0.252
				c-0.099-0.083-0.195-0.17-0.293-0.261c-0.705-0.676-1.311-1.604-1.578-2.489c-0.256,0.06-0.848-0.286-0.963-0.782
				C10.356,8.005,10.468,7.533,10.729,7.457z M7.199,14.675c0.103-0.57,0.669-1.158,1.238-1.279l0.392-0.082l1.69-0.355l1.2,1.363
				l3.015,3.428c0.062,0.066,0.148,0.105,0.237,0.105h0.005c0.09,0,0.178-0.041,0.234-0.109l2.929-3.424l1.173-1.365l1.695,0.357
				l0.391,0.082c0.57,0.121,1.139,0.709,1.24,1.279l0.557,3.12c0.041,0.244-0.012,0.471-0.15,0.639
				c-0.141,0.168-0.354,0.258-0.602,0.258h-2.93v-1.598c0-0.176-0.143-0.316-0.316-0.316c-0.176,0-0.316,0.142-0.316,0.316v1.598
				h-7.922v-1.598c0-0.176-0.144-0.316-0.318-0.316c-0.174,0-0.315,0.142-0.315,0.316v1.598h-2.93c-0.248,0-0.461-0.09-0.602-0.258
				c-0.139-0.168-0.191-0.395-0.15-0.639L7.199,14.675z"/>
		</g>
		<g>
			<polygon points="5.947,20.053 5.947,23.166 5.947,23.762 5.947,29.84 7.729,29.84 7.729,23.762 22.111,23.762 22.111,29.84 
				23.893,29.84 23.893,23.762 23.893,23.166 23.893,20.053 			"/>
		</g>
	</g>
</g>
<g>
</g>
<g>
</g>
<g>
</g>
<g>
</g>
<g>
</g>
<g>
</g>
<g>
</g>
<g>
</g>
<g>
</g>
<g>
</g>
<g>
</g>
<g>
</g>
<g>
</g>
<g>
</g>
<g>
</g>
</svg>
