<?xml version="1.0" encoding="iso-8859-1"?>
<!-- Generator: Adobe Illustrator 16.0.0, SVG Export Plug-In . SVG Version: 6.00 Build 0)  -->
<!DOCTYPE svg PUBLIC "-//W3C//DTD SVG 1.1//EN" "http://www.w3.org/Graphics/SVG/1.1/DTD/svg11.dtd">
<svg version="1.1" id="Capa_1" xmlns="http://www.w3.org/2000/svg" xmlns:xlink="http://www.w3.org/1999/xlink" x="0px" y="0px"
	 width="30.166px" height="30.166px" viewBox="0 0 30.166 30.166" style="enable-background:new 0 0 30.166 30.166;"
	 xml:space="preserve">
<g>
	<g>
		<path d="M19.121,29.348l-0.251-1.412c-0.066-0.377-0.414-0.733-0.789-0.812l-1.297-0.274l-0.269-0.545
			c-0.015-0.027-0.037-0.049-0.062-0.062c0.234-0.302,0.422-0.659,0.56-1.019c0.23-0.084,0.465-0.291,0.53-0.56
			c0.09-0.356-0.005-0.678-0.227-0.813v-0.252c0.203-0.607,0.309-1.604-0.61-2.143c-0.411-0.238-0.752-0.255-1.009-0.171
			c-0.04-0.104,0.078-0.258,0.078-0.258c-0.211-0.008-0.322,0.106-0.367,0.171c-0.284-0.132-0.653-0.187-1.126-0.089
			c-1.519,0.32-1.712,2.31-1.435,2.744c-0.217,0.142-0.31,0.455-0.221,0.81c0.068,0.27,0.303,0.479,0.534,0.562
			c0.134,0.358,0.319,0.715,0.554,1.019c-0.023,0.014-0.047,0.032-0.061,0.061l-0.268,0.547l-1.299,0.273
			c-0.376,0.079-0.722,0.438-0.789,0.813l-0.251,1.412c-0.034,0.196,0.013,0.383,0.132,0.527c0.119,0.144,0.297,0.223,0.496,0.223
			h6.815c0.2,0,0.377-0.078,0.495-0.223C19.109,29.729,19.156,29.545,19.121,29.348z M18.762,29.686
			c-0.062,0.074-0.157,0.114-0.269,0.114h-1.32v-0.767c0-0.082-0.064-0.148-0.148-0.148c-0.082,0-0.147,0.066-0.147,0.148V29.8
			h-3.579v-0.767c0-0.082-0.066-0.148-0.148-0.148s-0.147,0.066-0.147,0.148V29.8h-1.321c-0.111,0-0.207-0.04-0.268-0.114
			c-0.062-0.074-0.088-0.176-0.068-0.285l0.254-1.41c0.045-0.26,0.301-0.521,0.557-0.576l1.209-0.254
			c0.007,0.005,0.013,0.012,0.021,0.019l1.306,0.756c0.023,0.016,0.049,0.021,0.074,0.021c0.016,0,0.03-0.002,0.045-0.005
			c0.039-0.016,0.072-0.04,0.09-0.078l0.19-0.391l0.19,0.391c0.018,0.038,0.051,0.062,0.089,0.078
			c0.015,0.003,0.03,0.005,0.044,0.005c0.025,0,0.052-0.005,0.074-0.021l1.307-0.756c0.01-0.007,0.017-0.014,0.021-0.019
			l1.207,0.254c0.258,0.055,0.514,0.316,0.559,0.576l0.252,1.41C18.849,29.51,18.824,29.608,18.762,29.686z M13.757,26.77
			l0.097-0.195l0.223,0.13l0.191,0.108l0.192,0.112l0.44,0.255l-0.202,0.414l-0.911-0.527l-0.139-0.077l0.025-0.052L13.757,26.77z
			 M16.415,26.77l0.082,0.168l0.022,0.052l-0.137,0.076l-0.91,0.527l-0.203-0.414l0.44-0.255l0.192-0.112l0.194-0.108l0.221-0.13
			L16.415,26.77z M13.404,24.938c-0.123,0.025-0.407-0.129-0.465-0.354c-0.059-0.229-0.002-0.442,0.121-0.479
			c0.037-0.008,0.076,0,0.115,0.021v-0.345c0-0.003,0.001-0.003,0.001-0.003c0-0.006-0.001-0.012-0.001-0.018v-0.117
			c0.031-0.291,0.305-0.844,1.821-0.348c0.521,0.171,0.845-0.101,1.007-0.459c0.517,0.059,0.859,0.643,0.99,1.002v0.285
			c0.021-0.01,0.038-0.019,0.057-0.021c0,0.002,0,0.008-0.001,0.008c0.004,0.008,0.014,0.005,0.021-0.006
			c0.014,0,0.025-0.002,0.037,0c0.125,0.035,0.181,0.25,0.121,0.479c-0.057,0.225-0.338,0.378-0.459,0.354
			c-0.195,0.595-0.619,1.381-1.231,1.655c-0.142,0.062-0.293,0.099-0.454,0.099c-0.162,0-0.314-0.037-0.457-0.099
			C14.016,26.321,13.6,25.545,13.404,24.938z M13.604,18.758l-0.25-1.412c-0.067-0.378-0.414-0.734-0.789-0.812l-1.297-0.273
			l-0.27-0.547c-0.014-0.026-0.036-0.048-0.062-0.062c0.235-0.301,0.422-0.656,0.559-1.018c0.232-0.084,0.466-0.291,0.531-0.56
			c0.091-0.357-0.004-0.677-0.226-0.814v-0.252c0.201-0.608,0.308-1.604-0.61-2.142c-0.412-0.238-0.752-0.256-1.01-0.17
			c-0.039-0.105,0.079-0.258,0.079-0.258c-0.212-0.008-0.323,0.106-0.368,0.17c-0.283-0.131-0.652-0.186-1.125-0.086
			c-1.519,0.317-1.713,2.307-1.436,2.742c-0.217,0.141-0.309,0.455-0.221,0.809c0.067,0.27,0.303,0.479,0.535,0.562
			c0.133,0.359,0.318,0.716,0.554,1.019c-0.024,0.015-0.048,0.033-0.062,0.062l-0.269,0.547l-1.298,0.273
			c-0.375,0.08-0.721,0.438-0.788,0.813L5.53,18.759c-0.035,0.198,0.011,0.386,0.132,0.528c0.119,0.145,0.297,0.222,0.496,0.222
			h6.815c0.199,0,0.377-0.077,0.496-0.222C13.592,19.143,13.639,18.956,13.604,18.758z M13.243,19.096
			c-0.062,0.074-0.157,0.115-0.269,0.115h-1.32v-0.769c0-0.082-0.066-0.147-0.148-0.147c-0.083,0-0.148,0.065-0.148,0.147v0.769
			H7.78v-0.769c0-0.082-0.066-0.147-0.148-0.147s-0.148,0.065-0.148,0.147v0.769h-1.32c-0.111,0-0.207-0.041-0.268-0.115
			c-0.063-0.074-0.088-0.176-0.068-0.285l0.253-1.41c0.045-0.26,0.301-0.521,0.556-0.576l1.21-0.256
			c0.007,0.008,0.013,0.014,0.021,0.02l1.307,0.757c0.023,0.014,0.049,0.021,0.074,0.021c0.015,0,0.029-0.004,0.045-0.008
			c0.038-0.014,0.072-0.039,0.089-0.076l0.19-0.391l0.19,0.391c0.019,0.037,0.052,0.062,0.089,0.076
			c0.016,0.004,0.03,0.008,0.045,0.008c0.024,0,0.051-0.008,0.073-0.021l1.306-0.757c0.011-0.006,0.016-0.012,0.022-0.02
			l1.207,0.256c0.257,0.055,0.513,0.316,0.558,0.576l0.252,1.41C13.33,18.92,13.307,19.02,13.243,19.096z M8.238,16.182l0.098-0.197
			l0.223,0.131l0.191,0.109l0.191,0.111l0.44,0.255l-0.202,0.414l-0.91-0.528L8.13,16.398l0.023-0.049L8.238,16.182z M10.896,16.182
			l0.082,0.168l0.023,0.049l-0.137,0.078l-0.912,0.528l-0.201-0.414l0.439-0.255l0.192-0.111l0.193-0.109l0.222-0.131L10.896,16.182
			z M7.887,14.348c-0.123,0.026-0.408-0.127-0.464-0.354c-0.06-0.23-0.003-0.444,0.121-0.48c0.037-0.009,0.075,0,0.115,0.021V13.19
			c0-0.002,0.001-0.002,0.001-0.002c0-0.004-0.001-0.012-0.001-0.018v-0.117c0.03-0.291,0.305-0.844,1.821-0.348
			c0.521,0.171,0.845-0.1,1.006-0.459c0.516,0.059,0.859,0.643,0.99,1.002v0.285c0.02-0.01,0.037-0.018,0.058-0.021
			c0,0.002,0,0.008-0.001,0.01c0.003,0.004,0.011,0.002,0.021-0.008c0.012,0,0.023-0.002,0.036,0
			c0.125,0.035,0.181,0.25,0.121,0.479c-0.056,0.224-0.339,0.377-0.46,0.354c-0.195,0.592-0.619,1.38-1.232,1.654
			c-0.141,0.062-0.291,0.098-0.453,0.098s-0.313-0.035-0.457-0.098C8.498,15.731,8.082,14.955,7.887,14.348z M24.64,18.758
			l-0.25-1.412c-0.068-0.378-0.414-0.734-0.789-0.812l-1.298-0.273l-0.271-0.547c-0.012-0.026-0.033-0.048-0.062-0.062
			c0.234-0.301,0.423-0.656,0.56-1.018c0.229-0.084,0.465-0.291,0.531-0.56c0.09-0.357-0.006-0.677-0.229-0.814v-0.252
			c0.203-0.608,0.311-1.604-0.609-2.142c-0.41-0.238-0.752-0.256-1.01-0.17c-0.04-0.105,0.079-0.258,0.079-0.258
			c-0.212-0.008-0.322,0.106-0.368,0.17c-0.281-0.131-0.65-0.186-1.126-0.086c-1.518,0.317-1.711,2.307-1.434,2.742
			c-0.217,0.141-0.309,0.455-0.221,0.809c0.066,0.27,0.303,0.479,0.532,0.562c0.136,0.359,0.32,0.716,0.556,1.019
			c-0.024,0.015-0.047,0.033-0.062,0.062L18.9,16.261l-1.297,0.273c-0.375,0.08-0.723,0.438-0.789,0.813l-0.252,1.411
			c-0.033,0.198,0.013,0.386,0.133,0.528c0.119,0.143,0.296,0.222,0.496,0.222h6.813c0.199,0,0.377-0.077,0.496-0.222
			C24.628,19.143,24.674,18.956,24.64,18.758z M24.277,19.096c-0.062,0.074-0.156,0.115-0.269,0.115h-1.319v-0.769
			c0-0.082-0.065-0.147-0.147-0.147c-0.084,0-0.148,0.065-0.148,0.147v0.769h-3.578v-0.769c0-0.082-0.066-0.147-0.148-0.147
			s-0.147,0.065-0.147,0.147v0.769h-1.32c-0.11,0-0.206-0.041-0.268-0.115c-0.062-0.074-0.09-0.176-0.068-0.285l0.252-1.41
			c0.047-0.26,0.302-0.521,0.558-0.576l1.209-0.256c0.008,0.008,0.014,0.014,0.021,0.02l1.307,0.757
			c0.023,0.014,0.049,0.021,0.074,0.021c0.015,0,0.029-0.004,0.045-0.008c0.039-0.014,0.072-0.039,0.089-0.076l0.19-0.391
			l0.189,0.391c0.02,0.037,0.053,0.062,0.09,0.076c0.016,0.004,0.029,0.008,0.045,0.008c0.024,0,0.051-0.008,0.072-0.021
			l1.309-0.757c0.008-0.006,0.015-0.012,0.021-0.02l1.208,0.256c0.257,0.055,0.513,0.316,0.558,0.576l0.254,1.41
			C24.365,18.92,24.342,19.02,24.277,19.096z M19.273,16.182l0.097-0.197l0.223,0.131l0.192,0.109l0.191,0.111l0.439,0.255
			l-0.202,0.414l-0.909-0.528l-0.14-0.078l0.025-0.049L19.273,16.182z M21.935,16.182l0.082,0.168l0.021,0.049l-0.136,0.078
			l-0.912,0.528l-0.201-0.414l0.439-0.255l0.19-0.111l0.193-0.109l0.222-0.131L21.935,16.182z M18.922,14.348
			c-0.123,0.026-0.405-0.127-0.464-0.354c-0.06-0.23-0.003-0.444,0.122-0.48c0.037-0.009,0.074,0,0.113,0.021V13.19
			c0-0.002,0.002-0.002,0.002-0.002c0-0.004-0.002-0.012-0.002-0.018v-0.117c0.031-0.291,0.307-0.844,1.822-0.348
			c0.521,0.171,0.844-0.1,1.006-0.459c0.516,0.059,0.858,0.643,0.992,1.002v0.285c0.018-0.01,0.035-0.018,0.055-0.021
			c0,0.002,0,0.008,0,0.01c0.004,0.004,0.012,0.002,0.021-0.008c0.014,0,0.024-0.002,0.037,0c0.125,0.035,0.182,0.25,0.122,0.479
			c-0.057,0.224-0.339,0.377-0.461,0.354c-0.194,0.592-0.619,1.38-1.229,1.654c-0.143,0.062-0.293,0.098-0.455,0.098
			s-0.312-0.035-0.457-0.098C19.533,15.731,19.118,14.955,18.922,14.348z M8.085,8.389L7.833,6.977
			C7.766,6.598,7.419,6.242,7.044,6.163L5.747,5.89L5.478,5.343C5.465,5.316,5.443,5.295,5.416,5.281
			C5.65,4.979,5.839,4.623,5.975,4.264C6.206,4.18,6.44,3.973,6.506,3.703c0.09-0.357-0.004-0.676-0.225-0.814V2.637
			C6.482,2.03,6.588,1.033,5.67,0.495C5.259,0.257,4.917,0.239,4.661,0.324C4.62,0.22,4.738,0.068,4.738,0.068
			C4.527,0.06,4.416,0.173,4.371,0.236C4.088,0.105,3.719,0.052,3.245,0.15C1.726,0.468,1.534,2.458,1.81,2.892
			c-0.217,0.142-0.309,0.457-0.22,0.81c0.067,0.271,0.302,0.479,0.534,0.562c0.134,0.359,0.318,0.717,0.555,1.019
			C2.654,5.297,2.63,5.315,2.617,5.344L2.349,5.89L1.051,6.164C0.675,6.243,0.329,6.601,0.263,6.977L0.011,8.389
			c-0.035,0.197,0.012,0.385,0.131,0.528C0.263,9.061,0.441,9.139,0.64,9.139h6.813c0.2,0,0.377-0.078,0.497-0.222
			C8.07,8.773,8.119,8.585,8.085,8.389z M7.725,8.725C7.663,8.8,7.567,8.84,7.456,8.84h-1.32V8.073c0-0.082-0.065-0.148-0.147-0.148
			c-0.084,0-0.148,0.066-0.148,0.148V8.84H2.263V8.073c0-0.082-0.066-0.148-0.15-0.148c-0.082,0-0.147,0.066-0.147,0.148V8.84H0.647
			c-0.111,0-0.207-0.04-0.27-0.115C0.315,8.651,0.29,8.55,0.309,8.442L0.563,7.03C0.608,6.77,0.864,6.509,1.12,6.454L2.329,6.2
			C2.336,6.205,2.342,6.212,2.35,6.218l1.305,0.756C3.679,6.99,3.706,6.995,3.729,6.995c0.016,0,0.031-0.002,0.047-0.005
			c0.037-0.014,0.07-0.04,0.088-0.078l0.191-0.391l0.189,0.391C4.263,6.95,4.295,6.976,4.334,6.99
			c0.014,0.003,0.029,0.005,0.043,0.005c0.025,0,0.053-0.005,0.075-0.021l1.306-0.756C5.768,6.212,5.774,6.205,5.779,6.2
			l1.207,0.254C7.244,6.509,7.499,6.77,7.545,7.03l0.252,1.412C7.811,8.55,7.787,8.65,7.725,8.725z M2.721,5.811l0.096-0.196
			l0.223,0.13l0.191,0.109l0.193,0.112l0.439,0.255L3.661,6.635L2.75,6.108L2.613,6.03l0.023-0.051L2.721,5.811z M5.378,5.811
			L5.46,5.979L5.482,6.03L5.347,6.108L4.435,6.635L4.234,6.221l0.44-0.255l0.191-0.112l0.192-0.109l0.223-0.13L5.378,5.811z
			 M2.367,3.979C2.245,4.004,1.96,3.85,1.902,3.625C1.843,3.396,1.9,3.181,2.025,3.146c0.037-0.01,0.074,0,0.113,0.019V2.82H2.14
			c0-0.006-0.002-0.012-0.002-0.019V2.683C2.17,2.394,2.445,1.84,3.96,2.336c0.521,0.171,0.844-0.099,1.006-0.459
			c0.516,0.058,0.859,0.642,0.991,1.002v0.284c0.019-0.01,0.037-0.018,0.058-0.02c0,0,0,0.006-0.002,0.008
			c0.004,0.006,0.012,0.002,0.021-0.008c0.013,0,0.024-0.002,0.036,0c0.125,0.037,0.182,0.25,0.123,0.48
			C6.135,3.846,5.853,4,5.732,3.977C5.538,4.571,5.113,5.358,4.501,5.632C4.359,5.694,4.208,5.731,4.047,5.731
			c-0.162,0-0.312-0.037-0.457-0.099C2.979,5.361,2.562,4.585,2.367,3.979z M19.12,8.389l-0.251-1.412
			c-0.066-0.379-0.414-0.735-0.789-0.814l-1.297-0.274l-0.27-0.547c-0.015-0.027-0.035-0.048-0.062-0.062
			c0.235-0.302,0.422-0.658,0.559-1.017c0.231-0.084,0.467-0.291,0.531-0.561c0.09-0.357-0.005-0.676-0.226-0.814V2.636
			c0.201-0.607,0.308-1.604-0.611-2.142c-0.411-0.238-0.752-0.256-1.01-0.171c-0.039-0.104,0.08-0.256,0.08-0.256
			c-0.213-0.008-0.323,0.105-0.368,0.168c-0.284-0.131-0.653-0.184-1.126-0.086c-1.518,0.318-1.711,2.308-1.436,2.742
			c-0.216,0.142-0.309,0.457-0.22,0.81c0.067,0.271,0.302,0.479,0.534,0.562c0.134,0.359,0.318,0.717,0.554,1.019
			c-0.024,0.014-0.047,0.032-0.062,0.061l-0.269,0.546l-1.297,0.274c-0.376,0.079-0.722,0.437-0.789,0.813l-0.251,1.412
			c-0.035,0.197,0.012,0.385,0.133,0.528c0.118,0.144,0.297,0.222,0.495,0.222h6.815c0.199,0,0.377-0.078,0.496-0.222
			C19.107,8.772,19.154,8.585,19.12,8.389z M18.76,8.725C18.698,8.8,18.604,8.84,18.492,8.84h-1.321V8.073
			c0-0.082-0.064-0.148-0.146-0.148c-0.084,0-0.148,0.066-0.148,0.148V8.84h-3.579V8.073c0-0.082-0.065-0.148-0.147-0.148
			s-0.148,0.066-0.148,0.148V8.84h-1.32c-0.111,0-0.207-0.04-0.269-0.115c-0.063-0.074-0.089-0.175-0.068-0.283l0.253-1.412
			c0.045-0.26,0.301-0.521,0.557-0.576L13.364,6.2c0.008,0.005,0.013,0.012,0.021,0.018l1.308,0.756
			c0.022,0.016,0.047,0.021,0.074,0.021c0.014,0,0.029-0.002,0.045-0.005c0.037-0.014,0.071-0.04,0.088-0.078l0.191-0.391
			l0.189,0.391c0.019,0.038,0.052,0.064,0.09,0.078c0.015,0.003,0.029,0.005,0.044,0.005c0.024,0,0.052-0.005,0.073-0.021
			l1.307-0.756c0.011-0.006,0.017-0.013,0.021-0.018l1.207,0.254c0.258,0.055,0.514,0.316,0.559,0.576l0.252,1.412
			C18.849,8.55,18.822,8.65,18.76,8.725z M13.756,5.811l0.096-0.196l0.224,0.13l0.192,0.109l0.191,0.112l0.439,0.255l-0.203,0.414
			l-0.909-0.527L13.648,6.03l0.023-0.051L13.756,5.811z M16.413,5.811l0.083,0.168L16.52,6.03l-0.139,0.078L15.47,6.635
			l-0.201-0.414l0.439-0.255l0.191-0.112l0.193-0.109l0.222-0.13L16.413,5.811z M13.402,3.979c-0.123,0.025-0.407-0.129-0.463-0.354
			c-0.06-0.229-0.004-0.444,0.121-0.479c0.037-0.01,0.074,0,0.114,0.019V2.82h0.001c0-0.006-0.001-0.012-0.001-0.019V2.683
			c0.031-0.289,0.306-0.843,1.821-0.347c0.521,0.171,0.845-0.099,1.007-0.459c0.516,0.058,0.858,0.642,0.99,1.002v0.284
			c0.02-0.01,0.036-0.018,0.057-0.02c0,0,0,0.006-0.001,0.008c0.003,0.006,0.013,0.002,0.021-0.008c0.012,0,0.022-0.002,0.037,0
			c0.125,0.037,0.18,0.25,0.121,0.48C17.17,3.846,16.888,4,16.767,3.977c-0.195,0.594-0.619,1.381-1.23,1.655
			c-0.143,0.062-0.293,0.099-0.454,0.099c-0.162,0-0.313-0.037-0.457-0.099C14.016,5.361,13.6,4.585,13.402,3.979z M30.154,8.389
			l-0.252-1.412c-0.065-0.379-0.412-0.735-0.787-0.814L27.818,5.89l-0.27-0.547c-0.014-0.027-0.035-0.048-0.062-0.062
			c0.236-0.302,0.423-0.658,0.56-1.017c0.231-0.084,0.466-0.291,0.531-0.561c0.09-0.357-0.004-0.676-0.226-0.814V2.637
			c0.201-0.607,0.308-1.604-0.61-2.142c-0.411-0.238-0.753-0.256-1.009-0.171c-0.041-0.104,0.078-0.256,0.078-0.256
			C26.6,0.06,26.486,0.173,26.441,0.236c-0.282-0.131-0.651-0.184-1.125-0.086c-1.52,0.318-1.711,2.308-1.436,2.742
			c-0.217,0.142-0.31,0.457-0.22,0.81c0.066,0.271,0.302,0.479,0.533,0.562c0.134,0.359,0.32,0.717,0.555,1.019
			c-0.024,0.014-0.049,0.032-0.062,0.061L24.419,5.89l-1.297,0.274c-0.376,0.079-0.723,0.437-0.789,0.813l-0.25,1.412
			c-0.035,0.197,0.012,0.385,0.131,0.528c0.12,0.143,0.298,0.222,0.497,0.222h6.814c0.199,0,0.375-0.078,0.496-0.222
			C30.146,8.772,30.189,8.585,30.154,8.389z M29.796,8.725C29.734,8.8,29.64,8.84,29.527,8.84h-1.32V8.073
			c0-0.082-0.065-0.148-0.147-0.148c-0.084,0-0.149,0.066-0.149,0.148V8.84h-3.578V8.073c0-0.082-0.064-0.148-0.146-0.148
			s-0.148,0.066-0.148,0.148V8.84h-1.32c-0.11,0-0.206-0.04-0.27-0.115c-0.062-0.074-0.088-0.175-0.067-0.283l0.254-1.412
			c0.046-0.26,0.301-0.521,0.557-0.576L24.399,6.2c0.008,0.005,0.014,0.012,0.021,0.018l1.308,0.756
			C25.75,6.99,25.776,6.995,25.8,6.995c0.016,0,0.03-0.002,0.046-0.005c0.038-0.014,0.071-0.04,0.091-0.078l0.189-0.391l0.188,0.391
			c0.02,0.038,0.051,0.064,0.09,0.078c0.015,0.003,0.029,0.005,0.043,0.005c0.027,0,0.053-0.005,0.076-0.021l1.306-0.756
			c0.009-0.006,0.016-0.013,0.021-0.018l1.209,0.254c0.256,0.055,0.512,0.316,0.557,0.576l0.253,1.412
			C29.882,8.55,29.857,8.65,29.796,8.725z M24.791,5.811l0.097-0.196l0.223,0.13l0.192,0.109l0.192,0.112l0.438,0.255l-0.201,0.414
			L24.82,6.108L24.684,6.03l0.023-0.051L24.791,5.811z M27.449,5.811l0.082,0.168l0.023,0.051l-0.138,0.078l-0.912,0.527l-0.2-0.414
			l0.438-0.255l0.193-0.112l0.191-0.109l0.223-0.13L27.449,5.811z M24.438,3.979c-0.123,0.025-0.406-0.129-0.463-0.354
			c-0.061-0.229-0.004-0.444,0.121-0.479c0.036-0.01,0.074,0,0.113,0.019V2.82h0.001c0-0.006-0.001-0.012-0.001-0.019V2.683
			c0.032-0.289,0.307-0.843,1.822-0.347c0.521,0.171,0.844-0.099,1.006-0.459c0.516,0.058,0.858,0.642,0.991,1.002v0.284
			c0.018-0.01,0.037-0.018,0.056-0.02c0,0,0,0.006-0.001,0.008c0.004,0.006,0.013,0.002,0.021-0.008c0.013,0,0.023-0.002,0.037,0
			c0.125,0.037,0.18,0.25,0.121,0.48C28.205,3.846,27.923,4,27.801,3.977c-0.192,0.594-0.618,1.381-1.229,1.655
			c-0.141,0.062-0.293,0.099-0.454,0.099c-0.163,0-0.312-0.037-0.457-0.099C25.05,5.361,24.635,4.585,24.438,3.979z"/>
	</g>
</g>
<g>
</g>
<g>
</g>
<g>
</g>
<g>
</g>
<g>
</g>
<g>
</g>
<g>
</g>
<g>
</g>
<g>
</g>
<g>
</g>
<g>
</g>
<g>
</g>
<g>
</g>
<g>
</g>
<g>
</g>
</svg>
