<?xml version="1.0" encoding="iso-8859-1"?>
<!-- Generator: Adobe Illustrator 16.0.0, SVG Export Plug-In . SVG Version: 6.00 Build 0)  -->
<!DOCTYPE svg PUBLIC "-//W3C//DTD SVG 1.1//EN" "http://www.w3.org/Graphics/SVG/1.1/DTD/svg11.dtd">
<svg version="1.1" id="Capa_1" xmlns="http://www.w3.org/2000/svg" xmlns:xlink="http://www.w3.org/1999/xlink" x="0px" y="0px"
	 width="39.285px" height="39.284px" viewBox="0 0 39.285 39.284" style="enable-background:new 0 0 39.285 39.284;"
	 xml:space="preserve">
<g>
	<path d="M39.259,26.943l-0.554-3.108c-0.146-0.832-0.938-1.65-1.766-1.824l-3.267-0.688c-0.146-0.177-0.301-0.314-0.465-0.427
		c-0.017-0.159-0.004-0.278,0.041-0.377c0.166-0.364,0.293-0.703,0.389-1.033c0.218-0.094,0.337-0.274,0.385-0.348
		c0.077-0.115,0.142-0.242,0.194-0.369c0.146-0.348,0.216-0.688,0.284-1.049c0.026-0.141,0.071-0.275,0.121-0.431l0.075-0.252
		c0.087-0.295,0.038-0.595-0.132-0.822c-0.033-0.043-0.07-0.084-0.111-0.12c0.185-0.962,0.082-1.882-0.299-2.736
		c-0.496-1.106-1.287-1.819-2.357-2.117C31.406,11.133,31,11.052,30.592,11l-0.003-0.146l-0.129-0.006
		c-0.233-0.012-0.469-0.018-0.705-0.018l-0.26,0.002c-0.148,0.004-0.304,0.02-0.461,0.048l-0.162-0.241l-0.629,0.408
		c-0.121,0.077-0.246,0.155-0.361,0.241c-0.161,0.119-0.291,0.262-0.389,0.424c-0.328,0.084-0.632,0.25-0.924,0.502
		c-0.041,0.037-0.079,0.076-0.127,0.135l-0.354,0.435l0.125,0.125c-0.123,0.278-0.154,0.544-0.098,0.728
		c-0.17,0.781-0.144,1.579,0.086,2.506c-0.134,0.127-0.214,0.299-0.242,0.508c-0.039,0.295-0.062,0.681,0.117,1.064
		c0.084,0.178,0.139,0.362,0.205,0.594l0.038,0.131c0.048,0.156,0.106,0.311,0.175,0.461c0.06,0.123,0.135,0.242,0.229,0.352
		c0.078,0.094,0.166,0.166,0.26,0.219c0.098,0.354,0.236,0.688,0.411,0.997c-0.005,0.165-0.014,0.331-0.02,0.495l-0.004,0.104
		c-0.117,0.076-0.22,0.162-0.312,0.242l-2.07,0.436l-2.009-0.422c-0.146-0.176-0.301-0.313-0.464-0.426
		c-0.018-0.16-0.003-0.279,0.041-0.377c0.165-0.363,0.293-0.703,0.388-1.033c0.219-0.094,0.338-0.274,0.385-0.348
		c0.078-0.115,0.143-0.242,0.195-0.369c0.146-0.348,0.214-0.688,0.284-1.049c0.025-0.141,0.07-0.275,0.121-0.431l0.074-0.252
		c0.086-0.295,0.037-0.595-0.133-0.821c-0.033-0.044-0.068-0.085-0.109-0.121c0.184-0.961,0.083-1.882-0.301-2.736
		c-0.493-1.106-1.285-1.819-2.355-2.117c-0.395-0.11-0.799-0.191-1.208-0.242l-0.001-0.146l-0.129-0.006
		c-0.235-0.012-0.47-0.018-0.706-0.018l-0.259,0.002c-0.149,0.004-0.304,0.02-0.46,0.048l-0.162-0.243l-0.63,0.409
		c-0.123,0.077-0.247,0.155-0.362,0.241c-0.163,0.119-0.292,0.262-0.388,0.424c-0.328,0.084-0.633,0.25-0.926,0.502
		c-0.041,0.037-0.078,0.076-0.127,0.135l-0.354,0.435l0.126,0.125c-0.123,0.278-0.155,0.544-0.099,0.728
		c-0.17,0.781-0.144,1.579,0.086,2.506c-0.133,0.127-0.213,0.299-0.241,0.508c-0.04,0.295-0.063,0.681,0.118,1.064
		c0.082,0.178,0.138,0.362,0.203,0.594l0.039,0.131c0.047,0.156,0.106,0.311,0.175,0.461c0.058,0.123,0.134,0.242,0.228,0.352
		c0.079,0.094,0.166,0.166,0.26,0.219c0.1,0.354,0.236,0.688,0.412,0.998c-0.006,0.164-0.012,0.33-0.019,0.494l-0.004,0.104
		c-0.118,0.076-0.22,0.162-0.312,0.242l-2.07,0.436l-2.01-0.422c-0.146-0.176-0.3-0.313-0.463-0.426
		c-0.018-0.16-0.004-0.279,0.04-0.377c0.166-0.363,0.294-0.703,0.388-1.033c0.219-0.094,0.338-0.274,0.386-0.348
		c0.077-0.115,0.142-0.242,0.194-0.369c0.146-0.348,0.215-0.688,0.285-1.049c0.026-0.141,0.07-0.275,0.12-0.431l0.076-0.252
		c0.086-0.295,0.038-0.595-0.133-0.821c-0.033-0.043-0.07-0.084-0.111-0.121c0.185-0.961,0.083-1.881-0.298-2.735
		c-0.496-1.107-1.288-1.82-2.357-2.118c-0.394-0.109-0.8-0.191-1.207-0.242l-0.002-0.146l-0.129-0.006
		c-0.236-0.012-0.471-0.018-0.707-0.018L8.11,10.838c-0.15,0.004-0.304,0.02-0.461,0.048l-0.162-0.241l-0.631,0.41
		c-0.123,0.076-0.246,0.154-0.361,0.24c-0.162,0.119-0.293,0.262-0.389,0.424c-0.328,0.084-0.632,0.25-0.925,0.502
		c-0.041,0.037-0.078,0.076-0.127,0.135l-0.354,0.435l0.127,0.125c-0.123,0.278-0.156,0.544-0.098,0.728
		c-0.171,0.781-0.145,1.58,0.085,2.506c-0.133,0.127-0.214,0.299-0.241,0.509c-0.041,0.294-0.064,0.68,0.117,1.063
		c0.083,0.178,0.139,0.362,0.204,0.594l0.039,0.131c0.046,0.156,0.106,0.311,0.175,0.461c0.057,0.123,0.133,0.242,0.229,0.352
		c0.078,0.094,0.164,0.166,0.259,0.219c0.099,0.354,0.235,0.688,0.411,0.998c-0.004,0.164-0.012,0.33-0.019,0.494l-0.003,0.104
		c-0.117,0.076-0.22,0.162-0.312,0.242l-3.326,0.701c-0.827,0.174-1.619,0.991-1.768,1.822L0.026,26.95
		c-0.081,0.444,0.026,0.868,0.297,1.19c0.271,0.325,0.67,0.504,1.121,0.504h10.691h4.314h6.375h4.315H37.83
		c0.453,0,0.852-0.179,1.121-0.504C39.234,27.811,39.338,27.389,39.259,26.943z M27.35,21.995l0.132-0.031l-0.012-0.059
		c0.116-0.104,0.253-0.188,0.375-0.257c0.019-0.012,0.036-0.024,0.073-0.056c0.112-0.059,0.172-0.146,0.18-0.329l0.008-0.192
		c0.009-0.209,0.019-0.418,0.021-0.628c0.002-0.084-0.021-0.176-0.062-0.254c-0.223-0.411-0.368-0.814-0.466-1.291l-0.132,0.039
		l0.127-0.049l-0.099-0.139l-0.138,0.085c-0.008,0-0.03-0.006-0.075-0.06c-0.05-0.057-0.091-0.12-0.117-0.182
		c-0.057-0.121-0.104-0.242-0.143-0.367l-0.037-0.127c-0.066-0.229-0.136-0.47-0.245-0.699c-0.099-0.209-0.083-0.446-0.055-0.652
		c0.01-0.082,0.017-0.124,0.238-0.143l0.166-0.015l-0.049-0.161c-0.354-1.16-0.395-2.064-0.135-2.936l-0.088-0.032
		c-0.002-0.163,0.115-0.438,0.368-0.7l-0.05-0.068c0.231-0.18,0.47-0.279,0.724-0.309c0.079-0.008,0.181-0.07,0.204-0.16
		c0.039-0.141,0.119-0.254,0.247-0.348c0.096-0.07,0.195-0.135,0.297-0.197l0.046,0.065c0.297-0.114,0.565-0.174,0.82-0.183
		l0.078,0.104l0.134,0.002c0.648,0.01,1.294,0.102,1.916,0.275c0.859,0.24,1.479,0.801,1.887,1.713
		c0.373,0.834,0.427,1.705,0.163,2.666l-0.027,0.102l-0.022,0.129l0.124,0.039l0.12,0.008c0.044,0,0.103,0.008,0.138,0.056
		c0.031,0.042,0.037,0.104,0.015,0.181l-0.069,0.232c-0.056,0.169-0.106,0.337-0.146,0.539c-0.06,0.31-0.117,0.601-0.231,0.875
		c-0.037,0.088-0.079,0.173-0.134,0.252c-0.041,0.063-0.062,0.076-0.06,0.078c-0.007-0.002-0.03-0.006-0.104-0.057l-0.172-0.114
		l-0.061,0.301c-0.084,0.4-0.228,0.816-0.435,1.273c-0.166,0.364-0.116,0.749-0.029,1.098l0.062,0.088l0.037,0.019
		c0.11,0.057,0.219,0.135,0.338,0.25c0.062,0.059,0.121,0.113,0.174,0.182c0.014,0.018,0.026,0.033,0.052,0.059l-0.007,0.062
		l0.302,0.062c-0.093,0.101-0.187,0.19-0.281,0.278c-0.189,0.17-0.406,0.33-0.644,0.476c-0.29,0.179-0.604,0.319-0.93,0.427
		c-0.445,0.144-0.891,0.218-1.324,0.218c-0.51,0-1.017-0.093-1.504-0.271c-0.314-0.119-0.621-0.272-0.901-0.463
		c-0.146-0.098-0.285-0.203-0.417-0.316c-0.12-0.104-0.235-0.219-0.354-0.346L27.35,21.995z M16.66,21.995l0.131-0.031l-0.011-0.059
		c0.117-0.104,0.253-0.188,0.374-0.257c0.02-0.012,0.038-0.024,0.075-0.056c0.112-0.059,0.171-0.146,0.178-0.329l0.009-0.192
		c0.008-0.209,0.018-0.418,0.021-0.628c0.002-0.084-0.021-0.176-0.063-0.254c-0.222-0.411-0.367-0.814-0.465-1.291l-0.133,0.039
		l0.127-0.049l-0.096-0.139l-0.139,0.085c-0.008,0-0.031-0.006-0.076-0.06c-0.049-0.057-0.09-0.12-0.117-0.182
		c-0.055-0.121-0.104-0.242-0.141-0.367l-0.039-0.127c-0.066-0.229-0.135-0.47-0.244-0.699c-0.1-0.209-0.084-0.446-0.055-0.652
		c0.01-0.082,0.018-0.124,0.238-0.143l0.168-0.015l-0.05-0.161c-0.354-1.16-0.396-2.064-0.136-2.936l-0.086-0.032
		c-0.004-0.163,0.113-0.438,0.367-0.7l-0.051-0.068c0.232-0.18,0.471-0.279,0.725-0.309c0.08-0.008,0.181-0.07,0.203-0.16
		c0.039-0.141,0.121-0.254,0.248-0.348c0.096-0.07,0.196-0.135,0.297-0.197l0.045,0.065c0.298-0.114,0.566-0.174,0.822-0.183
		l0.076,0.104l0.135,0.002c0.648,0.01,1.293,0.102,1.916,0.275c0.86,0.24,1.479,0.801,1.887,1.713
		c0.373,0.834,0.428,1.705,0.164,2.666l-0.028,0.102l-0.023,0.129l0.125,0.039l0.119,0.008c0.045,0,0.104,0.008,0.139,0.056
		c0.03,0.042,0.037,0.104,0.016,0.181l-0.071,0.232c-0.053,0.169-0.104,0.337-0.146,0.539c-0.061,0.31-0.116,0.601-0.232,0.875
		c-0.038,0.088-0.079,0.173-0.133,0.252c-0.042,0.063-0.062,0.076-0.062,0.078c-0.006-0.002-0.03-0.006-0.104-0.057l-0.171-0.114
		l-0.062,0.301c-0.084,0.4-0.226,0.816-0.434,1.273c-0.166,0.364-0.117,0.749-0.03,1.098L21.93,21.4l0.035,0.019
		c0.111,0.057,0.221,0.135,0.341,0.25c0.06,0.059,0.118,0.113,0.172,0.182c0.014,0.018,0.026,0.033,0.051,0.059l-0.005,0.062
		l0.3,0.062c-0.092,0.102-0.186,0.191-0.279,0.279c-0.19,0.17-0.407,0.33-0.645,0.477c-0.29,0.178-0.604,0.318-0.929,0.426
		c-0.445,0.144-0.89,0.218-1.324,0.218c-0.511,0-1.017-0.093-1.503-0.271c-0.316-0.119-0.622-0.273-0.904-0.463
		c-0.146-0.099-0.283-0.203-0.417-0.317c-0.118-0.103-0.235-0.218-0.354-0.347L16.66,21.995z M5.968,21.995l0.131-0.031
		l-0.012-0.059c0.117-0.104,0.254-0.188,0.375-0.257c0.02-0.012,0.037-0.024,0.074-0.056c0.113-0.059,0.172-0.146,0.178-0.329
		l0.009-0.192c0.009-0.209,0.018-0.418,0.021-0.628c0.002-0.084-0.021-0.176-0.063-0.254c-0.222-0.411-0.367-0.814-0.466-1.291
		l-0.133,0.039l0.127-0.049L6.113,18.75l-0.138,0.085c-0.009,0-0.031-0.006-0.075-0.06c-0.05-0.057-0.091-0.12-0.118-0.182
		c-0.056-0.121-0.104-0.242-0.142-0.367l-0.038-0.127c-0.067-0.229-0.136-0.47-0.245-0.699c-0.098-0.209-0.083-0.446-0.055-0.652
		c0.011-0.082,0.018-0.124,0.238-0.143l0.168-0.015l-0.049-0.161c-0.354-1.16-0.396-2.064-0.136-2.936L5.436,13.46
		c-0.002-0.163,0.115-0.438,0.368-0.7l-0.05-0.068c0.23-0.18,0.469-0.279,0.723-0.309c0.08-0.008,0.182-0.07,0.205-0.16
		c0.038-0.141,0.119-0.254,0.247-0.348c0.095-0.07,0.196-0.135,0.296-0.197l0.047,0.065c0.296-0.114,0.564-0.174,0.82-0.183
		l0.076,0.104l0.135,0.002c0.648,0.01,1.295,0.102,1.917,0.275c0.86,0.24,1.479,0.801,1.886,1.713
		c0.374,0.834,0.428,1.705,0.164,2.666l-0.029,0.102l-0.021,0.129l0.123,0.039l0.121,0.008c0.043,0,0.103,0.008,0.138,0.056
		c0.03,0.042,0.036,0.104,0.015,0.181l-0.073,0.233c-0.053,0.169-0.104,0.337-0.146,0.539c-0.06,0.31-0.117,0.601-0.233,0.875
		c-0.037,0.088-0.078,0.173-0.131,0.252c-0.043,0.063-0.062,0.076-0.062,0.078c-0.007-0.002-0.03-0.006-0.104-0.057l-0.169-0.115
		l-0.061,0.301c-0.084,0.4-0.227,0.816-0.436,1.273c-0.164,0.364-0.117,0.749-0.029,1.098l0.063,0.088l0.038,0.019
		c0.109,0.057,0.219,0.135,0.338,0.25c0.061,0.059,0.12,0.113,0.172,0.182c0.014,0.018,0.028,0.033,0.051,0.059l-0.004,0.062
		l0.299,0.062c-0.092,0.101-0.186,0.19-0.279,0.278c-0.191,0.17-0.407,0.33-0.643,0.476c-0.291,0.179-0.604,0.319-0.93,0.427
		c-0.445,0.144-0.891,0.218-1.324,0.218c-0.511,0-1.017-0.093-1.504-0.271c-0.316-0.119-0.621-0.272-0.902-0.463
		c-0.146-0.098-0.285-0.203-0.418-0.316c-0.119-0.104-0.235-0.219-0.354-0.346L5.968,21.995z M11.28,23.833l-0.554,3.109
		c-0.062,0.348-0.008,0.68,0.146,0.965H5.055v-1.65c0-0.2-0.163-0.364-0.365-0.364c-0.201,0-0.364,0.164-0.364,0.364v1.65H1.455
		c-0.232,0-0.432-0.086-0.562-0.242c-0.131-0.153-0.18-0.365-0.139-0.594l0.554-3.111c0.097-0.545,0.657-1.122,1.198-1.235
		l2.457-0.519c0.162,0.205,0.348,0.402,0.562,0.603c0.236,0.22,0.486,0.41,0.746,0.572c0.814,0.512,1.744,0.78,2.686,0.78
		c0.842,0,1.68-0.225,2.438-0.643C11.354,23.624,11.297,23.727,11.28,23.833z M27.711,27.665c-0.131,0.156-0.33,0.242-0.562,0.242
		h-0.712h-0.729H24.28v-1.65c0-0.2-0.164-0.364-0.364-0.364c-0.203,0-0.364,0.164-0.364,0.364v1.65h-0.716h-1.271h-3.833h-1.271
		h-0.715v-1.65c0-0.2-0.162-0.364-0.365-0.364c-0.2,0-0.364,0.164-0.364,0.364v1.65h-1.431h-0.729h-0.713
		c-0.231,0-0.431-0.086-0.562-0.242c-0.131-0.153-0.18-0.365-0.139-0.594l0.553-3.111c0.098-0.545,0.656-1.122,1.197-1.235
		l1.107-0.231l1.352-0.285c0.161,0.205,0.348,0.401,0.562,0.602c0.236,0.219,0.488,0.41,0.746,0.572
		c0.08,0.051,0.164,0.086,0.246,0.131c0.754,0.42,1.59,0.65,2.438,0.65c0.842,0,1.681-0.226,2.437-0.644
		c0.024-0.015,0.051-0.022,0.074-0.037c0.37-0.211,0.713-0.469,1.021-0.768c0.175-0.171,0.325-0.339,0.462-0.511l1.354,0.285
		l1.105,0.232c0.542,0.113,1.101,0.691,1.196,1.236l0.554,3.11C27.892,27.3,27.84,27.512,27.711,27.665z M38.404,27.665
		c-0.131,0.156-0.329,0.242-0.562,0.242h-2.87v-1.65c0-0.2-0.163-0.364-0.364-0.364c-0.202,0-0.365,0.164-0.365,0.364v1.65h-5.817
		c0.154-0.285,0.21-0.617,0.146-0.965l-0.554-3.109c-0.021-0.108-0.076-0.213-0.116-0.321c0.755,0.42,1.59,0.649,2.438,0.649
		c0.867,0,1.734-0.233,2.512-0.68c0.37-0.211,0.712-0.469,1.019-0.768c0.174-0.172,0.326-0.338,0.461-0.512l2.461,0.521
		c0.543,0.111,1.104,0.689,1.199,1.234l0.553,3.11C38.583,27.3,38.535,27.512,38.404,27.665z"/>
</g>
<g>
</g>
<g>
</g>
<g>
</g>
<g>
</g>
<g>
</g>
<g>
</g>
<g>
</g>
<g>
</g>
<g>
</g>
<g>
</g>
<g>
</g>
<g>
</g>
<g>
</g>
<g>
</g>
<g>
</g>
</svg>
