<?xml version="1.0" encoding="iso-8859-1"?>
<!-- Generator: Adobe Illustrator 16.0.0, SVG Export Plug-In . SVG Version: 6.00 Build 0)  -->
<!DOCTYPE svg PUBLIC "-//W3C//DTD SVG 1.1//EN" "http://www.w3.org/Graphics/SVG/1.1/DTD/svg11.dtd">
<svg version="1.1" id="Capa_1" xmlns="http://www.w3.org/2000/svg" xmlns:xlink="http://www.w3.org/1999/xlink" x="0px" y="0px"
	 width="31.083px" height="31.083px" viewBox="0 0 31.083 31.083" style="enable-background:new 0 0 31.083 31.083;"
	 xml:space="preserve">
<g>
	<g>
		<path d="M20.752,16.104c-2.191,0-4.158,0.951-5.53,2.455l-2.44-1.974c0.823-0.979,1.321-2.242,1.321-3.619
			c0-1.534-0.617-2.925-1.615-3.941c1.455-1.1,2.996-2.23,3.332-2.418c0.758,1.062,1.995,1.762,3.399,1.762
			c2.307,0,4.184-1.877,4.184-4.184C23.403,1.877,21.526,0,19.219,0c-2.309,0-4.186,1.877-4.186,4.185
			c0,0.728,0.205,1.402,0.531,1.999c-0.603,0.359-2.57,1.837-3.447,2.498c-0.982-0.837-2.254-1.346-3.643-1.346
			c-3.105,0-5.632,2.526-5.632,5.63c0,3.104,2.525,5.632,5.632,5.632c1.512,0,2.885-0.604,3.897-1.578L12.226,17.2l2.472,2
			c-0.898,1.233-1.438,2.75-1.438,4.393c0,4.132,3.362,7.49,7.491,7.49c4.131,0,7.49-3.358,7.49-7.49
			C28.243,19.462,24.883,16.104,20.752,16.104z M15.497,4.186c0-2.053,1.67-3.722,3.723-3.722s3.723,1.668,3.723,3.722
			c0,2.052-1.67,3.722-3.723,3.722C17.166,7.908,15.497,6.237,15.497,4.186z M8.475,17.977c-2.764,0-5.01-2.248-5.01-5.01
			c0-2.762,2.246-5.009,5.01-5.009c2.762,0,5.008,2.247,5.008,5.009C13.482,15.729,11.236,17.977,8.475,17.977z M20.752,30.257
			c-3.674,0-6.663-2.989-6.663-6.664c0-3.676,2.989-6.663,6.663-6.663s6.664,2.987,6.664,6.663
			C27.417,27.268,24.426,30.257,20.752,30.257z M21.379,6.563c0-0.486-0.166-0.933-0.438-1.292V3.395
			c0-1.44-0.762-1.986-1.701-1.986c-0.938,0-1.699,0.546-1.699,1.986v1.876c-0.271,0.359-0.438,0.807-0.438,1.292v0.085h4.274
			L21.379,6.563L21.379,6.563z M18.069,3.49c0.021-0.007,0.045-0.001,0.065,0.011V3.356l0.144-0.01c0.527,0,0.988-0.221,1.242-0.55
			c0.184,0.239,0.475,0.421,0.823,0.502v0.203c0.021-0.013,0.044-0.018,0.066-0.011c0.071,0.021,0.103,0.154,0.067,0.296
			c-0.031,0.137-0.194,0.232-0.268,0.217c-0.055,0.179-0.164,0.368-0.299,0.532c-0.02,0.024-0.039,0.047-0.059,0.069
			c-0.021,0.025-0.045,0.048-0.068,0.071c0.164,0.048,0.322,0.118,0.465,0.205l-0.451,0.527l-0.342,0.4l-0.088-0.4l-0.043-0.199
			l0.162-0.163l-0.1-0.103L19.24,4.793l-0.15,0.15l-0.1,0.102l0.161,0.163l-0.043,0.199l-0.084,0.38l-0.334-0.38L18.225,4.88
			c0.146-0.086,0.297-0.156,0.459-0.204c-0.021-0.022-0.045-0.046-0.065-0.07C18.6,4.584,18.58,4.561,18.561,4.537
			c-0.135-0.162-0.24-0.352-0.297-0.534c-0.07,0.017-0.234-0.079-0.268-0.217C17.967,3.644,17.997,3.511,18.069,3.49z M17.276,6.478
			c0.016-0.399,0.154-0.767,0.375-1.07c0.121-0.165,0.268-0.311,0.432-0.431l0.381,0.431l0.729,0.827
			c0.017,0.019,0.039,0.029,0.064,0.029l0,0c0.025,0,0.049-0.011,0.064-0.03l0.707-0.826l0.369-0.431
			c0.164,0.121,0.312,0.266,0.434,0.431c0.221,0.303,0.357,0.671,0.373,1.07H17.276z M10.736,11.582
			c0-1.938-1.025-2.673-2.289-2.673c-1.264,0-2.287,0.734-2.287,2.673v2.525c-0.367,0.483-0.59,1.086-0.59,1.74v0.115h5.756v-0.115
			c0-0.654-0.223-1.256-0.59-1.74V11.582L10.736,11.582z M6.874,11.709c0.029-0.009,0.061-0.002,0.09,0.015v-0.195l0.189-0.014
			c0.711,0,1.33-0.297,1.672-0.74c0.246,0.322,0.641,0.567,1.111,0.677v0.272c0.027-0.017,0.059-0.024,0.088-0.015
			c0.098,0.029,0.139,0.208,0.094,0.398c-0.043,0.185-0.264,0.313-0.359,0.293c-0.072,0.241-0.221,0.496-0.4,0.716
			c-0.026,0.032-0.054,0.062-0.08,0.092c-0.029,0.034-0.061,0.065-0.092,0.096c0.223,0.064,0.434,0.158,0.625,0.275l-0.606,0.71
			l-0.461,0.539l-0.117-0.539l-0.06-0.268l0.221-0.22l-0.137-0.137l-0.201-0.201l-0.202,0.202l-0.136,0.136l0.22,0.22l-0.06,0.268
			L8.163,14.8l-0.45-0.511L7.087,13.58c0.191-0.116,0.398-0.21,0.618-0.274c-0.03-0.03-0.062-0.062-0.091-0.095
			c-0.024-0.03-0.053-0.062-0.077-0.093C7.358,12.9,7.216,12.645,7.142,12.4c-0.097,0.022-0.317-0.107-0.361-0.293
			C6.734,11.917,6.775,11.739,6.874,11.709z M11.091,15.73H5.805c0.021-0.537,0.206-1.032,0.504-1.44
			c0.162-0.223,0.359-0.418,0.582-0.58l0.512,0.58l0.979,1.113c0.022,0.025,0.056,0.039,0.089,0.039l0,0
			c0.033,0,0.065-0.015,0.088-0.041l0.95-1.111l0.496-0.581c0.224,0.163,0.422,0.358,0.584,0.581
			C10.886,14.699,11.068,15.193,11.091,15.73z M24.217,21.88c0-2.821-1.492-3.894-3.332-3.894s-3.332,1.07-3.332,3.894v3.677
			c-0.533,0.702-0.857,1.579-0.857,2.532v0.166h8.381v-0.166c0-0.953-0.322-1.83-0.856-2.532V21.88H24.217z M18.592,22.064
			c0.043-0.012,0.088-0.002,0.133,0.021v-0.283L19,21.782c1.033,0,1.938-0.433,2.434-1.078c0.359,0.469,0.933,0.825,1.617,0.985
			v0.396c0.041-0.025,0.086-0.035,0.127-0.021c0.146,0.043,0.203,0.302,0.139,0.58c-0.062,0.271-0.383,0.457-0.522,0.429
			c-0.104,0.35-0.319,0.721-0.584,1.041c-0.039,0.047-0.076,0.092-0.117,0.135c-0.043,0.049-0.086,0.094-0.131,0.14
			c0.322,0.094,0.629,0.229,0.908,0.401l-0.886,1.033l-0.67,0.784l-0.172-0.784l-0.086-0.39l0.32-0.319l-0.197-0.199l-0.295-0.293
			l-0.295,0.295l-0.195,0.197l0.318,0.319l-0.084,0.39l-0.164,0.743l-0.654-0.743l-0.91-1.033c0.281-0.168,0.582-0.306,0.9-0.397
			c-0.045-0.045-0.088-0.091-0.133-0.14c-0.035-0.043-0.074-0.09-0.111-0.135c-0.26-0.318-0.469-0.688-0.576-1.045
			c-0.141,0.032-0.463-0.156-0.524-0.427C18.391,22.368,18.45,22.107,18.592,22.064z M24.735,27.921h-7.699
			c0.033-0.782,0.301-1.504,0.734-2.098c0.235-0.324,0.522-0.607,0.848-0.845l0.746,0.845l1.424,1.62
			c0.035,0.037,0.08,0.058,0.129,0.058l0,0c0.049,0,0.096-0.021,0.127-0.06l1.385-1.618l0.723-0.845
			c0.326,0.236,0.615,0.521,0.853,0.845C24.436,26.417,24.702,27.139,24.735,27.921z"/>
	</g>
</g>
<g>
</g>
<g>
</g>
<g>
</g>
<g>
</g>
<g>
</g>
<g>
</g>
<g>
</g>
<g>
</g>
<g>
</g>
<g>
</g>
<g>
</g>
<g>
</g>
<g>
</g>
<g>
</g>
<g>
</g>
</svg>
