<?xml version="1.0" encoding="iso-8859-1"?>
<!-- Generator: Adobe Illustrator 16.0.0, SVG Export Plug-In . SVG Version: 6.00 Build 0)  -->
<!DOCTYPE svg PUBLIC "-//W3C//DTD SVG 1.1//EN" "http://www.w3.org/Graphics/SVG/1.1/DTD/svg11.dtd">
<svg version="1.1" id="Capa_1" xmlns="http://www.w3.org/2000/svg" xmlns:xlink="http://www.w3.org/1999/xlink" x="0px" y="0px"
	 width="30.5px" height="30.501px" viewBox="0 0 30.5 30.501" style="enable-background:new 0 0 30.5 30.501;" xml:space="preserve"
	>
<g>
	<g>
		<path d="M29.73,27.911l-0.877-4.92c-0.231-1.31-1.435-2.552-2.733-2.826l-0.824-0.174v-8.764C25.295,3.09,20.993,0,15.688,0
			C10.379,0,6.08,3.09,6.08,11.227v7.682c-0.376-0.108-0.765-0.187-1.166-0.187c-1.118,0-2.169,0.437-2.959,1.228
			c-1.632,1.631-1.632,4.286,0.001,5.918c0.016,0.017,0.031,0.022,0.046,0.039l-0.356,2.006c-0.121,0.681,0.041,1.328,0.455,1.821
			c0.413,0.494,1.022,0.767,1.715,0.767h23.748c0.69,0,1.302-0.271,1.715-0.767C29.691,29.241,29.852,28.594,29.73,27.911z
			 M28.508,29.094c-0.221,0.264-0.557,0.407-0.947,0.407H22.94v-2.522c0-0.273-0.225-0.5-0.5-0.5s-0.5,0.227-0.5,0.5v2.522H9.434
			v-2.522c0-0.273-0.224-0.5-0.5-0.5c-0.275,0-0.5,0.227-0.5,0.5v2.522H3.813c-0.391,0-0.728-0.146-0.947-0.407
			c-0.223-0.265-0.307-0.621-0.237-1.006l0.272-1.529c0.611,0.34,1.295,0.537,2.015,0.537c1.117,0,2.168-0.437,2.958-1.226
			c0.893-0.894,1.279-2.093,1.195-3.263c-0.053-0.729-0.285-1.446-0.719-2.073l0.391-0.082l1.898,2.155l4.758,5.402
			c0.096,0.109,0.231,0.17,0.375,0.17c0.097-0.012,0.285-0.062,0.381-0.174l4.617-5.398l1.85-2.159l2.678,0.563l0.617,0.131
			c0.898,0.189,1.797,1.117,1.957,2.021l0.877,4.922C28.814,28.473,28.73,28.829,28.508,29.094z M4.912,19.725
			c0.406,0,0.799,0.08,1.166,0.227c0.023,0.01,0.049,0.018,0.072,0.025c0.229,0.098,0.439,0.229,0.642,0.375
			c0.129,0.098,0.258,0.19,0.373,0.309c0.032,0.033,0.058,0.072,0.088,0.105c0.483,0.526,0.752,1.178,0.815,1.846
			c0.086,0.912-0.205,1.854-0.903,2.555c-1.072,1.072-2.853,1.182-4.078,0.342c-0.149-0.102-0.295-0.213-0.426-0.344
			c-0.007-0.006-0.011-0.016-0.017-0.021c-0.16-0.164-0.297-0.34-0.416-0.523c-0.783-1.23-0.643-2.887,0.432-3.959
			C3.262,20.057,4.061,19.725,4.912,19.725z M9.072,11.77c0.121-0.032,0.246-0.006,0.371,0.062v-1.104h7.451l0.625-3.74v3.889h4.408
			v0.957c0.124-0.069,0.252-0.098,0.372-0.063c0.408,0.123,0.589,0.871,0.4,1.673c-0.186,0.776-1.107,1.315-1.51,1.233
			c-0.422,1.366-1.404,2.845-2.537,3.918c-0.15,0.146-0.307,0.285-0.465,0.414c-0.174,0.144-0.352,0.276-0.527,0.397l3.84,0.81
			l-2.049,2.396l-2.537,2.966l-0.646-2.966l-0.088-0.403l0.926-0.924l-1.162-1.16l-0.26-0.261l-0.26,0.261l-1.16,1.16l0.924,0.924
			l-0.088,0.403l-0.621,2.853l-2.511-2.853l-2.106-2.394l3.813-0.804c-0.179-0.121-0.354-0.256-0.53-0.398
			c-0.158-0.13-0.312-0.27-0.465-0.412c-1.113-1.063-2.07-2.53-2.492-3.929c-0.4,0.092-1.332-0.447-1.519-1.231
			C8.484,12.641,8.662,11.893,9.072,11.77z"/>
		<polygon points="2.799,24.318 3.152,24.672 3.223,24.743 3.506,25.025 4.914,23.618 6.32,25.025 6.675,24.672 7.027,24.318 
			5.621,22.909 6.078,22.452 7.027,21.504 6.675,21.15 6.459,20.934 6.32,20.797 6.111,21.006 6.078,21.038 4.914,22.202 4.41,21.7 
			4.059,21.348 3.704,20.993 3.506,20.795 3.152,21.148 2.799,21.501 3.045,21.747 3.407,22.111 3.768,22.471 4.207,22.909 
			3.406,23.711 		"/>
	</g>
</g>
<g>
</g>
<g>
</g>
<g>
</g>
<g>
</g>
<g>
</g>
<g>
</g>
<g>
</g>
<g>
</g>
<g>
</g>
<g>
</g>
<g>
</g>
<g>
</g>
<g>
</g>
<g>
</g>
<g>
</g>
</svg>
