<?xml version="1.0" encoding="iso-8859-1"?>
<!-- Generator: Adobe Illustrator 16.0.0, SVG Export Plug-In . SVG Version: 6.00 Build 0)  -->
<!DOCTYPE svg PUBLIC "-//W3C//DTD SVG 1.1//EN" "http://www.w3.org/Graphics/SVG/1.1/DTD/svg11.dtd">
<svg version="1.1" id="Capa_1" xmlns="http://www.w3.org/2000/svg" xmlns:xlink="http://www.w3.org/1999/xlink" x="0px" y="0px"
	 width="30.502px" height="30.502px" viewBox="0 0 30.502 30.502" style="enable-background:new 0 0 30.502 30.502;"
	 xml:space="preserve">
<g>
	<path d="M29.255,27.929l-0.867-4.881c-0.229-1.301-1.425-2.53-2.715-2.801l-0.445-0.095v-9.025C25.228,3.063,20.962,0,15.704,0
		c-5.258,0-9.523,3.062-9.523,11.127v7.023c-0.256-0.049-0.518-0.08-0.787-0.08c-2.308,0-4.186,1.878-4.186,4.187
		c0,0.9,0.293,1.731,0.78,2.416l-0.58,3.256c-0.12,0.677,0.04,1.318,0.451,1.81c0.411,0.492,1.017,0.764,1.702,0.764h23.54
		c0.688,0,1.293-0.271,1.705-0.764C29.216,29.247,29.376,28.605,29.255,27.929z M28.038,29.098c-0.219,0.26-0.553,0.403-0.938,0.403
		h-4.576v-1.172h5.742C28.272,28.618,28.21,28.891,28.038,29.098z M3.561,29.501c-0.385,0-0.718-0.146-0.936-0.403
		c-0.173-0.207-0.234-0.479-0.23-0.769h5.743v1.172H3.561z M9.138,29.501v-2.86c0-0.275-0.224-0.5-0.5-0.5
		c-0.275,0-0.5,0.225-0.5,0.5v0.688H2.53l0.315-1.775c0.708,0.548,1.584,0.888,2.547,0.888c2.257,0,4.089-1.797,4.171-4.031
		c0.002-0.053,0.016-0.102,0.016-0.152c0-0.67-0.174-1.297-0.455-1.857l0.642-0.137c1.097,1.086,2.479,1.834,3.974,2.146
		c0.531,0.111,1.077,0.17,1.628,0.17c0.562,0,1.113-0.059,1.648-0.17c1.486-0.311,2.844-1.044,3.944-2.135l4.269,0.899l0.239,0.052
		c0.892,0.188,1.776,1.102,1.938,1.998l0.729,4.104h-5.607v-0.688c0-0.275-0.225-0.5-0.5-0.5c-0.276,0-0.5,0.225-0.5,0.5v2.86H9.138
		z M5.392,19.07c0.273,0,0.534,0.046,0.787,0.109c0.429,0.109,0.817,0.307,1.156,0.57c0.161,0.125,0.309,0.264,0.443,0.418
		c0.121,0.137,0.23,0.283,0.327,0.441c0.293,0.479,0.472,1.041,0.472,1.645c0,0.053-0.013,0.102-0.017,0.152
		c-0.08,1.684-1.465,3.031-3.17,3.031c-0.929,0-1.759-0.405-2.341-1.041c-0.157-0.172-0.291-0.359-0.408-0.562
		c-0.153-0.268-0.275-0.555-0.348-0.859c-0.054-0.231-0.089-0.473-0.089-0.721C2.206,20.501,3.635,19.07,5.392,19.07z M9.019,11.665
		c0.121-0.034,0.246-0.006,0.369,0.062v-1.001h7.484l0.625-3.74v3.89h4.266v0.853c0.123-0.069,0.248-0.098,0.369-0.063
		c0.405,0.121,0.582,0.863,0.396,1.656c-0.184,0.771-1.1,1.305-1.495,1.225c-0.451,1.464-1.556,3.057-2.789,4.135
		c-0.166,0.146-0.335,0.278-0.505,0.403c-0.195,0.146-0.393,0.276-0.588,0.39c0.016,0.004,0.033,0.006,0.05,0.01l2.55,0.537
		c-1.236,1.008-2.762,1.561-4.386,1.561c-1.607,0-3.158-0.568-4.394-1.572l2.49-0.523c0.122-0.026,0.258-0.049,0.402-0.069
		c-0.199-0.117-0.397-0.252-0.595-0.399c-0.167-0.127-0.332-0.263-0.493-0.408c-1.182-1.062-2.208-2.603-2.648-4.061
		c-0.398,0.092-1.322-0.443-1.505-1.223C8.438,12.527,8.612,11.786,9.019,11.665z M3.474,22.624l-0.085-0.07l0.315-0.387l0.314-0.39
		l0.068,0.058l0.187,0.149l0.735,0.599l1.169-1.127l0.118-0.113l0.464-0.446l0.265-0.256l0.158,0.166l0.188,0.194l0.347,0.358
		L6.63,22.408l-1.563,1.509L3.474,22.624z"/>
</g>
<g>
</g>
<g>
</g>
<g>
</g>
<g>
</g>
<g>
</g>
<g>
</g>
<g>
</g>
<g>
</g>
<g>
</g>
<g>
</g>
<g>
</g>
<g>
</g>
<g>
</g>
<g>
</g>
<g>
</g>
</svg>
