<?xml version="1.0" encoding="iso-8859-1"?>
<!-- Generator: Adobe Illustrator 16.0.0, SVG Export Plug-In . SVG Version: 6.00 Build 0)  -->
<!DOCTYPE svg PUBLIC "-//W3C//DTD SVG 1.1//EN" "http://www.w3.org/Graphics/SVG/1.1/DTD/svg11.dtd">
<svg version="1.1" id="Capa_1" xmlns="http://www.w3.org/2000/svg" xmlns:xlink="http://www.w3.org/1999/xlink" x="0px" y="0px"
	 width="31.46px" height="31.46px" viewBox="0 0 31.46 31.46" style="enable-background:new 0 0 31.46 31.46;" xml:space="preserve"
	>
<g>
	<g>
		<path d="M13.861,6.517C13.861,1.792,11.363,0,8.283,0C5.202,0,2.704,1.792,2.704,6.517v6.158c-0.898,1.18-1.439,2.647-1.439,4.243
			v0.281h14.036v-0.281c0-1.595-0.54-3.063-1.439-4.243L13.861,6.517L13.861,6.517z M4.443,6.83
			c0.071-0.021,0.145-0.003,0.216,0.037V6.393l0.466-0.035c1.732,0,3.245-0.725,4.074-1.806c0.602,0.785,1.562,1.381,2.708,1.649
			v0.667c0.072-0.041,0.146-0.058,0.216-0.038c0.238,0.071,0.342,0.505,0.232,0.971c-0.106,0.452-0.644,0.764-0.876,0.717
			c-0.181,0.585-0.541,1.207-0.981,1.744c-0.063,0.077-0.129,0.152-0.195,0.226c-0.072,0.081-0.146,0.158-0.222,0.232
			c0.542,0.158,1.052,0.386,1.524,0.672l-1.481,1.732L9,14.437l-0.287-1.313l-0.142-0.652l0.537-0.537l-0.336-0.334l-0.489-0.489
			l-0.494,0.493l-0.331,0.331l0.537,0.537l-0.143,0.652l-0.271,1.246l-1.099-1.246l-1.524-1.731
			c0.468-0.283,0.973-0.511,1.509-0.669c-0.075-0.074-0.147-0.15-0.219-0.23c-0.066-0.074-0.131-0.15-0.193-0.227
			C5.624,9.735,5.274,9.114,5.093,8.517C4.86,8.572,4.319,8.257,4.212,7.802C4.102,7.334,4.207,6.9,4.443,6.83z M14.731,16.634
			H1.835c0.057-1.309,0.506-2.518,1.231-3.511c0.396-0.544,0.876-1.02,1.418-1.416l1.246,1.417l2.391,2.713
			c0.054,0.062,0.131,0.096,0.212,0.096h0.001c0.082-0.001,0.16-0.037,0.213-0.099l2.319-2.71l1.212-1.417
			c0.544,0.396,1.025,0.873,1.421,1.417C14.225,14.118,14.674,15.326,14.731,16.634z M28.753,26.938v-6.158
			c0-4.725-2.498-6.517-5.578-6.517s-5.578,1.792-5.578,6.517v6.158c-0.897,1.178-1.438,2.646-1.438,4.242v0.28h14.036v-0.28
			C30.195,29.584,29.654,28.115,28.753,26.938z M19.335,21.091c0.071-0.021,0.146-0.003,0.219,0.037v-0.476l0.465-0.034
			c1.73,0,3.244-0.726,4.072-1.808c0.604,0.785,1.562,1.381,2.709,1.649v0.667c0.072-0.042,0.146-0.059,0.217-0.038
			c0.236,0.072,0.342,0.507,0.23,0.972c-0.105,0.451-0.644,0.764-0.875,0.717c-0.183,0.584-0.541,1.207-0.98,1.744
			c-0.062,0.076-0.129,0.151-0.195,0.227c-0.072,0.081-0.146,0.156-0.223,0.23c0.543,0.158,1.053,0.385,1.523,0.672l-1.48,1.731
			l-1.123,1.313l-0.287-1.313l-0.143-0.651l0.537-0.537l-0.336-0.336l-0.49-0.487l-0.492,0.491l-0.332,0.332l0.537,0.537
			l-0.143,0.651l-0.271,1.248l-1.1-1.247l-1.523-1.729c0.469-0.283,0.973-0.512,1.51-0.67c-0.074-0.073-0.146-0.149-0.219-0.229
			c-0.066-0.073-0.131-0.149-0.193-0.228c-0.432-0.531-0.781-1.152-0.963-1.75c-0.232,0.055-0.773-0.26-0.881-0.715
			C18.996,21.598,19.099,21.164,19.335,21.091z M16.728,30.898c0.058-1.311,0.506-2.52,1.23-3.512
			c0.396-0.544,0.877-1.02,1.418-1.414l1.248,1.414l2.391,2.713c0.053,0.062,0.131,0.096,0.211,0.096h0.002
			c0.082,0,0.16-0.037,0.213-0.098l2.318-2.711l1.213-1.419c0.543,0.396,1.023,0.873,1.42,1.419c0.727,0.992,1.176,2.2,1.232,3.51
			H16.728V30.898z M16.338,4.175l-0.233-0.971c4.218,1.028,7.757,4.242,9.014,8.661l1.194-1.948l0.746,0.458l-1.983,3.234
			l-3.234-1.985l0.459-0.746l1.975,1.211C23.146,8.146,20.058,5.24,16.338,4.175z M14.526,28.014l0.383,0.922
			c-4.328-0.346-8.333-2.957-10.273-7.119L3.765,23.93l-0.81-0.334l1.446-3.511l3.508,1.446l-0.333,0.81l-2.142-0.882
			C7.173,25.178,10.683,27.555,14.526,28.014z"/>
	</g>
</g>
<g>
</g>
<g>
</g>
<g>
</g>
<g>
</g>
<g>
</g>
<g>
</g>
<g>
</g>
<g>
</g>
<g>
</g>
<g>
</g>
<g>
</g>
<g>
</g>
<g>
</g>
<g>
</g>
<g>
</g>
</svg>
