<?xml version="1.0" encoding="iso-8859-1"?>
<!-- Generator: Adobe Illustrator 16.0.0, SVG Export Plug-In . SVG Version: 6.00 Build 0)  -->
<!DOCTYPE svg PUBLIC "-//W3C//DTD SVG 1.1//EN" "http://www.w3.org/Graphics/SVG/1.1/DTD/svg11.dtd">
<svg version="1.1" id="Capa_1" xmlns="http://www.w3.org/2000/svg" xmlns:xlink="http://www.w3.org/1999/xlink" x="0px" y="0px"
	 width="33.638px" height="33.639px" viewBox="0 0 33.638 33.639" style="enable-background:new 0 0 33.638 33.639;"
	 xml:space="preserve">
<g>
	<path d="M33.263,19.988c-0.103-0.615-0.657-1.203-1.267-1.34l-2.244-0.502c0.277-0.39,0.521-0.846,0.658-1.288
		c0.327-0.115,0.756-0.422,0.883-0.91c0.152-0.58,0.006-1.11-0.324-1.266l0.011-0.779c0.012-0.932-0.329-1.783-0.96-2.397
		c-0.632-0.615-1.518-0.959-2.545-0.972c-1.992,0-3.455,1.381-3.479,3.283l0.039,0.691c-0.386,0.232-0.546,0.76-0.408,1.344
		c0.117,0.494,0.541,0.812,0.809,0.873c0.178,0.5,0.409,0.966,0.675,1.361l-2.259,0.447c-0.358,0.069-0.692,0.307-0.94,0.605
		l-1.646-0.365c0.521-0.684,0.938-1.476,1.252-2.271c0.553-0.193,1.114-0.678,1.28-1.316c0.226-0.848,0.009-1.609-0.515-1.943
		l0.017-1.219c0.035-2.928-2.174-5.082-5.25-5.119c-3.077-0.039-5.336,2.06-5.373,4.988l-0.014,1.219
		c-0.533,0.32-0.768,1.076-0.563,1.931c0.151,0.645,0.705,1.145,1.257,1.35c0.285,0.804,0.68,1.604,1.18,2.297l-1.924,0.381
		c-0.215-0.203-0.469-0.361-0.738-0.422L8.63,18.147c0.277-0.39,0.521-0.846,0.658-1.287c0.327-0.115,0.756-0.423,0.883-0.91
		c0.152-0.58,0.006-1.111-0.324-1.267l0.01-0.778c0.012-0.933-0.329-1.783-0.96-2.398c-0.631-0.615-1.517-0.959-2.545-0.971
		c-1.992,0-3.455,1.381-3.478,3.283l0.039,0.69c-0.386,0.231-0.545,0.76-0.408,1.344c0.117,0.494,0.541,0.812,0.808,0.873
		c0.178,0.5,0.41,0.967,0.675,1.361l-2.259,0.446c-0.61,0.121-1.183,0.695-1.302,1.31l-0.406,2.143
		c-0.062,0.332,0.012,0.646,0.213,0.893c0.199,0.244,0.495,0.383,0.832,0.388l6.402,0.077l-0.262,1.375
		c-0.091,0.472,0.017,0.92,0.299,1.267c0.283,0.348,0.703,0.541,1.183,0.547l16.226,0.201h0.021c0.474,0,0.893-0.188,1.178-0.522
		c0.287-0.341,0.401-0.783,0.324-1.253l-0.271-1.643l6.396,0.078c0.332,0,0.627-0.132,0.83-0.369
		c0.201-0.242,0.283-0.556,0.229-0.883L33.263,19.988z M25.001,16.235l-0.05-0.086l-0.09,0.019c-0.151,0-0.491-0.199-0.559-0.474
		c-0.072-0.307,0.005-0.572,0.221-0.584l0.146,0.084l0.018-1.365c0.021-1.53,1.166-2.602,2.832-2.602h0.001
		c1.647,0.021,2.784,1.119,2.768,2.67l-0.015,1.195l0.094,0.152l0.151-0.08c0.114,0.035,0.188,0.303,0.106,0.606
		c-0.071,0.269-0.406,0.457-0.588,0.457l-0.091-0.021l-0.028,0.087c-0.223,0.647-0.568,1.278-0.953,1.729
		c-0.059,0.065-0.114,0.129-0.178,0.19c-0.064,0.064-0.134,0.125-0.201,0.185c-0.346,0.284-0.709,0.438-1.123,0.455l-0.125-0.007
		c-0.379-0.024-0.738-0.188-1.073-0.479c-0.067-0.061-0.136-0.121-0.196-0.189c-0.061-0.061-0.116-0.127-0.17-0.192
		C25.398,17.369,25.123,16.623,25.001,16.235z M29.744,18.826l-1.777,2.026l-0.228-1.009l0.362-0.323l0.01-0.073
		c0.409-0.127,0.798-0.371,1.159-0.729L29.744,18.826z M25.582,18.673c0.332,0.349,0.695,0.595,1.086,0.736l-0.022,0.02l0.438,0.406
		l-0.242,0.957l-1.735-2.022L25.582,18.673z M20.819,19.643l-3.169,3.61l-0.446-1.977l0.639-0.57l-0.106-0.101
		c0.752-0.188,1.418-0.625,1.993-1.209L20.819,19.643z M12.938,15.723c-0.293,0.059-0.968-0.318-1.095-0.855
		c-0.131-0.549,0.007-1.059,0.306-1.139c0.088-0.023,0.181-0.002,0.271,0.047l0.022-1.871c0.033-2.647,2.089-4.264,4.599-4.231
		c2.512,0.03,4.527,1.696,4.494,4.344l-0.022,1.873c0.092-0.047,0.185-0.065,0.271-0.041c0.298,0.088,0.421,0.601,0.277,1.146
		c-0.143,0.531-0.817,0.891-1.109,0.83c-0.302,0.881-0.819,1.938-1.524,2.763c-0.092,0.107-0.188,0.209-0.284,0.31
		c-0.105,0.104-0.216,0.205-0.327,0.299c-0.524,0.435-1.125,0.719-1.793,0.744c-0.044,0.002-0.087,0.01-0.131,0.008
		c-0.05,0-0.097-0.008-0.146-0.012c-0.672-0.045-1.266-0.345-1.775-0.787c-0.109-0.099-0.217-0.199-0.319-0.308
		c-0.097-0.102-0.188-0.207-0.274-0.315C13.696,17.689,13.215,16.627,12.938,15.723z M14.053,19.326
		c0.557,0.598,1.212,1.051,1.959,1.258L15.9,20.687l0.624,0.584l-0.477,1.889l-3.103-3.612L14.053,19.326z M3.875,16.235
		l-0.049-0.086l-0.091,0.019c-0.151,0-0.491-0.199-0.558-0.474c-0.073-0.307,0.004-0.572,0.22-0.584l0.147,0.084l0.017-1.365
		c0.021-1.53,1.166-2.602,2.832-2.602h0.001c1.648,0.021,2.785,1.119,2.768,2.67l-0.015,1.195l0.094,0.152l0.151-0.08
		c0.115,0.035,0.188,0.303,0.107,0.606c-0.071,0.269-0.406,0.457-0.588,0.457L8.82,16.206l-0.028,0.087
		c-0.223,0.647-0.569,1.278-0.953,1.729c-0.059,0.065-0.115,0.129-0.178,0.19c-0.064,0.064-0.134,0.125-0.201,0.185
		c-0.346,0.284-0.709,0.438-1.123,0.455l-0.125-0.007c-0.379-0.024-0.739-0.188-1.073-0.479c-0.068-0.061-0.136-0.121-0.197-0.189
		c-0.06-0.061-0.116-0.127-0.17-0.192C4.272,17.369,3.997,16.623,3.875,16.235z M8.617,18.826L6.84,20.853l-0.228-1.009l0.362-0.323
		l0.01-0.073c0.409-0.127,0.798-0.371,1.159-0.729L8.617,18.826z M4.456,18.673c0.332,0.349,0.695,0.595,1.086,0.736l-0.023,0.02
		l0.438,0.406l-0.242,0.957L3.978,18.77L4.456,18.673z M7.592,22.675l-3.954-0.047l0.011-0.985c0.002-0.089-0.031-0.175-0.096-0.236
		c-0.062-0.063-0.146-0.101-0.237-0.103c-0.183,0.007-0.332,0.154-0.333,0.33l-0.014,0.985l-1.898-0.023
		c-0.139-0.002-0.25-0.051-0.324-0.141c-0.072-0.09-0.099-0.211-0.072-0.346l0.408-2.143c0.064-0.347,0.428-0.711,0.771-0.778
		l1.368-0.271l2.817,3.281c0.062,0.074,0.146,0.11,0.254,0.117c0.097,0,0.188-0.041,0.25-0.113l2.815-3.211l1.238,0.278
		l-0.845,0.166c-0.9,0.179-1.738,1.022-1.91,1.925L7.592,22.675z M25.556,25.736c-0.146,0.174-0.367,0.269-0.623,0.269v0.36
		l-0.015-0.36l-3.137-0.039l0.021-1.701c0.003-0.2-0.157-0.363-0.358-0.368c-0.214-0.009-0.363,0.157-0.367,0.358l-0.021,1.702
		l-8.5-0.104l0.021-1.702c0.004-0.201-0.156-0.365-0.357-0.367c-0.193,0.006-0.365,0.158-0.368,0.358l-0.021,1.7l-3.137-0.037
		c-0.261-0.004-0.482-0.104-0.628-0.279c-0.146-0.177-0.196-0.414-0.149-0.671l0.287-1.502l0.127-0.666l0.228-1.188
		c0.114-0.609,0.729-1.226,1.336-1.346l1.499-0.298l0.654-0.129l0.08-0.02l4.478,5.214c0.069,0.08,0.155,0.12,0.274,0.125
		c0.104,0,0.205-0.045,0.272-0.123l4.384-4.996l0.09-0.104l0.588,0.131l1.646,0.369c0.604,0.138,1.202,0.769,1.303,1.379
		l0.152,0.934l0.11,0.668l0.293,1.771C25.76,25.328,25.705,25.564,25.556,25.736z M32.879,22.59
		c-0.07,0.082-0.181,0.131-0.308,0.136l-1.922-0.023l0.013-0.983c0.002-0.185-0.145-0.336-0.326-0.34H30.32
		c-0.183,0-0.321,0.144-0.325,0.332l-0.012,0.981l-3.933-0.047l-0.174-1.062c-0.148-0.904-0.967-1.771-1.86-1.969l-1.328-0.297
		c0.095-0.062,0.19-0.109,0.29-0.13l1.367-0.271l2.818,3.281c0.062,0.074,0.146,0.11,0.254,0.117c0.096,0,0.188-0.041,0.25-0.113
		l2.814-3.211l1.365,0.307c0.346,0.078,0.696,0.449,0.753,0.797l0.355,2.152C32.983,22.381,32.955,22.502,32.879,22.59z"/>
</g>
<g>
</g>
<g>
</g>
<g>
</g>
<g>
</g>
<g>
</g>
<g>
</g>
<g>
</g>
<g>
</g>
<g>
</g>
<g>
</g>
<g>
</g>
<g>
</g>
<g>
</g>
<g>
</g>
<g>
</g>
</svg>
