<?xml version="1.0" encoding="iso-8859-1"?>
<!-- Generator: Adobe Illustrator 16.0.0, SVG Export Plug-In . SVG Version: 6.00 Build 0)  -->
<!DOCTYPE svg PUBLIC "-//W3C//DTD SVG 1.1//EN" "http://www.w3.org/Graphics/SVG/1.1/DTD/svg11.dtd">
<svg version="1.1" id="Capa_1" xmlns="http://www.w3.org/2000/svg" xmlns:xlink="http://www.w3.org/1999/xlink" x="0px" y="0px"
	 width="33.358px" height="33.358px" viewBox="0 0 33.358 33.358" style="enable-background:new 0 0 33.358 33.358;"
	 xml:space="preserve">
<g>
	<g>
		<path d="M11.589,16.68c0-3.852-2.037-5.314-4.549-5.314c-2.513,0-4.55,1.463-4.55,5.314v5.022
			c-0.732,0.961-1.175,2.158-1.175,3.459v0.229h11.446v-0.229c0-1.301-0.439-2.498-1.174-3.459L11.589,16.68L11.589,16.68z
			 M3.909,16.938c0.058-0.018,0.117-0.005,0.177,0.029v-0.388l0.379-0.028c1.413,0,2.646-0.592,3.323-1.473
			c0.491,0.639,1.272,1.126,2.207,1.344v0.545c0.06-0.034,0.119-0.047,0.177-0.029c0.193,0.058,0.278,0.412,0.189,0.791
			c-0.088,0.367-0.524,0.623-0.715,0.584c-0.131,0.422-0.375,0.865-0.678,1.268l-0.213,0.123l-0.28,0.162L8.19,20.029l-1.148,0.666
			l-1.15-0.666l-0.285-0.164l-0.28-0.162l-0.235-0.137c-0.288-0.395-0.521-0.83-0.65-1.256c-0.189,0.045-0.631-0.211-0.719-0.582
			C3.63,17.35,3.715,16.995,3.909,16.938z M9.427,20.756l-1.755,1.016l-0.347-0.711L8.8,20.207l0.261-0.15
			c0.011,0.006,0.021,0.008,0.03,0.013l0.158,0.323L9.427,20.756z M6.755,21.061l-0.348,0.711l-1.755-1.016l0.178-0.365l0.158-0.322
			c0.01-0.004,0.021-0.008,0.029-0.012l0.262,0.149L6.755,21.061z M12.298,24.932H1.782c0.046-1.066,0.413-2.053,1.005-2.861
			c0.369-0.51,0.827-0.947,1.352-1.297c-0.035,0.105,0.003,0.219,0.1,0.273l1.767,1.021l0.388,0.225
			c0.035,0.021,0.075,0.031,0.115,0.031c0.022,0,0.045-0.004,0.066-0.011c0.062-0.02,0.11-0.062,0.14-0.118l0.062-0.127l0.267-0.546
			l0.266,0.546l0.062,0.127c0.027,0.058,0.078,0.101,0.14,0.118c0.021,0.007,0.045,0.011,0.067,0.011
			c0.04,0,0.079-0.013,0.115-0.031l0.387-0.225l1.767-1.021c0.097-0.056,0.134-0.17,0.101-0.273c0.522,0.35,0.98,0.787,1.352,1.297
			C11.885,22.879,12.252,23.865,12.298,24.932z M30.872,10.336V5.314C30.872,1.462,28.834,0,26.323,0
			c-2.515,0-4.552,1.463-4.552,5.314v5.022c-0.731,0.962-1.174,2.158-1.174,3.459v0.229h11.446v-0.229
			C32.045,12.494,31.605,11.298,30.872,10.336z M23.192,5.572c0.059-0.018,0.116-0.005,0.178,0.029V5.213l0.379-0.028
			c1.412,0,2.646-0.592,3.322-1.473c0.49,0.639,1.272,1.126,2.207,1.344v0.545c0.061-0.034,0.118-0.047,0.178-0.029
			c0.191,0.058,0.276,0.411,0.188,0.79c-0.087,0.368-0.523,0.623-0.714,0.585c-0.131,0.421-0.375,0.865-0.679,1.266l-0.213,0.123
			l-0.279,0.162l-0.286,0.165l-1.147,0.666l-1.15-0.666l-0.285-0.165l-0.281-0.162L24.374,8.2c-0.287-0.394-0.521-0.831-0.649-1.255
			c-0.188,0.044-0.631-0.212-0.719-0.583C22.913,5.983,22.997,5.629,23.192,5.572z M28.709,9.39l-1.756,1.016l-0.348-0.711
			l1.477-0.854l0.261-0.151c0.01,0.005,0.021,0.008,0.03,0.012l0.158,0.323L28.709,9.39z M26.038,9.695l-0.35,0.711L23.933,9.39
			l0.179-0.365l0.157-0.323c0.011-0.004,0.021-0.007,0.03-0.012l0.261,0.151L26.038,9.695z M21.064,13.565
			c0.048-1.066,0.413-2.052,1.007-2.862c0.367-0.508,0.825-0.946,1.352-1.295c-0.035,0.103,0.003,0.218,0.099,0.272l1.769,1.022
			l0.388,0.224c0.035,0.021,0.075,0.031,0.114,0.031c0.021,0,0.046-0.003,0.066-0.01c0.061-0.019,0.11-0.062,0.141-0.119
			l0.062-0.126l0.269-0.545l0.266,0.545l0.062,0.126c0.026,0.057,0.076,0.101,0.14,0.119c0.021,0.007,0.045,0.01,0.067,0.01
			c0.039,0,0.078-0.011,0.113-0.031l0.389-0.224l1.767-1.022c0.096-0.055,0.134-0.17,0.1-0.272c0.523,0.349,0.981,0.787,1.353,1.295
			c0.592,0.811,0.959,1.796,1.005,2.862H21.064z M30.872,24.646c0-3.852-2.037-5.311-4.549-5.311c-2.515,0-4.552,1.461-4.552,5.311
			v5.023c-0.731,0.961-1.174,2.157-1.174,3.459v0.229h11.446v-0.229c0-1.302-0.44-2.498-1.174-3.459L30.872,24.646L30.872,24.646z
			 M23.192,24.906c0.059-0.02,0.116-0.004,0.178,0.027v-0.387l0.379-0.027c1.412,0,2.646-0.592,3.322-1.475
			c0.49,0.641,1.272,1.127,2.207,1.346v0.543c0.061-0.031,0.118-0.047,0.178-0.027c0.191,0.059,0.276,0.41,0.188,0.791
			c-0.087,0.367-0.523,0.621-0.714,0.584c-0.131,0.422-0.375,0.865-0.679,1.266l-0.213,0.123l-0.279,0.162l-0.286,0.166
			l-1.147,0.664l-1.15-0.664l-0.285-0.166l-0.281-0.162l-0.234-0.137c-0.287-0.393-0.521-0.83-0.649-1.254
			c-0.188,0.045-0.631-0.211-0.719-0.582C22.913,25.316,22.997,24.963,23.192,24.906z M28.709,28.723l-1.756,1.018l-0.348-0.711
			l1.477-0.854l0.261-0.149c0.01,0.004,0.021,0.006,0.03,0.012l0.158,0.322L28.709,28.723z M26.038,29.029l-0.35,0.711l-1.755-1.018
			l0.179-0.363l0.157-0.322c0.011-0.006,0.021-0.008,0.03-0.014l0.261,0.15L26.038,29.029z M31.581,32.898H21.063
			c0.047-1.066,0.413-2.051,1.006-2.861c0.368-0.508,0.826-0.945,1.353-1.295c-0.035,0.104,0.003,0.217,0.099,0.271l1.768,1.021
			l0.389,0.227c0.035,0.021,0.074,0.029,0.115,0.029c0.021,0,0.045-0.004,0.064-0.01c0.062-0.02,0.111-0.062,0.141-0.119
			l0.062-0.127l0.268-0.543l0.267,0.543l0.062,0.127c0.027,0.059,0.078,0.102,0.141,0.119c0.021,0.006,0.045,0.01,0.066,0.01
			c0.039,0,0.078-0.01,0.114-0.029l0.388-0.227l1.768-1.021c0.096-0.056,0.134-0.17,0.1-0.271c0.523,0.35,0.981,0.787,1.354,1.295
			C31.167,30.848,31.536,31.831,31.581,32.898z M15.762,7.712h3.301v0.707h-2.594v19.918h2.594v0.707h-3.301V18.85h-1.768v-0.707
			h1.768V7.712z"/>
	</g>
</g>
<g>
</g>
<g>
</g>
<g>
</g>
<g>
</g>
<g>
</g>
<g>
</g>
<g>
</g>
<g>
</g>
<g>
</g>
<g>
</g>
<g>
</g>
<g>
</g>
<g>
</g>
<g>
</g>
<g>
</g>
</svg>
