<?xml version="1.0" encoding="iso-8859-1"?>
<!-- Generator: Adobe Illustrator 16.0.0, SVG Export Plug-In . SVG Version: 6.00 Build 0)  -->
<!DOCTYPE svg PUBLIC "-//W3C//DTD SVG 1.1//EN" "http://www.w3.org/Graphics/SVG/1.1/DTD/svg11.dtd">
<svg version="1.1" id="Capa_1" xmlns="http://www.w3.org/2000/svg" xmlns:xlink="http://www.w3.org/1999/xlink" x="0px" y="0px"
	 width="25.168px" height="25.168px" viewBox="0 0 25.168 25.168" style="enable-background:new 0 0 25.168 25.168;"
	 xml:space="preserve">
<g>
	<g>
		<path d="M7.07,23.176h11.025c0.324,0,0.606-0.127,0.799-0.355c0.19-0.229,0.268-0.528,0.211-0.848l-0.406-2.283
			c-0.107-0.607-0.666-1.186-1.27-1.312l-0.385-0.082v-4.067c0-3.778-1.997-5.213-4.462-5.213c-2.463,0-4.461,1.435-4.461,5.213
			v4.067l-0.384,0.082c-0.604,0.127-1.162,0.703-1.27,1.312l-0.406,2.283C6.004,22.29,6.08,22.589,6.27,22.82
			C6.466,23.049,6.749,23.176,7.07,23.176z M9.514,14.479c0.057-0.017,0.113-0.002,0.172,0.028v-0.514h3.461l0.289-1.735v1.807
			h2.047v0.442c0.059-0.03,0.117-0.045,0.174-0.028c0.191,0.058,0.273,0.403,0.187,0.775c-0.086,0.361-0.515,0.612-0.7,0.572
			c-0.197,0.635-0.651,1.32-1.179,1.818c-0.071,0.067-0.144,0.133-0.216,0.191c-0.082,0.066-0.162,0.13-0.244,0.188l1.782,0.375
			l-0.952,1.11l-1.177,1.376l-0.3-1.376l-0.043-0.188l0.431-0.43l-0.54-0.539l-0.12-0.119l-0.121,0.121l-0.537,0.537l0.431,0.43
			l-0.043,0.188l-0.289,1.322l-1.164-1.322l-0.979-1.11l1.771-0.373c-0.084-0.056-0.166-0.117-0.248-0.186
			c-0.072-0.062-0.145-0.124-0.215-0.189c-0.517-0.496-0.961-1.176-1.157-1.824c-0.187,0.043-0.62-0.208-0.704-0.572
			C9.24,14.882,9.322,14.534,9.514,14.479z M6.928,19.77c0.075-0.42,0.49-0.849,0.908-0.938l0.287-0.061l1.236-0.263l0.881,1.001
			l2.211,2.51c0.043,0.049,0.105,0.078,0.172,0.078c0.001,0,0.002,0,0.002,0c0.068,0,0.132-0.031,0.174-0.08l2.146-2.508
			l0.856-1.002l1.244,0.264l0.286,0.061c0.419,0.09,0.834,0.52,0.908,0.938l0.408,2.285c0.031,0.18-0.008,0.346-0.11,0.467
			c-0.103,0.123-0.259,0.188-0.44,0.188h-2.146v-1.172c0-0.128-0.104-0.231-0.233-0.231c-0.128,0-0.23,0.104-0.23,0.231v1.172H9.681
			v-1.172c0-0.128-0.104-0.231-0.23-0.231c-0.129,0-0.232,0.104-0.232,0.231v1.172H7.073c-0.182,0-0.338-0.065-0.439-0.188
			C6.53,22.4,6.492,22.234,6.525,22.055L6.928,19.77z M16.776,2.236V0H15.66v2.236H9.508V0H8.391v2.236H3.216v22.932h18.736V2.236
			H16.776z M20.834,24.05h-16.5V3.355h4.057v2.071c-0.289,0.187-0.49,0.496-0.49,0.865c0,0.58,0.469,1.049,1.049,1.049
			c0.578,0,1.049-0.469,1.049-1.049c0-0.369-0.202-0.679-0.489-0.864V3.355h6.152v2.071c-0.288,0.187-0.489,0.496-0.489,0.865
			c0,0.58,0.469,1.049,1.049,1.049c0.578,0,1.049-0.469,1.049-1.049c0-0.369-0.201-0.679-0.49-0.864V3.355h4.058v20.694
			L20.834,24.05L20.834,24.05z"/>
	</g>
</g>
<g>
</g>
<g>
</g>
<g>
</g>
<g>
</g>
<g>
</g>
<g>
</g>
<g>
</g>
<g>
</g>
<g>
</g>
<g>
</g>
<g>
</g>
<g>
</g>
<g>
</g>
<g>
</g>
<g>
</g>
</svg>
