<?xml version="1.0" encoding="iso-8859-1"?>
<!-- Generator: Adobe Illustrator 16.0.0, SVG Export Plug-In . SVG Version: 6.00 Build 0)  -->
<!DOCTYPE svg PUBLIC "-//W3C//DTD SVG 1.1//EN" "http://www.w3.org/Graphics/SVG/1.1/DTD/svg11.dtd">
<svg version="1.1" id="Capa_1" xmlns="http://www.w3.org/2000/svg" xmlns:xlink="http://www.w3.org/1999/xlink" x="0px" y="0px"
	 width="32.3px" height="32.3px" viewBox="0 0 32.3 32.3" style="enable-background:new 0 0 32.3 32.3;" xml:space="preserve">
<g>
	<g>
		<path d="M31.15,5h-30C0.515,5,0,5.517,0,6.15v20C0,26.785,0.515,27.3,1.15,27.3h30c0.635,0,1.149-0.517,1.149-1.149v-20
			C32.3,5.515,31.785,5,31.15,5z M30,25H2.3V7.3H30V25z M31.15,17.584c-0.398,0-0.724-0.324-0.724-0.723
			c0-0.396,0.324-0.721,0.724-0.721c0.398,0,0.721,0.322,0.721,0.721S31.548,17.584,31.15,17.584z M8.409,14.871
			c-0.062-0.367,0.067-0.691,0.285-0.729c0.018-0.002,0.034,0.008,0.049,0.009c-0.101-2.637,1.453-3.846,3.189-3.855
			c1.687,0.041,3.024,1.029,3.092,3.848c0.014-0.002,0.026-0.01,0.041-0.008c0.22,0.037,0.351,0.363,0.291,0.729
			c-0.061,0.35-0.273,0.602-0.486,0.589c-0.462,1.702-1.852,2.964-2.985,3.017c-1.242-0.027-2.468-1.308-2.943-3.018
			c-0.008,0.004-0.014,0.01-0.022,0.012C8.699,15.498,8.471,15.235,8.409,14.871z M18.931,23.345L4.833,23.361
			c-0.004-2.854,1.963-4.031,4.705-4.406l1.58,3.088l0.246-2.01l-0.39-0.318l0.863-0.002h0.943l-0.39,0.318l0.252,2.01l1.574-3.092
			C16.959,19.316,18.927,20.49,18.931,23.345z M27.421,14.013h-4.642V9.28C25.266,9.511,27.232,11.513,27.421,14.013z
			 M16.858,14.595c0-2.81,2.251-5.088,5.048-5.141v5.334h5.231c-0.102,2.752-2.356,4.952-5.135,4.952
			C19.162,19.742,16.858,17.436,16.858,14.595z"/>
	</g>
</g>
<g>
</g>
<g>
</g>
<g>
</g>
<g>
</g>
<g>
</g>
<g>
</g>
<g>
</g>
<g>
</g>
<g>
</g>
<g>
</g>
<g>
</g>
<g>
</g>
<g>
</g>
<g>
</g>
<g>
</g>
</svg>
