<?xml version="1.0" encoding="iso-8859-1"?>
<!-- Generator: Adobe Illustrator 16.0.0, SVG Export Plug-In . SVG Version: 6.00 Build 0)  -->
<!DOCTYPE svg PUBLIC "-//W3C//DTD SVG 1.1//EN" "http://www.w3.org/Graphics/SVG/1.1/DTD/svg11.dtd">
<svg version="1.1" id="Capa_1" xmlns="http://www.w3.org/2000/svg" xmlns:xlink="http://www.w3.org/1999/xlink" x="0px" y="0px"
	 width="37.349px" height="37.348px" viewBox="0 0 37.349 37.348" style="enable-background:new 0 0 37.349 37.348;"
	 xml:space="preserve">
<g>
	<path d="M26.931,18.662c-0.062-0.362,0.063-0.684,0.283-0.721c0.017-0.004,0.032,0.007,0.049,0.007
		c-0.096-2.611,1.442-3.806,3.162-3.814c1.67,0.043,2.992,1.025,3.056,3.814c0.016,0,0.026-0.01,0.043-0.007
		c0.219,0.037,0.346,0.359,0.284,0.721c-0.059,0.346-0.271,0.594-0.481,0.581c-0.457,1.687-1.836,2.933-2.957,2.982
		c-1.23-0.027-2.441-1.295-2.91-2.988c-0.01,0.002-0.014,0.011-0.021,0.013C27.218,19.284,26.988,19.022,26.931,18.662z M6.88,14.13
		c0.054,0,0.104,0.003,0.157,0.004c0.021,0,0.035-0.004,0.055-0.004H6.88z M30.396,22.226c-0.009,0-0.019-0.001-0.027-0.001
		c-0.006,0-0.014,0.001-0.021,0.001H30.396z M30.267,14.13c0.054,0,0.104,0.003,0.158,0.004c0.021,0,0.035-0.004,0.054-0.004H30.267
		z M7.009,22.226c-0.009,0-0.018-0.001-0.025-0.001c-0.007,0-0.015,0.001-0.021,0.001H7.009z M22.445,15.554
		c-0.137,1.88-0.938,4.076-2.092,5.253h4.453V15.84c0.001-5.193-2.744-7.166-6.132-7.166c-3.388,0-6.134,1.972-6.134,7.166v4.967
		h4.453c-1.115-1.139-1.907-3.232-2.082-5.07l0.045-0.003c1.914,0,3.57-0.793,4.478-1.964
		C20.104,14.627,21.169,15.267,22.445,15.554z M37.349,27.067c0-2.83-1.95-3.992-4.664-4.357l-1.561,3.057l-0.248-1.988l0.387-0.314
		h-0.935h-0.854l0.39,0.314l-0.25,1.988l-1.56-3.057c-0.965,0.13-1.825,0.367-2.543,0.736c-1.176-0.582-2.616-0.912-4.224-1.068
		l1.894,1.893h-1.51l1.049,1.051l-3.356,3.354h9.271c0-0.587-0.064-1.119-0.176-1.609h8.889L37.349,27.067L37.349,27.067z
		 M4.051,19.249c0.006-0.002,0.013-0.01,0.021-0.012c0.467,1.692,1.68,2.961,2.912,2.987c1.121-0.051,2.498-1.297,2.957-2.981
		c0.211,0.014,0.422-0.234,0.479-0.581c0.062-0.362-0.064-0.684-0.283-0.721c-0.016-0.003-0.029,0.007-0.042,0.007
		c-0.065-2.789-1.387-3.771-3.058-3.814c-1.719,0.008-3.258,1.204-3.16,3.814c-0.018,0-0.032-0.011-0.049-0.007
		c-0.217,0.037-0.346,0.359-0.284,0.721C3.605,19.022,3.83,19.284,4.051,19.249z M15.68,24.269h-1.511l1.893-1.893
		c-1.604,0.157-3.047,0.487-4.221,1.069c-0.718-0.371-1.578-0.608-2.542-0.738l-1.562,3.057l-0.25-1.988l0.389-0.314H6.94H6.086
		l0.386,0.314l-0.247,1.988l-1.56-3.057C1.949,23.073,0,24.237,0,27.065h8.89c-0.112,0.489-0.176,1.021-0.176,1.608h9.271
		l-3.355-3.354L15.68,24.269z"/>
</g>
<g>
</g>
<g>
</g>
<g>
</g>
<g>
</g>
<g>
</g>
<g>
</g>
<g>
</g>
<g>
</g>
<g>
</g>
<g>
</g>
<g>
</g>
<g>
</g>
<g>
</g>
<g>
</g>
<g>
</g>
</svg>
