<?xml version="1.0" encoding="iso-8859-1"?>
<!-- Generator: Adobe Illustrator 16.0.0, SVG Export Plug-In . SVG Version: 6.00 Build 0)  -->
<!DOCTYPE svg PUBLIC "-//W3C//DTD SVG 1.1//EN" "http://www.w3.org/Graphics/SVG/1.1/DTD/svg11.dtd">
<svg version="1.1" id="Capa_1" xmlns="http://www.w3.org/2000/svg" xmlns:xlink="http://www.w3.org/1999/xlink" x="0px" y="0px"
	 width="28.746px" height="28.746px" viewBox="0 0 28.746 28.746" style="enable-background:new 0 0 28.746 28.746;"
	 xml:space="preserve">
<g>
	<g>
		<path d="M23.168,28.746H3.184c0-4.071,2.67-7.538,6.427-8.913c-0.807-0.817-1.392-2.067-1.685-3.948
			c-0.387,0.079-0.988-0.363-1.165-1.04c-0.181-0.687-0.3-1.796,0.091-1.901c0.117-0.031,0.238-0.009,0.356,0.053v-1.908
			c0-3.006-0.708-4.771,4.203-5.274l-0.044-0.012c0,0,3.871-0.372,4.889-1.29c0,0,0.029,0.773,0.441,1.623
			c2.264,0.869,2.549,2.875,2.482,4.953v1.908c0.121-0.062,0.24-0.084,0.357-0.053c0.393,0.104,0.184,1.258,0.004,1.946
			c-0.176,0.668-0.685,1.066-1.066,0.994c-0.287,1.791-0.914,3.075-1.787,3.933C20.474,21.175,23.168,24.654,23.168,28.746z
			 M18.621,0c-0.36,0-0.651,0.291-0.651,0.651c0,0.359,0.291,0.65,0.651,0.65c3.109,0,5.642,2.531,5.642,5.642
			c0,0.359,0.291,0.651,0.649,0.651c0.359,0,0.65-0.292,0.65-0.651C25.562,3.115,22.449,0,18.621,0z M18.564,2.333
			c-0.359,0-0.65,0.291-0.65,0.65c0,0.36,0.291,0.651,0.65,0.651c1.885,0,3.418,1.533,3.418,3.417c0,0.36,0.291,0.651,0.65,0.651
			s0.65-0.291,0.65-0.651C23.285,4.449,21.168,2.333,18.564,2.333z M18.349,5.858c0.748,0,1.356,0.608,1.356,1.356
			c0,0.359,0.291,0.651,0.65,0.651s0.65-0.292,0.65-0.651c0-1.465-1.191-2.658-2.658-2.658c-0.359,0-0.65,0.291-0.65,0.651
			S17.988,5.858,18.349,5.858z"/>
	</g>
</g>
<g>
</g>
<g>
</g>
<g>
</g>
<g>
</g>
<g>
</g>
<g>
</g>
<g>
</g>
<g>
</g>
<g>
</g>
<g>
</g>
<g>
</g>
<g>
</g>
<g>
</g>
<g>
</g>
<g>
</g>
</svg>
