<?xml version="1.0" encoding="iso-8859-1"?>
<!-- Generator: Adobe Illustrator 16.0.0, SVG Export Plug-In . SVG Version: 6.00 Build 0)  -->
<!DOCTYPE svg PUBLIC "-//W3C//DTD SVG 1.1//EN" "http://www.w3.org/Graphics/SVG/1.1/DTD/svg11.dtd">
<svg version="1.1" id="Capa_1" xmlns="http://www.w3.org/2000/svg" xmlns:xlink="http://www.w3.org/1999/xlink" x="0px" y="0px"
	 width="33.277px" height="33.277px" viewBox="0 0 33.277 33.277" style="enable-background:new 0 0 33.277 33.277;"
	 xml:space="preserve">
<g>
	<g>
		<path d="M33.252,24.936l-0.576-3.224c-0.152-0.859-0.939-1.673-1.791-1.854l-0.539-0.114V14c0-5.332-2.82-7.357-6.301-7.357
			c-1.512,0-2.898,0.385-3.984,1.254H16v5.451H8v5.396H0v7.818h1v-6.818h7v6.818h1v-7.818v-4.396h7v6.239
			c-0.297,0.323-0.515,0.718-0.585,1.125l-0.575,3.224c-0.079,0.447,0.025,0.873,0.296,1.197s0.672,0.502,1.124,0.502h15.569
			c0.453,0,0.854-0.178,1.125-0.502S33.331,25.383,33.252,24.936z M19.709,14.357c0.082-0.025,0.163-0.004,0.244,0.04v-0.726H24
			h0.838L25,12.697l0.247-1.477v2.551h2.89v0.625c0.082-0.044,0.164-0.066,0.244-0.04c0.271,0.079,0.385,0.568,0.264,1.095
			c-0.121,0.512-0.729,0.863-0.989,0.81c-0.274,0.896-0.922,1.864-1.662,2.569c-0.101,0.094-0.202,0.186-0.304,0.271
			c-0.116,0.093-0.231,0.183-0.348,0.261l2.517,0.53l-1.345,1.565L25,23.228l-0.148,0.177l-0.422-1.945l-0.062-0.264l0.606-0.604
			l-0.763-0.765l-0.169-0.166l-0.045,0.043l-0.126,0.125l-0.761,0.763l0.607,0.604l-0.06,0.264l-0.405,1.869l-1.646-1.869
			l-1.384-1.566l2.502-0.525c-0.116-0.078-0.233-0.17-0.35-0.262c-0.104-0.086-0.203-0.176-0.305-0.27
			c-0.729-0.699-1.354-1.659-1.633-2.575c-0.264,0.062-0.877-0.296-0.995-0.81C19.324,14.926,19.441,14.437,19.709,14.357z
			 M17,13.348V8.896h2.113c-0.854,1.17-1.368,2.835-1.368,5.104v5.744l-0.539,0.115c-0.069,0.014-0.139,0.039-0.206,0.062V13.348
			L17,13.348z M32.451,25.712c-0.146,0.173-0.366,0.268-0.622,0.268h-3.03v-1.653c0-0.182-0.146-0.328-0.326-0.328
			c-0.184,0-0.328,0.146-0.328,0.328v1.653H25h-1h-4.054v-1.653c0-0.182-0.146-0.328-0.329-0.328c-0.182,0-0.325,0.146-0.325,0.328
			v1.653H17h-0.74c-0.095,0-0.177-0.026-0.26-0.051c-0.143-0.043-0.271-0.106-0.361-0.217c-0.144-0.173-0.199-0.407-0.155-0.66
			l0.518-2.894l0.06-0.334c0.085-0.476,0.482-0.947,0.94-1.186c0.111-0.061,0.225-0.114,0.341-0.141l0.404-0.086l1.749-0.366
			l1.241,1.409L23.855,25c0.039,0.046,0.091,0.07,0.146,0.09c0.032,0.011,0.065,0.021,0.101,0.021c0.002,0,0.004,0,0.004,0
			c0.095,0,0.186-0.041,0.244-0.111l0.651-0.764l2.378-2.779l1.213-1.412l1.754,0.369L30.75,20.5
			c0.59,0.125,1.176,0.731,1.281,1.324l0.574,3.227C32.65,25.305,32.596,25.539,32.451,25.712z"/>
	</g>
</g>
<g>
</g>
<g>
</g>
<g>
</g>
<g>
</g>
<g>
</g>
<g>
</g>
<g>
</g>
<g>
</g>
<g>
</g>
<g>
</g>
<g>
</g>
<g>
</g>
<g>
</g>
<g>
</g>
<g>
</g>
</svg>
