<?xml version="1.0" encoding="iso-8859-1"?>
<!-- Generator: Adobe Illustrator 16.0.0, SVG Export Plug-In . SVG Version: 6.00 Build 0)  -->
<!DOCTYPE svg PUBLIC "-//W3C//DTD SVG 1.1//EN" "http://www.w3.org/Graphics/SVG/1.1/DTD/svg11.dtd">
<svg version="1.1" id="Capa_1" xmlns="http://www.w3.org/2000/svg" xmlns:xlink="http://www.w3.org/1999/xlink" x="0px" y="0px"
	 width="29px" height="29px" viewBox="0 0 29 29" style="enable-background:new 0 0 29 29;" xml:space="preserve">
<g>
	<g>
		<path d="M19.473,26.307H0c0-3.968,2.602-7.345,6.263-8.685c-0.786-0.797-1.357-2.016-1.643-3.848
			c-0.377,0.077-0.963-0.355-1.135-1.014c-0.176-0.669-0.292-1.75,0.089-1.853c0.114-0.03,0.232-0.009,0.347,0.052V9.1
			c0-2.929-0.69-4.648,4.095-5.139L7.974,3.95c0,0,3.771-0.362,4.765-1.257c0,0,0.027,0.754,0.429,1.582
			c2.207,0.847,2.484,2.801,2.421,4.826v1.86c0.118-0.061,0.235-0.082,0.349-0.052c0.38,0.104,0.178,1.226,0.002,1.896
			c-0.17,0.652-0.666,1.04-1.04,0.97c-0.28,1.745-0.891,2.997-1.741,3.829C16.846,18.93,19.473,22.32,19.473,26.307z M26,3.811
			h-4.833c-1.657,0-3,1.343-3,3v4.833c0,1.657,1.343,3,3,3h0.166v3.167l3.167-3.167H26c1.657,0,3-1.343,3-3V6.811
			C29,5.154,27.657,3.811,26,3.811z"/>
	</g>
</g>
<g>
</g>
<g>
</g>
<g>
</g>
<g>
</g>
<g>
</g>
<g>
</g>
<g>
</g>
<g>
</g>
<g>
</g>
<g>
</g>
<g>
</g>
<g>
</g>
<g>
</g>
<g>
</g>
<g>
</g>
</svg>
