<?xml version="1.0" encoding="iso-8859-1"?>
<!-- Generator: Adobe Illustrator 16.0.0, SVG Export Plug-In . SVG Version: 6.00 Build 0)  -->
<!DOCTYPE svg PUBLIC "-//W3C//DTD SVG 1.1//EN" "http://www.w3.org/Graphics/SVG/1.1/DTD/svg11.dtd">
<svg version="1.1" id="Capa_1" xmlns="http://www.w3.org/2000/svg" xmlns:xlink="http://www.w3.org/1999/xlink" x="0px" y="0px"
	 width="34.264px" height="34.264px" viewBox="0 0 34.264 34.264" style="enable-background:new 0 0 34.264 34.264;"
	 xml:space="preserve">
<g>
	<g>
		<path d="M13.435,18.684c-0.113-0.646-0.706-1.258-1.347-1.394l-0.406-0.087v-4.32c0-4.012-2.122-5.535-4.739-5.535
			c-2.615,0-4.738,1.523-4.738,5.535v4.32L1.801,17.29c-0.641,0.136-1.232,0.748-1.348,1.394l-0.434,2.426
			c-0.059,0.336,0.02,0.654,0.223,0.899c0.205,0.242,0.506,0.377,0.848,0.377H12.8c0.342,0,0.644-0.135,0.847-0.377
			c0.204-0.245,0.283-0.563,0.225-0.899L13.435,18.684z M3.683,13.151c0.061-0.02,0.121-0.004,0.184,0.029v-0.545h3.674l0.308-1.845
			v1.919h2.174v0.473c0.062-0.033,0.124-0.05,0.185-0.031c0.203,0.061,0.289,0.43,0.197,0.824c-0.091,0.385-0.548,0.649-0.744,0.607
			c-0.207,0.674-0.692,1.402-1.25,1.932c-0.076,0.072-0.152,0.141-0.229,0.205c-0.086,0.07-0.174,0.139-0.26,0.197l1.893,0.398
			l-1.012,1.18l-1.25,1.462l-0.317-1.462L7.19,18.296l0.457-0.456l-0.573-0.572l-0.127-0.127L6.82,17.27l-0.572,0.57l0.457,0.456
			L6.66,18.494l-0.308,1.404l-1.235-1.404l-1.041-1.18l1.883-0.396c-0.09-0.059-0.178-0.127-0.264-0.195
			c-0.076-0.066-0.152-0.133-0.229-0.205c-0.55-0.523-1.021-1.246-1.229-1.937c-0.199,0.046-0.658-0.222-0.748-0.608
			C3.392,13.579,3.48,13.21,3.683,13.151z M13.267,21.689c-0.109,0.131-0.275,0.203-0.469,0.203h-2.279v-1.244
			c0-0.135-0.109-0.248-0.246-0.248c-0.137,0-0.246,0.113-0.246,0.248v1.244H3.861v-1.244c0-0.135-0.109-0.248-0.246-0.248
			c-0.137,0-0.246,0.113-0.246,0.248v1.244h-2.28c-0.192,0-0.358-0.072-0.469-0.203c-0.107-0.127-0.149-0.305-0.116-0.494
			l0.434-2.428c0.079-0.443,0.521-0.9,0.964-0.996l0.305-0.062l1.313-0.276l0.937,1.062l2.346,2.666
			c0.047,0.053,0.115,0.082,0.186,0.082h0.002c0.07,0,0.14-0.03,0.185-0.084l2.278-2.664l0.912-1.062l1.319,0.276l0.304,0.062
			c0.444,0.096,0.885,0.553,0.965,0.996l0.433,2.43C13.415,21.386,13.374,21.562,13.267,21.689z M29.936,29.352
			c-0.113-0.646-0.706-1.258-1.348-1.394l-0.406-0.087v-4.32c0-4.012-2.121-5.535-4.738-5.535c-2.615,0-4.738,1.523-4.738,5.535
			v4.32l-0.404,0.087c-0.641,0.136-1.232,0.748-1.348,1.394l-0.434,2.426c-0.059,0.336,0.02,0.654,0.223,0.899
			c0.205,0.242,0.506,0.378,0.848,0.378H29.3c0.342,0,0.645-0.136,0.848-0.378c0.204-0.245,0.282-0.563,0.225-0.899L29.936,29.352z
			 M20.183,23.818c0.062-0.02,0.121-0.004,0.185,0.029v-0.545h3.674l0.308-1.845v1.918h2.175v0.472
			c0.062-0.033,0.124-0.049,0.185-0.029c0.203,0.061,0.289,0.43,0.197,0.822c-0.091,0.385-0.548,0.65-0.744,0.608
			c-0.207,0.674-0.692,1.401-1.25,1.933c-0.076,0.071-0.152,0.141-0.229,0.204c-0.086,0.07-0.174,0.138-0.26,0.197l1.894,0.397
			l-1.013,1.18l-1.25,1.463l-0.316-1.463l-0.046-0.197l0.457-0.456l-0.573-0.573l-0.127-0.125l-0.127,0.127l-0.572,0.571
			l0.457,0.456L23.16,29.16l-0.308,1.406l-1.235-1.406l-1.041-1.18l1.883-0.396c-0.09-0.061-0.178-0.127-0.264-0.196
			c-0.076-0.063-0.152-0.132-0.229-0.203c-0.55-0.524-1.021-1.247-1.229-1.938c-0.199,0.046-0.658-0.224-0.748-0.607
			C19.892,24.247,19.98,23.878,20.183,23.818z M29.767,32.357c-0.108,0.131-0.274,0.203-0.469,0.203H27.02v-1.244
			c0-0.135-0.109-0.248-0.246-0.248c-0.138,0-0.246,0.113-0.246,0.248v1.244h-6.166v-1.244c0-0.135-0.109-0.248-0.246-0.248
			s-0.246,0.113-0.246,0.248v1.244H17.59c-0.192,0-0.358-0.072-0.469-0.203c-0.107-0.127-0.149-0.305-0.116-0.494l0.434-2.428
			c0.079-0.443,0.521-0.9,0.964-0.996l0.305-0.062l1.313-0.276l0.937,1.062l2.346,2.665c0.048,0.053,0.115,0.082,0.187,0.082h0.002
			c0.07,0,0.14-0.03,0.185-0.084l2.278-2.663l0.912-1.062l1.319,0.276l0.304,0.062c0.444,0.096,0.885,0.553,0.965,0.996l0.433,2.43
			C29.915,32.055,29.874,32.23,29.767,32.357z M34.264,14.834h-1V2.209h-18.5v-1h19.5V14.834z M13.389,3.126v13.125h3.292v4.125
			l4.125-4.125h11.583V3.126H13.389z M22.689,14.411c-2.419,0-4.379-1.961-4.379-4.378c0-2.391,1.916-4.328,4.295-4.373v4.539h4.451
			C26.97,12.539,25.052,14.411,22.689,14.411z M23.35,9.539V5.512c2.111,0.198,3.787,1.9,3.946,4.027H23.35z"/>
	</g>
</g>
<g>
</g>
<g>
</g>
<g>
</g>
<g>
</g>
<g>
</g>
<g>
</g>
<g>
</g>
<g>
</g>
<g>
</g>
<g>
</g>
<g>
</g>
<g>
</g>
<g>
</g>
<g>
</g>
<g>
</g>
</svg>
