<?xml version="1.0" encoding="iso-8859-1"?>
<!-- Generator: Adobe Illustrator 16.0.0, SVG Export Plug-In . SVG Version: 6.00 Build 0)  -->
<!DOCTYPE svg PUBLIC "-//W3C//DTD SVG 1.1//EN" "http://www.w3.org/Graphics/SVG/1.1/DTD/svg11.dtd">
<svg version="1.1" id="Capa_1" xmlns="http://www.w3.org/2000/svg" xmlns:xlink="http://www.w3.org/1999/xlink" x="0px" y="0px"
	 width="30.5px" height="30.5px" viewBox="0 0 30.5 30.5" style="enable-background:new 0 0 30.5 30.5;" xml:space="preserve">
<g>
	<path d="M25.144,22.479V11.557C25.144,3.18,20.713,0,15.25,0C9.787,0,5.358,3.18,5.358,11.557v10.921
		C3.764,24.57,2.805,27.172,2.805,30v0.5h24.891V30C27.695,27.172,26.736,24.568,25.144,22.479z M3.815,29.5
		c0.1-2.32,0.898-4.462,2.185-6.227c0.955-1.311,2.184-2.402,3.598-3.211c1.528,1.455,3.567,2.289,5.688,2.289
		c2.137,0,4.125-0.807,5.665-2.263c1.394,0.806,2.605,1.89,3.551,3.185c1.285,1.765,2.084,3.904,2.185,6.227H3.815z M9.592,15.103
		C9.179,15.2,8.22,14.643,8.03,13.835c-0.194-0.824-0.01-1.593,0.411-1.719c0.125-0.038,0.255-0.01,0.384,0.064v-0.843l0.824-0.062
		c3.074,0,5.755-1.287,7.226-3.203c1.066,1.391,2.771,2.448,4.803,2.924v1.184c0.128-0.074,0.259-0.103,0.384-0.064
		c0.422,0.126,0.604,0.895,0.412,1.719c-0.188,0.802-1.142,1.354-1.554,1.271c-0.321,1.039-0.961,2.141-1.739,3.093
		c-0.113,0.138-0.229,0.271-0.347,0.402c-0.129,0.142-0.26,0.276-0.393,0.408c0.541,0.158,1.062,0.36,1.568,0.594
		c-1.312,1.133-2.965,1.748-4.725,1.748c-1.746,0-3.433-0.641-4.743-1.771c0.479-0.219,0.973-0.409,1.485-0.561
		c-0.132-0.133-0.261-0.269-0.387-0.408c-0.117-0.131-0.231-0.268-0.343-0.403C10.535,17.264,9.914,16.163,9.592,15.103z"/>
</g>
<g>
</g>
<g>
</g>
<g>
</g>
<g>
</g>
<g>
</g>
<g>
</g>
<g>
</g>
<g>
</g>
<g>
</g>
<g>
</g>
<g>
</g>
<g>
</g>
<g>
</g>
<g>
</g>
<g>
</g>
</svg>
