<?xml version="1.0" encoding="iso-8859-1"?>
<!-- Generator: Adobe Illustrator 16.0.0, SVG Export Plug-In . SVG Version: 6.00 Build 0)  -->
<!DOCTYPE svg PUBLIC "-//W3C//DTD SVG 1.1//EN" "http://www.w3.org/Graphics/SVG/1.1/DTD/svg11.dtd">
<svg version="1.1" id="Capa_1" xmlns="http://www.w3.org/2000/svg" xmlns:xlink="http://www.w3.org/1999/xlink" x="0px" y="0px"
	 width="30.862px" height="30.862px" viewBox="0 0 30.862 30.862" style="enable-background:new 0 0 30.862 30.862;"
	 xml:space="preserve">
<g>
	<g>
		<path d="M11.43,10.872h7.987c0.23,0,0.438-0.091,0.578-0.258c0.14-0.166,0.192-0.385,0.151-0.615l-0.294-1.655
			c-0.076-0.44-0.481-0.857-0.921-0.951l-2.192-0.462c0.413-0.4,0.729-0.954,0.938-1.513c0.271-0.099,0.544-0.341,0.624-0.655
			c0.104-0.417-0.006-0.791-0.266-0.953V3.515c0.235-0.714,0.359-1.881-0.715-2.509c-0.482-0.281-0.882-0.3-1.185-0.201
			c-0.047-0.123,0.093-0.299,0.093-0.299c-0.246-0.01-0.377,0.123-0.431,0.197c-0.331-0.151-0.764-0.217-1.319-0.101
			c-1.778,0.374-2.006,2.704-1.681,3.214c-0.254,0.164-0.362,0.533-0.257,0.948c0.079,0.316,0.354,0.56,0.626,0.658
			c0.207,0.558,0.521,1.111,0.934,1.512l-2.19,0.461c-0.438,0.093-0.842,0.511-0.92,0.951l-0.295,1.655
			c-0.041,0.23,0.013,0.448,0.154,0.614C10.991,10.782,11.197,10.872,11.43,10.872z M19.735,10.397
			c-0.075,0.088-0.188,0.136-0.318,0.136h-1.553v-0.396h1.945C19.811,10.235,19.791,10.327,19.735,10.397z M13.452,5.088
			c-0.145,0.03-0.479-0.151-0.544-0.415c-0.067-0.271-0.003-0.521,0.143-0.562c0.043-0.012,0.089-0.002,0.134,0.021V3.729
			c0,0,0.001-0.002,0.002-0.002c-0.001-0.006-0.002-0.013-0.002-0.021V3.568c0.036-0.341,0.359-0.989,2.135-0.407
			c0.611,0.2,0.988-0.116,1.18-0.539c0.603,0.067,1.005,0.752,1.16,1.176v0.334c0.021-0.013,0.045-0.021,0.065-0.024
			c0,0.002,0,0.009-0.001,0.011c0.005,0.005,0.016,0.001,0.026-0.01c0.014,0,0.028-0.002,0.042,0.002
			c0.146,0.041,0.211,0.292,0.144,0.562c-0.064,0.261-0.396,0.441-0.542,0.415c-0.19,0.585-0.573,1.333-1.122,1.745
			c-0.064,0.051-0.134,0.093-0.204,0.133c-0.101,0.055-0.203,0.1-0.312,0.128c-0.108,0.029-0.22,0.047-0.336,0.047
			c-0.118,0-0.231-0.018-0.339-0.047c-0.11-0.029-0.214-0.073-0.313-0.128c-0.071-0.039-0.14-0.082-0.205-0.132
			C14.021,6.427,13.645,5.687,13.452,5.088z M14.443,7.207c0.291,0.193,0.617,0.312,0.98,0.312c0.36,0,0.687-0.118,0.975-0.312
			l0.523,0.11c-0.42,0.342-0.936,0.528-1.488,0.528c-0.545,0-1.07-0.192-1.489-0.532L14.443,7.207z M11.327,8.406
			c0.054-0.304,0.355-0.615,0.657-0.679L13.533,7.4c0.504,0.499,1.188,0.786,1.9,0.786c0.72,0,1.39-0.278,1.899-0.782l1.529,0.323
			c0.302,0.063,0.603,0.375,0.655,0.679l0.248,1.393h-1.901V9.565c0-0.095-0.076-0.17-0.17-0.17c-0.096,0-0.172,0.076-0.172,0.17
			v0.97h-4.2v-0.97c0-0.095-0.076-0.17-0.169-0.17c-0.094,0-0.17,0.076-0.17,0.17v0.234h-1.903L11.327,8.406z M12.98,10.138v0.396
			h-1.553c-0.131,0-0.244-0.048-0.317-0.136c-0.059-0.071-0.08-0.162-0.078-0.26H12.98z M3.363,23.018h7.987
			c0.233,0,0.438-0.091,0.579-0.258c0.14-0.167,0.194-0.387,0.153-0.615l-0.295-1.656c-0.078-0.438-0.482-0.856-0.92-0.951
			l-2.194-0.462c0.413-0.399,0.73-0.955,0.941-1.512c0.271-0.099,0.544-0.341,0.623-0.656c0.105-0.418-0.005-0.791-0.266-0.954
			v-0.295c0.237-0.714,0.361-1.882-0.714-2.509c-0.483-0.282-0.882-0.3-1.185-0.201c-0.046-0.123,0.094-0.3,0.094-0.3
			c-0.248-0.008-0.378,0.124-0.433,0.198c-0.331-0.152-0.763-0.217-1.318-0.102c-1.779,0.373-2.006,2.704-1.68,3.214
			c-0.254,0.164-0.362,0.533-0.258,0.948c0.079,0.316,0.354,0.561,0.627,0.657c0.207,0.558,0.521,1.112,0.933,1.512l-2.19,0.462
			c-0.438,0.095-0.842,0.512-0.92,0.951l-0.295,1.656c-0.041,0.229,0.014,0.448,0.154,0.615C2.925,22.927,3.13,23.018,3.363,23.018z
			 M11.667,22.54c-0.074,0.09-0.187,0.139-0.318,0.139H9.796v-0.396h1.948C11.746,22.381,11.725,22.472,11.667,22.54z M5.386,17.232
			c-0.144,0.031-0.478-0.151-0.543-0.415c-0.068-0.27-0.004-0.521,0.143-0.562c0.043-0.014,0.088-0.004,0.134,0.021v-0.402
			c0-0.001,0.001-0.002,0.002-0.002c-0.001-0.006-0.002-0.014-0.002-0.02v-0.138c0.036-0.343,0.358-0.99,2.134-0.408
			c0.612,0.202,0.989-0.117,1.18-0.539c0.603,0.066,1.005,0.752,1.16,1.175v0.333c0.022-0.012,0.045-0.02,0.067-0.024
			c-0.001,0.004,0,0.01-0.002,0.012c0.005,0.006,0.014,0.002,0.027-0.01c0.014,0,0.027-0.003,0.041,0.002
			c0.147,0.041,0.211,0.292,0.144,0.562c-0.066,0.261-0.396,0.442-0.541,0.415c-0.192,0.585-0.576,1.333-1.123,1.746
			c-0.065,0.051-0.134,0.093-0.205,0.132c-0.099,0.055-0.203,0.1-0.312,0.129c-0.108,0.029-0.219,0.047-0.335,0.047
			c-0.118,0-0.232-0.017-0.34-0.047c-0.109-0.03-0.214-0.074-0.313-0.128c-0.07-0.039-0.139-0.082-0.205-0.132
			C5.954,18.571,5.578,17.83,5.386,17.232z M6.375,19.354c0.29,0.193,0.617,0.311,0.979,0.311c0.361,0,0.687-0.117,0.977-0.312
			l0.522,0.11c-0.419,0.341-0.937,0.526-1.487,0.526c-0.545,0-1.071-0.191-1.49-0.533L6.375,19.354z M3.261,20.55
			c0.054-0.305,0.355-0.615,0.656-0.68l1.55-0.327c0.504,0.499,1.188,0.785,1.9,0.785c0.72,0,1.39-0.276,1.898-0.78l1.529,0.321
			c0.302,0.063,0.604,0.375,0.657,0.68l0.248,1.393H9.796v-0.234c0-0.094-0.076-0.17-0.169-0.17c-0.094,0-0.17,0.076-0.17,0.17
			v0.972H5.255v-0.972c0-0.094-0.076-0.17-0.17-0.17c-0.094,0-0.169,0.076-0.169,0.17v0.234H3.013L3.261,20.55z M4.915,22.282v0.396
			H3.362c-0.13,0-0.243-0.049-0.317-0.139c-0.058-0.068-0.079-0.159-0.078-0.259L4.915,22.282L4.915,22.282z M21.236,17.565
			c0.207,0.558,0.521,1.112,0.934,1.512l-2.191,0.462c-0.438,0.095-0.842,0.512-0.92,0.951l-0.295,1.656
			c-0.041,0.229,0.016,0.448,0.154,0.615s0.344,0.258,0.578,0.258h7.985c0.233,0,0.438-0.091,0.579-0.258
			c0.141-0.168,0.194-0.389,0.152-0.616l-0.295-1.656c-0.077-0.438-0.482-0.856-0.92-0.951l-2.194-0.462
			c0.413-0.399,0.73-0.955,0.94-1.512c0.271-0.099,0.545-0.341,0.624-0.656c0.104-0.418-0.006-0.791-0.268-0.954v-0.295
			c0.237-0.714,0.361-1.882-0.714-2.509c-0.48-0.282-0.882-0.3-1.184-0.201c-0.046-0.123,0.094-0.3,0.094-0.3
			c-0.247-0.008-0.378,0.124-0.433,0.198c-0.331-0.152-0.766-0.217-1.319-0.102c-1.778,0.373-2.005,2.704-1.68,3.214
			c-0.253,0.164-0.362,0.533-0.259,0.948C20.687,17.225,20.962,17.468,21.236,17.565z M21.046,22.679h-1.552
			c-0.131,0-0.243-0.049-0.318-0.139c-0.058-0.068-0.079-0.159-0.078-0.259h1.948V22.679z M27.799,22.54
			c-0.075,0.09-0.187,0.139-0.318,0.139h-1.552v-0.396h1.948C27.878,22.381,27.859,22.472,27.799,22.54z M26.927,19.87
			c0.301,0.063,0.604,0.375,0.656,0.68l0.248,1.393h-1.902v-0.234c0-0.094-0.076-0.17-0.17-0.17s-0.169,0.076-0.169,0.17v0.972
			h-4.202v-0.972c0-0.094-0.077-0.17-0.17-0.17c-0.094,0-0.17,0.076-0.17,0.17v0.234h-1.902l0.248-1.393
			c0.056-0.305,0.354-0.615,0.656-0.68l1.55-0.327c0.504,0.499,1.188,0.785,1.9,0.785c0.72,0,1.389-0.276,1.896-0.78L26.927,19.87z
			 M24.988,19.463c-0.42,0.341-0.938,0.526-1.487,0.526c-0.545,0-1.071-0.191-1.489-0.533l0.498-0.104
			c0.29,0.193,0.617,0.311,0.98,0.311c0.358,0,0.686-0.117,0.976-0.312L24.988,19.463z M21.119,16.256
			c0.043-0.014,0.088-0.004,0.134,0.021v-0.402c0-0.001,0.001-0.002,0.002-0.002c-0.002-0.006-0.002-0.014-0.002-0.02v-0.138
			c0.036-0.343,0.358-0.99,2.134-0.408c0.612,0.202,0.99-0.117,1.182-0.539c0.604,0.066,1.006,0.752,1.159,1.175v0.333
			c0.022-0.012,0.044-0.02,0.067-0.024c-0.001,0.004,0,0.01-0.002,0.012c0.005,0.006,0.015,0.002,0.026-0.01
			c0.014,0,0.026-0.003,0.041,0.002c0.146,0.042,0.211,0.293,0.144,0.562c-0.066,0.261-0.397,0.443-0.541,0.415
			c-0.193,0.585-0.576,1.333-1.122,1.745c-0.063,0.051-0.134,0.093-0.205,0.132c-0.099,0.055-0.203,0.1-0.312,0.129
			c-0.107,0.029-0.221,0.047-0.335,0.047c-0.119,0-0.232-0.017-0.342-0.047c-0.108-0.03-0.214-0.074-0.312-0.128
			c-0.071-0.038-0.139-0.081-0.205-0.131c-0.543-0.408-0.919-1.148-1.112-1.747c-0.144,0.031-0.478-0.151-0.544-0.415
			C20.908,16.548,20.97,16.297,21.119,16.256z M19.693,18.502l-4.271-2.467l-4.27,2.467l-0.305-0.525l4.27-2.466v-3.968h0.608v3.968
			l4.271,2.466L19.693,18.502z M4.58,28.426l-1.219-0.259c0.229-0.223,0.406-0.529,0.523-0.84c0.15-0.055,0.302-0.188,0.346-0.362
			c0.059-0.232-0.003-0.439-0.148-0.53v-0.164c0.132-0.397,0.201-1.045-0.396-1.396c-0.269-0.155-0.49-0.167-0.658-0.11
			c-0.026-0.068,0.052-0.167,0.052-0.167c-0.138-0.004-0.21,0.067-0.24,0.108c-0.184-0.085-0.424-0.121-0.733-0.056
			c-0.988,0.207-1.114,1.502-0.933,1.785c-0.141,0.091-0.201,0.296-0.143,0.527c0.043,0.176,0.197,0.311,0.348,0.363
			c0.115,0.312,0.291,0.618,0.519,0.84l-1.216,0.259c-0.244,0.051-0.468,0.281-0.511,0.526l-0.164,0.92
			c-0.022,0.127,0.008,0.249,0.085,0.342c0.078,0.094,0.192,0.144,0.321,0.144H4.85c0.129,0,0.244-0.05,0.322-0.144
			c0.078-0.094,0.107-0.215,0.084-0.342l-0.163-0.92C5.049,28.707,4.825,28.477,4.58,28.426z M1.536,27.144
			c-0.08,0.017-0.266-0.084-0.302-0.23c-0.038-0.148-0.002-0.29,0.079-0.312c0.024-0.006,0.049,0,0.074,0.012v-0.223
			c0,0,0.001-0.001,0.001-0.002c0-0.003-0.001-0.007-0.001-0.013v-0.074c0.021-0.189,0.199-0.552,1.186-0.229
			c0.34,0.112,0.55-0.062,0.656-0.299c0.335,0.037,0.559,0.418,0.645,0.653v0.186c0.012-0.007,0.025-0.011,0.038-0.013
			c-0.001,0,0,0.004-0.001,0.005c0.003,0.003,0.008,0.001,0.015-0.005c0.008,0,0.015-0.001,0.023,0
			c0.082,0.021,0.118,0.163,0.08,0.312c-0.037,0.146-0.221,0.246-0.3,0.23c-0.107,0.325-0.321,0.741-0.624,0.969
			c-0.036,0.029-0.074,0.052-0.114,0.074c-0.055,0.03-0.113,0.055-0.173,0.072c-0.06,0.016-0.122,0.024-0.186,0.024
			c-0.066,0-0.129-0.01-0.189-0.024c-0.061-0.019-0.119-0.041-0.174-0.071c-0.04-0.022-0.077-0.045-0.114-0.073
			C1.852,27.888,1.643,27.477,1.536,27.144z M2.086,28.322c0.161,0.107,0.342,0.172,0.544,0.172c0.2,0,0.381-0.064,0.542-0.173
			l0.291,0.062c-0.234,0.188-0.521,0.293-0.827,0.293c-0.303,0-0.595-0.106-0.828-0.296L2.086,28.322z M1.276,30.168H0.412
			c-0.073,0-0.135-0.025-0.176-0.074c-0.033-0.04-0.043-0.092-0.043-0.146h1.082L1.276,30.168L1.276,30.168z M3.892,29.535
			c-0.052,0-0.095,0.042-0.095,0.097v0.537H1.463v-0.537c0-0.054-0.042-0.097-0.095-0.097c-0.052,0-0.094,0.042-0.094,0.097v0.131
			H0.217l0.138-0.775c0.03-0.168,0.197-0.341,0.365-0.376l0.861-0.182c0.279,0.275,0.659,0.436,1.056,0.436
			c0.4,0,0.772-0.153,1.054-0.434l0.849,0.18c0.168,0.035,0.336,0.208,0.365,0.376l0.138,0.775H3.986v-0.131
			C3.988,29.577,3.945,29.535,3.892,29.535z M5.027,30.094c-0.042,0.048-0.104,0.074-0.177,0.074H3.988v-0.22H5.07
			C5.071,30.002,5.058,30.055,5.027,30.094z M13.542,28.426l-1.218-0.259c0.229-0.223,0.405-0.529,0.523-0.84
			c0.149-0.055,0.302-0.188,0.346-0.362c0.059-0.232-0.002-0.439-0.148-0.53v-0.164c0.132-0.397,0.201-1.045-0.396-1.396
			c-0.268-0.155-0.49-0.167-0.658-0.11c-0.026-0.068,0.052-0.167,0.052-0.167c-0.137-0.004-0.21,0.067-0.24,0.108
			c-0.184-0.085-0.424-0.121-0.733-0.056c-0.988,0.207-1.114,1.502-0.933,1.785c-0.141,0.091-0.202,0.296-0.144,0.527
			c0.044,0.176,0.197,0.311,0.349,0.363c0.115,0.312,0.29,0.618,0.519,0.84l-1.217,0.259c-0.243,0.051-0.467,0.281-0.511,0.526
			l-0.164,0.92c-0.022,0.127,0.008,0.249,0.086,0.342c0.077,0.094,0.191,0.144,0.321,0.144h4.437c0.129,0,0.244-0.05,0.321-0.144
			c0.078-0.094,0.108-0.215,0.084-0.342l-0.163-0.92C14.012,28.707,13.786,28.477,13.542,28.426z M10.498,27.144
			c-0.08,0.017-0.266-0.084-0.302-0.23c-0.038-0.148-0.002-0.29,0.08-0.312c0.025-0.006,0.049,0,0.075,0.012v-0.223
			c0,0,0-0.001,0.001-0.002c-0.001-0.003-0.001-0.007-0.001-0.013v-0.074c0.02-0.189,0.199-0.552,1.186-0.229
			c0.34,0.112,0.55-0.062,0.655-0.299c0.335,0.037,0.559,0.418,0.645,0.653v0.186c0.012-0.007,0.024-0.011,0.037-0.013
			c0,0,0,0.004,0,0.005c0.002,0.003,0.007,0.001,0.014-0.005c0.008,0,0.015-0.001,0.023,0c0.082,0.021,0.117,0.163,0.08,0.312
			c-0.036,0.146-0.22,0.246-0.3,0.23c-0.107,0.325-0.32,0.741-0.624,0.969c-0.037,0.029-0.074,0.052-0.114,0.074
			c-0.055,0.03-0.113,0.055-0.173,0.072c-0.06,0.016-0.122,0.024-0.186,0.024c-0.066,0-0.128-0.01-0.189-0.024
			c-0.061-0.019-0.119-0.041-0.174-0.071c-0.039-0.022-0.077-0.045-0.114-0.073C10.813,27.888,10.605,27.477,10.498,27.144z
			 M11.05,28.322c0.161,0.107,0.343,0.172,0.544,0.172c0.2,0,0.382-0.064,0.542-0.173l0.291,0.062
			c-0.233,0.188-0.52,0.293-0.826,0.293c-0.303,0-0.595-0.106-0.827-0.296L11.05,28.322z M10.238,30.168H9.375
			c-0.073,0-0.136-0.025-0.177-0.074c-0.032-0.04-0.044-0.092-0.043-0.146h1.082V30.168z M12.854,29.535
			c-0.052,0-0.095,0.042-0.095,0.097v0.537h-2.333v-0.537c0-0.054-0.042-0.097-0.094-0.097c-0.053,0-0.095,0.042-0.095,0.097v0.131
			H9.181l0.137-0.775c0.03-0.168,0.198-0.341,0.365-0.376l0.861-0.182c0.281,0.275,0.66,0.436,1.056,0.436
			c0.4,0,0.771-0.153,1.054-0.434l0.85,0.18c0.168,0.035,0.335,0.208,0.365,0.376l0.137,0.775h-1.057v-0.131
			C12.95,29.577,12.908,29.535,12.854,29.535z M13.989,30.094c-0.042,0.048-0.104,0.074-0.177,0.074H12.95v-0.22h1.082
			C14.033,30.002,14.02,30.055,13.989,30.094z M9.485,27.85l-2.372-1.37L4.74,27.85l-0.169-0.293l2.373-1.37v-2.204h0.337v2.204
			l2.374,1.37L9.485,27.85z M21.216,28.426l-1.219-0.259c0.229-0.223,0.406-0.529,0.521-0.84c0.15-0.055,0.303-0.188,0.348-0.362
			c0.059-0.232-0.003-0.439-0.148-0.53v-0.164c0.132-0.397,0.201-1.045-0.396-1.396c-0.27-0.155-0.49-0.167-0.658-0.11
			c-0.026-0.068,0.052-0.167,0.052-0.167c-0.137-0.004-0.21,0.067-0.24,0.108c-0.184-0.085-0.424-0.118-0.732-0.056
			c-0.987,0.207-1.113,1.502-0.935,1.785c-0.14,0.091-0.199,0.296-0.143,0.527c0.043,0.176,0.197,0.311,0.348,0.363
			c0.115,0.312,0.291,0.618,0.521,0.84l-1.216,0.259c-0.244,0.051-0.469,0.281-0.512,0.526l-0.164,0.92
			c-0.022,0.127,0.008,0.248,0.085,0.342c0.078,0.094,0.192,0.144,0.321,0.144h4.438c0.129,0,0.242-0.05,0.32-0.144
			s0.107-0.215,0.084-0.342l-0.163-0.92C21.684,28.707,21.46,28.477,21.216,28.426z M18.172,27.144
			c-0.08,0.017-0.266-0.084-0.302-0.23c-0.038-0.148-0.002-0.29,0.079-0.312c0.022-0.006,0.049,0,0.072,0.012v-0.223
			c0,0,0.003-0.001,0.003-0.002c0-0.003-0.003-0.007-0.003-0.013v-0.074c0.021-0.189,0.199-0.552,1.188-0.229
			c0.34,0.112,0.55-0.062,0.656-0.299c0.335,0.037,0.559,0.418,0.645,0.653v0.186c0.012-0.007,0.024-0.011,0.037-0.013
			c-0.001,0,0,0.004-0.001,0.005c0.003,0.003,0.008,0.001,0.015-0.005c0.01,0,0.017-0.001,0.023,0
			c0.082,0.021,0.118,0.163,0.08,0.312c-0.037,0.146-0.221,0.246-0.3,0.23c-0.108,0.325-0.322,0.741-0.625,0.969
			c-0.036,0.029-0.074,0.052-0.114,0.074c-0.055,0.03-0.113,0.055-0.173,0.072c-0.062,0.016-0.122,0.024-0.188,0.024
			c-0.064,0-0.129-0.01-0.188-0.024c-0.062-0.018-0.119-0.041-0.174-0.071c-0.04-0.022-0.078-0.046-0.115-0.073
			C18.49,27.888,18.281,27.477,18.172,27.144z M18.722,28.322c0.161,0.107,0.342,0.172,0.544,0.172c0.2,0,0.381-0.064,0.542-0.173
			l0.291,0.062c-0.231,0.188-0.521,0.293-0.827,0.293c-0.303,0-0.595-0.106-0.826-0.296L18.722,28.322z M17.911,30.168h-0.862
			c-0.073,0-0.135-0.025-0.177-0.074c-0.033-0.04-0.043-0.092-0.043-0.146h1.082V30.168z M20.53,29.535
			c-0.054,0-0.097,0.042-0.097,0.097v0.537h-2.334v-0.537c0-0.054-0.042-0.097-0.094-0.097c-0.053,0-0.094,0.042-0.094,0.097v0.131
			h-1.059l0.139-0.775c0.028-0.168,0.195-0.341,0.363-0.376l0.861-0.182c0.28,0.275,0.659,0.436,1.056,0.436
			c0.4,0,0.772-0.153,1.056-0.434l0.849,0.18c0.168,0.035,0.336,0.208,0.366,0.376l0.137,0.775h-1.057v-0.131
			C20.623,29.577,20.581,29.535,20.53,29.535z M21.662,30.094c-0.041,0.048-0.104,0.074-0.176,0.074h-0.862v-0.22h1.082
			C21.707,30.002,21.696,30.055,21.662,30.094z M30.692,28.952c-0.046-0.245-0.27-0.477-0.514-0.526l-1.218-0.259
			c0.229-0.223,0.406-0.529,0.523-0.84c0.147-0.055,0.302-0.188,0.346-0.362c0.058-0.233-0.003-0.44-0.148-0.531v-0.163
			c0.132-0.397,0.201-1.045-0.396-1.396c-0.27-0.155-0.49-0.167-0.658-0.11c-0.026-0.068,0.052-0.166,0.052-0.166
			c-0.137-0.004-0.21,0.067-0.24,0.108c-0.183-0.086-0.424-0.119-0.731-0.057c-0.987,0.207-1.114,1.502-0.935,1.785
			c-0.14,0.091-0.199,0.296-0.143,0.527c0.044,0.176,0.197,0.311,0.349,0.363c0.115,0.312,0.29,0.618,0.521,0.84l-1.218,0.259
			c-0.243,0.051-0.47,0.281-0.513,0.526l-0.164,0.92c-0.021,0.127,0.009,0.248,0.085,0.342c0.077,0.094,0.191,0.144,0.321,0.144
			h4.438c0.129,0,0.243-0.05,0.319-0.144c0.078-0.094,0.108-0.215,0.085-0.342L30.692,28.952z M27.134,27.144
			c-0.08,0.017-0.266-0.084-0.302-0.23c-0.038-0.148-0.002-0.29,0.08-0.312c0.023-0.006,0.049,0,0.075,0.012v-0.223
			c0,0,0-0.001,0.001-0.002c-0.002-0.003-0.002-0.008-0.002-0.013v-0.074c0.02-0.189,0.197-0.552,1.186-0.229
			c0.34,0.112,0.55-0.062,0.655-0.299c0.335,0.037,0.559,0.418,0.645,0.653v0.186c0.014-0.007,0.024-0.012,0.037-0.014
			c0,0,0,0.004,0,0.005c0.002,0.003,0.007,0.001,0.017-0.005c0.007,0,0.015-0.001,0.021,0c0.082,0.021,0.117,0.163,0.08,0.312
			c-0.036,0.146-0.22,0.246-0.3,0.23c-0.107,0.326-0.321,0.742-0.625,0.97c-0.036,0.029-0.074,0.052-0.113,0.074
			c-0.055,0.03-0.113,0.055-0.173,0.072c-0.062,0.016-0.122,0.024-0.188,0.024c-0.064,0-0.128-0.01-0.188-0.024
			c-0.062-0.018-0.119-0.041-0.174-0.071c-0.04-0.022-0.078-0.046-0.114-0.073C27.452,27.888,27.243,27.477,27.134,27.144z
			 M27.684,28.322c0.162,0.107,0.345,0.172,0.545,0.172s0.384-0.064,0.542-0.173l0.291,0.062c-0.231,0.188-0.52,0.293-0.824,0.293
			s-0.597-0.106-0.827-0.296L27.684,28.322z M26.873,30.168h-0.861c-0.073,0-0.136-0.025-0.177-0.074
			c-0.032-0.04-0.044-0.092-0.043-0.146h1.082L26.873,30.168L26.873,30.168z M29.492,29.535c-0.054,0-0.096,0.042-0.096,0.097v0.537
			h-2.334v-0.537c0-0.054-0.042-0.097-0.094-0.097c-0.053,0-0.095,0.042-0.095,0.097v0.131h-1.057l0.137-0.775
			c0.03-0.168,0.198-0.341,0.366-0.376l0.858-0.182c0.281,0.275,0.66,0.436,1.058,0.436c0.398,0,0.771-0.153,1.055-0.434l0.85,0.18
			c0.168,0.035,0.335,0.208,0.365,0.376l0.137,0.775h-1.057v-0.131C29.585,29.577,29.543,29.535,29.492,29.535z M30.625,30.094
			c-0.042,0.048-0.104,0.074-0.176,0.074h-0.863v-0.22h1.082C30.668,30.002,30.658,30.055,30.625,30.094z M26.121,27.85l-2.373-1.37
			l-2.373,1.37l-0.169-0.293l2.373-1.37v-2.204h0.337v2.204l2.374,1.37L26.121,27.85z"/>
	</g>
</g>
<g>
</g>
<g>
</g>
<g>
</g>
<g>
</g>
<g>
</g>
<g>
</g>
<g>
</g>
<g>
</g>
<g>
</g>
<g>
</g>
<g>
</g>
<g>
</g>
<g>
</g>
<g>
</g>
<g>
</g>
</svg>
