<?xml version="1.0" encoding="iso-8859-1"?>
<!-- Generator: Adobe Illustrator 16.0.0, SVG Export Plug-In . SVG Version: 6.00 Build 0)  -->
<!DOCTYPE svg PUBLIC "-//W3C//DTD SVG 1.1//EN" "http://www.w3.org/Graphics/SVG/1.1/DTD/svg11.dtd">
<svg version="1.1" id="Capa_1" xmlns="http://www.w3.org/2000/svg" xmlns:xlink="http://www.w3.org/1999/xlink" x="0px" y="0px"
	 width="35.357px" height="35.357px" viewBox="0 0 35.357 35.357" style="enable-background:new 0 0 35.357 35.357;"
	 xml:space="preserve">
<g>
	<g>
		<path d="M30.998,14.623h-5.613V8.894C28.393,9.177,30.773,11.599,30.998,14.623z M24.326,9.108
			c-3.385,0.064-6.108,2.821-6.108,6.221c0,3.438,2.788,6.229,6.228,6.229c3.358,0,6.09-2.662,6.213-5.992h-6.332L24.326,9.108
			L24.326,9.108z M10.5,10.337c-2.555,0-4.625,1.489-4.625,5.403v3.75h3.357c-0.841-0.858-1.438-2.439-1.57-3.826l0.033-0.002
			c1.444,0,2.693-0.598,3.379-1.48c0.504,0.646,1.308,1.129,2.271,1.346c-0.104,1.42-0.709,3.074-1.577,3.963h3.358v-3.748
			C15.128,11.826,13.056,10.337,10.5,10.337z M23.194,26.312v1.834h1.151v1.688h-1.151H12.166h-1.152v-1.688h1.152v-1.834H0V5.524
			h35.357v20.787H23.194z M33.86,24.812V7.024H1.5v17.787h1.548c0.294-2.75,2.51-3.846,5.481-4.139l-1.428,1.43H8.24l-0.791,0.791
			l1.918,1.918h2.267l1.919-1.918l-0.793-0.791h1.141l-1.429-1.43c2.974,0.293,5.188,1.389,5.481,4.139H33.86z"/>
	</g>
</g>
<g>
</g>
<g>
</g>
<g>
</g>
<g>
</g>
<g>
</g>
<g>
</g>
<g>
</g>
<g>
</g>
<g>
</g>
<g>
</g>
<g>
</g>
<g>
</g>
<g>
</g>
<g>
</g>
<g>
</g>
</svg>
