<?xml version="1.0" encoding="iso-8859-1"?>
<!-- Generator: Adobe Illustrator 16.0.0, SVG Export Plug-In . SVG Version: 6.00 Build 0)  -->
<!DOCTYPE svg PUBLIC "-//W3C//DTD SVG 1.1//EN" "http://www.w3.org/Graphics/SVG/1.1/DTD/svg11.dtd">
<svg version="1.1" id="Capa_1" xmlns="http://www.w3.org/2000/svg" xmlns:xlink="http://www.w3.org/1999/xlink" x="0px" y="0px"
	 width="30.5px" height="30.501px" viewBox="0 0 30.5 30.501" style="enable-background:new 0 0 30.5 30.501;" xml:space="preserve"
	>
<g>
	<path d="M29.73,27.911l-0.878-4.92c-0.23-1.31-1.434-2.552-2.732-2.826l-0.824-0.174v-8.764C25.295,3.09,20.993,0,15.685,0
		c-5.306,0-9.606,3.09-9.606,11.227v7.18c-0.377-0.106-0.764-0.185-1.166-0.185c-1.117,0-2.168,0.437-2.959,1.228
		c-1.631,1.631-1.631,4.286,0.002,5.918c0.037,0.039,0.084,0.063,0.123,0.103l-0.437,2.442c-0.121,0.681,0.041,1.328,0.455,1.821
		c0.414,0.494,1.023,0.767,1.715,0.767h23.749c0.691,0,1.302-0.271,1.716-0.767C29.689,29.241,29.852,28.594,29.73,27.911z
		 M28.508,29.094c-0.221,0.264-0.557,0.407-0.947,0.407h-4.62v-2.522c0-0.273-0.226-0.5-0.5-0.5c-0.276,0-0.5,0.227-0.5,0.5v2.522
		H9.433v-2.522c0-0.273-0.225-0.5-0.5-0.5c-0.276,0-0.5,0.227-0.5,0.5v2.522H3.812c-0.391,0-0.729-0.146-0.948-0.407
		c-0.221-0.263-0.306-0.621-0.236-1.006l0.354-1.986c0.592,0.312,1.245,0.494,1.934,0.494c1.117,0,2.168-0.437,2.959-1.228
		c0.766-0.765,1.158-1.757,1.205-2.761c0.035-0.731-0.127-1.463-0.473-2.127l0.133-0.028l1.899,2.155l4.759,5.402
		c0.094,0.109,0.229,0.17,0.375,0.17c0,0,0.002,0,0.004,0c0.145,0,0.28-0.063,0.375-0.174l4.618-5.398l1.85-2.159l2.678,0.563
		l0.617,0.131c0.899,0.189,1.797,1.117,1.957,2.021l0.877,4.922C28.814,28.473,28.73,28.829,28.508,29.094z M4.912,19.225
		c0.406,0,0.799,0.08,1.166,0.227c0.25,0.1,0.483,0.232,0.703,0.395c0.135,0.098,0.266,0.197,0.385,0.314
		c0.029,0.029,0.051,0.064,0.08,0.1c0.129,0.139,0.248,0.283,0.346,0.438c0.371,0.577,0.527,1.25,0.486,1.913
		c-0.047,0.748-0.342,1.482-0.912,2.054c-1.049,1.05-2.777,1.185-4,0.401c-0.16-0.102-0.307-0.223-0.445-0.354
		c-0.02-0.018-0.041-0.029-0.059-0.049c-0.139-0.137-0.254-0.287-0.361-0.441c-0.858-1.242-0.744-2.959,0.359-4.062
		C3.261,19.557,4.06,19.225,4.912,19.225z M9.072,11.77c0.121-0.032,0.246-0.006,0.371,0.062v-1.104h7.451l0.625-3.74v3.889h4.408
		v0.957c0.125-0.069,0.252-0.098,0.373-0.063c0.408,0.123,0.588,0.871,0.4,1.673c-0.186,0.776-1.107,1.315-1.512,1.233
		c-0.422,1.366-1.402,2.845-2.534,3.918c-0.151,0.146-0.31,0.285-0.466,0.414c-0.176,0.144-0.352,0.276-0.527,0.397l3.84,0.81
		l-2.049,2.396l-2.537,2.966l-0.646-2.966l-0.088-0.403l0.927-0.924l-1.162-1.16l-0.261-0.261l-0.26,0.261l-1.16,1.16l0.924,0.924
		l-0.088,0.403l-0.621,2.853l-2.51-2.853l-2.106-2.394l3.813-0.804c-0.18-0.121-0.354-0.256-0.531-0.398
		c-0.157-0.13-0.312-0.27-0.465-0.412c-1.112-1.063-2.069-2.53-2.492-3.929c-0.399,0.092-1.332-0.447-1.518-1.231
		C8.484,12.641,8.662,11.893,9.072,11.77z M3.089,22.786l-0.096-0.078l0.252-0.312l0.062-0.076l0.316-0.387l0.254,0.207l0.066,0.053
		l0.67,0.545L5.9,21.497l0.176-0.17l0.414-0.4l0.137-0.131l0.082,0.086l0.266,0.272l0.347,0.361l-1.135,1.094L4.67,24.073
		l-1.158-0.941L3.089,22.786z"/>
</g>
<g>
</g>
<g>
</g>
<g>
</g>
<g>
</g>
<g>
</g>
<g>
</g>
<g>
</g>
<g>
</g>
<g>
</g>
<g>
</g>
<g>
</g>
<g>
</g>
<g>
</g>
<g>
</g>
<g>
</g>
</svg>
