<?xml version="1.0" encoding="iso-8859-1"?>
<!-- Generator: Adobe Illustrator 16.0.0, SVG Export Plug-In . SVG Version: 6.00 Build 0)  -->
<!DOCTYPE svg PUBLIC "-//W3C//DTD SVG 1.1//EN" "http://www.w3.org/Graphics/SVG/1.1/DTD/svg11.dtd">
<svg version="1.1" id="Capa_1" xmlns="http://www.w3.org/2000/svg" xmlns:xlink="http://www.w3.org/1999/xlink" x="0px" y="0px"
	 width="38.055px" height="38.055px" viewBox="0 0 38.055 38.055" style="enable-background:new 0 0 38.055 38.055;"
	 xml:space="preserve">
<g>
	<g>
		<path d="M1.833,31.69h19.722c0.576,0,1.082-0.229,1.426-0.637c0.343-0.411,0.478-0.948,0.377-1.517l-0.729-4.084
			c-0.191-1.088-1.189-2.118-2.27-2.347l-0.686-0.146v-7.273c0-6.759-3.573-9.322-7.979-9.322c-4.408,0-7.98,2.563-7.98,9.322v7.273
			l-0.683,0.147c-1.079,0.229-2.078,1.259-2.27,2.347l-0.728,4.084c-0.101,0.566,0.033,1.104,0.375,1.518
			C0.752,31.466,1.258,31.69,1.833,31.69z M6.201,16.136c0.103-0.03,0.205-0.006,0.31,0.051V15.27h6.187l0.519-3.105v3.23h3.66
			v0.793c0.105-0.057,0.208-0.081,0.31-0.051c0.341,0.1,0.488,0.722,0.333,1.387c-0.153,0.646-0.921,1.095-1.252,1.023
			c-0.352,1.134-1.168,2.361-2.106,3.253c-0.127,0.121-0.257,0.235-0.385,0.346c-0.146,0.117-0.294,0.23-0.439,0.332l3.187,0.672
			l-1.703,1.984l-2.105,2.463l-0.537-2.463L12.105,24.8l0.77-0.768l-0.966-0.966l-0.214-0.212l-0.216,0.215l-0.963,0.963l0.77,0.768
			l-0.077,0.334l-0.515,2.367l-2.083-2.367l-1.752-1.984l3.17-0.667c-0.15-0.101-0.297-0.213-0.443-0.331
			c-0.129-0.107-0.257-0.223-0.385-0.342c-0.923-0.887-1.717-2.104-2.069-3.263c-0.334,0.076-1.108-0.373-1.26-1.023
			C5.714,16.858,5.86,16.236,6.201,16.136z M1.577,25.595c0.133-0.748,0.877-1.517,1.623-1.676l0.513-0.105l2.213-0.469l1.575,1.789
			l3.952,4.488c0.08,0.088,0.194,0.139,0.311,0.139c0.001,0,0.004,0,0.004,0c0.12,0,0.233-0.053,0.311-0.142l3.836-4.485
			l1.535-1.791l2.224,0.471l0.513,0.105c0.748,0.16,1.49,0.928,1.625,1.678l0.728,4.09c0.057,0.318-0.013,0.615-0.195,0.834
			c-0.185,0.22-0.463,0.34-0.788,0.34h-3.839v-2.098c0-0.229-0.185-0.413-0.415-0.413s-0.415,0.187-0.415,0.413v2.098H6.501v-2.098
			c0-0.229-0.186-0.413-0.416-0.413S5.67,28.536,5.67,28.763v2.098H1.831c-0.324,0-0.604-0.12-0.788-0.34
			c-0.183-0.219-0.252-0.516-0.196-0.834L1.577,25.595z M37.903,16.24l0.15,0.596l-2.607,0.66l-0.15-0.597L37.903,16.24z
			 M34.412,17.077c0.461,1.985-0.017,3.789-1.062,4.032c-0.027,0.006-0.055,0.006-0.081,0.009l0.002,0.01h-0.069
			c-0.028,0.002-0.058,0.008-0.088,0.008c-0.022,0-0.046-0.008-0.068-0.012l-3.651-0.031l-0.029,0.699
			c-0.007,0.195-0.092,0.379-0.236,0.512c-0.139,0.127-0.313,0.197-0.499,0.197c-0.013,0-0.023-0.002-0.036-0.002l-3.15-0.136
			c-0.196-0.008-0.379-0.093-0.515-0.235c-0.133-0.146-0.203-0.334-0.193-0.531l0.022-0.545l-1.679-0.019
			c0.031,0.205-0.213,0.433-0.564,0.517c-0.361,0.084-0.692-0.021-0.741-0.229l-0.58-2.501c-0.049-0.208,0.207-0.446,0.566-0.528
			c0.353-0.084,0.672,0.014,0.733,0.211l8.829-4.42l0.238-0.119l0.047-0.023l0.001,0.008c0.025-0.009,0.05-0.021,0.077-0.025
			c0.078-0.019,0.158-0.025,0.236-0.025C32.91,13.894,33.986,15.239,34.412,17.077z M28.777,21.087l-3.406-0.031l-0.022,0.566
			c-0.002,0.047,0.02,0.073,0.032,0.09c0.014,0.016,0.041,0.035,0.085,0.039l3.153,0.133c0.042,0,0.076-0.02,0.091-0.029
			c0.019-0.018,0.036-0.042,0.039-0.086L28.777,21.087z M33.813,17.216c-0.375-1.621-1.28-2.709-1.891-2.709
			c-0.034,0-0.066,0.004-0.101,0.013c-0.023,0.005-0.048,0.024-0.072,0.036c-0.496,0.227-0.93,1.516-0.526,3.258
			c0.375,1.616,1.281,2.707,1.892,2.707c0.006,0,0.012-0.002,0.018-0.002c0.028-0.002,0.057-0.005,0.083-0.011
			C33.739,20.386,34.236,19.045,33.813,17.216z M35.297,19.95l2.634,0.541l0.124-0.604l-2.634-0.542L35.297,19.95z M36.735,13.17
			l-2.307,1.383l0.316,0.526l2.306-1.382L36.735,13.17z"/>
	</g>
</g>
<g>
</g>
<g>
</g>
<g>
</g>
<g>
</g>
<g>
</g>
<g>
</g>
<g>
</g>
<g>
</g>
<g>
</g>
<g>
</g>
<g>
</g>
<g>
</g>
<g>
</g>
<g>
</g>
<g>
</g>
</svg>
