<?xml version="1.0" encoding="iso-8859-1"?>
<!-- Generator: Adobe Illustrator 16.0.0, SVG Export Plug-In . SVG Version: 6.00 Build 0)  -->
<!DOCTYPE svg PUBLIC "-//W3C//DTD SVG 1.1//EN" "http://www.w3.org/Graphics/SVG/1.1/DTD/svg11.dtd">
<svg version="1.1" id="Capa_1" xmlns="http://www.w3.org/2000/svg" xmlns:xlink="http://www.w3.org/1999/xlink" x="0px" y="0px"
	 width="33.264px" height="33.264px" viewBox="0 0 33.264 33.264" style="enable-background:new 0 0 33.264 33.264;"
	 xml:space="preserve">
<g>
	<path d="M33.264,23.512c0-1.524-0.558-2.919-1.479-3.997v-4.77c0-3.981-2.104-5.493-4.7-5.493c-2.12,0-3.911,1.009-4.498,3.545
		c-0.481-4.012-2.96-5.583-5.955-5.583s-5.473,1.571-5.955,5.583c-0.587-2.536-2.378-3.545-4.498-3.545
		c-2.597,0-4.702,1.512-4.702,5.493v4.769C0.558,20.593,0,21.987,0,23.512v0.5h8.983c-0.1,0.497-0.154,1.013-0.154,1.538v0.5h15.603
		v-0.5c0-0.525-0.054-1.041-0.152-1.538h8.981v-0.5H33.264z M23.416,25.05H9.85c0.026-0.355,0.086-0.7,0.165-1.038
		c0.04-0.169,0.085-0.336,0.137-0.5c0.054-0.169,0.112-0.337,0.178-0.5c0.184-0.455,0.417-0.886,0.691-1.286
		c0.066-0.097,0.132-0.193,0.203-0.287c0.052-0.065,0.107-0.132,0.161-0.197c0.114-0.139,0.234-0.271,0.358-0.4
		c0.232-0.241,0.478-0.47,0.744-0.675l1.123,1.272l2.704,3.069c0.095,0.108,0.231,0.17,0.375,0.17
		c0.155-0.049,0.285-0.063,0.38-0.175l2.623-3.064l1.092-1.272c0.266,0.202,0.512,0.433,0.744,0.675
		c0.125,0.129,0.244,0.264,0.357,0.4c0.055,0.065,0.107,0.132,0.161,0.197c0.069,0.094,0.137,0.19,0.203,0.287
		c0.272,0.4,0.507,0.831,0.69,1.286c0.065,0.163,0.123,0.331,0.178,0.5c0.053,0.164,0.098,0.331,0.138,0.5
		C23.328,24.35,23.39,24.694,23.416,25.05z M3.491,16.431c-0.196,0.046-0.652-0.219-0.743-0.603
		c-0.092-0.392-0.004-0.759,0.195-0.818c0.06-0.017,0.122-0.003,0.183,0.03v-0.399l0.392-0.028c1.469,0,2.739-0.623,3.436-1.541
		c0.505,0.666,1.313,1.166,2.282,1.394v0.577c0.061-0.035,0.123-0.049,0.183-0.032c0.2,0.06,0.288,0.427,0.195,0.818
		c-0.09,0.381-0.542,0.645-0.738,0.604c-0.129,0.417-0.37,0.854-0.664,1.251c-0.105,0.144-0.217,0.278-0.334,0.408
		c-0.138,0.151-0.281,0.293-0.429,0.419c0.393,0.1,0.764,0.245,1.116,0.43l-1.176,1.375l-0.673,0.785l-0.171-0.785l-0.12-0.55
		l0.452-0.452l-0.285-0.285l-0.411-0.41l-0.414,0.414l-0.281,0.281l0.452,0.451l-0.12,0.551l-0.16,0.731l-0.646-0.731L3.8,18.938
		c0.346-0.183,0.712-0.324,1.099-0.425c-0.148-0.125-0.291-0.266-0.427-0.418c-0.117-0.13-0.227-0.266-0.331-0.409
		C3.855,17.291,3.619,16.856,3.491,16.431z M24.396,16.431c-0.195,0.046-0.652-0.219-0.742-0.603
		c-0.092-0.392-0.004-0.759,0.194-0.818c0.062-0.017,0.122-0.003,0.185,0.03v-0.399l0.392-0.028c1.468,0,2.739-0.623,3.437-1.541
		c0.504,0.666,1.312,1.166,2.281,1.394v0.577c0.061-0.035,0.123-0.049,0.182-0.032c0.201,0.06,0.289,0.427,0.197,0.818
		c-0.091,0.381-0.543,0.645-0.738,0.604c-0.129,0.417-0.371,0.854-0.664,1.251c-0.104,0.144-0.217,0.278-0.334,0.408
		c-0.139,0.151-0.28,0.293-0.43,0.419c0.395,0.1,0.764,0.245,1.116,0.43l-1.176,1.375l-0.673,0.785l-0.172-0.785l-0.119-0.55
		l0.451-0.452l-0.284-0.285l-0.411-0.41l-0.415,0.414l-0.281,0.281l0.452,0.451l-0.12,0.551l-0.159,0.731l-0.646-0.731l-1.212-1.377
		c0.346-0.183,0.712-0.324,1.099-0.425c-0.146-0.125-0.291-0.266-0.427-0.418c-0.117-0.13-0.228-0.266-0.331-0.409
		C24.759,17.291,24.525,16.856,24.396,16.431z M13.209,14.107c1.889,0,3.521-0.801,4.417-1.98c0.647,0.855,1.688,1.498,2.935,1.791
		v0.742c0.078-0.046,0.157-0.063,0.234-0.041c0.257,0.076,0.37,0.548,0.251,1.051c-0.116,0.49-0.697,0.829-0.95,0.777
		c-0.178,0.578-0.52,1.188-0.938,1.73c-0.108,0.143-0.227,0.273-0.344,0.404c-0.134,0.146-0.27,0.279-0.41,0.408
		c0.541,0.146,1.051,0.355,1.528,0.623l-1.562,1.824l-1.014,1.188l-0.26-1.188l-0.154-0.705l0.582-0.58l-0.365-0.364l-0.528-0.528
		l-0.533,0.532l-0.361,0.36l0.582,0.58l-0.154,0.707l-0.244,1.115l-0.983-1.115l-1.608-1.826c0.472-0.264,0.977-0.474,1.509-0.619
		c-0.14-0.127-0.274-0.26-0.405-0.405c-0.118-0.131-0.233-0.265-0.341-0.405c-0.409-0.54-0.742-1.147-0.919-1.737
		c-0.253,0.06-0.839-0.281-0.955-0.775c-0.119-0.503-0.006-0.975,0.251-1.051c0.077-0.022,0.157-0.005,0.234,0.038v-0.513
		L13.209,14.107z M2.119,20.315c0.243-0.31,0.528-0.578,0.834-0.824l0.727,0.824l2.167,2.461c0.095,0.107,0.231,0.17,0.375,0.17
		c0.107,0.004,0.285-0.063,0.38-0.176l2.101-2.455l0.705-0.824c0.306,0.246,0.59,0.517,0.833,0.824
		c0.102,0.129,0.186,0.271,0.275,0.407c-0.539,0.681-0.964,1.452-1.253,2.289H1.025C1.124,21.997,1.521,21.073,2.119,20.315z
		 M22.749,20.723c0.089-0.139,0.173-0.278,0.274-0.407c0.243-0.31,0.527-0.578,0.834-0.824l0.728,0.824l2.167,2.461
		c0.095,0.107,0.23,0.17,0.375,0.17c0.152,0.004,0.283-0.063,0.38-0.176l2.103-2.455l0.705-0.824
		c0.307,0.246,0.59,0.517,0.834,0.824c0.598,0.758,0.994,1.685,1.092,2.696h-8.238C23.713,22.175,23.287,21.403,22.749,20.723z"/>
</g>
<g>
</g>
<g>
</g>
<g>
</g>
<g>
</g>
<g>
</g>
<g>
</g>
<g>
</g>
<g>
</g>
<g>
</g>
<g>
</g>
<g>
</g>
<g>
</g>
<g>
</g>
<g>
</g>
<g>
</g>
</svg>
