<?xml version="1.0" encoding="iso-8859-1"?>
<!-- Generator: Adobe Illustrator 16.0.0, SVG Export Plug-In . SVG Version: 6.00 Build 0)  -->
<!DOCTYPE svg PUBLIC "-//W3C//DTD SVG 1.1//EN" "http://www.w3.org/Graphics/SVG/1.1/DTD/svg11.dtd">
<svg version="1.1" id="Capa_1" xmlns="http://www.w3.org/2000/svg" xmlns:xlink="http://www.w3.org/1999/xlink" x="0px" y="0px"
	 width="29.235px" height="29.234px" viewBox="0 0 29.235 29.234" style="enable-background:new 0 0 29.235 29.234;"
	 xml:space="preserve">
<g>
	<g>
		<path d="M10.062,13.602h9.118c0.267,0,0.502-0.104,0.659-0.294c0.16-0.188,0.224-0.438,0.175-0.701l-0.334-1.89
			c-0.091-0.502-0.554-0.979-1.054-1.085l-2.504-0.528c0.474-0.456,0.834-1.089,1.074-1.726c0.309-0.112,0.617-0.389,0.713-0.749
			c0.115-0.477-0.01-0.903-0.307-1.088V5.204c0.271-0.815,0.412-2.148-0.814-2.865c-0.551-0.321-1.006-0.341-1.352-0.229
			c-0.055-0.141,0.105-0.342,0.105-0.342c-0.283-0.01-0.432,0.141-0.495,0.227c-0.377-0.174-0.871-0.248-1.506-0.115
			c-2.027,0.426-2.289,3.086-1.916,3.668c-0.291,0.188-0.414,0.609-0.295,1.082c0.09,0.362,0.404,0.639,0.715,0.751
			c0.236,0.636,0.596,1.271,1.066,1.726l-2.5,0.525c-0.5,0.106-0.963,0.583-1.051,1.085l-0.338,1.892
			c-0.047,0.262,0.016,0.512,0.176,0.7C9.562,13.499,9.796,13.602,10.062,13.602z M19.543,13.059
			c-0.084,0.101-0.213,0.155-0.363,0.155H17.41v-0.452h2.224C19.633,12.875,19.607,12.978,19.543,13.059z M12.372,6.999
			c-0.166,0.036-0.547-0.172-0.621-0.474c-0.078-0.309-0.006-0.596,0.162-0.643c0.051-0.014,0.102-0.003,0.152,0.024v-0.46
			c0,0,0.002-0.002,0.004-0.003c-0.002-0.007-0.004-0.016-0.004-0.022V5.264c0.041-0.389,0.41-1.129,2.438-0.464
			c0.698,0.229,1.129-0.133,1.348-0.615C16.54,4.262,17,5.044,17.175,5.527v0.381c0.025-0.015,0.051-0.024,0.076-0.028
			c0,0.003,0,0.01-0.002,0.012c0.006,0.007,0.018,0.001,0.029-0.012c0.016,0,0.032-0.002,0.049,0.002
			c0.166,0.046,0.239,0.334,0.164,0.643c-0.076,0.298-0.453,0.505-0.617,0.474c-0.221,0.668-0.658,1.521-1.281,1.993
			c-0.074,0.057-0.152,0.104-0.233,0.149c-0.111,0.062-0.23,0.114-0.356,0.146c-0.122,0.034-0.25,0.054-0.383,0.054
			c-0.135,0-0.265-0.02-0.39-0.054c-0.125-0.033-0.241-0.083-0.356-0.146c-0.08-0.044-0.157-0.093-0.233-0.149
			C13.021,8.528,12.591,7.682,12.372,6.999z M13.501,9.42c0.332,0.221,0.705,0.354,1.119,0.354c0.412,0,0.784-0.136,1.114-0.355
			l0.598,0.125c-0.479,0.39-1.068,0.604-1.698,0.604c-0.623,0-1.223-0.22-1.699-0.607L13.501,9.42z M9.947,10.787
			c0.061-0.349,0.404-0.703,0.75-0.776l1.768-0.373c0.574,0.57,1.355,0.897,2.17,0.897c0.823,0,1.586-0.317,2.167-0.894l1.746,0.368
			c0.346,0.073,0.688,0.428,0.75,0.776l0.283,1.589H17.41v-0.267c0-0.108-0.088-0.194-0.195-0.194c-0.104,0-0.193,0.086-0.193,0.194
			v1.106h-4.797v-1.106c0-0.108-0.086-0.194-0.192-0.194c-0.107,0-0.193,0.086-0.193,0.194v0.267H9.667L9.947,10.787z
			 M11.835,12.763v0.452h-1.773c-0.149,0-0.276-0.055-0.362-0.155c-0.065-0.081-0.091-0.185-0.088-0.297H11.835z M9.419,23.495
			l-2.506-0.527c0.471-0.458,0.834-1.09,1.076-1.726c0.307-0.113,0.619-0.391,0.711-0.749c0.119-0.479-0.006-0.903-0.303-1.089
			v-0.337c0.27-0.815,0.412-2.148-0.816-2.865c-0.551-0.321-1.008-0.342-1.352-0.229c-0.053-0.14,0.106-0.342,0.106-0.342
			c-0.282-0.009-0.434,0.144-0.493,0.228c-0.377-0.176-0.871-0.248-1.507-0.115c-2.03,0.425-2.289,3.086-1.918,3.668
			c-0.289,0.187-0.414,0.607-0.293,1.082c0.088,0.358,0.402,0.638,0.716,0.75c0.235,0.637,0.596,1.27,1.065,1.726l-2.502,0.527
			c-0.5,0.104-0.961,0.583-1.05,1.085l-0.338,1.89c-0.047,0.265,0.017,0.513,0.177,0.702c0.159,0.19,0.393,0.294,0.657,0.294h9.119
			c0.264,0,0.5-0.104,0.658-0.294c0.162-0.188,0.223-0.438,0.176-0.702l-0.336-1.89C10.382,24.078,9.919,23.6,9.419,23.495z
			 M3.163,20.862c-0.164,0.033-0.545-0.172-0.621-0.475c-0.078-0.309-0.004-0.595,0.164-0.643c0.049-0.013,0.102-0.002,0.152,0.022
			v-0.459c0-0.001,0.002-0.002,0.002-0.003c-0.002-0.007-0.002-0.016-0.002-0.021v-0.158c0.041-0.389,0.408-1.129,2.438-0.464
			c0.697,0.229,1.127-0.133,1.346-0.615c0.689,0.077,1.148,0.858,1.324,1.341v0.38c0.025-0.014,0.053-0.021,0.078-0.025
			c-0.002,0.002,0,0.009-0.004,0.012c0.006,0.007,0.018,0.002,0.031-0.011c0.016,0,0.031-0.002,0.047,0.001
			c0.168,0.047,0.24,0.334,0.164,0.643c-0.076,0.298-0.453,0.505-0.617,0.475c-0.219,0.669-0.658,1.521-1.281,1.991
			c-0.074,0.06-0.152,0.106-0.231,0.151c-0.113,0.063-0.232,0.114-0.357,0.148c-0.123,0.031-0.248,0.054-0.383,0.054
			c-0.133,0-0.265-0.021-0.388-0.054c-0.125-0.034-0.243-0.084-0.356-0.146c-0.08-0.044-0.157-0.093-0.233-0.148
			C3.814,22.39,3.384,21.546,3.163,20.862z M4.294,23.284c0.33,0.22,0.703,0.354,1.117,0.354c0.412,0,0.785-0.135,1.115-0.354
			l0.598,0.125c-0.48,0.39-1.07,0.603-1.699,0.603c-0.621,0-1.223-0.22-1.701-0.606L4.294,23.284z M2.626,27.079H0.853
			c-0.147,0-0.276-0.056-0.36-0.157c-0.065-0.08-0.09-0.184-0.088-0.296h2.223L2.626,27.079L2.626,27.079z M8.005,25.778
			c-0.107,0-0.195,0.086-0.195,0.192v1.108H3.013V25.97c0-0.105-0.086-0.192-0.192-0.192c-0.107,0-0.193,0.086-0.193,0.192v0.27
			H0.454l0.285-1.59c0.062-0.348,0.403-0.701,0.748-0.774l1.771-0.373c0.575,0.569,1.354,0.896,2.17,0.896
			c0.821,0,1.588-0.317,2.166-0.894l1.745,0.369c0.347,0.073,0.689,0.428,0.75,0.774l0.283,1.59H8.2v-0.27
			C8.199,25.864,8.111,25.778,8.005,25.778z M10.335,26.923c-0.086,0.103-0.215,0.157-0.363,0.157H8.2v-0.454h2.226
			C10.423,26.739,10.4,26.843,10.335,26.923z M28.887,24.58c-0.088-0.502-0.551-0.979-1.051-1.085l-2.506-0.527
			c0.471-0.458,0.834-1.09,1.074-1.726c0.309-0.113,0.623-0.391,0.713-0.749c0.119-0.479-0.008-0.903-0.304-1.089v-0.337
			c0.271-0.815,0.41-2.148-0.815-2.865c-0.551-0.321-1.006-0.342-1.353-0.229c-0.053-0.14,0.106-0.342,0.106-0.342
			c-0.282-0.009-0.432,0.144-0.493,0.228c-0.377-0.176-0.873-0.248-1.507-0.115c-2.028,0.425-2.289,3.086-1.918,3.668
			c-0.289,0.187-0.414,0.607-0.293,1.082c0.091,0.358,0.402,0.638,0.716,0.75c0.235,0.637,0.596,1.27,1.065,1.726l-2.502,0.527
			c-0.5,0.104-0.961,0.583-1.053,1.085l-0.336,1.89c-0.047,0.265,0.018,0.513,0.178,0.702c0.156,0.19,0.393,0.294,0.658,0.294h9.115
			c0.27,0,0.502-0.104,0.66-0.294c0.16-0.188,0.225-0.438,0.176-0.702L28.887,24.58z M21.581,20.862
			c-0.164,0.033-0.545-0.172-0.621-0.475c-0.076-0.309-0.004-0.595,0.164-0.643c0.049-0.013,0.102-0.002,0.151,0.022v-0.459
			c0-0.001,0.003-0.002,0.003-0.003c-0.003-0.007-0.003-0.016-0.003-0.021v-0.158c0.041-0.389,0.408-1.129,2.438-0.464
			c0.697,0.229,1.129-0.133,1.346-0.615c0.689,0.077,1.148,0.858,1.324,1.341v0.38c0.025-0.014,0.053-0.021,0.078-0.025
			c-0.002,0.002,0,0.009-0.004,0.012c0.006,0.007,0.018,0.002,0.031-0.011c0.016,0,0.03-0.002,0.047,0.001
			c0.168,0.047,0.239,0.334,0.166,0.643c-0.076,0.298-0.455,0.505-0.619,0.475c-0.221,0.669-0.658,1.521-1.281,1.991
			c-0.074,0.06-0.152,0.106-0.23,0.151c-0.113,0.063-0.232,0.114-0.357,0.148c-0.12,0.031-0.248,0.054-0.381,0.054
			c-0.135,0-0.265-0.021-0.39-0.054c-0.125-0.034-0.243-0.084-0.356-0.146c-0.082-0.044-0.157-0.093-0.233-0.148
			C22.23,22.39,21.801,21.546,21.581,20.862z M22.711,23.284c0.33,0.22,0.705,0.354,1.119,0.354c0.41,0,0.783-0.135,1.113-0.354
			l0.598,0.125c-0.479,0.39-1.07,0.603-1.699,0.603c-0.621,0-1.221-0.22-1.699-0.606L22.711,23.284z M21.043,27.079h-1.771
			c-0.148,0-0.277-0.056-0.361-0.157c-0.065-0.08-0.09-0.184-0.09-0.296h2.225L21.043,27.079L21.043,27.079z M26.422,25.778
			c-0.107,0-0.195,0.086-0.195,0.192v1.108h-4.795V25.97c0-0.105-0.088-0.192-0.191-0.192c-0.106,0-0.195,0.086-0.195,0.192v0.27
			h-2.172l0.283-1.59c0.062-0.348,0.402-0.701,0.748-0.774l1.77-0.373c0.576,0.569,1.355,0.896,2.171,0.896
			c0.821,0,1.586-0.317,2.166-0.894l1.748,0.369c0.344,0.073,0.688,0.428,0.747,0.774l0.283,1.59h-2.172v-0.27
			C26.616,25.864,26.528,25.778,26.422,25.778z M28.752,26.923c-0.086,0.103-0.215,0.157-0.365,0.157h-1.771v-0.454h2.226
			C28.84,26.739,28.816,26.843,28.752,26.923z M19.497,22.312l-4.875-2.814l-4.875,2.814l-0.348-0.602l4.875-2.815v-4.526h0.695
			v4.526l4.875,2.815L19.497,22.312z"/>
	</g>
</g>
<g>
</g>
<g>
</g>
<g>
</g>
<g>
</g>
<g>
</g>
<g>
</g>
<g>
</g>
<g>
</g>
<g>
</g>
<g>
</g>
<g>
</g>
<g>
</g>
<g>
</g>
<g>
</g>
<g>
</g>
</svg>
