<?xml version="1.0" encoding="iso-8859-1"?>
<!-- Generator: Adobe Illustrator 16.0.0, SVG Export Plug-In . SVG Version: 6.00 Build 0)  -->
<!DOCTYPE svg PUBLIC "-//W3C//DTD SVG 1.1//EN" "http://www.w3.org/Graphics/SVG/1.1/DTD/svg11.dtd">
<svg version="1.1" id="Capa_1" xmlns="http://www.w3.org/2000/svg" xmlns:xlink="http://www.w3.org/1999/xlink" x="0px" y="0px"
	 width="39.173px" height="39.173px" viewBox="0 0 39.173 39.173" style="enable-background:new 0 0 39.173 39.173;"
	 xml:space="preserve">
<g>
	<g>
		<path d="M21.884,26.004c-0.184-1.052-1.152-2.05-2.195-2.271l-0.662-0.143v-7.034c0-6.537-3.455-9.017-7.719-9.017
			c-4.26,0-7.715,2.479-7.715,9.017v7.034l-0.66,0.143c-1.045,0.222-2.01,1.22-2.197,2.271l-0.705,3.949
			c-0.096,0.549,0.033,1.067,0.365,1.466c0.332,0.396,0.824,0.615,1.377,0.615h19.072c0.56,0,1.048-0.223,1.382-0.615
			c0.33-0.396,0.459-0.917,0.362-1.466L21.884,26.004z M5.997,16.99c0.1-0.027,0.199-0.004,0.301,0.052v-0.89h5.98l0.502-3.004
			v3.125h3.541v0.769c0.104-0.056,0.201-0.079,0.301-0.052c0.33,0.1,0.473,0.699,0.32,1.344c-0.146,0.624-0.892,1.057-1.211,0.99
			c-0.049,0.158-0.125,0.318-0.191,0.479l-0.025-0.022c-0.859,1.016-2.545,1.074-3.463,1.021c-0.125-0.264-0.389-0.449-0.701-0.449
			c-0.432,0-0.781,0.352-0.781,0.781c0,0.432,0.351,0.781,0.781,0.781c0.254,0,0.469-0.129,0.611-0.314
			c0.162,0.01,0.34,0.02,0.543,0.02c0.652,0,1.473-0.081,2.229-0.373c-0.312,0.441-0.66,0.863-1.037,1.224
			c-0.125,0.118-0.248,0.229-0.373,0.334c-0.143,0.116-0.284,0.226-0.424,0.323l3.08,0.646l-1.646,1.922l-2.035,2.385l-0.517-2.385
			l-0.075-0.323l0.746-0.742l-0.935-0.937l-0.211-0.202l-0.207,0.21l-0.93,0.929l0.744,0.742l-0.074,0.323l-0.5,2.287l-2.016-2.287
			l-1.693-1.922l3.064-0.646c-0.146-0.095-0.287-0.207-0.43-0.319c-0.123-0.104-0.244-0.215-0.371-0.332
			c-0.892-0.854-1.662-2.033-2-3.15c-0.324,0.071-1.072-0.364-1.22-0.991C5.526,17.69,5.669,17.09,5.997,16.99z M21.607,30.902
			c-0.176,0.213-0.446,0.328-0.763,0.328h-3.713v-2.024c0-0.224-0.178-0.402-0.402-0.402c-0.221,0-0.397,0.183-0.397,0.402v2.024
			H6.291v-2.024c0-0.224-0.183-0.402-0.404-0.402c-0.221,0-0.4,0.181-0.4,0.402v2.024H1.775c-0.312,0-0.584-0.115-0.76-0.328
			c-0.179-0.211-0.246-0.498-0.191-0.807l0.705-3.955c0.129-0.726,0.848-1.468,1.567-1.623l0.498-0.101l2.142-0.453l1.521,1.729
			l3.82,4.341c0.077,0.086,0.188,0.134,0.303,0.134h0.004c0.115,0,0.226-0.05,0.3-0.137l3.713-4.338l1.483-1.731l2.147,0.455
			l0.496,0.101c0.722,0.155,1.441,0.897,1.572,1.625l0.703,3.953C21.854,30.404,21.786,30.691,21.607,30.902z M34.884,13.676h-4.104
			V9.485C32.977,9.69,34.72,11.462,34.884,13.676z M25.534,14.19c0-2.485,1.994-4.502,4.469-4.549v4.723h4.633
			c-0.09,2.435-2.086,4.383-4.545,4.383C27.573,18.746,25.534,16.705,25.534,14.19z M21.22,7.138v14.205h4.191v4.569l4.568-4.569
			h9.193V7.138H21.22z M37.911,20.081h-8.453l-2.785,2.784v-2.784h-4.19V8.398h15.431L37.911,20.081L37.911,20.081z"/>
	</g>
</g>
<g>
</g>
<g>
</g>
<g>
</g>
<g>
</g>
<g>
</g>
<g>
</g>
<g>
</g>
<g>
</g>
<g>
</g>
<g>
</g>
<g>
</g>
<g>
</g>
<g>
</g>
<g>
</g>
<g>
</g>
</svg>
