<?xml version="1.0" encoding="iso-8859-1"?>
<!-- Generator: Adobe Illustrator 16.0.0, SVG Export Plug-In . SVG Version: 6.00 Build 0)  -->
<!DOCTYPE svg PUBLIC "-//W3C//DTD SVG 1.1//EN" "http://www.w3.org/Graphics/SVG/1.1/DTD/svg11.dtd">
<svg version="1.1" id="Capa_1" xmlns="http://www.w3.org/2000/svg" xmlns:xlink="http://www.w3.org/1999/xlink" x="0px" y="0px"
	 width="24.449px" height="24.449px" viewBox="0 0 24.449 24.449" style="enable-background:new 0 0 24.449 24.449;"
	 xml:space="preserve">
<g>
	<g>
		<path d="M20.154,18.02V9.265c0-6.716-3.551-9.265-7.93-9.265c-4.378,0-7.93,2.549-7.93,9.265v8.754
			c-1.276,1.677-2.046,3.763-2.046,6.031v0.398h19.953v-0.398C22.201,21.782,21.434,19.696,20.154,18.02z M6.766,9.709
			c0.103-0.027,0.205-0.004,0.308,0.053V9.086l0.661-0.047c2.464,0,4.614-1.03,5.792-2.567c0.855,1.114,2.221,1.963,3.852,2.345
			v0.948c0.102-0.06,0.207-0.083,0.307-0.056c0.336,0.103,0.484,0.72,0.328,1.382c-0.149,0.643-0.912,1.087-1.244,1.02
			c-0.062,0.207-0.145,0.419-0.237,0.63c-0.908,0.664-2.271,0.705-3.063,0.657c-0.125-0.264-0.392-0.448-0.702-0.448
			c-0.431,0-0.781,0.351-0.781,0.78c0,0.433,0.351,0.781,0.781,0.781c0.254,0,0.469-0.129,0.611-0.313
			c0.162,0.01,0.341,0.019,0.543,0.019c0.566,0,1.265-0.062,1.935-0.269c-0.148,0.221-0.31,0.438-0.478,0.644
			c-0.092,0.108-0.187,0.217-0.278,0.321c-0.104,0.114-0.207,0.224-0.314,0.328c0.77,0.226,1.494,0.549,2.168,0.955l-2.105,2.463
			l-1.601,1.866l-0.408-1.866l-0.202-0.929l0.764-0.764l-0.479-0.475l-0.697-0.695l-0.699,0.699l-0.473,0.471l0.764,0.764
			l-0.201,0.929l-0.388,1.771l-1.562-1.771L7.5,16.198c0.665-0.402,1.383-0.728,2.144-0.951c-0.104-0.104-0.208-0.213-0.311-0.328
			c-0.095-0.104-0.186-0.213-0.275-0.321c-0.609-0.756-1.109-1.64-1.366-2.489c-0.331,0.079-1.101-0.367-1.252-1.016
			C6.281,10.429,6.43,9.812,6.766,9.709z M3.058,23.65c0.081-1.86,0.719-3.579,1.751-4.991c0.562-0.771,1.245-1.449,2.016-2.013
			l1.772,2.013l3.396,3.854c0.078,0.09,0.188,0.139,0.304,0.139h0.001c0.117-0.002,0.227-0.053,0.302-0.141l3.298-3.854l1.725-2.014
			c0.771,0.562,1.455,1.24,2.02,2.014c1.031,1.412,1.67,3.131,1.752,4.99H3.058V23.65z"/>
	</g>
</g>
<g>
</g>
<g>
</g>
<g>
</g>
<g>
</g>
<g>
</g>
<g>
</g>
<g>
</g>
<g>
</g>
<g>
</g>
<g>
</g>
<g>
</g>
<g>
</g>
<g>
</g>
<g>
</g>
<g>
</g>
</svg>
