<?xml version="1.0" encoding="iso-8859-1"?>
<!-- Generator: Adobe Illustrator 16.0.0, SVG Export Plug-In . SVG Version: 6.00 Build 0)  -->
<!DOCTYPE svg PUBLIC "-//W3C//DTD SVG 1.1//EN" "http://www.w3.org/Graphics/SVG/1.1/DTD/svg11.dtd">
<svg version="1.1" id="Capa_1" xmlns="http://www.w3.org/2000/svg" xmlns:xlink="http://www.w3.org/1999/xlink" x="0px" y="0px"
	 width="30.393px" height="30.393px" viewBox="0 0 30.393 30.393" style="enable-background:new 0 0 30.393 30.393;"
	 xml:space="preserve">
<g>
	<path d="M15.42,14.695h-0.447v1h0.314c0-0.076-0.02-0.148-0.004-0.229L15.42,14.695z"/>
	<path d="M15.15,15.176c0.021,0.014,0.043,0.022,0.062,0.037c0.011-0.004,0.021-0.006,0.03-0.011L15.15,15.176z"/>
	<path d="M15.532,15.64c0.009-0.002,0.017-0.006,0.024-0.008c-0.137-0.359,0.275-0.881,0.275-0.881
		c-0.729-0.025-1.113,0.363-1.271,0.582c0.123,0.059,0.244,0.115,0.357,0.182C15.127,15.548,15.333,15.591,15.532,15.64z"/>
	<path d="M15.503,15.216c-0.2-0.049-0.405-0.092-0.614-0.125c0.104,0.057,0.201,0.117,0.297,0.182l0.091,0.027
		C15.348,15.268,15.426,15.241,15.503,15.216z"/>
	<path d="M15.414,15.286c-0.112-0.066-0.233-0.123-0.356-0.182c-0.041,0.059-0.067,0.1-0.079,0.123
		C15.123,15.243,15.271,15.262,15.414,15.286z"/>
	<path d="M14.837,15.075c-0.006,0.01-0.013,0.023-0.013,0.023l0.744,0.217c-0.094-0.064-0.192-0.125-0.295-0.183
		C15.13,15.11,14.982,15.091,14.837,15.075z"/>
	<path d="M15.21,15.202c-0.002-0.004-0.002-0.01-0.004-0.014c-0.01,0.002-0.016,0.006-0.024,0.008
		C15.193,15.198,15.2,15.2,15.21,15.202z"/>
	<path d="M15.418,15.301c-0.103-0.055-0.154-0.127-0.188-0.207c-0.009-0.002-0.019-0.004-0.028-0.006
		c-0.076,0.025-0.154,0.053-0.228,0.084L15.418,15.301z"/>
	<path d="M15.468,15.115c-0.158-0.105-0.304-0.227-0.445-0.354l-0.1,0.561c0.145,0.111,0.295,0.215,0.453,0.307L15.468,15.115z"/>
	<path d="M15.03,14.719l-0.106,0.598c0.143,0.127,0.287,0.248,0.445,0.354l0.1-0.554C15.308,14.998,15.164,14.865,15.03,14.719z"/>
	<path d="M29.568,27.82l-0.865-4.871c-0.229-1.295-1.421-2.523-2.71-2.797l-6.45-1.359c1.213-1.176,2.146-2.809,2.766-4.447
		c0.799-0.289,1.602-1.002,1.834-1.928c0.31-1.23-0.016-2.33-0.779-2.807V8.74c0.695-2.1,1.061-5.531-2.104-7.379
		c-1.418-0.826-2.594-0.881-3.48-0.592c0.002,0.006,0.002,0.01,0.004,0.016c0.034,0.078,0.087,0.152,0.189,0.207l-0.445-0.131
		c-0.01,0.004-0.021,0.008-0.03,0.012c-0.019-0.014-0.041-0.025-0.062-0.037l-0.744-0.219c0,0,0.007-0.012,0.013-0.023
		c0.013-0.022,0.038-0.063,0.079-0.121c-0.975-0.449-2.248-0.641-3.88-0.297C7.67,1.274,7.004,8.127,7.961,9.629
		c-0.746,0.482-1.064,1.568-0.76,2.787c0.232,0.93,1.042,1.646,1.844,1.932c0.609,1.642,1.535,3.271,2.748,4.447l-2.931,0.617
		c-0.61-1.557-2.119-2.664-3.89-2.664c-2.309,0-4.187,1.877-4.187,4.184c0,1.343,0.646,2.523,1.629,3.289l0.101-0.561l0.105-0.598
		c-0.514-0.564-0.835-1.311-0.835-2.132c0-1.757,1.429-3.185,3.187-3.185c1.287,0,2.395,0.771,2.896,1.875
		c0.069,0.149,0.12,0.312,0.165,0.476c0.044,0.159,0.072,0.323,0.091,0.491c0.013,0.115,0.034,0.227,0.034,0.343
		c0,1.757-1.43,3.187-3.186,3.187c-0.527,0-1.019-0.141-1.457-0.369c-0.16-0.084-0.313-0.178-0.457-0.285L2.96,24.014l-0.093,0.518
		c-0.157-0.095-0.31-0.195-0.453-0.311l-0.641,3.602c-0.12,0.676,0.04,1.316,0.45,1.809c0.412,0.491,1.016,0.762,1.699,0.762h23.494
		c0.688,0,1.29-0.271,1.701-0.764S29.689,28.494,29.568,27.82z M28.352,28.984c-0.219,0.26-0.551,0.403-0.936,0.403H22.85v-1.164
		h5.729C28.586,28.511,28.523,28.779,28.352,28.984z M15.671,20.52c1.062,0,2.021-0.347,2.874-0.916l1.534,0.323
		c-1.231,1.004-2.753,1.556-4.374,1.556c-1.603,0-3.149-0.566-4.382-1.566l1.466-0.309C13.641,20.174,14.602,20.52,15.671,20.52z
		 M9.876,13.369c-0.425,0.09-1.406-0.443-1.601-1.221c-0.199-0.793-0.011-1.531,0.422-1.654c0.127-0.035,0.26-0.006,0.394,0.062
		V9.371c0.002-0.004,0.004-0.006,0.006-0.01C9.095,9.346,9.093,9.326,9.091,9.309V8.891c0.109-1.006,1.066-2.896,6.278-1.188
		c1.801,0.59,2.911-0.346,3.471-1.584c1.774,0.197,2.959,2.211,3.414,3.453v0.982c0.063-0.035,0.131-0.062,0.195-0.072
		c-0.002,0.01,0,0.027-0.004,0.033c0.016,0.016,0.041,0.006,0.077-0.029c0.041-0.002,0.082-0.006,0.122,0.004
		c0.432,0.123,0.619,0.861,0.422,1.654c-0.193,0.77-1.168,1.301-1.592,1.221c-0.564,1.721-1.691,3.922-3.301,5.135
		c-0.191,0.146-0.396,0.273-0.602,0.387c-0.292,0.162-0.598,0.293-0.916,0.382c-0.316,0.089-0.646,0.14-0.988,0.14
		c-0.348,0-0.681-0.051-1-0.14c-0.32-0.087-0.627-0.216-0.92-0.378c-0.207-0.111-0.41-0.238-0.604-0.385
		C11.55,17.308,10.443,15.131,9.876,13.369z M2.896,27.224l0.435-2.442c0.505,0.215,1.06,0.336,1.642,0.336
		c2.308,0,4.186-1.877,4.186-4.187c0-0.188-0.031-0.366-0.057-0.547l1.015-0.216c1.483,1.47,3.496,2.312,5.591,2.312
		c2.118,0,4.085-0.819,5.583-2.3l4.497,0.947c0.89,0.189,1.773,1.103,1.933,1.994l0.729,4.1h-5.597v-0.689
		c0-0.274-0.225-0.5-0.5-0.5c-0.276,0-0.5,0.226-0.5,0.5v2.854H9.493v-2.854c0-0.274-0.224-0.5-0.5-0.5c-0.275,0-0.5,0.226-0.5,0.5
		v0.689H2.896l-0.139,0.771c-0.015,0.08,0.006,0.15,0.004,0.229h5.729v1.164H3.922c-0.384,0-0.715-0.143-0.933-0.4
		c-0.172-0.205-0.231-0.477-0.229-0.764H2.447v-1h0.448V27.224z M3.376,21.431H2.48v-0.5v-0.5h1.991v-1.989h0.5h0.5v1.686v0.305
		h0.98h1.01v0.3v0.2v0.5h-1.99v1.99h-0.5h-0.5v-1.696v-0.294H4.053L3.376,21.431L3.376,21.431z"/>
</g>
<g>
</g>
<g>
</g>
<g>
</g>
<g>
</g>
<g>
</g>
<g>
</g>
<g>
</g>
<g>
</g>
<g>
</g>
<g>
</g>
<g>
</g>
<g>
</g>
<g>
</g>
<g>
</g>
<g>
</g>
</svg>
