<?xml version="1.0" encoding="iso-8859-1"?>
<!-- Generator: Adobe Illustrator 16.0.0, SVG Export Plug-In . SVG Version: 6.00 Build 0)  -->
<!DOCTYPE svg PUBLIC "-//W3C//DTD SVG 1.1//EN" "http://www.w3.org/Graphics/SVG/1.1/DTD/svg11.dtd">
<svg version="1.1" id="Capa_1" xmlns="http://www.w3.org/2000/svg" xmlns:xlink="http://www.w3.org/1999/xlink" x="0px" y="0px"
	 width="25.168px" height="25.168px" viewBox="0 0 25.168 25.168" style="enable-background:new 0 0 25.168 25.168;"
	 xml:space="preserve">
<g>
	<g>
		<path d="M9.467,13.595c-0.06-0.345,0.062-0.649,0.268-0.687c0.019-0.002,0.033,0.006,0.049,0.008
			c-0.096-2.484,1.367-3.623,3.004-3.633c1.589,0.037,2.85,0.97,2.913,3.625c0.013-0.002,0.024-0.01,0.038-0.008
			c0.207,0.033,0.33,0.343,0.273,0.687c-0.059,0.329-0.259,0.565-0.457,0.556c-0.438,1.604-1.745,2.791-2.812,2.84
			c-1.17-0.023-2.325-1.229-2.771-2.842c-0.008,0.004-0.014,0.01-0.021,0.012C9.738,14.188,9.523,13.938,9.467,13.595z
			 M13.456,20.35l-0.238-1.893l0.367-0.3h-0.89l-0.812,0.001l0.367,0.301l-0.232,1.895l-1.486-2.91
			c-2.584,0.354-4.438,1.464-4.434,4.152L19.38,21.58c-0.003-2.689-1.857-3.796-4.441-4.143L13.456,20.35z M21.952,2.236v22.932
			H3.216V2.236h5.175V0h1.117v2.236h6.152V0h1.116v2.236H21.952z M20.834,3.355h-4.058v2.071c0.289,0.187,0.49,0.495,0.49,0.864
			c0,0.58-0.471,1.049-1.049,1.049c-0.58,0-1.049-0.469-1.049-1.049c0-0.369,0.201-0.68,0.489-0.865v-2.07H9.506v2.071
			C9.793,5.613,9.995,5.921,9.995,6.29c0,0.58-0.471,1.049-1.049,1.049c-0.58,0-1.049-0.469-1.049-1.049
			c0-0.369,0.201-0.68,0.49-0.865v-2.07H4.334v20.693h16.5V3.355z"/>
	</g>
</g>
<g>
</g>
<g>
</g>
<g>
</g>
<g>
</g>
<g>
</g>
<g>
</g>
<g>
</g>
<g>
</g>
<g>
</g>
<g>
</g>
<g>
</g>
<g>
</g>
<g>
</g>
<g>
</g>
<g>
</g>
</svg>
