<?xml version="1.0" encoding="iso-8859-1"?>
<!-- Generator: Adobe Illustrator 16.0.0, SVG Export Plug-In . SVG Version: 6.00 Build 0)  -->
<!DOCTYPE svg PUBLIC "-//W3C//DTD SVG 1.1//EN" "http://www.w3.org/Graphics/SVG/1.1/DTD/svg11.dtd">
<svg version="1.1" id="Capa_1" xmlns="http://www.w3.org/2000/svg" xmlns:xlink="http://www.w3.org/1999/xlink" x="0px" y="0px"
	 width="32.714px" height="32.714px" viewBox="0 0 32.714 32.714" style="enable-background:new 0 0 32.714 32.714;"
	 xml:space="preserve">
<g>
	<g>
		<path d="M24.961,16.482c0,0.69-0.56,1.25-1.25,1.25c-0.688,0-1.25-0.56-1.25-1.25c0-0.69,0.562-1.25,1.25-1.25
			C24.402,15.232,24.961,15.793,24.961,16.482z M32.364,10.065c0.217-0.428,0.35-0.904,0.35-1.416c0-1.749-1.418-3.167-3.168-3.167
			c-0.426,0-0.83,0.087-1.201,0.239c-0.567-0.847-1.533-1.406-2.631-1.406c-1.522,0-2.795,1.077-3.098,2.51
			c-1.703,0.052-3.07,1.441-3.07,3.157c0,1.749,1.418,3.167,3.168,3.167c0.045,0,0.086-0.011,0.129-0.013
			c0.502,1.087,1.597,1.846,2.871,1.846c0.822,0,1.565-0.322,2.129-0.837c0.494,0.316,1.076,0.505,1.705,0.505
			c1.748,0,3.166-1.418,3.166-3.167C32.713,10.97,32.581,10.493,32.364,10.065z M22.208,26.355c0.097,0.537-0.031,1.047-0.356,1.438
			c-0.328,0.39-0.81,0.604-1.355,0.604H1.743c-0.548,0-1.027-0.215-1.354-0.604c-0.326-0.393-0.453-0.901-0.357-1.438l0.691-3.888
			c0.184-1.03,1.132-2.012,2.157-2.229L3.53,20.1v-6.918c0-6.425,3.396-8.865,7.588-8.865s7.59,2.44,7.59,8.865V20.1l0.649,0.139
			c1.025,0.218,1.976,1.199,2.159,2.231L22.208,26.355z M5.581,14.927c0.146,0.62,0.881,1.046,1.196,0.974
			c0.334,1.104,1.091,2.26,1.97,3.102c0.121,0.113,0.241,0.224,0.365,0.326c0.141,0.113,0.278,0.219,0.42,0.314L6.52,20.276
			l1.664,1.891l1.98,2.252l0.49-2.252l0.07-0.317l-0.73-0.729l0.918-0.916l0.205-0.205l0.203,0.205l0.918,0.916l-0.73,0.729
			l0.07,0.317l0.51,2.34l2.002-2.34l1.619-1.891l-3.033-0.639c0.143-0.096,0.281-0.203,0.421-0.314
			c0.122-0.104,0.245-0.213,0.366-0.326c0.894-0.85,1.668-2.016,2.002-3.095c0.315,0.065,1.045-0.36,1.189-0.975
			c0.147-0.632,0.008-1.223-0.314-1.32c-0.098-0.026-0.194-0.004-0.295,0.05v-0.755h-3.479V9.831l-0.494,2.953H6.189v0.873
			c-0.102-0.054-0.197-0.076-0.295-0.05C5.571,13.706,5.432,14.295,5.581,14.927z M21.431,26.495l-0.692-3.888
			c-0.127-0.715-0.834-1.444-1.545-1.597l-0.485-0.104l-2.115-0.445l-1.461,1.705l-3.646,4.265
			c-0.072,0.086-0.182,0.135-0.297,0.135c0,0-0.001,0-0.002,0c-0.113,0-0.222-0.047-0.295-0.133l-3.759-4.267l-1.5-1.701
			L3.53,20.907l-0.486,0.104c-0.711,0.15-1.418,0.882-1.545,1.595l-0.69,3.89c-0.056,0.303,0.013,0.586,0.186,0.793
			c0.176,0.209,0.441,0.323,0.75,0.323h3.65v-1.994c0-0.217,0.176-0.395,0.395-0.395s0.396,0.178,0.396,0.395v1.994h9.874v-1.994
			c0-0.217,0.176-0.395,0.395-0.395s0.396,0.178,0.396,0.395v1.994h3.648c0.31,0,0.573-0.114,0.75-0.323
			C21.418,27.081,21.484,26.796,21.431,26.495z M21.577,17.484c-0.554-0.019-1.014,0.416-1.031,0.97
			c-0.017,0.551,0.418,1.012,0.972,1.028c0.553,0.019,1.013-0.416,1.028-0.969C22.562,17.962,22.127,17.501,21.577,17.484z"/>
	</g>
</g>
<g>
</g>
<g>
</g>
<g>
</g>
<g>
</g>
<g>
</g>
<g>
</g>
<g>
</g>
<g>
</g>
<g>
</g>
<g>
</g>
<g>
</g>
<g>
</g>
<g>
</g>
<g>
</g>
<g>
</g>
</svg>
