<?xml version="1.0" encoding="iso-8859-1"?>
<!-- Generator: Adobe Illustrator 16.0.0, SVG Export Plug-In . SVG Version: 6.00 Build 0)  -->
<!DOCTYPE svg PUBLIC "-//W3C//DTD SVG 1.1//EN" "http://www.w3.org/Graphics/SVG/1.1/DTD/svg11.dtd">
<svg version="1.1" id="Capa_1" xmlns="http://www.w3.org/2000/svg" xmlns:xlink="http://www.w3.org/1999/xlink" x="0px" y="0px"
	 width="28.671px" height="28.671px" viewBox="0 0 28.671 28.671" style="enable-background:new 0 0 28.671 28.671;"
	 xml:space="preserve">
<g>
	<path d="M26.56,28.669c0-4.841-3.188-8.955-7.666-10.563c1.032-1.013,1.774-2.531,2.114-4.648c0.455,0.084,1.054-0.387,1.261-1.178
		c0.213-0.813,0.461-2.18-0.002-2.303c-0.14-0.037-0.281-0.008-0.423,0.063V7.777c0.076-2.457-0.262-4.828-2.938-5.854
		C18.416,0.916,18.385,0,18.385,0C17.178,1.087,12.6,1.527,12.6,1.527l0.051,0.014C6.846,2.138,7.683,4.226,7.683,7.777v2.262
		C7.541,9.968,7.398,9.937,7.26,9.976c-0.464,0.123-0.323,1.438-0.109,2.252c0.209,0.797,0.921,1.32,1.378,1.227
		c0.347,2.227,1.04,3.703,1.994,4.672c-0.413,0.15-0.811,0.33-1.2,0.523c-0.763-0.803-1.834-1.312-3.026-1.312
		c-2.308,0-4.186,1.877-4.186,4.187c0,1.305,0.612,2.457,1.551,3.225c-0.475,1.223-0.742,2.539-0.742,3.921L26.56,28.669
		L26.56,28.669z M6.294,18.339c0.811,0,1.543,0.313,2.106,0.813c0.657,0.584,1.08,1.426,1.08,2.371c0,1.756-1.429,3.184-3.186,3.184
		c-0.862,0-1.643-0.348-2.217-0.905c-0.595-0.577-0.968-1.386-0.968-2.276C3.108,19.77,4.539,18.339,6.294,18.339z M3.805,22.023
		v-0.5v-0.5h2.25h2.731v0.5v0.5H5.194H3.805z"/>
</g>
<g>
</g>
<g>
</g>
<g>
</g>
<g>
</g>
<g>
</g>
<g>
</g>
<g>
</g>
<g>
</g>
<g>
</g>
<g>
</g>
<g>
</g>
<g>
</g>
<g>
</g>
<g>
</g>
<g>
</g>
</svg>
