<?xml version="1.0" encoding="iso-8859-1"?>
<!-- Generator: Adobe Illustrator 16.0.0, SVG Export Plug-In . SVG Version: 6.00 Build 0)  -->
<!DOCTYPE svg PUBLIC "-//W3C//DTD SVG 1.1//EN" "http://www.w3.org/Graphics/SVG/1.1/DTD/svg11.dtd">
<svg version="1.1" id="Capa_1" xmlns="http://www.w3.org/2000/svg" xmlns:xlink="http://www.w3.org/1999/xlink" x="0px" y="0px"
	 width="25.447px" height="25.447px" viewBox="0 0 25.447 25.447" style="enable-background:new 0 0 25.447 25.447;"
	 xml:space="preserve">
<g>
	<path d="M24.926,23.277l-0.72-4.043c-0.192-1.088-1.192-2.12-2.276-2.352l-3.701-0.779l-0.76-1.557
		c-0.041-0.082-0.109-0.143-0.188-0.186c0.666-0.857,1.196-1.873,1.582-2.89c0.661-0.24,1.329-0.832,1.521-1.603
		c0.258-1.021-0.014-1.934-0.646-2.33V6.073C19.737,2.552,17.051,0,13.351,0C9.652,0,6.967,2.555,6.967,6.073v1.465
		C6.333,7.934,6.062,8.846,6.319,9.866c0.193,0.772,0.865,1.367,1.53,1.604c0.378,1.021,0.906,2.036,1.568,2.892
		c-0.075,0.045-0.142,0.104-0.181,0.184l-0.728,1.488c-0.646-1.479-2.12-2.517-3.834-2.517c-2.308,0-4.186,1.877-4.186,4.185
		c0,1.369,0.669,2.573,1.688,3.338l-0.398,2.233c-0.102,0.57,0.034,1.113,0.382,1.527c0.348,0.416,0.858,0.646,1.438,0.646h19.505
		c0.58,0,1.093-0.23,1.438-0.646C24.893,24.391,25.027,23.848,24.926,23.277z M17.363,16.381l0.064,0.137l-0.429,0.248l-2.528,1.463
		l-0.558-1.141l1.231-0.715l0.584-0.336l0.582-0.338l0.56-0.322l0.24,0.492L17.363,16.381z M8.541,10.66
		c-0.353,0.076-1.167-0.366-1.329-1.012C7.047,8.99,7.204,8.376,7.562,8.275c0.106-0.029,0.216-0.006,0.326,0.051v-2.25
		c0-3.182,2.446-5.153,5.464-5.153c3.019,0,5.464,1.973,5.464,5.153v2.252c0.109-0.059,0.221-0.082,0.326-0.053
		c0.356,0.101,0.516,0.715,0.352,1.373c-0.16,0.639-0.971,1.08-1.32,1.014c-0.553,1.683-1.75,3.913-3.484,4.713
		c-0.416,0.191-0.86,0.303-1.335,0.303c-0.481,0-0.931-0.111-1.348-0.303C10.271,14.584,9.096,12.384,8.541,10.66z M9.343,16.381
		l0.25-0.512l0.24-0.492l0.559,0.322l0.583,0.338l0.583,0.336l1.233,0.715l-0.558,1.141l-2.529-1.463l-0.428-0.248L9.343,16.381z
		 M1.49,17.705c0-1.756,1.429-3.184,3.186-3.184c1.251,0,2.326,0.729,2.847,1.781c0.067,0.139,0.122,0.276,0.17,0.426
		c0.046,0.143,0.088,0.285,0.114,0.438c0.031,0.176,0.055,0.354,0.055,0.539c0,1.756-1.429,3.186-3.186,3.186
		c-0.541,0-1.042-0.147-1.488-0.387c-0.144-0.076-0.282-0.16-0.411-0.258c-0.141-0.105-0.274-0.217-0.396-0.344
		C1.831,19.33,1.49,18.557,1.49,17.705z M23.854,24.23c-0.174,0.207-0.438,0.318-0.748,0.318h-3.758v-2.17
		c0-0.248-0.201-0.449-0.449-0.449s-0.449,0.201-0.449,0.449v2.17H8.257v-2.17c0-0.248-0.202-0.449-0.45-0.449
		s-0.45,0.201-0.45,0.449v2.17H3.6c-0.309,0-0.575-0.111-0.749-0.318c-0.174-0.209-0.24-0.489-0.186-0.795l0.338-1.897
		c0.513,0.226,1.077,0.354,1.672,0.354c2.308,0,4.186-1.877,4.186-4.187c0-0.142-0.028-0.274-0.042-0.412l3.381,1.957
		c0.069,0.039,0.147,0.062,0.226,0.062c0.044,0,0.088-0.008,0.131-0.021c0.119-0.036,0.218-0.121,0.273-0.233l0.522-1.068
		l0.522,1.068c0.055,0.112,0.154,0.197,0.272,0.233c0.043,0.013,0.087,0.021,0.132,0.021c0.078,0,0.155-0.021,0.225-0.062
		l3.738-2.164c0.021-0.012,0.035-0.03,0.055-0.047l3.445,0.728c0.726,0.151,1.446,0.897,1.578,1.627l0.719,4.043
		C24.094,23.741,24.029,24.021,23.854,24.23z M2.56,19.114l1.408-1.408l-0.293-0.295l-1.114-1.112l0.354-0.355l0.354-0.354
		l1.344,1.344l0.063,0.063l0.117-0.117l1.291-1.29l0.354,0.354l0.354,0.355l-0.206,0.204l-0.583,0.584L5.42,17.669l-0.036,0.036
		l1.408,1.406l-0.354,0.354l-0.354,0.354l-1.408-1.405L3.318,19.77l-0.05,0.052l-0.353-0.354l0,0L2.56,19.114z"/>
</g>
<g>
</g>
<g>
</g>
<g>
</g>
<g>
</g>
<g>
</g>
<g>
</g>
<g>
</g>
<g>
</g>
<g>
</g>
<g>
</g>
<g>
</g>
<g>
</g>
<g>
</g>
<g>
</g>
<g>
</g>
</svg>
