<?xml version="1.0" encoding="iso-8859-1"?>
<!-- Generator: Adobe Illustrator 16.0.0, SVG Export Plug-In . SVG Version: 6.00 Build 0)  -->
<!DOCTYPE svg PUBLIC "-//W3C//DTD SVG 1.1//EN" "http://www.w3.org/Graphics/SVG/1.1/DTD/svg11.dtd">
<svg version="1.1" id="Capa_1" xmlns="http://www.w3.org/2000/svg" xmlns:xlink="http://www.w3.org/1999/xlink" x="0px" y="0px"
	 width="30.218px" height="30.219px" viewBox="0 0 30.218 30.219" style="enable-background:new 0 0 30.218 30.219;"
	 xml:space="preserve">
<g>
	<g>
		<g>
			<path d="M19.511,14.909c-0.158,2.195-1.096,4.755-2.438,6.129h5.195v-5.795c0-6.059-3.205-8.36-7.158-8.36
				c-3.952,0-7.157,2.302-7.157,8.36v5.795h5.195c-1.3-1.329-2.224-3.771-2.427-5.915l0.05-0.004c2.235,0,4.166-0.926,5.228-2.291
				C16.777,13.828,18.021,14.575,19.511,14.909z"/>
		</g>
		<g>
			<path d="M11.617,25.078H9.854l2.21-2.209c-4.938,0.484-8.571,2.363-8.571,7.35h10.814l-3.916-3.916L11.617,25.078z"/>
		</g>
		<g>
			<path d="M18.16,22.869l2.207,2.209h-1.762l1.226,1.225l-3.914,3.916H26.73C26.73,25.23,23.095,23.354,18.16,22.869z"/>
		</g>
		<g>
			<path d="M1.188,23.014l4.204,0.891l0.902-4.195l-0.979-0.21l-0.564,2.626c-1.771-2.29-2.748-5.1-2.748-8.017
				c0-7.228,5.879-13.107,13.106-13.107s13.106,5.88,13.106,13.107c0,3.406-1.299,6.632-3.66,9.085l0.722,0.692
				c2.541-2.642,3.938-6.112,3.938-9.779C29.215,6.328,22.887,0,15.109,0S1.003,6.328,1.003,14.107c0,3.057,0.99,6.01,2.806,8.438
				l-2.414-0.512L1.188,23.014z"/>
		</g>
	</g>
</g>
<g>
</g>
<g>
</g>
<g>
</g>
<g>
</g>
<g>
</g>
<g>
</g>
<g>
</g>
<g>
</g>
<g>
</g>
<g>
</g>
<g>
</g>
<g>
</g>
<g>
</g>
<g>
</g>
<g>
</g>
</svg>
