<?xml version="1.0" encoding="iso-8859-1"?>
<!-- Generator: Adobe Illustrator 16.0.0, SVG Export Plug-In . SVG Version: 6.00 Build 0)  -->
<!DOCTYPE svg PUBLIC "-//W3C//DTD SVG 1.1//EN" "http://www.w3.org/Graphics/SVG/1.1/DTD/svg11.dtd">
<svg version="1.1" id="Capa_1" xmlns="http://www.w3.org/2000/svg" xmlns:xlink="http://www.w3.org/1999/xlink" x="0px" y="0px"
	 width="37.334px" height="37.334px" viewBox="0 0 37.334 37.334" style="enable-background:new 0 0 37.334 37.334;"
	 xml:space="preserve">
<g>
	<g>
		<g>
			<rect x="17.834" y="22.834" width="14.833" height="2"/>
		</g>
		<g>
			<rect x="17.834" y="12.5" width="14.833" height="2"/>
		</g>
		<g>
			<rect x="17.834" y="17.667" width="14.833" height="2"/>
		</g>
		<g>
			<path d="M0,6.501v24.332h37.334V6.501H0z M35.334,28.833H2V8.501h33.334V28.833z"/>
		</g>
		<g>
			<path d="M4.786,25.417h10.512c0.306,0,0.576-0.121,0.759-0.339c0.183-0.22,0.254-0.507,0.201-0.808l-0.388-2.18
				c-0.103-0.579-0.635-1.129-1.21-1.251l-0.365-0.075v-3.881c0-3.602-1.905-4.969-4.253-4.969c-2.349,0-4.253,1.367-4.253,4.969
				v3.881L5.424,20.84c-0.576,0.122-1.107,0.672-1.21,1.251l-0.388,2.18c-0.054,0.301,0.018,0.588,0.201,0.808
				C4.21,25.296,4.48,25.417,4.786,25.417z M7.114,17.126c0.054-0.016,0.109-0.003,0.165,0.027v-0.489h3.297l0.277-1.655v1.723
				h1.951v0.422c0.055-0.029,0.111-0.043,0.166-0.026c0.181,0.054,0.26,0.386,0.176,0.739c-0.081,0.345-0.49,0.583-0.667,0.546
				c-0.187,0.604-0.622,1.259-1.122,1.732c-0.068,0.064-0.137,0.127-0.206,0.186c-0.078,0.062-0.156,0.123-0.234,0.177l1.7,0.358
				l-0.907,1.059l-1.122,1.312l-0.286-1.312l-0.04-0.178l0.41-0.409l-0.515-0.516l-0.114-0.112l-0.115,0.114l-0.514,0.514
				l0.41,0.409l-0.04,0.178l-0.275,1.264l-1.111-1.264l-0.933-1.059l1.689-0.355c-0.079-0.053-0.157-0.111-0.235-0.177
				c-0.069-0.06-0.137-0.118-0.205-0.185c-0.493-0.471-0.917-1.118-1.104-1.736c-0.178,0.041-0.59-0.198-0.671-0.546
				C6.854,17.511,6.933,17.181,7.114,17.126z M4.649,22.169c0.071-0.398,0.468-0.809,0.866-0.895l0.273-0.059l1.179-0.248
				l0.84,0.953l2.106,2.395c0.042,0.047,0.102,0.074,0.166,0.074h0.001c0.064,0,0.125-0.029,0.167-0.076l2.044-2.393l0.818-0.955
				l1.186,0.25l0.273,0.059c0.398,0.086,0.795,0.494,0.866,0.896l0.388,2.179c0.03,0.17-0.007,0.328-0.104,0.444
				c-0.098,0.117-0.247,0.183-0.42,0.183h-2.046v-1.119c0-0.121-0.099-0.222-0.221-0.222c-0.123,0-0.221,0.101-0.221,0.222v1.117
				H7.275v-1.117c0-0.121-0.099-0.222-0.222-0.222c-0.122,0-0.221,0.101-0.221,0.222v1.117H4.786c-0.173,0-0.322-0.062-0.42-0.182
				c-0.097-0.116-0.135-0.273-0.104-0.443L4.649,22.169z"/>
		</g>
	</g>
</g>
<g>
</g>
<g>
</g>
<g>
</g>
<g>
</g>
<g>
</g>
<g>
</g>
<g>
</g>
<g>
</g>
<g>
</g>
<g>
</g>
<g>
</g>
<g>
</g>
<g>
</g>
<g>
</g>
<g>
</g>
</svg>
