<?xml version="1.0" encoding="iso-8859-1"?>
<!-- Generator: Adobe Illustrator 16.0.0, SVG Export Plug-In . SVG Version: 6.00 Build 0)  -->
<!DOCTYPE svg PUBLIC "-//W3C//DTD SVG 1.1//EN" "http://www.w3.org/Graphics/SVG/1.1/DTD/svg11.dtd">
<svg version="1.1" id="Capa_1" xmlns="http://www.w3.org/2000/svg" xmlns:xlink="http://www.w3.org/1999/xlink" x="0px" y="0px"
	 width="27.566px" height="27.567px" viewBox="0 0 27.566 27.567" style="enable-background:new 0 0 27.566 27.567;"
	 xml:space="preserve">
<g>
	<g>
		<path d="M17.866,21.289h8.419v-0.17c0-0.956-0.324-1.836-0.865-2.543v-3.694c0-2.833-1.496-3.909-3.345-3.909
			s-3.347,1.074-3.347,3.909v3.694c-0.539,0.708-0.862,1.588-0.862,2.543V21.289z M19.77,15.072
			c0.045-0.015,0.089-0.004,0.132,0.021v-0.285l0.278-0.021c1.041,0,1.949-0.437,2.443-1.084c0.361,0.471,0.938,0.829,1.624,0.989
			v0.4c0.044-0.024,0.089-0.035,0.132-0.021c0.143,0.042,0.202,0.302,0.139,0.581c-0.062,0.271-0.385,0.458-0.524,0.43
			c-0.108,0.353-0.323,0.724-0.589,1.045c-0.038,0.05-0.077,0.093-0.117,0.138c-0.043,0.047-0.089,0.095-0.135,0.139
			c0.186,0.055,0.361,0.122,0.531,0.201c-0.442,0.383-1,0.59-1.596,0.59c-0.594,0-1.162-0.217-1.606-0.6
			c0.163-0.071,0.329-0.138,0.505-0.189c-0.047-0.043-0.088-0.089-0.133-0.137c-0.039-0.045-0.077-0.092-0.116-0.137
			c-0.257-0.32-0.468-0.69-0.575-1.052c-0.141,0.032-0.464-0.153-0.527-0.428C19.568,15.373,19.629,15.114,19.77,15.072z
			 M18.947,18.844c0.32-0.44,0.738-0.812,1.217-1.086c0.518,0.493,1.205,0.775,1.924,0.775c0.723,0,1.396-0.273,1.914-0.766
			c0.473,0.271,0.883,0.638,1.201,1.076c0.438,0.598,0.706,1.319,0.74,2.104h-7.736C18.241,20.166,18.512,19.443,18.947,18.844z
			 M10.523,24.194c0-1.234-0.652-1.701-1.458-1.701c-0.806,0-1.456,0.467-1.456,1.701v1.609c-0.234,0.309-0.376,0.69-0.376,1.106
			v0.074h3.666V26.91c0-0.416-0.142-0.799-0.376-1.106V24.194z M8.062,24.278c0.019-0.008,0.037-0.002,0.057,0.009v-0.124
			l0.123-0.009c0.452,0,0.848-0.19,1.062-0.474c0.158,0.207,0.408,0.36,0.707,0.432v0.174c0.02-0.011,0.039-0.016,0.058-0.009
			c0.062,0.018,0.089,0.131,0.062,0.252c-0.027,0.119-0.168,0.2-0.229,0.187c-0.048,0.154-0.142,0.316-0.257,0.457
			c-0.016,0.021-0.033,0.039-0.051,0.06c-0.02,0.021-0.039,0.042-0.06,0.061c0.081,0.023,0.158,0.054,0.231,0.089
			c-0.192,0.168-0.436,0.258-0.695,0.258c-0.258,0-0.505-0.097-0.698-0.264c0.07-0.029,0.144-0.06,0.22-0.083
			c-0.021-0.019-0.039-0.039-0.058-0.061c-0.019-0.021-0.035-0.039-0.052-0.06c-0.112-0.14-0.202-0.302-0.251-0.457
			c-0.062,0.012-0.202-0.066-0.229-0.188C7.974,24.409,8,24.295,8.062,24.278z M10.751,26.836h-3.37
			c0.016-0.342,0.135-0.656,0.323-0.917c0.14-0.192,0.321-0.354,0.53-0.473c0.225,0.213,0.526,0.337,0.837,0.337
			c0.315,0,0.606-0.12,0.835-0.334c0.204,0.119,0.383,0.277,0.521,0.47C10.618,26.18,10.735,26.495,10.751,26.836z M17.939,10.729
			c0-0.956-0.324-1.836-0.864-2.543V4.492c0-2.834-1.497-3.909-3.347-3.909c-1.848,0-3.344,1.074-3.344,3.909v3.694
			c-0.541,0.707-0.865,1.588-0.865,2.543v0.17h8.42V10.729L17.939,10.729z M11.426,4.682c0.045-0.015,0.088-0.004,0.131,0.021V4.417
			l0.278-0.021c1.041,0,1.948-0.436,2.445-1.084c0.36,0.47,0.937,0.829,1.623,0.989v0.401c0.044-0.025,0.089-0.036,0.13-0.021
			c0.143,0.042,0.204,0.302,0.141,0.581c-0.062,0.271-0.386,0.458-0.524,0.43c-0.108,0.351-0.324,0.723-0.591,1.045
			c-0.037,0.048-0.075,0.092-0.115,0.137C14.9,6.923,14.854,6.97,14.807,7.013c0.186,0.055,0.363,0.122,0.533,0.201
			c-0.443,0.384-1.001,0.59-1.598,0.59c-0.592,0-1.161-0.216-1.605-0.599c0.162-0.073,0.33-0.137,0.504-0.19
			c-0.045-0.043-0.088-0.089-0.131-0.138c-0.041-0.043-0.078-0.09-0.117-0.136c-0.258-0.319-0.467-0.69-0.575-1.05
			c-0.14,0.032-0.464-0.156-0.527-0.428C11.222,4.984,11.283,4.724,11.426,4.682z M9.861,10.561c0.035-0.785,0.304-1.508,0.74-2.106
			c0.322-0.442,0.738-0.812,1.217-1.086c0.517,0.493,1.205,0.776,1.924,0.776c0.723,0,1.396-0.274,1.914-0.766
			c0.473,0.271,0.882,0.638,1.201,1.076c0.438,0.598,0.705,1.321,0.74,2.106H9.861z M27.189,25.803v-1.609
			c0-1.234-0.651-1.701-1.457-1.701c-0.805,0-1.457,0.467-1.457,1.701v1.609c-0.234,0.309-0.375,0.69-0.375,1.106v0.074h3.666V26.91
			C27.566,26.495,27.426,26.112,27.189,25.803z M24.729,24.278c0.019-0.008,0.039-0.002,0.057,0.009v-0.124l0.123-0.009
			c0.453,0,0.85-0.19,1.064-0.474c0.156,0.207,0.408,0.36,0.705,0.432v0.174c0.021-0.011,0.039-0.016,0.058-0.009
			c0.063,0.018,0.09,0.131,0.062,0.252c-0.027,0.119-0.166,0.2-0.229,0.187c-0.049,0.154-0.141,0.316-0.258,0.457
			c-0.016,0.021-0.033,0.039-0.051,0.06c-0.02,0.021-0.039,0.042-0.061,0.061c0.082,0.023,0.159,0.054,0.23,0.089
			c-0.191,0.168-0.436,0.258-0.694,0.258s-0.505-0.097-0.698-0.264c0.07-0.029,0.145-0.06,0.223-0.083
			c-0.021-0.019-0.039-0.039-0.061-0.061c-0.018-0.021-0.034-0.039-0.053-0.06c-0.11-0.14-0.201-0.302-0.25-0.457
			c-0.062,0.012-0.201-0.066-0.229-0.188C24.641,24.409,24.667,24.295,24.729,24.278z M24.049,26.836
			c0.017-0.342,0.133-0.656,0.322-0.917c0.141-0.192,0.32-0.354,0.529-0.473c0.225,0.213,0.525,0.337,0.837,0.337
			c0.315,0,0.608-0.12,0.835-0.334c0.205,0.119,0.384,0.277,0.521,0.47c0.188,0.261,0.309,0.574,0.322,0.917H24.049z M5.581,23.414
			l1.649,0.952l-0.147,0.257L5.432,23.67l-1.649,0.952l-0.147-0.257l1.65-0.952v-1.528h0.297L5.581,23.414L5.581,23.414z
			 M17.52,18.236l-3.792-2.188l-3.789,2.188l-0.34-0.589l3.791-2.188v-3.511h0.681v3.511l3.788,2.188L17.52,18.236z M3.291,24.194
			c0-1.234-0.652-1.701-1.457-1.701c-0.805,0-1.457,0.467-1.457,1.701v1.609C0.143,26.112,0,26.494,0,26.91v0.074h3.667V26.91
			c0-0.416-0.141-0.799-0.376-1.106V24.194z M0.831,24.278c0.019-0.008,0.038-0.002,0.058,0.009v-0.124l0.121-0.009
			c0.453,0,0.849-0.19,1.063-0.474c0.158,0.207,0.408,0.36,0.708,0.432v0.174c0.02-0.011,0.038-0.016,0.057-0.009
			C2.9,24.294,2.926,24.408,2.9,24.529c-0.028,0.119-0.168,0.2-0.229,0.187c-0.047,0.154-0.141,0.316-0.256,0.457
			c-0.018,0.021-0.033,0.039-0.05,0.06c-0.021,0.021-0.041,0.042-0.06,0.061c0.08,0.023,0.156,0.054,0.23,0.089
			c-0.191,0.168-0.436,0.258-0.695,0.258c-0.258,0-0.506-0.097-0.699-0.264c0.07-0.029,0.144-0.06,0.221-0.083
			c-0.021-0.019-0.038-0.039-0.057-0.061c-0.02-0.021-0.035-0.039-0.054-0.06c-0.11-0.14-0.202-0.302-0.25-0.457
			c-0.06,0.012-0.2-0.066-0.229-0.188C0.743,24.409,0.769,24.295,0.831,24.278z M3.517,26.836H0.15
			c0.014-0.342,0.133-0.656,0.32-0.917c0.141-0.192,0.322-0.354,0.531-0.473c0.225,0.213,0.525,0.337,0.839,0.337
			s0.607-0.12,0.834-0.334c0.205,0.119,0.385,0.277,0.521,0.47C3.387,26.18,3.504,26.495,3.517,26.836z M19.957,24.194
			c0-1.234-0.65-1.701-1.456-1.701c-0.805,0-1.458,0.467-1.458,1.701v1.609c-0.234,0.309-0.376,0.69-0.376,1.106v0.074h3.667V26.91
			c0-0.416-0.141-0.799-0.377-1.106V24.194L19.957,24.194z M17.497,24.278c0.021-0.008,0.038-0.002,0.06,0.009v-0.124l0.119-0.009
			c0.453,0,0.851-0.19,1.064-0.474c0.156,0.207,0.408,0.36,0.707,0.432v0.174c0.02-0.011,0.038-0.016,0.057-0.009
			c0.062,0.018,0.09,0.131,0.062,0.252c-0.027,0.119-0.167,0.2-0.229,0.187c-0.048,0.154-0.142,0.316-0.257,0.457
			c-0.021,0.021-0.032,0.039-0.051,0.06c-0.021,0.021-0.04,0.042-0.06,0.061c0.08,0.023,0.156,0.054,0.229,0.089
			c-0.19,0.168-0.437,0.258-0.694,0.258c-0.257,0-0.507-0.097-0.699-0.264c0.069-0.029,0.145-0.06,0.222-0.083
			c-0.021-0.019-0.038-0.039-0.06-0.061c-0.018-0.021-0.033-0.039-0.053-0.06c-0.109-0.14-0.201-0.302-0.25-0.457
			c-0.06,0.012-0.201-0.066-0.229-0.188C17.41,24.409,17.436,24.295,17.497,24.278z M20.186,26.836h-3.369
			c0.015-0.342,0.133-0.656,0.322-0.917c0.14-0.192,0.319-0.354,0.528-0.473c0.226,0.213,0.525,0.337,0.839,0.337
			c0.314,0,0.607-0.12,0.834-0.334c0.205,0.119,0.385,0.277,0.522,0.47C20.055,26.18,20.172,26.495,20.186,26.836z M9.678,21.119
			c0-0.956-0.324-1.836-0.865-2.543v-3.694c0-2.833-1.495-3.909-3.344-3.909c-1.85,0-3.348,1.074-3.348,3.909v3.694
			c-0.539,0.708-0.863,1.588-0.863,2.543v0.17h8.42V21.119z M3.163,15.072c0.044-0.015,0.089-0.004,0.132,0.021v-0.285l0.278-0.021
			c1.041,0,1.948-0.437,2.444-1.084c0.361,0.471,0.937,0.829,1.623,0.989v0.4c0.045-0.024,0.088-0.035,0.131-0.021
			c0.143,0.042,0.203,0.302,0.14,0.581c-0.063,0.271-0.385,0.458-0.526,0.43c-0.106,0.353-0.322,0.724-0.588,1.045
			c-0.039,0.05-0.076,0.093-0.117,0.138c-0.043,0.047-0.088,0.095-0.135,0.139c0.186,0.055,0.361,0.122,0.532,0.201
			c-0.442,0.383-1.001,0.59-1.597,0.59c-0.592,0-1.163-0.217-1.606-0.6c0.163-0.071,0.33-0.138,0.505-0.189
			c-0.047-0.043-0.088-0.089-0.132-0.137c-0.04-0.045-0.078-0.092-0.118-0.137c-0.256-0.32-0.466-0.69-0.574-1.052
			c-0.14,0.032-0.463-0.153-0.526-0.428C2.961,15.373,3.021,15.114,3.163,15.072z M1.599,20.951c0.033-0.785,0.304-1.508,0.74-2.106
			c0.32-0.44,0.737-0.812,1.217-1.086c0.517,0.493,1.205,0.775,1.924,0.775c0.723,0,1.396-0.273,1.914-0.766
			c0.473,0.271,0.882,0.638,1.201,1.076c0.437,0.598,0.705,1.319,0.739,2.104L1.599,20.951L1.599,20.951z M22.247,23.414
			l1.649,0.952l-0.147,0.257L22.1,23.67l-1.649,0.952l-0.146-0.257l1.648-0.952v-1.528h0.296L22.247,23.414L22.247,23.414z"/>
	</g>
</g>
<g>
</g>
<g>
</g>
<g>
</g>
<g>
</g>
<g>
</g>
<g>
</g>
<g>
</g>
<g>
</g>
<g>
</g>
<g>
</g>
<g>
</g>
<g>
</g>
<g>
</g>
<g>
</g>
<g>
</g>
</svg>
