<?xml version="1.0" encoding="iso-8859-1"?>
<!-- Generator: Adobe Illustrator 16.0.0, SVG Export Plug-In . SVG Version: 6.00 Build 0)  -->
<!DOCTYPE svg PUBLIC "-//W3C//DTD SVG 1.1//EN" "http://www.w3.org/Graphics/SVG/1.1/DTD/svg11.dtd">
<svg version="1.1" id="Capa_1" xmlns="http://www.w3.org/2000/svg" xmlns:xlink="http://www.w3.org/1999/xlink" x="0px" y="0px"
	 width="32.745px" height="32.745px" viewBox="0 0 32.745 32.745" style="enable-background:new 0 0 32.745 32.745;"
	 xml:space="preserve">
<g>
	<g>
		<path d="M22.991,27.916H12.289l3.875-3.873l-1.213-1.211h1.745l-2.185-2.188C19.393,21.127,22.991,22.985,22.991,27.916z
			 M8.037,22.832H6.295l2.184-2.188C3.597,21.126,0,22.985,0,27.915h10.701l-3.874-3.873L8.037,22.832z M15.851,12.774
			c-0.16,2.172-1.086,4.706-2.415,6.062h5.14V13.1c0-5.99-3.169-8.271-7.08-8.271s-7.08,2.278-7.08,8.271v5.736h5.139
			c-1.286-1.312-2.2-3.732-2.402-5.855l0.051-0.002c2.21,0,4.122-0.916,5.171-2.268C13.143,11.702,14.373,12.442,15.851,12.774z
			 M27.13,8.284v5.727h5.615C32.518,10.987,30.139,8.565,27.13,8.284z M26.073,14.95V8.495c-3.384,0.064-6.109,2.822-6.109,6.221
			c0,3.438,2.787,6.227,6.228,6.227c3.359,0,6.09-2.66,6.215-5.991L26.073,14.95L26.073,14.95z"/>
	</g>
</g>
<g>
</g>
<g>
</g>
<g>
</g>
<g>
</g>
<g>
</g>
<g>
</g>
<g>
</g>
<g>
</g>
<g>
</g>
<g>
</g>
<g>
</g>
<g>
</g>
<g>
</g>
<g>
</g>
<g>
</g>
</svg>
