<?xml version="1.0" encoding="iso-8859-1"?>
<!-- Generator: Adobe Illustrator 16.0.0, SVG Export Plug-In . SVG Version: 6.00 Build 0)  -->
<!DOCTYPE svg PUBLIC "-//W3C//DTD SVG 1.1//EN" "http://www.w3.org/Graphics/SVG/1.1/DTD/svg11.dtd">
<svg version="1.1" id="Capa_1" xmlns="http://www.w3.org/2000/svg" xmlns:xlink="http://www.w3.org/1999/xlink" x="0px" y="0px"
	 width="37.751px" height="37.751px" viewBox="0 0 37.751 37.751" style="enable-background:new 0 0 37.751 37.751;"
	 xml:space="preserve">
<g>
	<g>
		<path d="M13.224,21.229l-1.96-0.413l-0.404-0.826c-0.021-0.041-0.055-0.071-0.095-0.095c0.355-0.455,0.639-0.994,0.843-1.537
			c0.351-0.126,0.703-0.438,0.804-0.845c0.136-0.54-0.006-1.021-0.341-1.23v-0.381c0.306-0.92,0.465-2.425-0.922-3.235
			c-0.621-0.363-1.137-0.387-1.525-0.259c-0.061-0.158,0.12-0.386,0.12-0.386c-0.319-0.012-0.488,0.16-0.557,0.255
			c-0.427-0.196-0.985-0.279-1.701-0.13c-2.293,0.481-2.586,3.485-2.167,4.144c-0.327,0.212-0.466,0.688-0.332,1.222
			c0.102,0.408,0.457,0.722,0.808,0.848c0.202,0.542,0.483,1.082,0.836,1.537C6.593,19.92,6.559,19.95,6.54,19.99l-0.404,0.826
			l-1.961,0.412c-0.567,0.121-1.09,0.66-1.191,1.231l-0.38,2.134c-0.053,0.298,0.018,0.581,0.199,0.797
			c0.182,0.216,0.448,0.335,0.75,0.335h10.298c0.302,0,0.568-0.119,0.75-0.335c0.181-0.216,0.251-0.5,0.199-0.797l-0.38-2.134
			C14.315,21.889,13.791,21.349,13.224,21.229z M10.831,20.953l0.036,0.072l-0.207,0.121l-1.376,0.797l-0.305-0.626l0.666-0.385
			l0.291-0.169l0.292-0.167l0.335-0.194l0.145,0.297L10.831,20.953z M6.158,17.93c-0.186,0.04-0.616-0.193-0.702-0.535
			c-0.087-0.347-0.004-0.671,0.185-0.725c0.056-0.015,0.114-0.002,0.172,0.028v-0.521c0.001-0.001,0.002-0.001,0.003-0.003
			c-0.001-0.006-0.002-0.017-0.003-0.024v-0.179c0.047-0.439,0.462-1.274,2.753-0.524c0.788,0.259,1.275-0.15,1.521-0.694
			c0.778,0.087,1.297,0.97,1.496,1.514v0.431c0.029-0.015,0.058-0.026,0.087-0.031c-0.001,0.003,0,0.011-0.002,0.014
			c0.006,0.008,0.017,0.002,0.033-0.012c0.018,0,0.037-0.002,0.054,0.001c0.189,0.054,0.272,0.378,0.185,0.725
			c-0.085,0.337-0.512,0.571-0.697,0.536c-0.294,0.895-0.934,2.083-1.861,2.499c-0.213,0.095-0.441,0.148-0.684,0.148
			c-0.246,0-0.476-0.055-0.691-0.147C7.081,20.021,6.454,18.848,6.158,17.93z M6.566,20.953l0.125-0.254l0.145-0.297l0.335,0.194
			l0.291,0.167l0.291,0.169l0.666,0.385l-0.305,0.626l-1.376-0.797L6.53,21.025L6.566,20.953z M14.252,25.102
			c-0.094,0.114-0.238,0.175-0.405,0.175H11.85v-1.157c0-0.123-0.1-0.227-0.224-0.227c-0.125,0-0.225,0.104-0.225,0.227v1.157H5.995
			v-1.157c0-0.123-0.101-0.227-0.225-0.227s-0.225,0.104-0.225,0.227v1.157H3.549c-0.167,0-0.311-0.061-0.405-0.175
			c-0.095-0.111-0.131-0.265-0.102-0.429l0.38-2.134c0.069-0.392,0.455-0.789,0.842-0.87l1.825-0.386
			c0.011,0.01,0.02,0.02,0.032,0.026l1.973,1.144c0.035,0.021,0.074,0.028,0.113,0.028c0.022,0,0.044-0.003,0.065-0.009
			c0.06-0.019,0.109-0.061,0.136-0.117l0.288-0.588l0.288,0.588c0.027,0.058,0.076,0.1,0.136,0.117
			c0.022,0.006,0.044,0.009,0.066,0.009c0.039,0,0.079-0.009,0.113-0.028l1.973-1.144c0.013-0.008,0.021-0.018,0.033-0.026
			l1.825,0.386c0.387,0.081,0.773,0.479,0.842,0.87l0.38,2.134C14.383,24.837,14.347,24.989,14.252,25.102z M23.896,13.704h10.298
			c0.302,0,0.568-0.119,0.75-0.335c0.181-0.216,0.252-0.499,0.199-0.797l-0.38-2.133c-0.103-0.571-0.625-1.112-1.192-1.231
			l-1.96-0.414l-0.404-0.827c-0.021-0.041-0.055-0.072-0.095-0.093c0.354-0.455,0.639-0.994,0.843-1.537
			c0.353-0.126,0.703-0.438,0.805-0.845c0.137-0.54-0.007-1.021-0.342-1.23V3.88c0.308-0.92,0.465-2.424-0.922-3.235
			c-0.621-0.363-1.137-0.387-1.523-0.259C29.91,0.228,30.091,0,30.091,0c-0.317-0.012-0.486,0.16-0.557,0.255
			c-0.427-0.196-0.985-0.279-1.701-0.13C25.54,0.606,25.247,3.61,25.666,4.27c-0.327,0.212-0.466,0.688-0.332,1.222
			c0.104,0.408,0.457,0.722,0.81,0.848c0.201,0.542,0.48,1.082,0.836,1.537c-0.038,0.022-0.072,0.051-0.092,0.092l-0.404,0.827
			l-1.961,0.414c-0.566,0.121-1.09,0.66-1.191,1.231l-0.38,2.133c-0.053,0.298,0.02,0.582,0.199,0.797
			C23.328,13.584,23.597,13.704,23.896,13.704z M31.18,8.931l0.034,0.074l-0.208,0.121L29.63,9.922l-0.305-0.626l0.666-0.384
			l0.291-0.169l0.291-0.167l0.335-0.194l0.146,0.295L31.18,8.931z M26.505,5.908c-0.186,0.04-0.614-0.193-0.7-0.534
			c-0.089-0.348-0.006-0.672,0.185-0.725c0.056-0.015,0.114-0.002,0.172,0.027v-0.52c0.001-0.001,0.002-0.001,0.003-0.003
			c-0.002-0.006-0.002-0.017-0.003-0.024V3.95c0.047-0.439,0.462-1.274,2.753-0.524c0.789,0.259,1.275-0.15,1.521-0.694
			c0.776,0.087,1.297,0.97,1.496,1.513v0.431c0.027-0.015,0.058-0.026,0.087-0.031c-0.001,0.003,0,0.011-0.002,0.014
			c0.006,0.007,0.017,0.002,0.031-0.012c0.02-0.001,0.037-0.003,0.056,0.001c0.188,0.053,0.271,0.377,0.185,0.725
			c-0.085,0.337-0.512,0.57-0.697,0.535c-0.294,0.895-0.934,2.084-1.859,2.499C29.519,8.5,29.29,8.555,29.046,8.555
			c-0.246,0-0.476-0.054-0.689-0.147C27.43,7.999,26.802,6.826,26.505,5.908z M26.913,8.931l0.125-0.254l0.146-0.295l0.335,0.194
			l0.292,0.167l0.291,0.169l0.666,0.384l-0.307,0.626l-1.376-0.797l-0.207-0.121L26.913,8.931z M23.771,10.517
			c0.067-0.39,0.455-0.789,0.842-0.87l1.825-0.386c0.011,0.01,0.02,0.021,0.033,0.028l1.972,1.142
			c0.035,0.021,0.074,0.031,0.113,0.031c0.021,0,0.044-0.003,0.064-0.01c0.062-0.018,0.109-0.061,0.136-0.116l0.288-0.588
			l0.288,0.588c0.027,0.056,0.076,0.098,0.138,0.116c0.021,0.006,0.043,0.01,0.063,0.01c0.039,0,0.079-0.01,0.113-0.031l1.973-1.142
			c0.013-0.007,0.021-0.018,0.032-0.028l1.825,0.386c0.387,0.081,0.771,0.48,0.842,0.87l0.38,2.134
			c0.029,0.165-0.007,0.317-0.102,0.429c-0.096,0.114-0.238,0.175-0.405,0.175h-1.996v-1.158c0-0.123-0.101-0.225-0.225-0.225
			c-0.125,0-0.227,0.102-0.227,0.225v1.158h-5.406v-1.158c0-0.123-0.101-0.225-0.225-0.225s-0.224,0.102-0.224,0.225v1.158h-1.995
			c-0.167,0-0.312-0.061-0.405-0.175c-0.095-0.112-0.13-0.265-0.102-0.429L23.771,10.517z M33.571,33.251l-1.96-0.413l-0.404-0.828
			c-0.021-0.041-0.055-0.071-0.095-0.093c0.354-0.454,0.639-0.994,0.843-1.537c0.353-0.126,0.703-0.438,0.805-0.845
			c0.137-0.54-0.007-1.021-0.342-1.23v-0.381c0.308-0.92,0.465-2.424-0.922-3.234c-0.621-0.361-1.137-0.387-1.523-0.259
			c-0.062-0.158,0.118-0.386,0.118-0.386c-0.317-0.012-0.486,0.16-0.557,0.255c-0.427-0.196-0.985-0.279-1.701-0.13
			c-2.293,0.479-2.586,3.485-2.167,4.144c-0.327,0.212-0.466,0.688-0.332,1.224c0.104,0.406,0.457,0.723,0.81,0.848
			c0.201,0.542,0.48,1.082,0.836,1.537c-0.038,0.021-0.072,0.051-0.092,0.092l-0.404,0.828l-1.961,0.413
			c-0.566,0.121-1.09,0.66-1.191,1.229l-0.38,2.135c-0.053,0.298,0.02,0.582,0.199,0.797c0.182,0.217,0.448,0.335,0.75,0.335h10.298
			c0.302,0,0.568-0.119,0.75-0.335c0.181-0.216,0.252-0.499,0.199-0.797l-0.38-2.135C34.662,33.911,34.14,33.371,33.571,33.251z
			 M31.18,32.975l0.034,0.074l-0.208,0.121l-1.376,0.797l-0.305-0.626l0.666-0.385l0.291-0.169l0.291-0.168l0.335-0.194l0.146,0.295
			L31.18,32.975z M26.505,29.952c-0.186,0.04-0.614-0.193-0.7-0.534c-0.089-0.35-0.006-0.671,0.185-0.727
			c0.056-0.015,0.114-0.002,0.172,0.028V28.2c0.001-0.001,0.002-0.001,0.003-0.003c-0.002-0.008-0.002-0.019-0.003-0.024v-0.178
			c0.047-0.439,0.462-1.275,2.753-0.524c0.789,0.259,1.275-0.15,1.521-0.694c0.776,0.089,1.297,0.972,1.496,1.516v0.431
			c0.027-0.015,0.058-0.025,0.087-0.032c-0.001,0.003,0,0.013-0.002,0.016c0.006,0.007,0.017,0.002,0.031-0.014
			c0.02-0.001,0.037-0.003,0.056,0.001c0.188,0.056,0.271,0.377,0.185,0.727c-0.085,0.337-0.512,0.571-0.697,0.535
			c-0.294,0.895-0.934,2.084-1.859,2.499c-0.213,0.094-0.441,0.146-0.686,0.146c-0.246,0-0.476-0.054-0.689-0.146
			C27.43,32.043,26.802,30.87,26.505,29.952z M26.913,32.975l0.125-0.254l0.146-0.295l0.335,0.194l0.292,0.168l0.291,0.169
			l0.666,0.385l-0.307,0.626l-1.376-0.797l-0.207-0.121L26.913,32.975z M34.601,37.124c-0.096,0.113-0.238,0.175-0.405,0.175h-1.996
			v-1.158c0-0.123-0.101-0.225-0.225-0.225c-0.125,0-0.227,0.102-0.227,0.225V37.3h-5.406v-1.159c0-0.123-0.101-0.225-0.225-0.225
			s-0.224,0.102-0.224,0.225V37.3h-1.997c-0.167,0-0.312-0.061-0.405-0.175c-0.095-0.113-0.13-0.267-0.102-0.431l0.38-2.134
			c0.067-0.39,0.455-0.788,0.842-0.87l1.825-0.385c0.011,0.01,0.02,0.021,0.033,0.027l1.972,1.142
			c0.035,0.021,0.074,0.031,0.113,0.031c0.021,0,0.044-0.003,0.064-0.009c0.062-0.021,0.109-0.062,0.136-0.117l0.288-0.588
			l0.288,0.588c0.027,0.056,0.076,0.098,0.136,0.117c0.021,0.006,0.045,0.009,0.065,0.009c0.039,0,0.079-0.009,0.113-0.031
			l1.973-1.142c0.013-0.007,0.021-0.02,0.032-0.027l1.825,0.385c0.387,0.082,0.771,0.48,0.842,0.87l0.38,2.134
			C34.73,36.857,34.694,37.012,34.601,37.124z M17.268,6.371h4.064v0.871h-3.193v24.521h3.193v0.871h-4.064V20.083h-2.176v-0.871
			h2.176V6.371z"/>
	</g>
</g>
<g>
</g>
<g>
</g>
<g>
</g>
<g>
</g>
<g>
</g>
<g>
</g>
<g>
</g>
<g>
</g>
<g>
</g>
<g>
</g>
<g>
</g>
<g>
</g>
<g>
</g>
<g>
</g>
<g>
</g>
</svg>
