<?xml version="1.0" encoding="iso-8859-1"?>
<!-- Generator: Adobe Illustrator 16.0.0, SVG Export Plug-In . SVG Version: 6.00 Build 0)  -->
<!DOCTYPE svg PUBLIC "-//W3C//DTD SVG 1.1//EN" "http://www.w3.org/Graphics/SVG/1.1/DTD/svg11.dtd">
<svg version="1.1" id="Capa_1" xmlns="http://www.w3.org/2000/svg" xmlns:xlink="http://www.w3.org/1999/xlink" x="0px" y="0px"
	 width="29.251px" height="29.251px" viewBox="0 0 29.251 29.251" style="enable-background:new 0 0 29.251 29.251;"
	 xml:space="preserve">
<g>
	<g>
		<path d="M22.646,14.533c0-6.512-3.442-8.98-7.688-8.98c-4.246,0-7.688,2.469-7.688,8.98v8.484
			c-1.236,1.625-1.981,3.648-1.981,5.847v0.387h19.34v-0.387c0-2.197-0.746-4.222-1.981-5.847v-8.484H22.646z M9.667,14.963
			c0.1-0.028,0.2-0.005,0.3,0.051V14.36l0.64-0.047c2.39,0,4.473-0.999,5.615-2.488c0.828,1.08,2.152,1.903,3.73,2.272v0.918
			c0.1-0.058,0.198-0.081,0.299-0.053c0.328,0.1,0.471,0.697,0.317,1.337c-0.146,0.625-0.885,1.054-1.207,0.988
			c-0.248,0.808-0.743,1.664-1.353,2.403c-0.09,0.105-0.176,0.211-0.268,0.312c-0.104,0.111-0.203,0.217-0.309,0.318
			c0.748,0.219,1.449,0.531,2.102,0.926l-2.043,2.387l-1.547,1.811l-0.396-1.811l-0.196-0.898l0.74-0.739l-0.462-0.461l-0.675-0.675
			l-0.682,0.679l-0.455,0.457l0.74,0.739l-0.197,0.898l-0.375,1.719l-1.514-1.719l-2.101-2.385c0.646-0.391,1.342-0.705,2.078-0.922
			c-0.103-0.102-0.202-0.207-0.302-0.318c-0.09-0.1-0.18-0.205-0.266-0.312c-0.595-0.732-1.076-1.589-1.326-2.412
			c-0.32,0.075-1.066-0.356-1.215-0.986C9.195,15.662,9.34,15.062,9.667,14.963z M23.843,28.477H6.073
			c0.077-1.807,0.696-3.471,1.696-4.84c0.545-0.748,1.207-1.404,1.953-1.949l1.719,1.949l3.291,3.738
			c0.076,0.086,0.184,0.133,0.293,0.133c0.002,0,0.002,0,0.002,0c0.115-0.002,0.222-0.051,0.293-0.137l3.197-3.736l1.668-1.951
			c0.752,0.547,1.414,1.203,1.959,1.951C23.146,25.006,23.767,26.67,23.843,28.477z M6.019,19.242L5.138,23.34l-4.104-0.871
			l0.202-0.955l2.355,0.5c-1.771-2.371-2.738-5.256-2.738-8.24C0.853,6.179,7.03,0,14.625,0s13.773,6.179,13.773,13.774
			c0,3.58-1.364,6.971-3.849,9.549l-0.702-0.679c2.307-2.395,3.573-5.545,3.573-8.871c0-7.057-5.739-12.797-12.797-12.797
			S1.826,6.718,1.826,13.774c0,2.848,0.953,5.592,2.684,7.828l0.553-2.563L6.019,19.242z"/>
	</g>
</g>
<g>
</g>
<g>
</g>
<g>
</g>
<g>
</g>
<g>
</g>
<g>
</g>
<g>
</g>
<g>
</g>
<g>
</g>
<g>
</g>
<g>
</g>
<g>
</g>
<g>
</g>
<g>
</g>
<g>
</g>
</svg>
