<?xml version="1.0" encoding="iso-8859-1"?>
<!-- Generator: Adobe Illustrator 16.0.0, SVG Export Plug-In . SVG Version: 6.00 Build 0)  -->
<!DOCTYPE svg PUBLIC "-//W3C//DTD SVG 1.1//EN" "http://www.w3.org/Graphics/SVG/1.1/DTD/svg11.dtd">
<svg version="1.1" id="Capa_1" xmlns="http://www.w3.org/2000/svg" xmlns:xlink="http://www.w3.org/1999/xlink" x="0px" y="0px"
	 width="30.502px" height="30.502px" viewBox="0 0 30.502 30.502" style="enable-background:new 0 0 30.502 30.502;"
	 xml:space="preserve">
<g>
	<path d="M29.255,27.929l-0.865-4.881c-0.231-1.301-1.427-2.53-2.717-2.801l-0.445-0.095v-9.025C25.228,3.063,20.962,0,15.704,0
		c-5.26,0-9.523,3.062-9.523,11.127v7.023c-0.256-0.049-0.518-0.08-0.787-0.08c-2.308,0-4.186,1.878-4.186,4.187
		c0,0.9,0.293,1.731,0.779,2.416l-0.579,3.256c-0.12,0.677,0.04,1.318,0.45,1.81c0.412,0.492,1.018,0.764,1.703,0.764h23.542
		c0.688,0,1.293-0.271,1.703-0.764C29.216,29.247,29.376,28.605,29.255,27.929z M28.038,29.098c-0.221,0.26-0.553,0.403-0.938,0.403
		h-4.576v-1.172h5.742C28.272,28.618,28.21,28.891,28.038,29.098z M3.561,29.501c-0.385,0-0.718-0.146-0.936-0.403
		c-0.173-0.207-0.234-0.479-0.23-0.769h5.744v1.172H3.561z M9.139,29.501v-2.86c0-0.275-0.225-0.5-0.5-0.5
		c-0.277,0-0.5,0.225-0.5,0.5v0.688H2.53l0.316-1.775c0.707,0.548,1.584,0.888,2.547,0.888c2.256,0,4.088-1.797,4.17-4.031
		c0.002-0.053,0.016-0.102,0.016-0.152c0-0.67-0.174-1.297-0.456-1.857l0.644-0.137c1.096,1.086,2.478,1.834,3.973,2.146
		c0.531,0.111,1.076,0.17,1.628,0.17c0.562,0,1.113-0.059,1.648-0.17c1.486-0.311,2.842-1.044,3.944-2.135l4.269,0.899l0.24,0.052
		c0.889,0.188,1.775,1.102,1.938,1.998l0.729,4.104h-5.607v-0.688c0-0.275-0.225-0.5-0.5-0.5c-0.276,0-0.5,0.225-0.5,0.5v2.86H9.139
		z M5.393,19.07c0.272,0,0.533,0.046,0.787,0.109c0.428,0.109,0.816,0.307,1.156,0.57c0.16,0.125,0.309,0.264,0.441,0.418
		c0.121,0.137,0.231,0.283,0.328,0.441c0.293,0.479,0.472,1.041,0.472,1.645c0,0.053-0.013,0.102-0.017,0.152
		c-0.08,1.684-1.465,3.031-3.17,3.031c-0.929,0-1.759-0.405-2.341-1.041c-0.157-0.172-0.291-0.359-0.407-0.562
		c-0.154-0.268-0.276-0.555-0.349-0.859c-0.054-0.231-0.089-0.473-0.089-0.721C2.206,20.501,3.635,19.07,5.393,19.07z M9.02,11.665
		c0.121-0.034,0.246-0.006,0.369,0.062v-1.001h7.483l0.625-3.74v3.89h4.268v0.853c0.123-0.069,0.248-0.098,0.367-0.063
		c0.405,0.121,0.582,0.863,0.396,1.656c-0.182,0.771-1.098,1.305-1.494,1.225c-0.452,1.464-1.555,3.057-2.789,4.135
		c-0.166,0.146-0.335,0.278-0.506,0.403c-0.194,0.146-0.391,0.276-0.588,0.39c0.017,0.004,0.035,0.006,0.051,0.01l2.55,0.537
		c-1.235,1.008-2.761,1.561-4.386,1.561c-1.607,0-3.158-0.568-4.393-1.572l2.489-0.523c0.122-0.026,0.259-0.049,0.401-0.069
		c-0.198-0.117-0.396-0.252-0.594-0.399c-0.166-0.127-0.332-0.263-0.494-0.408c-1.18-1.062-2.207-2.603-2.647-4.061
		c-0.397,0.092-1.321-0.443-1.505-1.223C8.438,12.527,8.611,11.786,9.02,11.665z M3.413,22.755H2.9v-0.076v-0.424v-0.5h0.572h0.702
		h0.718v-0.437v-0.522v-0.521v-0.512h0.5h0.5v0.291v0.512v0.511v0.678h0.285h1.704v0.5v0.153v0.347H5.892v1.992h-0.5h-0.5v-1.992
		H3.413z"/>
</g>
<g>
</g>
<g>
</g>
<g>
</g>
<g>
</g>
<g>
</g>
<g>
</g>
<g>
</g>
<g>
</g>
<g>
</g>
<g>
</g>
<g>
</g>
<g>
</g>
<g>
</g>
<g>
</g>
<g>
</g>
</svg>
