<?xml version="1.0" encoding="iso-8859-1"?>
<!-- Generator: Adobe Illustrator 16.0.0, SVG Export Plug-In . SVG Version: 6.00 Build 0)  -->
<!DOCTYPE svg PUBLIC "-//W3C//DTD SVG 1.1//EN" "http://www.w3.org/Graphics/SVG/1.1/DTD/svg11.dtd">
<svg version="1.1" id="Capa_1" xmlns="http://www.w3.org/2000/svg" xmlns:xlink="http://www.w3.org/1999/xlink" x="0px" y="0px"
	 width="26.311px" height="26.31px" viewBox="0 0 26.311 26.31" style="enable-background:new 0 0 26.311 26.31;"
	 xml:space="preserve">
<g>
	<path d="M9.471,20.425H7.508l2.459-2.459c-1.188,0.116-2.301,0.312-3.326,0.592c-0.629-1.036-1.758-1.735-3.057-1.735
		C1.607,16.823,0,18.429,0,20.405c0,0.972,0.391,1.851,1.02,2.496c-0.385,0.924-0.602,1.996-0.602,3.254h12.051l-4.362-4.362
		L9.471,20.425z M3.587,17.821c0.848,0,1.594,0.416,2.064,1.047c0.32,0.433,0.52,0.959,0.52,1.537c0,1.424-1.16,2.582-2.584,2.582
		c-0.854,0-1.604-0.42-2.074-1.058c-0.316-0.43-0.51-0.952-0.51-1.524C1.003,18.981,2.161,17.821,3.587,17.821z M26.311,26.155
		H14.26l4.361-4.362l-1.363-1.365h1.965l-2.461-2.461C22.262,18.507,26.311,20.599,26.311,26.155z M14.356,6.78
		c-1.182,1.521-3.334,2.553-5.824,2.553L8.475,9.337c0.227,2.389,1.256,5.109,2.705,6.59H5.391V9.471
		c0-6.751,3.57-9.315,7.975-9.315c4.402,0,7.975,2.564,7.975,9.315v6.457h-5.789c1.498-1.529,2.541-4.383,2.72-6.829
		C16.607,8.724,15.221,7.891,14.356,6.78z M1.503,20.905v-0.5v-0.5h2.035h2.133v0.5v0.5H2.328H1.503z"/>
</g>
<g>
</g>
<g>
</g>
<g>
</g>
<g>
</g>
<g>
</g>
<g>
</g>
<g>
</g>
<g>
</g>
<g>
</g>
<g>
</g>
<g>
</g>
<g>
</g>
<g>
</g>
<g>
</g>
<g>
</g>
</svg>
