<?xml version="1.0" encoding="iso-8859-1"?>
<!-- Generator: Adobe Illustrator 16.0.0, SVG Export Plug-In . SVG Version: 6.00 Build 0)  -->
<!DOCTYPE svg PUBLIC "-//W3C//DTD SVG 1.1//EN" "http://www.w3.org/Graphics/SVG/1.1/DTD/svg11.dtd">
<svg version="1.1" id="Capa_1" xmlns="http://www.w3.org/2000/svg" xmlns:xlink="http://www.w3.org/1999/xlink" x="0px" y="0px"
	 width="30.037px" height="30.037px" viewBox="0 0 30.037 30.037" style="enable-background:new 0 0 30.037 30.037;"
	 xml:space="preserve">
<g>
	<g>
		<path d="M19.754,5.207c0-0.359,0.291-0.65,0.649-0.65c1.467,0,2.658,1.192,2.658,2.657c0,0.36-0.291,0.651-0.649,0.651
			c-0.36,0-0.651-0.291-0.651-0.651c0-0.747-0.608-1.355-1.355-1.355C20.045,5.859,19.754,5.568,19.754,5.207z M24.04,7.053
			c0,0.359,0.291,0.65,0.649,0.65c0.36,0,0.651-0.291,0.651-0.65c0-2.603-2.117-4.72-4.719-4.72c-0.36,0-0.651,0.291-0.651,0.651
			c0,0.359,0.291,0.65,0.651,0.65C22.506,3.635,24.04,5.167,24.04,7.053z M25.43,27.915c0.101,0.558-0.032,1.088-0.372,1.493
			c-0.34,0.404-0.839,0.629-1.407,0.629H4.228c-0.566,0-1.065-0.225-1.405-0.628c-0.339-0.405-0.472-0.938-0.373-1.494l0.717-4.026
			c0.19-1.072,1.174-2.088,2.239-2.312l0.675-0.145v-7.38c0-6.654,3.519-9.182,7.859-9.182c4.338,0,7.859,2.527,7.859,9.182v7.382
			l0.674,0.143c1.065,0.225,2.049,1.236,2.24,2.312L25.43,27.915z M8.205,15.863c0.151,0.644,0.913,1.084,1.241,1.009
			c0.369,1.22,1.236,2.507,2.226,3.386c0.136,0.12,0.273,0.23,0.413,0.334c0.162,0.121,0.324,0.23,0.488,0.326
			c-0.058,0.01-0.121,0.02-0.173,0.029L10,21.453l1.909,1.908l2.034,2.035l2.034-2.035l1.909-1.908l-2.4-0.506
			c-0.061-0.014-0.132-0.023-0.2-0.034c0.163-0.097,0.324-0.207,0.485-0.327c0.14-0.104,0.276-0.215,0.412-0.335
			c1.001-0.89,1.895-2.185,2.261-3.377c0.328,0.065,1.083-0.374,1.234-1.011c0.154-0.654,0.007-1.267-0.327-1.366
			c-0.099-0.028-0.203-0.005-0.304,0.052v-0.703H15.18v-3.209l-0.516,3.086H8.837v0.826c-0.103-0.057-0.205-0.08-0.305-0.052
			C8.195,14.596,8.051,15.207,8.205,15.863z M24.619,28.061l-0.718-4.026c-0.132-0.739-0.861-1.494-1.598-1.647L21.8,22.279
			l-2.952-0.622l-1.706,1.706l-2.91,2.91c-0.077,0.076-0.182,0.119-0.292,0.119s-0.214-0.043-0.292-0.119l-2.91-2.91l-1.706-1.706
			L6.08,22.279l-0.505,0.107c-0.734,0.153-1.465,0.908-1.596,1.646l-0.717,4.027c-0.056,0.312,0.013,0.604,0.193,0.818
			c0.18,0.217,0.455,0.333,0.772,0.333h3.777v-2.358c0-0.229,0.185-0.412,0.413-0.412s0.413,0.185,0.413,0.412v2.358h10.22v-2.358
			c0-0.229,0.185-0.412,0.413-0.412c0.228,0,0.413,0.185,0.413,0.412v2.358h3.774c0.319,0,0.596-0.116,0.774-0.333
			C24.605,28.665,24.674,28.373,24.619,28.061z M20.676,0c-0.36,0-0.651,0.291-0.651,0.65c0,0.36,0.291,0.651,0.651,0.651
			c3.11,0,5.641,2.53,5.641,5.641c0,0.36,0.291,0.651,0.651,0.651s0.651-0.291,0.651-0.651C27.62,3.116,24.504,0,20.676,0z"/>
	</g>
</g>
<g>
</g>
<g>
</g>
<g>
</g>
<g>
</g>
<g>
</g>
<g>
</g>
<g>
</g>
<g>
</g>
<g>
</g>
<g>
</g>
<g>
</g>
<g>
</g>
<g>
</g>
<g>
</g>
<g>
</g>
</svg>
