<?xml version="1.0" encoding="iso-8859-1"?>
<!-- Generator: Adobe Illustrator 16.0.0, SVG Export Plug-In . SVG Version: 6.00 Build 0)  -->
<!DOCTYPE svg PUBLIC "-//W3C//DTD SVG 1.1//EN" "http://www.w3.org/Graphics/SVG/1.1/DTD/svg11.dtd">
<svg version="1.1" id="Capa_1" xmlns="http://www.w3.org/2000/svg" xmlns:xlink="http://www.w3.org/1999/xlink" x="0px" y="0px"
	 width="27.14px" height="27.14px" viewBox="0 0 27.14 27.14" style="enable-background:new 0 0 27.14 27.14;" xml:space="preserve"
	>
<g>
	<g>
		<path d="M20.045,15.388l0.137,0.279l0.041,0.082l-0.229,0.133l-1.514,0.875l-0.336-0.687l0.731-0.424l0.317-0.187l0.32-0.187
			l0.369-0.213L20.045,15.388z M17.076,15.093c0.236,0.104,0.49,0.162,0.762,0.162c0.268,0,0.518-0.06,0.752-0.164
			c1.02-0.455,1.723-1.764,2.045-2.748c0.205,0.039,0.674-0.217,0.768-0.588c0.097-0.383,0.004-0.737-0.203-0.797
			c-0.02-0.003-0.039,0-0.061,0c-0.018,0.014-0.029,0.021-0.035,0.012c0-0.002,0-0.012,0.002-0.015
			c-0.033,0.005-0.063,0.017-0.098,0.033v-0.474c-0.219-0.598-0.789-1.568-1.645-1.664c-0.271,0.598-0.808,1.048-1.672,0.764
			c-2.521-0.824-2.976,0.092-3.027,0.576v0.197c0.002,0.008,0.002,0.02,0.004,0.023c-0.002,0.004-0.002,0.004-0.004,0.006v0.57
			c-0.063-0.031-0.128-0.048-0.188-0.029c-0.208,0.059-0.3,0.413-0.204,0.797c0.094,0.375,0.568,0.631,0.771,0.588
			C15.369,13.353,16.058,14.645,17.076,15.093z M17.193,16.758l0.336-0.688l-0.73-0.424l-0.32-0.187l-0.32-0.187l-0.368-0.213
			l-0.16,0.326l-0.138,0.279l-0.039,0.08l0.229,0.133L17.193,16.758z M26.47,4.398v1.344v15.657v1.344
			c0,2.428-1.976,4.397-4.399,4.397h-17c-2.426,0-4.4-1.973-4.4-4.397v-17c0-1.65,0.925-3.074,2.274-3.828
			C3.738,0.76,5.066,0,6.57,0h2.6h3.9h9C24.496,0,26.47,1.97,26.47,4.398z M11.132,19.672c-0.059,0.328,0.019,0.641,0.218,0.879
			c0.2,0.236,0.492,0.367,0.825,0.367h11.322c0.331,0,0.625-0.131,0.825-0.367c0.199-0.238,0.274-0.551,0.219-0.879l-0.418-2.348
			c-0.111-0.625-0.688-1.221-1.311-1.353l-2.156-0.454l-0.443-0.91c-0.021-0.045-0.061-0.078-0.104-0.103
			c0.391-0.502,0.701-1.094,0.926-1.69c0.387-0.14,0.772-0.479,0.885-0.929c0.148-0.594-0.008-1.123-0.375-1.354v-0.419
			c0.336-1.012,0.512-2.666-1.014-3.558c-0.685-0.397-1.25-0.426-1.678-0.284c-0.066-0.175,0.133-0.425,0.133-0.425
			c-0.353-0.012-0.537,0.177-0.613,0.281c-0.469-0.217-1.083-0.309-1.869-0.145c-2.522,0.527-2.845,3.832-2.384,4.555
			c-0.36,0.234-0.513,0.76-0.366,1.346c0.112,0.449,0.503,0.793,0.888,0.932c0.222,0.598,0.531,1.189,0.919,1.691
			c-0.041,0.021-0.078,0.055-0.101,0.1l-0.445,0.908L12.86,15.97c-0.624,0.136-1.199,0.728-1.31,1.354L11.132,19.672z M2.97,21.398
			c0,0.186,0.028,0.362,0.055,0.541l1.348-0.396c-0.004-0.049-0.015-0.096-0.015-0.146c0-1.064,0.866-1.931,1.931-1.931
			c1.065,0,1.931,0.864,1.931,1.931c0,1.065-0.866,1.932-1.931,1.932c-0.733,0-1.364-0.414-1.691-1.018l-1.371,0.401
			c0.527,1.334,1.823,2.284,3.343,2.284h2.6V2.14V1.742V1.344V0.799h-2.6c-0.726,0-1.4,0.221-1.966,0.592
			c-0.229,0.15-0.438,0.326-0.626,0.522c-0.173,0.181-0.324,0.38-0.457,0.595C3.178,3.059,2.97,3.702,2.97,4.4v1.182l1.402-0.411
			C4.368,5.122,4.357,5.075,4.357,5.025c0-1.065,0.866-1.931,1.931-1.931c1.065,0,1.931,0.865,1.931,1.931S7.353,6.956,6.288,6.956
			c-0.733,0-1.364-0.414-1.691-1.018L2.969,6.417v4.415l1.402-0.411c-0.004-0.049-0.015-0.096-0.015-0.146
			c0-1.065,0.866-1.931,1.931-1.931c1.065,0,1.931,0.865,1.931,1.931s-0.866,1.931-1.931,1.931c-0.733,0-1.364-0.414-1.691-1.018
			l-1.628,0.479v4.665L4.37,15.92c-0.004-0.049-0.015-0.096-0.015-0.146c0-1.064,0.866-1.931,1.931-1.931s1.931,0.865,1.931,1.931
			c0,1.066-0.866,1.932-1.931,1.932c-0.733,0-1.364-0.414-1.691-1.018l-1.628,0.479v4.232H2.97z M6.402,16.156l-0.996,0.293
			c0.207,0.271,0.518,0.455,0.883,0.455c0.624,0,1.131-0.508,1.131-1.131c0-0.625-0.508-1.134-1.131-1.134
			c-0.591,0-1.064,0.464-1.113,1.041l1-0.293L6.402,16.156z M6.402,10.657l-0.996,0.292c0.207,0.271,0.518,0.456,0.883,0.456
			c0.624,0,1.131-0.508,1.131-1.132S6.912,9.14,6.289,9.14c-0.591,0-1.064,0.464-1.113,1.041l1-0.293L6.402,10.657z M6.402,5.407
			L5.406,5.699C5.613,5.97,5.924,6.155,6.289,6.155c0.624,0,1.131-0.508,1.131-1.132S6.912,3.89,6.289,3.89
			c-0.591,0-1.064,0.464-1.113,1.041l1-0.293L6.402,5.407z M6.402,21.781l-0.996,0.293c0.207,0.271,0.518,0.455,0.883,0.455
			c0.624,0,1.131-0.508,1.131-1.131c0-0.625-0.508-1.134-1.131-1.134c-0.591,0-1.064,0.464-1.113,1.041l1-0.293L6.402,21.781z
			 M1.47,6.02l0.7-0.205V4.398c0-0.301,0.031-0.594,0.089-0.878C1.773,4.134,1.47,4.9,1.47,5.742V6.02z M1.47,11.27l0.7-0.205V6.649
			l-0.7,0.205V11.27z M1.47,16.77l0.7-0.205v-4.666l-0.7,0.205V16.77z M1.47,22.395l0.778-0.229c-0.044-0.25-0.078-0.506-0.078-0.77
			v-3.998l-0.7,0.205V22.395z M25.203,24.48c-0.799,0.812-1.906,1.315-3.133,1.315h-9h-3.9h-2.6c-1.883,0-3.48-1.192-4.107-2.858
			l-0.945,0.276c0.234,1.76,1.729,3.127,3.552,3.127h17C23.422,26.341,24.588,25.586,25.203,24.48z M12.176,20.424h2.194V19.15
			c0-0.138,0.111-0.248,0.247-0.248c0.137,0,0.249,0.11,0.249,0.248v1.272h5.942V19.15c0-0.138,0.111-0.248,0.248-0.248
			c0.138,0,0.246,0.11,0.246,0.248v1.272h2.194c0.185,0,0.343-0.067,0.445-0.192c0.104-0.123,0.146-0.291,0.111-0.472l-0.418-2.349
			c-0.076-0.428-0.5-0.864-0.926-0.955l-2.008-0.424c-0.012,0.011-0.021,0.021-0.035,0.029l-2.17,1.258
			c-0.037,0.021-0.082,0.031-0.125,0.031c-0.023,0-0.049-0.004-0.072-0.01c-0.064-0.021-0.119-0.066-0.148-0.129l-0.315-0.646
			l-0.315,0.646c-0.029,0.062-0.084,0.107-0.15,0.129c-0.021,0.006-0.047,0.01-0.07,0.01c-0.043,0-0.086-0.01-0.125-0.031
			l-2.168-1.258c-0.016-0.008-0.023-0.02-0.037-0.029l-2.006,0.424c-0.426,0.091-0.85,0.527-0.926,0.955l-0.418,2.349
			c-0.032,0.181,0.007,0.349,0.112,0.472C11.834,20.355,11.992,20.424,12.176,20.424z"/>
	</g>
</g>
<g>
</g>
<g>
</g>
<g>
</g>
<g>
</g>
<g>
</g>
<g>
</g>
<g>
</g>
<g>
</g>
<g>
</g>
<g>
</g>
<g>
</g>
<g>
</g>
<g>
</g>
<g>
</g>
<g>
</g>
</svg>
