<?xml version="1.0" encoding="iso-8859-1"?>
<!-- Generator: Adobe Illustrator 16.0.0, SVG Export Plug-In . SVG Version: 6.00 Build 0)  -->
<!DOCTYPE svg PUBLIC "-//W3C//DTD SVG 1.1//EN" "http://www.w3.org/Graphics/SVG/1.1/DTD/svg11.dtd">
<svg version="1.1" id="Capa_1" xmlns="http://www.w3.org/2000/svg" xmlns:xlink="http://www.w3.org/1999/xlink" x="0px" y="0px"
	 width="29.758px" height="29.758px" viewBox="0 0 29.758 29.758" style="enable-background:new 0 0 29.758 29.758;"
	 xml:space="preserve">
<g>
	<g>
		<path d="M20.85,12.771l-0.373-2.093c-0.1-0.557-0.609-1.084-1.165-1.202l-2.772-0.585c0.521-0.506,0.923-1.207,1.188-1.911
			c0.343-0.125,0.688-0.431,0.788-0.83c0.133-0.529-0.008-1-0.335-1.206V4.571c0.299-0.902,0.455-2.378-0.904-3.173
			c-0.609-0.355-1.114-0.378-1.497-0.254c-0.059-0.155,0.119-0.379,0.119-0.379c-0.312-0.011-0.479,0.156-0.547,0.25
			c-0.418-0.192-0.966-0.274-1.667-0.128c-2.249,0.472-2.536,3.418-2.125,4.063c-0.321,0.207-0.458,0.674-0.326,1.198
			c0.1,0.4,0.448,0.708,0.792,0.831c0.262,0.705,0.66,1.406,1.181,1.912l-2.769,0.583c-0.554,0.118-1.065,0.646-1.164,1.202
			L8.9,12.77c-0.051,0.291,0.018,0.566,0.195,0.776c0.176,0.211,0.436,0.327,0.73,0.327h10.098c0.295,0,0.556-0.116,0.73-0.327
			C20.832,13.337,20.9,13.061,20.85,12.771z M12.383,6.559c-0.183,0.039-0.604-0.19-0.688-0.524
			c-0.085-0.341-0.004-0.659,0.181-0.711c0.055-0.015,0.112-0.003,0.169,0.027V4.842c0-0.001,0.002-0.002,0.003-0.004
			c-0.001-0.007-0.002-0.017-0.003-0.024V4.64c0.045-0.431,0.453-1.251,2.699-0.515c0.773,0.253,1.251-0.148,1.491-0.681
			c0.764,0.085,1.271,0.951,1.468,1.485v0.422c0.027-0.015,0.057-0.026,0.085-0.031c-0.001,0.003,0,0.011-0.002,0.013
			c0.006,0.007,0.018,0.002,0.032-0.013c0.019,0,0.036-0.002,0.053,0.002c0.187,0.052,0.268,0.37,0.182,0.711
			c-0.083,0.331-0.502,0.559-0.684,0.524c-0.243,0.74-0.729,1.686-1.419,2.207c-0.083,0.063-0.169,0.117-0.259,0.167
			c-0.125,0.07-0.257,0.126-0.395,0.164c-0.136,0.037-0.277,0.06-0.424,0.06c-0.149,0-0.292-0.022-0.43-0.06
			c-0.138-0.038-0.27-0.093-0.396-0.162c-0.089-0.049-0.176-0.104-0.259-0.166C13.104,8.252,12.627,7.317,12.383,6.559z
			 M13.635,9.241c0.367,0.244,0.78,0.393,1.239,0.393c0.456,0,0.869-0.149,1.234-0.394l0.661,0.139
			c-0.529,0.432-1.184,0.667-1.88,0.667c-0.689,0-1.354-0.244-1.883-0.673L13.635,9.241z M11.79,13.445H9.827
			c-0.165,0-0.308-0.062-0.401-0.173c-0.074-0.088-0.1-0.204-0.099-0.328h2.463V13.445z M17.746,12.003
			c-0.119,0-0.215,0.096-0.215,0.215v1.227h-5.313v-1.227c0-0.119-0.096-0.215-0.215-0.215s-0.215,0.096-0.215,0.215v0.296H9.382
			l0.314-1.761c0.068-0.384,0.448-0.777,0.83-0.857l1.96-0.413c0.637,0.631,1.502,0.993,2.403,0.993c0.91,0,1.756-0.352,2.399-0.988
			l1.935,0.408c0.382,0.081,0.763,0.474,0.83,0.857l0.313,1.761h-2.406v-0.296C17.961,12.099,17.865,12.003,17.746,12.003z
			 M20.326,13.272c-0.095,0.111-0.236,0.173-0.402,0.173h-1.963v-0.5h2.463C20.426,13.068,20.399,13.184,20.326,13.272z
			 M8.486,25.408l-2.258-0.476c0.425-0.412,0.751-0.982,0.968-1.558c0.279-0.103,0.56-0.351,0.642-0.675
			c0.108-0.43-0.006-0.814-0.273-0.981v-0.304c0.244-0.734,0.372-1.938-0.735-2.583c-0.497-0.29-0.908-0.308-1.219-0.207
			c-0.048-0.126,0.097-0.308,0.097-0.308c-0.255-0.01-0.39,0.127-0.445,0.203c-0.34-0.156-0.786-0.224-1.357-0.104
			c-1.831,0.384-2.064,2.783-1.729,3.309c-0.261,0.168-0.373,0.549-0.266,0.977c0.082,0.326,0.365,0.576,0.646,0.676
			c0.213,0.574,0.537,1.146,0.961,1.557L1.265,25.41c-0.451,0.096-0.867,0.524-0.947,0.979l-0.304,1.705
			c-0.042,0.237,0.014,0.461,0.159,0.634c0.143,0.17,0.354,0.266,0.594,0.266h8.221c0.24,0,0.451-0.094,0.595-0.266
			c0.144-0.173,0.2-0.396,0.157-0.635l-0.302-1.705C9.355,25.935,8.938,25.504,8.486,25.408z M2.848,23.034
			c-0.148,0.031-0.492-0.155-0.56-0.428c-0.069-0.277-0.003-0.537,0.147-0.578c0.045-0.012,0.091-0.002,0.138,0.021v-0.415
			c0-0.001,0.001-0.002,0.002-0.003c-0.001-0.006-0.002-0.014-0.002-0.021v-0.143c0.037-0.351,0.369-1.018,2.197-0.419
			c0.63,0.207,1.019-0.119,1.214-0.554c0.621,0.068,1.035,0.773,1.194,1.209v0.343c0.023-0.012,0.046-0.021,0.069-0.024
			c-0.001,0.002,0,0.01-0.002,0.012c0.005,0.006,0.015,0.002,0.027-0.01c0.014,0,0.029-0.002,0.042,0.002
			c0.151,0.041,0.217,0.301,0.148,0.578c-0.068,0.27-0.409,0.455-0.557,0.428c-0.198,0.603-0.593,1.373-1.155,1.797
			c-0.067,0.052-0.138,0.095-0.21,0.136c-0.102,0.058-0.209,0.104-0.321,0.134c-0.111,0.029-0.226,0.049-0.345,0.049
			c-0.122,0-0.238-0.019-0.35-0.049c-0.113-0.029-0.22-0.076-0.323-0.133c-0.073-0.04-0.143-0.084-0.211-0.135
			C3.434,24.413,3.045,23.651,2.848,23.034z M3.868,25.217c0.298,0.199,0.635,0.319,1.008,0.319c0.371,0,0.707-0.122,1.005-0.32
			l0.538,0.113c-0.432,0.354-0.964,0.543-1.531,0.543c-0.561,0-1.102-0.198-1.533-0.549L3.868,25.217z M2.362,28.642H0.765
			c-0.135,0-0.25-0.052-0.327-0.143c-0.06-0.072-0.082-0.167-0.08-0.268h2.005V28.642z M7.211,27.466
			c-0.097,0-0.175,0.078-0.175,0.176v1H2.711v-1c0-0.098-0.078-0.176-0.175-0.176c-0.097,0-0.175,0.078-0.175,0.176v0.24H0.403
			l0.255-1.434c0.056-0.312,0.365-0.633,0.676-0.698l1.595-0.336c0.519,0.514,1.223,0.81,1.956,0.81c0.741,0,1.43-0.285,1.954-0.806
			l1.574,0.333c0.311,0.064,0.621,0.386,0.676,0.697l0.255,1.435H7.387v-0.241C7.389,27.544,7.311,27.466,7.211,27.466z
			 M9.313,28.499c-0.077,0.09-0.192,0.143-0.327,0.143H7.389v-0.408h2.005C9.395,28.333,9.374,28.427,9.313,28.499z M29.436,26.387
			c-0.08-0.452-0.497-0.883-0.948-0.979l-2.258-0.476c0.425-0.412,0.751-0.982,0.969-1.558c0.278-0.103,0.56-0.351,0.642-0.675
			c0.108-0.43-0.006-0.814-0.272-0.981v-0.304c0.244-0.734,0.372-1.938-0.734-2.583c-0.497-0.29-0.908-0.308-1.22-0.207
			c-0.048-0.126,0.098-0.308,0.098-0.308c-0.255-0.01-0.391,0.127-0.444,0.203c-0.341-0.156-0.786-0.224-1.356-0.104
			c-1.831,0.384-2.063,2.783-1.729,3.309c-0.262,0.168-0.373,0.549-0.267,0.977c0.082,0.326,0.364,0.576,0.646,0.676
			c0.213,0.574,0.537,1.146,0.961,1.557l-2.254,0.476c-0.451,0.096-0.867,0.524-0.947,0.979l-0.304,1.705
			c-0.042,0.237,0.014,0.461,0.158,0.634c0.144,0.17,0.354,0.266,0.595,0.266h8.221c0.24,0,0.451-0.094,0.596-0.266
			c0.145-0.173,0.2-0.396,0.157-0.635L29.436,26.387z M22.848,23.034c-0.147,0.031-0.492-0.155-0.561-0.428
			c-0.069-0.277-0.003-0.537,0.146-0.578c0.045-0.012,0.091-0.002,0.139,0.021v-0.415c0-0.001,0.001-0.002,0.002-0.003
			c-0.001-0.006-0.002-0.014-0.002-0.021v-0.143c0.036-0.351,0.368-1.018,2.196-0.419c0.63,0.207,1.02-0.119,1.214-0.554
			c0.621,0.068,1.035,0.773,1.193,1.209v0.343c0.023-0.012,0.047-0.021,0.069-0.024c-0.001,0.002,0,0.01-0.002,0.012
			c0.005,0.006,0.015,0.002,0.026-0.01c0.015,0,0.028-0.002,0.042,0.002c0.15,0.041,0.218,0.301,0.147,0.578
			c-0.067,0.27-0.409,0.455-0.558,0.428c-0.197,0.603-0.593,1.373-1.154,1.797c-0.066,0.052-0.139,0.095-0.21,0.136
			c-0.103,0.058-0.209,0.104-0.321,0.134c-0.11,0.029-0.226,0.049-0.345,0.049c-0.122,0-0.238-0.019-0.351-0.049
			c-0.113-0.029-0.221-0.076-0.322-0.133c-0.073-0.04-0.144-0.084-0.211-0.135C23.434,24.413,23.046,23.651,22.848,23.034z
			 M23.867,25.217c0.298,0.199,0.635,0.319,1.008,0.319c0.371,0,0.707-0.122,1.005-0.32l0.538,0.113
			c-0.433,0.354-0.964,0.543-1.531,0.543c-0.561,0-1.102-0.198-1.532-0.549L23.867,25.217z M22.362,28.642h-1.598
			c-0.136,0-0.25-0.052-0.327-0.143c-0.061-0.072-0.082-0.167-0.08-0.268h2.005V28.642z M27.212,27.466
			c-0.097,0-0.175,0.078-0.175,0.176v1h-4.325v-1c0-0.098-0.078-0.176-0.175-0.176c-0.098,0-0.176,0.078-0.176,0.176v0.24h-1.958
			l0.256-1.434c0.056-0.312,0.364-0.633,0.676-0.698l1.596-0.336c0.52,0.514,1.223,0.81,1.955,0.81c0.741,0,1.431-0.285,1.954-0.806
			l1.574,0.333c0.312,0.064,0.621,0.386,0.676,0.697l0.255,1.435h-1.958v-0.241C27.389,27.544,27.311,27.466,27.212,27.466z
			 M29.313,28.499c-0.077,0.09-0.191,0.143-0.327,0.143h-1.598v-0.408h2.005C29.395,28.333,29.373,28.427,29.313,28.499z
			 M4.875,17.463l-2.227-2.228l0.514-0.514l1.348,1.351c0.153-3.814,2.387-7.101,5.595-8.75v0.83
			c-2.794,1.58-4.721,4.521-4.868,7.921l1.352-1.354l0.514,0.514L4.875,17.463z M19.646,8.152v-0.83
			c3.208,1.649,5.44,4.934,5.596,8.75l1.348-1.351l0.515,0.514l-2.228,2.228l-2.229-2.228l0.515-0.514l1.353,1.353
			C24.368,12.672,22.439,9.732,19.646,8.152z"/>
	</g>
</g>
<g>
</g>
<g>
</g>
<g>
</g>
<g>
</g>
<g>
</g>
<g>
</g>
<g>
</g>
<g>
</g>
<g>
</g>
<g>
</g>
<g>
</g>
<g>
</g>
<g>
</g>
<g>
</g>
<g>
</g>
</svg>
