<?xml version="1.0" encoding="iso-8859-1"?>
<!-- Generator: Adobe Illustrator 16.0.0, SVG Export Plug-In . SVG Version: 6.00 Build 0)  -->
<!DOCTYPE svg PUBLIC "-//W3C//DTD SVG 1.1//EN" "http://www.w3.org/Graphics/SVG/1.1/DTD/svg11.dtd">
<svg version="1.1" id="Capa_1" xmlns="http://www.w3.org/2000/svg" xmlns:xlink="http://www.w3.org/1999/xlink" x="0px" y="0px"
	 width="26.334px" height="26.334px" viewBox="0 0 26.334 26.334" style="enable-background:new 0 0 26.334 26.334;"
	 xml:space="preserve">
<g>
	<g>
		<path d="M26.204,26.334c-1.527-1.917-1.756-10.146-2.053-14.777C23.614,3.199,19.72,0,14.257,0S4.903,3.198,4.366,11.557
			c-0.109,1.706-0.177,3.788-0.306,5.875c-2.187,0.137-3.93,1.938-3.93,4.158c0,1.752,1.085,3.251,2.617,3.873
			c-0.135,0.321-0.275,0.621-0.438,0.871H26.204z M3.995,18.438c0.107-0.012,0.213-0.033,0.324-0.033
			c1.757,0,3.186,1.431,3.186,3.187c0,1.757-1.429,3.187-3.186,3.187c-0.438,0-0.856-0.09-1.237-0.25
			c-1.144-0.484-1.948-1.617-1.948-2.937C1.134,19.943,2.394,18.604,3.995,18.438z M7.45,12.115
			c0.125-0.037,0.255-0.008,0.383,0.064v-0.842l0.825-0.061c3.088,0,5.76-1.31,7.226-3.24c1.062,1.4,2.764,2.45,4.801,2.93v1.214
			c0.129-0.073,0.258-0.103,0.385-0.065c0.422,0.126,0.604,0.896,0.41,1.72c-0.188,0.801-1.14,1.354-1.553,1.271
			c-0.806,2.61-3.602,5.627-5.668,5.627c-2.126,0-4.848-2.947-5.658-5.629c-0.412,0.097-1.371-0.461-1.562-1.27
			C6.845,13.011,7.028,12.241,7.45,12.115z"/>
		<polygon points="2.56,23.352 2.912,23.704 3.401,23.214 4.319,22.297 5.728,23.704 6.081,23.352 6.435,22.997 5.026,21.59 
			6.435,20.182 6.081,19.828 5.728,19.477 4.319,20.883 3.821,20.385 2.912,19.477 2.56,19.828 2.205,20.182 3.612,21.59 
			2.205,22.997 		"/>
	</g>
</g>
<g>
</g>
<g>
</g>
<g>
</g>
<g>
</g>
<g>
</g>
<g>
</g>
<g>
</g>
<g>
</g>
<g>
</g>
<g>
</g>
<g>
</g>
<g>
</g>
<g>
</g>
<g>
</g>
<g>
</g>
</svg>
