<?xml version="1.0" encoding="iso-8859-1"?>
<!-- Generator: Adobe Illustrator 16.0.0, SVG Export Plug-In . SVG Version: 6.00 Build 0)  -->
<!DOCTYPE svg PUBLIC "-//W3C//DTD SVG 1.1//EN" "http://www.w3.org/Graphics/SVG/1.1/DTD/svg11.dtd">
<svg version="1.1" id="Capa_1" xmlns="http://www.w3.org/2000/svg" xmlns:xlink="http://www.w3.org/1999/xlink" x="0px" y="0px"
	 width="35.758px" height="35.757px" viewBox="0 0 35.758 35.757" style="enable-background:new 0 0 35.758 35.757;"
	 xml:space="preserve">
<g>
	<g>
		<path d="M8.486,29.215L6.229,28.74c0.425-0.412,0.751-0.982,0.968-1.556c0.279-0.104,0.56-0.353,0.642-0.677
			c0.108-0.43-0.006-0.812-0.273-0.979v-0.305c0.244-0.734,0.372-1.938-0.735-2.582c-0.497-0.29-0.908-0.31-1.219-0.207
			c-0.048-0.126,0.097-0.31,0.097-0.31c-0.255-0.009-0.39,0.127-0.445,0.204c-0.34-0.157-0.786-0.223-1.357-0.104
			c-1.83,0.385-2.064,2.783-1.729,3.309c-0.261,0.168-0.373,0.549-0.266,0.976c0.082,0.326,0.365,0.576,0.646,0.678
			c0.213,0.572,0.537,1.145,0.961,1.556l-2.254,0.475c-0.451,0.098-0.867,0.525-0.947,0.979l-0.304,1.705
			c-0.042,0.235,0.014,0.461,0.159,0.632c0.143,0.171,0.354,0.266,0.594,0.266h8.221c0.24,0,0.451-0.094,0.595-0.266
			c0.144-0.171,0.2-0.396,0.157-0.633l-0.303-1.704C9.355,29.742,8.938,29.313,8.486,29.215z M2.848,26.841
			c-0.148,0.032-0.492-0.153-0.56-0.427c-0.069-0.278-0.003-0.537,0.147-0.579c0.045-0.012,0.091-0.002,0.138,0.022v-0.415
			c0-0.001,0.001-0.002,0.002-0.003c-0.001-0.006-0.002-0.016-0.002-0.021v-0.142c0.037-0.353,0.369-1.02,2.197-0.419
			c0.63,0.207,1.019-0.12,1.214-0.556c0.621,0.069,1.035,0.774,1.194,1.209v0.345c0.023-0.014,0.046-0.021,0.069-0.025
			c-0.001,0.002,0,0.009-0.002,0.011c0.005,0.008,0.015,0.002,0.027-0.01c0.014,0,0.029-0.002,0.042,0.002
			c0.151,0.042,0.217,0.301,0.148,0.579c-0.068,0.271-0.409,0.455-0.557,0.427c-0.198,0.604-0.593,1.373-1.155,1.797
			c-0.067,0.054-0.138,0.097-0.21,0.138c-0.102,0.057-0.209,0.103-0.321,0.133c-0.111,0.03-0.226,0.049-0.345,0.049
			c-0.122,0-0.238-0.018-0.35-0.049c-0.113-0.03-0.22-0.076-0.323-0.132c-0.073-0.04-0.143-0.084-0.211-0.136
			C3.434,28.22,3.045,27.458,2.848,26.841z M3.868,29.025c0.298,0.198,0.635,0.317,1.008,0.317c0.371,0,0.707-0.122,1.005-0.318
			l0.538,0.111c-0.432,0.354-0.964,0.543-1.531,0.543c-0.561,0-1.102-0.196-1.533-0.548L3.868,29.025z M2.362,32.448H0.766
			c-0.135,0-0.25-0.05-0.327-0.142c-0.06-0.071-0.082-0.167-0.08-0.268h2.005L2.362,32.448L2.362,32.448z M7.211,31.275
			c-0.097,0-0.175,0.078-0.175,0.175v0.999H2.711v-1c0-0.097-0.078-0.175-0.175-0.175c-0.097,0-0.175,0.078-0.175,0.175v0.241H0.403
			l0.255-1.436c0.056-0.312,0.365-0.633,0.676-0.696l1.595-0.338c0.519,0.516,1.223,0.811,1.956,0.811
			c0.741,0,1.43-0.286,1.954-0.805l1.574,0.333c0.311,0.063,0.621,0.386,0.676,0.696l0.255,1.436H7.387v-0.242
			C7.389,31.353,7.311,31.275,7.211,31.275z M9.313,32.308c-0.077,0.09-0.192,0.141-0.327,0.141H7.389v-0.408h2.005
			C9.395,32.142,9.374,32.235,9.313,32.308z M35.436,30.195c-0.08-0.453-0.497-0.883-0.948-0.979l-2.258-0.476
			c0.425-0.412,0.751-0.982,0.968-1.556c0.279-0.104,0.561-0.353,0.643-0.677c0.107-0.43-0.006-0.812-0.272-0.979v-0.305
			c0.244-0.734,0.372-1.938-0.734-2.582c-0.497-0.29-0.908-0.31-1.22-0.207c-0.048-0.126,0.098-0.31,0.098-0.31
			c-0.255-0.009-0.391,0.127-0.444,0.204c-0.341-0.157-0.786-0.223-1.356-0.104c-1.831,0.384-2.063,2.781-1.729,3.308
			c-0.262,0.168-0.373,0.549-0.267,0.976c0.082,0.326,0.364,0.576,0.646,0.678c0.213,0.572,0.537,1.145,0.961,1.556l-2.254,0.475
			c-0.451,0.098-0.867,0.525-0.947,0.979l-0.304,1.705c-0.042,0.235,0.014,0.461,0.158,0.632c0.144,0.171,0.354,0.266,0.595,0.266
			h8.221c0.24,0,0.451-0.094,0.596-0.266c0.145-0.171,0.2-0.396,0.157-0.633L35.436,30.195z M28.848,26.841
			c-0.147,0.032-0.492-0.153-0.561-0.427c-0.069-0.278-0.003-0.537,0.146-0.579c0.045-0.012,0.091-0.002,0.139,0.022v-0.415
			c0-0.001,0.001-0.002,0.002-0.003c-0.001-0.006-0.002-0.016-0.002-0.021v-0.142c0.036-0.353,0.368-1.02,2.196-0.419
			c0.63,0.207,1.02-0.12,1.214-0.556c0.621,0.069,1.035,0.774,1.193,1.209v0.345c0.023-0.014,0.047-0.021,0.069-0.025
			c-0.001,0.002,0,0.009-0.002,0.011c0.005,0.008,0.015,0.002,0.026-0.01c0.015,0,0.028-0.002,0.042,0.002
			c0.15,0.042,0.217,0.301,0.147,0.579c-0.067,0.271-0.409,0.455-0.558,0.427c-0.197,0.604-0.593,1.373-1.154,1.797
			c-0.066,0.054-0.139,0.097-0.21,0.138c-0.103,0.057-0.209,0.103-0.321,0.133c-0.11,0.03-0.226,0.049-0.345,0.049
			c-0.122,0-0.238-0.018-0.351-0.049c-0.112-0.03-0.221-0.076-0.322-0.132c-0.073-0.04-0.144-0.084-0.211-0.136
			C29.434,28.22,29.046,27.458,28.848,26.841z M29.867,29.025c0.298,0.198,0.635,0.317,1.008,0.317c0.371,0,0.707-0.122,1.005-0.318
			l0.538,0.111c-0.433,0.354-0.964,0.543-1.531,0.543c-0.561,0-1.102-0.196-1.532-0.548L29.867,29.025z M28.362,32.448h-1.598
			c-0.136,0-0.25-0.05-0.327-0.142c-0.061-0.071-0.082-0.167-0.08-0.268h2.005V32.448L28.362,32.448z M33.212,31.275
			c-0.097,0-0.175,0.078-0.175,0.175v0.999h-4.325v-1c0-0.097-0.078-0.175-0.175-0.175c-0.098,0-0.176,0.078-0.176,0.175v0.241
			h-1.958l0.256-1.436c0.056-0.312,0.364-0.633,0.676-0.696l1.596-0.338c0.52,0.516,1.223,0.811,1.955,0.811
			c0.741,0,1.431-0.286,1.954-0.805l1.574,0.333c0.312,0.063,0.621,0.386,0.676,0.696l0.255,1.436h-1.958v-0.242
			C33.389,31.353,33.311,31.275,33.212,31.275z M35.313,32.308c-0.077,0.09-0.191,0.141-0.327,0.141h-1.598v-0.408h2.005
			C35.395,32.142,35.373,32.235,35.313,32.308z M13.766,13.631h8.221c0.24,0,0.451-0.094,0.596-0.266
			c0.145-0.171,0.2-0.396,0.156-0.633l-0.303-1.704c-0.08-0.453-0.497-0.883-0.948-0.979l-2.258-0.476
			c0.425-0.412,0.751-0.982,0.968-1.556c0.279-0.102,0.561-0.351,0.643-0.675c0.107-0.43-0.006-0.814-0.272-0.981V6.057
			c0.244-0.735,0.372-1.937-0.734-2.583c-0.497-0.29-0.908-0.308-1.22-0.207c-0.048-0.126,0.098-0.308,0.098-0.308
			c-0.255-0.009-0.391,0.127-0.445,0.204c-0.34-0.157-0.786-0.223-1.357-0.104c-1.831,0.384-2.064,2.783-1.729,3.308
			c-0.261,0.168-0.373,0.549-0.266,0.976c0.082,0.326,0.365,0.576,0.646,0.676c0.213,0.574,0.537,1.145,0.961,1.556l-2.254,0.475
			c-0.451,0.096-0.867,0.525-0.947,0.979l-0.304,1.705c-0.042,0.237,0.014,0.461,0.159,0.632
			C13.313,13.537,13.524,13.631,13.766,13.631z M22.313,13.141c-0.077,0.09-0.191,0.141-0.327,0.141h-1.598v-0.408h2.005
			C22.395,12.974,22.373,13.068,22.313,13.141z M15.848,7.676c-0.148,0.032-0.492-0.155-0.56-0.427
			c-0.069-0.278-0.003-0.537,0.147-0.579c0.045-0.012,0.091-0.002,0.138,0.022V6.277c0-0.001,0.001-0.002,0.002-0.003
			c-0.001-0.006-0.002-0.014-0.002-0.02V6.112c0.037-0.351,0.369-1.018,2.197-0.419c0.63,0.207,1.02-0.12,1.214-0.554
			c0.621,0.069,1.035,0.774,1.193,1.209v0.343c0.023-0.012,0.047-0.021,0.069-0.025c-0.001,0.002,0,0.009-0.002,0.011
			c0.005,0.006,0.015,0.002,0.026-0.01c0.015,0,0.028-0.002,0.042,0.002c0.15,0.042,0.217,0.301,0.147,0.579
			c-0.067,0.269-0.409,0.455-0.558,0.427c-0.197,0.603-0.593,1.373-1.154,1.797c-0.067,0.052-0.139,0.095-0.21,0.136
			c-0.103,0.057-0.209,0.103-0.322,0.133c-0.111,0.03-0.226,0.049-0.345,0.049c-0.122,0-0.238-0.018-0.35-0.049
			c-0.113-0.03-0.22-0.076-0.323-0.132c-0.073-0.04-0.143-0.084-0.211-0.135C16.434,9.054,16.045,8.293,15.848,7.676z M16.868,9.859
			c0.298,0.199,0.634,0.319,1.008,0.319c0.371,0,0.708-0.122,1.005-0.32l0.538,0.113c-0.433,0.352-0.963,0.543-1.531,0.543
			c-0.561,0-1.102-0.198-1.533-0.548L16.868,9.859z M13.661,11.09c0.056-0.312,0.365-0.633,0.676-0.698l1.595-0.336
			c0.519,0.514,1.223,0.809,1.956,0.809c0.741,0,1.43-0.286,1.954-0.805l1.574,0.333c0.312,0.065,0.621,0.386,0.676,0.698
			l0.256,1.434h-1.958v-0.241c0-0.097-0.078-0.175-0.176-0.175c-0.097,0-0.175,0.078-0.175,0.175v0.999h-4.326v-0.999
			c0-0.097-0.078-0.175-0.175-0.175c-0.097,0-0.175,0.078-0.175,0.175v0.241h-1.958L13.661,11.09z M15.362,12.874v0.408h-1.598
			c-0.135,0-0.25-0.05-0.327-0.141c-0.06-0.072-0.082-0.167-0.08-0.267H15.362z M5.614,20.783H4.744V16.72h12.552v-2.177h0.871
			v2.177h12.841v4.063h-0.871V17.59H5.615L5.614,20.783L5.614,20.783z"/>
	</g>
</g>
<g>
</g>
<g>
</g>
<g>
</g>
<g>
</g>
<g>
</g>
<g>
</g>
<g>
</g>
<g>
</g>
<g>
</g>
<g>
</g>
<g>
</g>
<g>
</g>
<g>
</g>
<g>
</g>
<g>
</g>
</svg>
