<?xml version="1.0" encoding="iso-8859-1"?>
<!-- Generator: Adobe Illustrator 16.0.0, SVG Export Plug-In . SVG Version: 6.00 Build 0)  -->
<!DOCTYPE svg PUBLIC "-//W3C//DTD SVG 1.1//EN" "http://www.w3.org/Graphics/SVG/1.1/DTD/svg11.dtd">
<svg version="1.1" id="Capa_1" xmlns="http://www.w3.org/2000/svg" xmlns:xlink="http://www.w3.org/1999/xlink" x="0px" y="0px"
	 width="38.412px" height="38.412px" viewBox="0 0 38.412 38.412" style="enable-background:new 0 0 38.412 38.412;"
	 xml:space="preserve">
<g>
	<g>
		<path d="M5.123,24.996h-1v-4.667h14.416v-2.5h1v2.5h14.75v4.667h-1v-3.667H5.123V24.996z M21.245,12.172l-1.374,2.698
			l-0.221-1.753l0.34-0.278h-0.824l-0.753,0.001l0.34,0.279l-0.215,1.754l-1.379-2.695c-2.395,0.326-4.112,1.354-4.109,3.849
			l12.311-0.015C25.357,13.518,23.641,12.493,21.245,12.172z M16.62,9.126c0.007-0.001,0.012-0.008,0.019-0.011
			c0.415,1.494,1.485,2.611,2.57,2.635c0.99-0.046,2.203-1.146,2.605-2.633c0.187,0.01,0.371-0.209,0.425-0.516
			c0.053-0.317-0.062-0.603-0.255-0.635c-0.012-0.002-0.022,0.005-0.035,0.006c-0.061-2.46-1.228-3.324-2.7-3.359
			c-1.516,0.009-2.873,1.065-2.785,3.367c-0.014-0.001-0.028-0.009-0.043-0.008c-0.19,0.035-0.304,0.318-0.25,0.637
			C16.227,8.928,16.427,9.159,16.62,9.126z M34.145,25.825c1.027,0.024,1.846,0.632,1.885,2.351c0.008,0,0.017-0.006,0.025-0.004
			c0.135,0.021,0.213,0.223,0.176,0.444c-0.037,0.213-0.168,0.366-0.297,0.358c-0.283,1.039-1.133,1.808-1.824,1.838
			c-0.76-0.018-1.508-0.799-1.795-1.844c-0.006,0.002-0.008,0.006-0.014,0.008c-0.137,0.021-0.275-0.141-0.312-0.36
			c-0.038-0.224,0.041-0.423,0.175-0.444c0.01-0.002,0.021,0.006,0.028,0.006C32.133,26.564,33.082,25.829,34.145,25.825z
			 M34.176,26.489h-0.131c0.033-0.001,0.064,0.001,0.098,0.003C34.154,26.492,34.164,26.489,34.176,26.489z M34.145,26.492
			c0.012,0,0.021-0.003,0.033-0.003h-0.132C34.078,26.488,34.109,26.49,34.145,26.492z M34.125,30.812c-0.006,0-0.011,0-0.018,0
			c-0.004,0-0.008,0-0.014,0H34.125z M35.537,31.111l-0.963,1.886l-0.152-1.228l0.238-0.193h-0.577h-0.526l0.238,0.193l-0.152,1.228
			l-0.961-1.886c-1.676,0.227-2.877,0.941-2.877,2.688h8.607C38.412,32.057,37.21,31.338,35.537,31.111z M2.184,28.616
			c-0.039-0.224,0.041-0.423,0.175-0.444c0.01-0.002,0.019,0.004,0.029,0.004c-0.06-1.607,0.89-2.347,1.95-2.351
			c1.028,0.024,1.845,0.632,1.884,2.351c0.008,0,0.017-0.006,0.026-0.004c0.134,0.021,0.213,0.223,0.175,0.444
			c-0.036,0.213-0.166,0.366-0.297,0.358c-0.283,1.039-1.132,1.808-1.823,1.838c-0.759-0.018-1.507-0.799-1.796-1.844
			c-0.004,0.002-0.008,0.006-0.013,0.008C2.361,29,2.221,28.838,2.184,28.616z M4.241,26.489c0.034-0.001,0.065,0.001,0.098,0.003
			c0.011,0,0.021-0.003,0.032-0.003H4.241z M4.371,26.489h-0.13c0.034-0.001,0.065,0.001,0.098,0.003
			C4.35,26.492,4.36,26.489,4.371,26.489z M5.733,31.111L4.77,32.997L4.617,31.77l0.239-0.193H4.279H3.752L3.99,31.77l-0.152,1.228
			l-0.963-1.886C1.202,31.338,0,32.053,0,33.799h8.608C8.608,32.057,7.406,31.338,5.733,31.111z M4.32,30.812
			c-0.005,0-0.011,0-0.016,0c-0.004,0-0.009,0-0.013,0H4.32z"/>
	</g>
</g>
<g>
</g>
<g>
</g>
<g>
</g>
<g>
</g>
<g>
</g>
<g>
</g>
<g>
</g>
<g>
</g>
<g>
</g>
<g>
</g>
<g>
</g>
<g>
</g>
<g>
</g>
<g>
</g>
<g>
</g>
</svg>
