<?xml version="1.0" encoding="iso-8859-1"?>
<!-- Generator: Adobe Illustrator 16.0.0, SVG Export Plug-In . SVG Version: 6.00 Build 0)  -->
<!DOCTYPE svg PUBLIC "-//W3C//DTD SVG 1.1//EN" "http://www.w3.org/Graphics/SVG/1.1/DTD/svg11.dtd">
<svg version="1.1" id="Capa_1" xmlns="http://www.w3.org/2000/svg" xmlns:xlink="http://www.w3.org/1999/xlink" x="0px" y="0px"
	 width="29.13px" height="29.13px" viewBox="0 0 29.13 29.13" style="enable-background:new 0 0 29.13 29.13;" xml:space="preserve"
	>
<g>
	<g>
		<path d="M24.001,18.836v3.273v0.625v6.395h-1.872v-6.395H7v6.396H5.128v-6.396v-0.623v-3.274L24.001,18.836L24.001,18.836z
			 M6.54,17.715c-0.247-0.291-0.343-0.676-0.271-1.078l0.517-2.907c0.14-0.774,0.85-1.508,1.618-1.668l0.487-0.103v-5.33
			C8.891,1.825,11.432,0,14.563,0c3.135,0,5.674,1.825,5.674,6.629v5.33l0.486,0.103c0.769,0.161,1.479,0.895,1.617,1.668
			l0.518,2.907c0.072,0.402-0.022,0.785-0.269,1.078c-0.247,0.293-0.606,0.455-1.019,0.455H7.55
			C7.144,18.17,6.784,18.008,6.54,17.715z M10.422,7.936c0.107,0.464,0.657,0.783,0.896,0.728c0.267,0.881,0.894,1.81,1.606,2.444
			c0.098,0.087,0.195,0.166,0.297,0.242c0.119,0.087,0.235,0.167,0.354,0.234c-0.043,0.008-0.086,0.014-0.124,0.021l-1.733,0.366
			l1.38,1.378l1.466,1.468l1.47-1.468l1.377-1.378l-1.73-0.366c-0.044-0.009-0.096-0.017-0.146-0.025
			c0.118-0.068,0.234-0.148,0.353-0.235c0.101-0.075,0.199-0.155,0.296-0.243c0.724-0.641,1.368-1.577,1.633-2.438
			c0.235,0.048,0.783-0.27,0.891-0.729c0.111-0.472,0.007-0.915-0.234-0.986c-0.07-0.021-0.146-0.004-0.22,0.038V6.479h-2.791V4.162
			l-0.374,2.229h-4.206v0.596c-0.074-0.041-0.148-0.058-0.221-0.037C10.416,7.021,10.311,7.464,10.422,7.936z M6.854,16.742
			c-0.041,0.229,0.009,0.438,0.141,0.593c0.13,0.153,0.327,0.239,0.557,0.239h2.729V15.87c0-0.164,0.133-0.298,0.298-0.298
			c0.164,0,0.297,0.134,0.297,0.298v1.704h7.38V15.87c0-0.164,0.134-0.298,0.298-0.298s0.299,0.134,0.299,0.298v1.704h2.725
			c0.23,0,0.431-0.086,0.561-0.239c0.131-0.155,0.18-0.367,0.139-0.593l-0.518-2.907c-0.096-0.535-0.623-1.079-1.152-1.191
			l-0.363-0.076l-2.133-0.45l-1.229,1.232l-2.102,2.099c-0.056,0.058-0.133,0.089-0.211,0.089s-0.155-0.031-0.211-0.089l-2.1-2.099
			l-1.231-1.232l-2.131,0.45L8.53,12.644C8,12.756,7.472,13.3,7.377,13.833L6.854,16.742z"/>
	</g>
</g>
<g>
</g>
<g>
</g>
<g>
</g>
<g>
</g>
<g>
</g>
<g>
</g>
<g>
</g>
<g>
</g>
<g>
</g>
<g>
</g>
<g>
</g>
<g>
</g>
<g>
</g>
<g>
</g>
<g>
</g>
</svg>
