<?xml version="1.0" encoding="iso-8859-1"?>
<!-- Generator: Adobe Illustrator 16.0.0, SVG Export Plug-In . SVG Version: 6.00 Build 0)  -->
<!DOCTYPE svg PUBLIC "-//W3C//DTD SVG 1.1//EN" "http://www.w3.org/Graphics/SVG/1.1/DTD/svg11.dtd">
<svg version="1.1" id="Capa_1" xmlns="http://www.w3.org/2000/svg" xmlns:xlink="http://www.w3.org/1999/xlink" x="0px" y="0px"
	 width="35.358px" height="35.359px" viewBox="0 0 35.358 35.359" style="enable-background:new 0 0 35.358 35.359;"
	 xml:space="preserve">
<g>
	<g>
		<path d="M17.022,20.497h14.859V9.055H17.022V20.497z M19.993,19.966h-2.205c0.227-0.187,0.777-0.679,2.196-2.021h0.009V19.966z
			 M22.832,17.415h-2.287c0.618-0.588,1.375-1.311,2.287-2.188V17.415z M25.67,15.484l-0.947-0.373h0.947V15.484z M31.348,11.74
			H30.43l0.918-1.531V11.74z M29.041,9.587H31.1l-1.291,2.15h-0.768V9.587z M29.041,12.27h0.448l-0.448,0.748V12.27z M29.041,14.053
			l1.069-1.783h1.237v2.308H29.04L29.041,14.053L29.041,14.053z M29.041,15.111h2.307v2.307h-2.307V15.111z M29.041,17.949h2.307
			v2.02h-2.307V17.949z M26.203,9.587h2.307v2.15h-2.307V9.587z M26.203,12.27h2.307v1.636l-0.404,0.672h-1.901L26.203,12.27
			L26.203,12.27z M26.203,15.111h1.583L27.2,16.089l-0.997-0.394V15.111z M26.203,16.266l1.221,0.481l0.983-1.637h0.103v2.305
			h-2.307V16.266z M26.203,17.949h2.307v2.02h-2.307V17.949z M23.365,9.587h2.307v2.15h-2.307V9.587z M23.365,12.27h2.307v2.308
			h-2.296l-0.011-0.004V12.27z M23.365,15.146l2.307,0.91v1.359h-2.307V15.146z M23.365,17.949h2.307v2.02h-2.307V17.949z
			 M20.526,9.587h2.307v2.15h-2.307V9.587z M20.526,12.27h2.307v2.22l-0.028,0.028c-0.021,0.021-0.043,0.04-0.062,0.06h-2.216
			L20.526,12.27L20.526,12.27z M20.526,15.111h1.661c-0.531,0.51-1.104,1.055-1.661,1.588V15.111z M20.526,17.949h2.307v2.02h-2.307
			V17.949z M17.554,9.587h2.439v2.15h-2.439V9.587z M17.554,12.27h2.439v2.308h-2.439V12.27z M17.554,15.111h2.439v2.096
			c-0.075,0.068-0.149,0.141-0.224,0.211h-2.216L17.554,15.111L17.554,15.111z M17.554,17.949h1.652
			c-0.758,0.715-1.371,1.285-1.652,1.527V17.949z M17.554,19.902l0.022,0.064h-0.022V19.902z M35.358,26.312V5.525H0v20.787h12.165
			v1.834h-1.152v1.688h1.152h11.027h1.151v-1.688h-1.151v-1.834H35.358z M3.817,24.408l0.432-2.43
			c0.079-0.443,0.521-0.898,0.963-0.994l0.305-0.062l1.314-0.277l0.935,1.062l2.348,2.664c0.047,0.055,0.114,0.082,0.185,0.082
			h0.002c0.071,0,0.139-0.029,0.185-0.084l2.277-2.662l0.912-1.062l1.32,0.277l0.304,0.062c0.444,0.096,0.885,0.551,0.965,0.996
			l0.433,2.428c0.026,0.15-0.007,0.287-0.071,0.404h-2.792v-0.951c0-0.137-0.109-0.248-0.246-0.248
			c-0.137,0-0.246,0.111-0.246,0.248v0.951H7.176v-0.951c0-0.137-0.11-0.248-0.247-0.248c-0.136,0-0.246,0.111-0.246,0.248v0.951
			H3.89C3.825,24.695,3.79,24.558,3.817,24.408z M13.333,15.92v0.472c0.062-0.033,0.124-0.049,0.184-0.029
			c0.203,0.06,0.29,0.428,0.198,0.822c-0.091,0.385-0.547,0.65-0.744,0.607c-0.208,0.675-0.692,1.402-1.25,1.933
			c-0.076,0.072-0.151,0.143-0.229,0.205c-0.087,0.069-0.175,0.139-0.262,0.197l1.894,0.396l-1.011,1.181l-1.25,1.463l-0.319-1.463
			L10.5,21.507l0.457-0.457l-0.574-0.572l-0.127-0.127l-0.128,0.129l-0.572,0.57l0.458,0.457l-0.045,0.196L9.663,23.11l-1.237-1.406
			l-1.041-1.181l1.882-0.395C9.177,20.068,9.091,20,9.004,19.931c-0.077-0.063-0.152-0.131-0.229-0.203
			c-0.549-0.524-1.021-1.248-1.229-1.938c-0.198,0.046-0.658-0.223-0.748-0.608c-0.093-0.396-0.006-0.765,0.197-0.823
			c0.061-0.019,0.122-0.003,0.184,0.03v-0.545h3.673L11.161,14v1.918L13.333,15.92L13.333,15.92z M17.164,24.812
			c0.04-0.154,0.048-0.32,0.018-0.492l-0.434-2.426c-0.113-0.646-0.707-1.258-1.347-1.393l-0.406-0.089v-4.319
			c0-4.013-2.122-5.535-4.739-5.535c-2.617,0-4.738,1.522-4.738,5.535v4.319l-0.405,0.089c-0.642,0.135-1.234,0.747-1.349,1.393
			L3.331,24.32c-0.03,0.172-0.022,0.338,0.017,0.492H1.499V7.025h32.356v17.787H17.164z"/>
	</g>
</g>
<g>
</g>
<g>
</g>
<g>
</g>
<g>
</g>
<g>
</g>
<g>
</g>
<g>
</g>
<g>
</g>
<g>
</g>
<g>
</g>
<g>
</g>
<g>
</g>
<g>
</g>
<g>
</g>
<g>
</g>
</svg>
