<?xml version="1.0" encoding="iso-8859-1"?>
<!-- Generator: Adobe Illustrator 16.0.0, SVG Export Plug-In . SVG Version: 6.00 Build 0)  -->
<!DOCTYPE svg PUBLIC "-//W3C//DTD SVG 1.1//EN" "http://www.w3.org/Graphics/SVG/1.1/DTD/svg11.dtd">
<svg version="1.1" id="Capa_1" xmlns="http://www.w3.org/2000/svg" xmlns:xlink="http://www.w3.org/1999/xlink" x="0px" y="0px"
	 width="35.614px" height="35.614px" viewBox="0 0 35.614 35.614" style="enable-background:new 0 0 35.614 35.614;"
	 xml:space="preserve">
<g>
	<g>
		<path d="M15.023,23.515H8.031l2.532-2.531L9.77,20.193h1.141l-1.429-1.43C12.674,19.079,15.023,20.293,15.023,23.515z
			 M5.252,20.193H4.113l1.428-1.43C2.35,19.077,0,20.293,0,23.515h6.992l-2.531-2.531L5.252,20.193z M10.357,13.619
			c-0.104,1.42-0.709,3.074-1.577,3.963h3.358v-3.75c0-3.914-2.072-5.403-4.627-5.403c-2.557,0-4.627,1.489-4.627,5.403v3.75h3.358
			c-0.841-0.858-1.438-2.439-1.569-3.826l0.032-0.002c1.444,0,2.693-0.598,3.38-1.48C8.59,12.918,9.392,13.402,10.357,13.619z
			 M32.885,33.803h-6.992l2.533-2.531l-0.793-0.791h1.141l-1.43-1.43C30.536,29.366,32.885,30.583,32.885,33.803z M23.114,30.481
			h-1.14l1.429-1.43c-3.191,0.314-5.542,1.529-5.542,4.752h6.992l-2.53-2.531L23.114,30.481z M28.219,23.907
			c-0.104,1.42-0.709,3.075-1.578,3.963h3.357v-3.748c0-3.916-2.07-5.403-4.627-5.403c-2.555,0-4.625,1.487-4.625,5.403v3.748h3.357
			c-0.84-0.856-1.438-2.438-1.57-3.826h0.033c1.445,0,2.693-0.598,3.379-1.48C26.45,23.208,27.254,23.69,28.219,23.907z
			 M35.614,1.811h-19.5v1h18.5v12.625h1V1.811z M14.739,3.728v13.125h3.292v4.125l4.125-4.125h11.582V3.728H14.739z M24.039,15.013
			c-2.42,0-4.379-1.961-4.379-4.378c0-2.391,1.916-4.328,4.295-4.373v4.539h4.452C28.321,13.141,26.403,15.013,24.039,15.013z
			 M24.7,10.141V6.114c2.11,0.198,3.787,1.9,3.946,4.027H24.7z"/>
	</g>
</g>
<g>
</g>
<g>
</g>
<g>
</g>
<g>
</g>
<g>
</g>
<g>
</g>
<g>
</g>
<g>
</g>
<g>
</g>
<g>
</g>
<g>
</g>
<g>
</g>
<g>
</g>
<g>
</g>
<g>
</g>
</svg>
