<?xml version="1.0" encoding="iso-8859-1"?>
<!-- Generator: Adobe Illustrator 16.0.0, SVG Export Plug-In . SVG Version: 6.00 Build 0)  -->
<!DOCTYPE svg PUBLIC "-//W3C//DTD SVG 1.1//EN" "http://www.w3.org/Graphics/SVG/1.1/DTD/svg11.dtd">
<svg version="1.1" id="Capa_1" xmlns="http://www.w3.org/2000/svg" xmlns:xlink="http://www.w3.org/1999/xlink" x="0px" y="0px"
	 width="30.5px" height="30.5px" viewBox="0 0 30.5 30.5" style="enable-background:new 0 0 30.5 30.5;" xml:space="preserve">
<g>
	<path d="M25.144,22.479V11.557C25.144,3.18,20.713,0,15.25,0C9.787,0,5.358,3.18,5.358,11.557v10.921
		C3.764,24.57,2.805,27.172,2.805,30v0.5h24.891V30C27.695,27.172,26.736,24.568,25.144,22.479z M3.815,29.5
		c0.1-2.32,0.898-4.462,2.185-6.227c0.805-1.104,1.8-2.06,2.939-2.814c-0.076,0.225,0.006,0.473,0.215,0.593l3.842,2.224
		l0.842,0.486c0.077,0.045,0.164,0.067,0.25,0.067c0.049,0,0.098-0.007,0.146-0.021c0.132-0.041,0.242-0.137,0.303-0.261
		l0.134-0.272l0.578-1.186l0.578,1.186l0.134,0.272c0.061,0.124,0.171,0.22,0.303,0.261c0.049,0.014,0.098,0.021,0.146,0.021
		c0.087,0,0.173-0.022,0.25-0.067l0.841-0.486l3.843-2.224c0.209-0.12,0.29-0.368,0.215-0.593c1.142,0.757,2.135,1.712,2.938,2.814
		c1.287,1.765,2.084,3.904,2.187,6.227H3.815z M8.44,12.116c0.125-0.038,0.255-0.01,0.384,0.064v-0.843l0.825-0.062
		c3.074,0,5.755-1.287,7.226-3.203c1.066,1.39,2.771,2.448,4.801,2.924v1.184c0.13-0.074,0.259-0.103,0.386-0.064
		c0.42,0.126,0.604,0.895,0.41,1.719c-0.188,0.802-1.14,1.354-1.554,1.271c-0.283,0.917-0.813,1.882-1.473,2.751l-0.463,0.27
		l-0.609,0.354l-0.621,0.358l-2.501,1.447l-2.501-1.447l-0.621-0.358l-0.61-0.354l-0.511-0.296
		c-0.629-0.854-1.137-1.808-1.415-2.729c-0.414,0.097-1.373-0.46-1.562-1.268C7.835,13.011,8.02,12.242,8.44,12.116z M20.441,20.42
		l-3.815,2.208l-0.755-1.546l3.208-1.855l0.564-0.328c0.021,0.011,0.045,0.018,0.066,0.025l0.344,0.702L20.441,20.42z
		 M10.446,19.626l0.343-0.702c0.022-0.01,0.045-0.016,0.067-0.025l0.566,0.328l3.208,1.855l-0.755,1.546L10.06,20.42L10.446,19.626z
		"/>
</g>
<g>
</g>
<g>
</g>
<g>
</g>
<g>
</g>
<g>
</g>
<g>
</g>
<g>
</g>
<g>
</g>
<g>
</g>
<g>
</g>
<g>
</g>
<g>
</g>
<g>
</g>
<g>
</g>
<g>
</g>
</svg>
