<?xml version="1.0" encoding="iso-8859-1"?>
<!-- Generator: Adobe Illustrator 16.0.0, SVG Export Plug-In . SVG Version: 6.00 Build 0)  -->
<!DOCTYPE svg PUBLIC "-//W3C//DTD SVG 1.1//EN" "http://www.w3.org/Graphics/SVG/1.1/DTD/svg11.dtd">
<svg version="1.1" id="Capa_1" xmlns="http://www.w3.org/2000/svg" xmlns:xlink="http://www.w3.org/1999/xlink" x="0px" y="0px"
	 width="30.502px" height="30.502px" viewBox="0 0 30.502 30.502" style="enable-background:new 0 0 30.502 30.502;"
	 xml:space="preserve">
<g>
	<path d="M29.174,27.929l-0.868-4.881c-0.229-1.301-1.424-2.53-2.715-2.801l-0.446-0.095v-9.025C25.145,3.063,20.88,0,15.622,0
		C10.36,0,6.098,3.062,6.098,11.127v8.868L4.91,20.247c-1.291,0.271-2.483,1.5-2.714,2.801l-0.868,4.881
		c-0.12,0.677,0.041,1.318,0.451,1.812c0.411,0.492,1.017,0.762,1.702,0.762h23.54c0.688,0,1.293-0.271,1.705-0.764
		C29.135,29.247,29.295,28.604,29.174,27.929z M27.957,29.098c-0.219,0.26-0.552,0.403-0.938,0.403h-4.577v-1.172h5.743
		C28.188,28.618,28.129,28.891,27.957,29.098z M3.479,29.501c-0.385,0-0.717-0.146-0.936-0.403c-0.173-0.207-0.234-0.479-0.23-0.769
		h5.743v1.172H3.479z M9.057,29.501v-2.86c0-0.275-0.224-0.5-0.5-0.5c-0.275,0-0.5,0.225-0.5,0.5v0.688H2.449l0.73-4.106
		c0.159-0.896,1.045-1.812,1.936-1.996l0.983-0.207l3.585-0.756c1.095,1.084,2.478,1.831,3.974,2.146
		c0.531,0.11,1.077,0.171,1.628,0.171c0.562,0,1.113-0.061,1.649-0.171c1.486-0.31,2.841-1.044,3.943-2.136l4.268,0.899l0.24,0.052
		c0.89,0.188,1.776,1.104,1.937,1.998l0.729,4.106h-5.609v-0.688c0-0.277-0.224-0.5-0.5-0.5c-0.274,0-0.5,0.223-0.5,0.5v2.858H9.057
		V29.501z M10.045,14.543C9.647,14.635,8.724,14.1,8.542,13.32c-0.188-0.793-0.01-1.535,0.396-1.656
		c0.121-0.034,0.246-0.006,0.37,0.062v-1.001h7.484l0.625-3.74v3.89h4.265v0.853c0.123-0.069,0.249-0.098,0.37-0.063
		c0.405,0.121,0.583,0.863,0.396,1.656c-0.184,0.771-1.1,1.305-1.495,1.225c-0.452,1.464-1.557,3.058-2.79,4.134
		c-0.167,0.146-0.335,0.279-0.505,0.404c-0.195,0.145-0.394,0.275-0.59,0.389c0.018,0.004,0.035,0.008,0.053,0.01l2.549,0.537
		c-1.236,1.008-2.76,1.562-4.385,1.562c-1.608,0-3.159-0.567-4.395-1.572l2.491-0.524c0.123-0.025,0.257-0.049,0.402-0.068
		c-0.199-0.117-0.397-0.252-0.595-0.4c-0.167-0.127-0.332-0.262-0.494-0.406C11.515,17.54,10.485,16.001,10.045,14.543z"/>
</g>
<g>
</g>
<g>
</g>
<g>
</g>
<g>
</g>
<g>
</g>
<g>
</g>
<g>
</g>
<g>
</g>
<g>
</g>
<g>
</g>
<g>
</g>
<g>
</g>
<g>
</g>
<g>
</g>
<g>
</g>
</svg>
