<?xml version="1.0" encoding="iso-8859-1"?>
<!-- Generator: Adobe Illustrator 16.0.0, SVG Export Plug-In . SVG Version: 6.00 Build 0)  -->
<!DOCTYPE svg PUBLIC "-//W3C//DTD SVG 1.1//EN" "http://www.w3.org/Graphics/SVG/1.1/DTD/svg11.dtd">
<svg version="1.1" id="Capa_1" xmlns="http://www.w3.org/2000/svg" xmlns:xlink="http://www.w3.org/1999/xlink" x="0px" y="0px"
	 width="30.502px" height="30.502px" viewBox="0 0 30.502 30.502" style="enable-background:new 0 0 30.502 30.502;"
	 xml:space="preserve">
<g>
	<path d="M29.175,27.929l-0.868-4.881c-0.229-1.301-1.424-2.53-2.715-2.801l-0.817-0.173v-8.947C24.774,3.063,20.51,0,15.25,0
		c-5.26,0-9.524,3.062-9.524,11.127v8.946l-0.818,0.174c-1.291,0.271-2.483,1.5-2.713,2.801l-0.869,4.881
		c-0.12,0.677,0.041,1.318,0.452,1.812c0.411,0.492,1.016,0.762,1.702,0.762h23.54c0.688,0,1.293-0.271,1.705-0.764
		C29.136,29.247,29.296,28.604,29.175,27.929z M27.958,29.098c-0.219,0.26-0.552,0.403-0.938,0.403h-4.576v-2.86
		c0-0.275-0.224-0.5-0.5-0.5c-0.274,0-0.5,0.225-0.5,0.5v2.86H9.058v-2.86c0-0.275-0.224-0.5-0.5-0.5c-0.276,0-0.5,0.225-0.5,0.5
		v2.86H3.479c-0.385,0-0.717-0.146-0.936-0.403c-0.219-0.263-0.302-0.613-0.234-0.992l0.869-4.883
		c0.159-0.896,1.045-1.812,1.935-1.996l0.613-0.129l3.578-0.757l2.067,2.068l3.526,3.524c0.094,0.094,0.221,0.146,0.354,0.146
		s0.26-0.055,0.354-0.146l3.526-3.524l2.067-2.068l3.576,0.757l0.611,0.129c0.89,0.188,1.776,1.102,1.938,1.998l0.866,4.881
		C28.258,28.482,28.176,28.835,27.958,29.098z M9.8,14.543C9.402,14.635,8.479,14.1,8.296,13.32
		c-0.187-0.793-0.01-1.535,0.396-1.656c0.121-0.034,0.246-0.006,0.37,0.062v-1.001h7.062l0.625-3.74v3.89h4.687v0.853
		c0.123-0.069,0.249-0.098,0.369-0.063c0.405,0.121,0.583,0.863,0.396,1.656c-0.184,0.771-1.1,1.305-1.495,1.225
		c-0.446,1.445-1.526,3.017-2.741,4.093c-0.165,0.146-0.331,0.279-0.499,0.406c-0.195,0.146-0.392,0.279-0.589,0.396
		c0.083,0.015,0.168,0.025,0.242,0.041l2.907,0.613l-2.312,2.312l-2.465,2.468l-2.465-2.467l-2.313-2.312l2.909-0.613
		c0.064-0.015,0.14-0.023,0.21-0.036C13.393,19.334,13.195,19.2,13,19.052c-0.169-0.125-0.336-0.26-0.5-0.403
		C11.298,17.581,10.249,16.021,9.8,14.543z"/>
</g>
<g>
</g>
<g>
</g>
<g>
</g>
<g>
</g>
<g>
</g>
<g>
</g>
<g>
</g>
<g>
</g>
<g>
</g>
<g>
</g>
<g>
</g>
<g>
</g>
<g>
</g>
<g>
</g>
<g>
</g>
</svg>
