<?xml version="1.0" encoding="iso-8859-1"?>
<!-- Generator: Adobe Illustrator 16.0.0, SVG Export Plug-In . SVG Version: 6.00 Build 0)  -->
<!DOCTYPE svg PUBLIC "-//W3C//DTD SVG 1.1//EN" "http://www.w3.org/Graphics/SVG/1.1/DTD/svg11.dtd">
<svg version="1.1" id="Capa_1" xmlns="http://www.w3.org/2000/svg" xmlns:xlink="http://www.w3.org/1999/xlink" x="0px" y="0px"
	 width="33.884px" height="33.883px" viewBox="0 0 33.884 33.883" style="enable-background:new 0 0 33.884 33.883;"
	 xml:space="preserve">
<g>
	<path d="M33.884,23.745c-0.75-0.938-0.862-4.975-1.008-7.245c-0.265-4.098-2.172-5.665-4.851-5.665
		c-2.682,0-4.586,1.567-4.852,5.665c-0.088,1.393-0.121,3.29-0.332,4.862c-0.768-0.584-1.633-1.061-2.566-1.396
		c0.83-0.812,1.426-2.03,1.698-3.729c0.364,0.065,0.847-0.312,1.013-0.947c0.172-0.653,0.371-1.749-0.002-1.849
		c-0.108-0.029-0.227-0.007-0.338,0.052v-1.814c0.062-1.974-0.211-3.879-2.361-4.702c-0.393-0.81-0.418-1.544-0.418-1.544
		c-0.969,0.873-4.646,1.228-4.646,1.228l0.043,0.011c-4.662,0.479-3.99,2.154-3.99,5.009v1.814
		c-0.113-0.059-0.229-0.081-0.338-0.052c-0.373,0.1-0.26,1.152-0.088,1.808c0.166,0.641,0.738,1.062,1.105,0.986
		c0.276,1.786,0.836,2.974,1.602,3.751c-0.904,0.331-1.742,0.791-2.49,1.354c-0.199-1.564-0.273-3.506-0.359-4.838
		c-0.262-4.098-2.172-5.665-4.85-5.665c-2.678,0-4.586,1.567-4.848,5.665C0.862,18.773,0.873,22.398,0,23.747h8.834
		c-0.877,1.371-1.386,2.979-1.386,4.705h18.986c0-1.726-0.507-3.335-1.384-4.705h8.834V23.745z M5.857,20.999
		c-1.041,0-2.375-1.444-2.773-2.76c-0.203,0.047-0.674-0.229-0.766-0.623c-0.096-0.403-0.006-0.781,0.201-0.842
		c0.061-0.021,0.125-0.004,0.189,0.03v-0.412l0.401-0.029c1.517,0,2.824-0.643,3.543-1.589c0.521,0.687,1.354,1.201,2.354,1.437
		v0.595c0.062-0.034,0.127-0.051,0.188-0.03c0.205,0.061,0.295,0.438,0.201,0.842c-0.093,0.395-0.56,0.664-0.763,0.623
		C8.242,19.52,6.871,20.999,5.857,20.999z M24.689,16.774c0.061-0.021,0.125-0.004,0.188,0.03v-0.412l0.401-0.029
		c1.515,0,2.824-0.643,3.543-1.589c0.521,0.687,1.354,1.201,2.354,1.437v0.595c0.062-0.034,0.127-0.051,0.188-0.03
		c0.205,0.061,0.295,0.438,0.199,0.842c-0.093,0.395-0.558,0.664-0.761,0.623C30.406,19.522,29.035,21,28.023,21
		c-1.043,0-2.377-1.444-2.771-2.76c-0.203,0.047-0.674-0.228-0.768-0.623C24.393,17.212,24.482,16.835,24.689,16.774z"/>
</g>
<g>
</g>
<g>
</g>
<g>
</g>
<g>
</g>
<g>
</g>
<g>
</g>
<g>
</g>
<g>
</g>
<g>
</g>
<g>
</g>
<g>
</g>
<g>
</g>
<g>
</g>
<g>
</g>
<g>
</g>
</svg>
