<?xml version="1.0" encoding="iso-8859-1"?>
<!-- Generator: Adobe Illustrator 16.0.0, SVG Export Plug-In . SVG Version: 6.00 Build 0)  -->
<!DOCTYPE svg PUBLIC "-//W3C//DTD SVG 1.1//EN" "http://www.w3.org/Graphics/SVG/1.1/DTD/svg11.dtd">
<svg version="1.1" id="Capa_1" xmlns="http://www.w3.org/2000/svg" xmlns:xlink="http://www.w3.org/1999/xlink" x="0px" y="0px"
	 width="36px" height="36px" viewBox="0 0 36 36" style="enable-background:new 0 0 36 36;" xml:space="preserve">
<g>
	<g>
		<path d="M34.645,11.334h-5.254l1.902-1.902l-0.596-0.595h0.856l-1.074-1.072C32.877,8,34.645,8.912,34.645,11.334z M27.301,8.837
			h-0.855l1.074-1.072C25.123,8,23.355,8.912,23.355,11.334h5.254l-1.902-1.902L27.301,8.837z M31.139,3.898
			c-0.078,1.065-0.533,2.31-1.186,2.977h2.522V4.061C32.477,1.118,30.918,0,29,0c-1.92,0-3.478,1.117-3.478,4.061v2.814h2.522
			c-0.631-0.646-1.08-1.832-1.178-2.873L26.893,4c1.084,0,2.023-0.449,2.539-1.112C29.809,3.373,30.412,3.735,31.139,3.898z
			 M34.645,36h-5.254l1.902-1.9l-0.596-0.596h0.856l-1.074-1.072C32.877,32.666,34.645,33.578,34.645,36z M27.301,33.504h-0.855
			l1.074-1.072c-2.396,0.234-4.164,1.146-4.164,3.568h5.254l-1.902-1.9L27.301,33.504z M31.139,28.564
			c-0.078,1.064-0.533,2.31-1.186,2.978h2.522v-2.815c0-2.94-1.558-4.061-3.478-4.061s-3.477,1.118-3.477,4.061v2.815h2.523
			c-0.631-0.646-1.08-1.832-1.18-2.873l0.024-0.002c1.084,0,2.022-0.45,2.539-1.112C29.809,28.039,30.412,28.402,31.139,28.564z
			 M12.644,23.667H7.391l1.902-1.901L8.698,21.17h0.856L8.48,20.098C10.877,20.333,12.644,21.245,12.644,23.667z M5.301,21.17H4.445
			l1.073-1.072c-2.397,0.234-4.163,1.146-4.163,3.568h5.253l-1.902-1.902L5.301,21.17z M9.138,16.231
			c-0.078,1.066-0.532,2.31-1.185,2.977h2.523v-2.815c0-2.943-1.557-4.061-3.476-4.061c-1.92,0-3.476,1.118-3.476,4.061v2.815h2.523
			c-0.631-0.646-1.08-1.832-1.179-2.873l0.024-0.002c1.085,0,2.024-0.45,2.539-1.113C7.809,15.706,8.413,16.069,9.138,16.231z
			 M20.666,3.917v-1H16v14.75h-2.5v1H16v14.416h4.667v-1H17V3.917H20.666z"/>
	</g>
</g>
<g>
</g>
<g>
</g>
<g>
</g>
<g>
</g>
<g>
</g>
<g>
</g>
<g>
</g>
<g>
</g>
<g>
</g>
<g>
</g>
<g>
</g>
<g>
</g>
<g>
</g>
<g>
</g>
<g>
</g>
</svg>
