<?xml version="1.0" encoding="iso-8859-1"?>
<!-- Generator: Adobe Illustrator 16.0.0, SVG Export Plug-In . SVG Version: 6.00 Build 0)  -->
<!DOCTYPE svg PUBLIC "-//W3C//DTD SVG 1.1//EN" "http://www.w3.org/Graphics/SVG/1.1/DTD/svg11.dtd">
<svg version="1.1" id="Capa_1" xmlns="http://www.w3.org/2000/svg" xmlns:xlink="http://www.w3.org/1999/xlink" x="0px" y="0px"
	 width="30.5px" height="30.5px" viewBox="0 0 30.5 30.5" style="enable-background:new 0 0 30.5 30.5;" xml:space="preserve">
<g>
	<path d="M25.314,22.477V11.557C25.314,3.18,20.884,0,15.421,0S5.529,3.18,5.529,11.557v8.404c-1.678,0.547-2.899,2.105-2.899,3.962
		c0,0.951,0.332,1.819,0.869,2.522C3.162,27.572,2.978,28.764,2.978,30v0.5H27.87V30C27.87,27.171,26.911,24.568,25.314,22.477z
		 M3.987,29.5c0.033-0.771,0.145-1.521,0.324-2.246c0.701,0.527,1.562,0.854,2.506,0.854c2.309,0,4.186-1.877,4.186-4.185
		c0-0.204-0.031-0.399-0.061-0.597l4.192,4.761c0.097,0.108,0.232,0.17,0.375,0.17c0.002,0,0.002,0,0.005,0
		c0.145-0.001,0.283-0.063,0.376-0.175l4.113-4.809l2.146-2.514c0.967,0.704,1.817,1.551,2.521,2.514
		c1.285,1.765,2.084,3.904,2.185,6.227H3.987z M5.533,21.016c0.395-0.176,0.828-0.276,1.285-0.276c0.1,0,0.19,0.021,0.289,0.028
		c0.209,0.021,0.412,0.059,0.606,0.115c0.187,0.055,0.363,0.124,0.533,0.21c0.853,0.433,1.489,1.224,1.688,2.183
		C9.977,23.484,10,23.702,10,23.923c0,1.757-1.428,3.185-3.186,3.185c-0.854,0-1.625-0.342-2.197-0.89
		c-0.135-0.129-0.256-0.272-0.367-0.423c-0.127-0.173-0.236-0.355-0.326-0.555c-0.186-0.401-0.295-0.846-0.295-1.317
		C3.631,22.625,4.416,21.51,5.533,21.016z M9.824,11.276c3.074,0,5.754-1.287,7.226-3.203c1.066,1.39,2.771,2.448,4.802,2.924v1.184
		c0.127-0.074,0.258-0.103,0.383-0.067c0.422,0.126,0.604,0.896,0.412,1.722c-0.188,0.802-1.142,1.354-1.554,1.271
		c-0.321,1.04-0.961,2.141-1.741,3.092c-0.109,0.139-0.228,0.271-0.347,0.402c-0.129,0.143-0.26,0.277-0.394,0.409
		c0.961,0.279,1.865,0.687,2.703,1.192l-2.627,3.068l-1.994,2.33l-0.507-2.33l-0.252-1.154l0.951-0.952l-0.594-0.595l-0.87-0.866
		l-0.875,0.874l-0.588,0.587l0.953,0.952l-0.252,1.154l-0.484,2.213l-1.946-2.213l-2.703-3.066c0.832-0.502,1.725-0.907,2.676-1.188
		c-0.133-0.132-0.262-0.268-0.387-0.408c-0.117-0.131-0.232-0.267-0.344-0.403c-0.765-0.944-1.386-2.044-1.705-3.104
		c-0.414,0.097-1.373-0.46-1.562-1.268c-0.195-0.824-0.012-1.596,0.41-1.722c0.125-0.035,0.256-0.007,0.385,0.064v-0.841
		L9.824,11.276z M4.862,24.422H4.328v-0.031v-0.469v-0.5h0.549h0.58h0.609h0.254v-0.146v-0.187v-0.812v-0.735v-0.108h0.1h0.4H7.11
		h0.209v0.506v1.336v0.147h1.99v0.5v0.5h-1.99v1.991h-0.5h-0.5v-1.991H5.438L4.862,24.422L4.862,24.422z"/>
</g>
<g>
</g>
<g>
</g>
<g>
</g>
<g>
</g>
<g>
</g>
<g>
</g>
<g>
</g>
<g>
</g>
<g>
</g>
<g>
</g>
<g>
</g>
<g>
</g>
<g>
</g>
<g>
</g>
<g>
</g>
</svg>
