<?xml version="1.0" encoding="iso-8859-1"?>
<!-- Generator: Adobe Illustrator 16.0.0, SVG Export Plug-In . SVG Version: 6.00 Build 0)  -->
<!DOCTYPE svg PUBLIC "-//W3C//DTD SVG 1.1//EN" "http://www.w3.org/Graphics/SVG/1.1/DTD/svg11.dtd">
<svg version="1.1" id="Capa_1" xmlns="http://www.w3.org/2000/svg" xmlns:xlink="http://www.w3.org/1999/xlink" x="0px" y="0px"
	 width="30.711px" height="30.712px" viewBox="0 0 30.711 30.712" style="enable-background:new 0 0 30.711 30.712;"
	 xml:space="preserve">
<g>
	<path d="M22.167,20.023l-1.172-2.4c-0.062-0.125-0.171-0.221-0.305-0.26c-0.133-0.041-0.275-0.021-0.396,0.045l-0.287,0.166
		c0.559-0.831,0.996-1.751,1.301-2.646c0.637-0.262,1.154-0.914,1.354-1.703c0.182-0.727,0.606-2.428-0.328-2.952v-1.22
		c0.063-2.155-0.187-4.774-2.664-5.846c-0.197-0.521-0.238-0.978-0.244-1.064L19.213,0L17.69,1.436
		c-0.498,0.47-2.792,0.923-4.262,1.068l-0.7,0.108c-4.499,0.707-4.436,2.99-4.37,5.408c0.009,0.316,0.019,0.65,0.019,1.006
		l0.033,1.101c-0.674,0.444-0.829,1.5-0.449,3.057c0.193,0.775,0.74,1.431,1.335,1.609c0.205,0.569,0.663,1.688,1.401,2.777
		l-0.281-0.162c-0.12-0.068-0.263-0.086-0.396-0.045c-0.133,0.039-0.243,0.135-0.303,0.26l-1.172,2.4
		c-3.924,2.068-6.568,5.855-6.568,10.188v0.5h26.758v-0.5C28.733,25.879,26.088,22.092,22.167,20.023z M22.237,29.711v-2.615
		c0-0.277-0.225-0.5-0.5-0.5s-0.5,0.223-0.5,0.5v2.615H9.47v-2.615c0-0.277-0.224-0.5-0.5-0.5c-0.276,0-0.5,0.223-0.5,0.5v2.615
		H2.986c0.188-3.629,2.419-6.795,5.702-8.643l5.117,2.961c0.077,0.045,0.164,0.066,0.25,0.066c0.049,0,0.098-0.008,0.146-0.021
		c0.132-0.041,0.242-0.135,0.303-0.26l0.848-1.733l0.848,1.733c0.062,0.125,0.171,0.219,0.303,0.26
		c0.048,0.015,0.097,0.021,0.146,0.021c0.088,0,0.175-0.021,0.25-0.066l5.117-2.961c3.283,1.848,5.514,5.014,5.703,8.643H22.237z
		 M9.979,19.359l0.399-0.816l0.742,0.43l0.601,0.35l0.637,0.369l2.38,1.377l-0.895,1.83L9.76,20.537l-0.276-0.16l0.163-0.334
		L9.979,19.359z M20.331,18.542l0.398,0.817l0.332,0.681l0.162,0.334l-0.275,0.159l-4.084,2.361l-0.895-1.83l2.381-1.377
		l0.637-0.369l0.602-0.348L20.331,18.542z M10.116,14.012c-0.384,0.082-0.982-0.377-1.157-1.08c-0.18-0.715-0.298-1.871,0.092-1.979
		c0.115-0.033,0.235-0.008,0.354,0.055V9.022c0-3.125-0.704-4.959,4.173-5.481l-0.043-0.015c0,0,3.846-0.387,4.86-1.342
		c0,0,0.027,0.805,0.438,1.689c2.25,0.904,2.533,2.988,2.469,5.148v1.987c0.119-0.063,0.24-0.09,0.354-0.058
		c0.392,0.107,0.183,1.31,0.003,2.023c-0.175,0.695-0.677,1.109-1.06,1.037c-0.496,1.51-1.474,3.424-2.859,4.539
		c-0.194,0.156-0.396,0.299-0.606,0.42c-0.331,0.191-0.681,0.328-1.049,0.412c-0.237,0.053-0.479,0.088-0.73,0.088
		c-0.256,0-0.5-0.035-0.74-0.088c-0.372-0.082-0.725-0.219-1.057-0.408c-0.212-0.123-0.415-0.266-0.61-0.422
		C11.571,17.452,10.613,15.557,10.116,14.012z"/>
</g>
<g>
</g>
<g>
</g>
<g>
</g>
<g>
</g>
<g>
</g>
<g>
</g>
<g>
</g>
<g>
</g>
<g>
</g>
<g>
</g>
<g>
</g>
<g>
</g>
<g>
</g>
<g>
</g>
<g>
</g>
</svg>
