<?xml version="1.0" encoding="iso-8859-1"?>
<!-- Generator: Adobe Illustrator 16.0.0, SVG Export Plug-In . SVG Version: 6.00 Build 0)  -->
<!DOCTYPE svg PUBLIC "-//W3C//DTD SVG 1.1//EN" "http://www.w3.org/Graphics/SVG/1.1/DTD/svg11.dtd">
<svg version="1.1" id="Capa_1" xmlns="http://www.w3.org/2000/svg" xmlns:xlink="http://www.w3.org/1999/xlink" x="0px" y="0px"
	 width="38.607px" height="38.607px" viewBox="0 0 38.607 38.607" style="enable-background:new 0 0 38.607 38.607;"
	 xml:space="preserve">
<g>
	<g>
		<path d="M6.896,15.528c-0.12-0.705,0.13-1.332,0.55-1.406c0.033-0.004,0.065,0.014,0.095,0.017
			c-0.194-5.084,2.803-7.416,6.15-7.437c3.253,0.078,5.832,1.984,5.963,7.42c0.027-0.004,0.051-0.021,0.078-0.014
			c0.425,0.068,0.678,0.7,0.562,1.402c-0.118,0.674-0.526,1.159-0.938,1.136c-0.892,3.283-3.571,5.714-5.756,5.816
			c-2.396-0.054-4.76-2.521-5.676-5.818c-0.016,0.007-0.027,0.021-0.042,0.021C7.454,16.739,7.016,16.231,6.896,15.528z
			 M18.096,23.394l-3.035,5.961l-0.487-3.873l0.752-0.615h-1.817l-1.665,0.004l0.751,0.615l-0.476,3.875l-3.046-5.955
			c-5.288,0.723-9.082,2.994-9.073,8.5l27.188-0.031C27.182,26.365,23.383,24.103,18.096,23.394z M35.848,17.33l0.15,0.598
			l2.608-0.66l-0.151-0.596L35.848,17.33z M32.475,14.326c-0.077,0-0.157,0.008-0.236,0.025c-0.025,0.006-0.051,0.018-0.077,0.025
			l-0.001-0.008l-0.047,0.022l-0.238,0.12l-8.828,4.42c-0.062-0.197-0.383-0.295-0.734-0.212c-0.36,0.083-0.616,0.321-0.566,0.528
			l0.58,2.502c0.049,0.209,0.38,0.312,0.742,0.228c0.354-0.082,0.597-0.31,0.564-0.514l1.678,0.016l-0.022,0.547
			c-0.009,0.195,0.062,0.387,0.194,0.531c0.134,0.145,0.316,0.229,0.514,0.235l3.151,0.134c0.012,0,0.024,0.002,0.036,0.002
			c0.185,0,0.361-0.068,0.498-0.195c0.146-0.133,0.229-0.314,0.238-0.514l0.027-0.697l3.652,0.031
			c0.021,0.004,0.045,0.01,0.068,0.01c0.029,0,0.059-0.004,0.088-0.006h0.068l-0.002-0.01c0.027-0.002,0.055-0.002,0.082-0.009
			c1.044-0.243,1.521-2.047,1.062-4.032C34.539,15.671,33.465,14.324,32.475,14.326z M29.303,22.199
			c-0.002,0.043-0.021,0.067-0.039,0.086c-0.017,0.013-0.049,0.028-0.09,0.028l-3.154-0.133c-0.045-0.002-0.072-0.022-0.086-0.039
			c-0.012-0.016-0.034-0.043-0.031-0.088l0.023-0.567l3.404,0.03L29.303,22.199z M33.768,20.942
			c-0.027,0.006-0.055,0.008-0.084,0.01c-0.006,0-0.01,0.002-0.018,0.002c-0.609,0-1.515-1.088-1.891-2.707
			c-0.403-1.741,0.029-3.03,0.525-3.256c0.024-0.013,0.049-0.032,0.072-0.037c0.033-0.01,0.066-0.012,0.102-0.012
			c0.609,0,1.515,1.086,1.89,2.707C34.789,19.476,34.292,20.821,33.768,20.942z M35.973,19.78l2.635,0.541l-0.124,0.604
			l-2.634-0.541L35.973,19.78z M37.604,14.129l-2.305,1.382l-0.316-0.526l2.306-1.384L37.604,14.129z"/>
	</g>
</g>
<g>
</g>
<g>
</g>
<g>
</g>
<g>
</g>
<g>
</g>
<g>
</g>
<g>
</g>
<g>
</g>
<g>
</g>
<g>
</g>
<g>
</g>
<g>
</g>
<g>
</g>
<g>
</g>
<g>
</g>
</svg>
