<?xml version="1.0" encoding="iso-8859-1"?>
<!-- Generator: Adobe Illustrator 16.0.0, SVG Export Plug-In . SVG Version: 6.00 Build 0)  -->
<!DOCTYPE svg PUBLIC "-//W3C//DTD SVG 1.1//EN" "http://www.w3.org/Graphics/SVG/1.1/DTD/svg11.dtd">
<svg version="1.1" id="Capa_1" xmlns="http://www.w3.org/2000/svg" xmlns:xlink="http://www.w3.org/1999/xlink" x="0px" y="0px"
	 width="38.279px" height="38.279px" viewBox="0 0 38.279 38.279" style="enable-background:new 0 0 38.279 38.279;"
	 xml:space="preserve">
<g>
	<g>
		<path d="M17.909,17.552c0-6.717-3.552-9.266-7.932-9.266c-4.378,0-7.93,2.549-7.93,9.266v8.753C0.771,27.981,0,30.067,0,32.337
			v0.398h19.953v-0.398c0-2.271-0.768-4.355-2.047-6.031v-8.753H17.909z M4.519,17.995c0.103-0.027,0.205-0.004,0.308,0.053v-0.674
			l0.662-0.049c2.463,0,4.613-1.029,5.793-2.566c0.854,1.115,2.219,1.963,3.85,2.344v0.949c0.103-0.061,0.207-0.084,0.307-0.057
			c0.337,0.104,0.484,0.721,0.329,1.383c-0.149,0.643-0.913,1.086-1.244,1.02c-0.063,0.207-0.145,0.418-0.237,0.63
			c-0.91,0.663-2.272,0.704-3.065,0.657c-0.125-0.264-0.39-0.448-0.701-0.448c-0.432,0-0.78,0.35-0.78,0.78
			c0,0.432,0.35,0.781,0.78,0.781c0.254,0,0.468-0.129,0.611-0.314c0.161,0.011,0.34,0.019,0.542,0.019
			c0.568,0,1.265-0.062,1.934-0.269c-0.148,0.222-0.308,0.439-0.477,0.644c-0.092,0.109-0.184,0.218-0.278,0.322
			c-0.104,0.114-0.208,0.224-0.313,0.328c0.769,0.225,1.492,0.549,2.166,0.954l-2.105,2.464l-1.598,1.866l-0.408-1.866l-0.201-0.929
			l0.764-0.764l-0.478-0.476l-0.697-0.694l-0.698,0.699l-0.474,0.471l0.765,0.764l-0.203,0.929l-0.387,1.771l-1.562-1.771
			l-2.166-2.462c0.665-0.401,1.383-0.727,2.144-0.95c-0.104-0.104-0.207-0.213-0.311-0.328c-0.094-0.104-0.186-0.213-0.275-0.321
			c-0.609-0.757-1.109-1.64-1.365-2.488c-0.332,0.078-1.102-0.368-1.252-1.016C4.036,18.716,4.183,18.099,4.519,17.995z
			 M19.145,31.937H0.812c0.081-1.86,0.72-3.58,1.751-4.991c0.562-0.771,1.245-1.449,2.016-2.013l1.772,2.013L9.747,30.8
			c0.078,0.09,0.188,0.139,0.304,0.139c0,0,0,0,0.001,0c0.117-0.002,0.227-0.053,0.302-0.141l3.298-3.854l1.725-2.016
			c0.771,0.563,1.455,1.242,2.02,2.016C18.424,28.356,19.064,30.076,19.145,31.937z M33.991,12.081h-4.104V7.89
			C32.082,8.097,33.827,9.869,33.991,12.081z M24.641,12.595c0-2.486,1.994-4.502,4.47-4.549v4.723h4.633
			c-0.091,2.434-2.086,4.383-4.545,4.383C26.68,17.152,24.641,15.111,24.641,12.595z M20.327,5.544v14.205h4.19v4.566l4.568-4.566
			h9.193V5.544H20.327z M37.018,18.486h-8.453l-2.784,2.784v-2.784h-4.19V6.806h15.43L37.018,18.486L37.018,18.486z"/>
	</g>
</g>
<g>
</g>
<g>
</g>
<g>
</g>
<g>
</g>
<g>
</g>
<g>
</g>
<g>
</g>
<g>
</g>
<g>
</g>
<g>
</g>
<g>
</g>
<g>
</g>
<g>
</g>
<g>
</g>
<g>
</g>
</svg>
