<?xml version="1.0" encoding="iso-8859-1"?>
<!-- Generator: Adobe Illustrator 16.0.0, SVG Export Plug-In . SVG Version: 6.00 Build 0)  -->
<!DOCTYPE svg PUBLIC "-//W3C//DTD SVG 1.1//EN" "http://www.w3.org/Graphics/SVG/1.1/DTD/svg11.dtd">
<svg version="1.1" id="Capa_1" xmlns="http://www.w3.org/2000/svg" xmlns:xlink="http://www.w3.org/1999/xlink" x="0px" y="0px"
	 width="25.447px" height="25.447px" viewBox="0 0 25.447 25.447" style="enable-background:new 0 0 25.447 25.447;"
	 xml:space="preserve">
<g>
	<path d="M24.927,23.277l-0.72-4.043c-0.194-1.088-1.194-2.12-2.276-2.352l-3.703-0.779l-0.76-1.557
		c-0.039-0.082-0.107-0.143-0.187-0.186c0.664-0.857,1.196-1.873,1.58-2.89c0.663-0.24,1.329-0.832,1.522-1.603
		c0.256-1.021-0.016-1.934-0.647-2.33V6.073C19.737,2.552,17.05,0,13.351,0C9.651,0,6.968,2.555,6.968,6.073v1.465
		C6.333,7.934,6.062,8.846,6.32,9.866c0.193,0.772,0.864,1.367,1.53,1.604c0.379,1.021,0.905,2.036,1.567,2.892
		c-0.074,0.045-0.142,0.104-0.181,0.184l-0.728,1.488c-0.646-1.479-2.12-2.517-3.834-2.517c-2.309,0-4.186,1.877-4.186,4.185
		c0,1.366,0.668,2.571,1.687,3.338l-0.397,2.233c-0.102,0.568,0.033,1.111,0.381,1.527c0.349,0.416,0.859,0.646,1.439,0.646h19.507
		c0.58,0,1.092-0.23,1.438-0.646C24.89,24.387,25.029,23.846,24.927,23.277z M23.855,24.229c-0.174,0.209-0.439,0.32-0.748,0.32
		h-3.758v-2.17c0-0.248-0.201-0.449-0.449-0.449s-0.449,0.201-0.449,0.449v2.17H8.259v-2.17c0-0.248-0.202-0.449-0.45-0.449
		s-0.45,0.201-0.45,0.449v2.17H3.602c-0.309,0-0.575-0.111-0.749-0.32c-0.174-0.207-0.239-0.487-0.185-0.793l0.338-1.897
		c0.513,0.226,1.076,0.354,1.672,0.354c2.308,0,4.186-1.877,4.186-4.187c0-0.142-0.027-0.274-0.041-0.412l3.381,1.957
		c0.068,0.039,0.146,0.062,0.226,0.062c0.044,0,0.088-0.008,0.131-0.021c0.12-0.036,0.219-0.121,0.272-0.233l0.522-1.07l0.522,1.07
		c0.055,0.112,0.152,0.197,0.272,0.233c0.043,0.013,0.087,0.021,0.132,0.021c0.077,0,0.155-0.021,0.225-0.062l3.738-2.164
		c0.021-0.012,0.035-0.03,0.057-0.047l3.445,0.728c0.725,0.151,1.445,0.897,1.576,1.627l0.719,4.043
		C24.095,23.741,24.031,24.021,23.855,24.229z M4.678,14.521c1.252,0,2.326,0.729,2.847,1.781c0.067,0.139,0.122,0.277,0.17,0.426
		c0.046,0.144,0.089,0.285,0.114,0.438c0.029,0.177,0.055,0.354,0.055,0.539c0,1.756-1.429,3.187-3.186,3.187
		c-0.541,0-1.042-0.148-1.488-0.387c-0.145-0.076-0.281-0.16-0.412-0.259c-0.141-0.104-0.273-0.217-0.396-0.345
		c-0.547-0.571-0.889-1.346-0.889-2.196C1.492,15.95,2.919,14.521,4.678,14.521z M9.596,15.868l0.24-0.49l0.559,0.322l0.583,0.338
		l0.582,0.338l1.231,0.714l-0.557,1.141l-2.527-1.463L9.278,16.52l0.066-0.137L9.596,15.868z M17.113,15.87l0.25,0.513l0.066,0.137
		L17,16.768l-2.528,1.463l-0.558-1.141l1.231-0.714l0.582-0.338l0.584-0.338l0.56-0.322L17.113,15.87z M8.542,10.66
		c-0.354,0.076-1.168-0.366-1.328-1.012c-0.166-0.658-0.01-1.272,0.35-1.373c0.105-0.029,0.217-0.006,0.326,0.051v-2.25
		c0-3.182,2.445-5.153,5.462-5.153c3.02,0,5.465,1.973,5.465,5.153v2.252c0.109-0.059,0.221-0.082,0.326-0.053
		c0.356,0.101,0.516,0.715,0.35,1.373c-0.16,0.639-0.969,1.08-1.318,1.014c-0.555,1.683-1.75,3.913-3.484,4.713
		c-0.416,0.191-0.86,0.303-1.336,0.303c-0.481,0-0.93-0.111-1.348-0.303C10.272,14.584,9.098,12.384,8.542,10.66z M2.853,18.334
		l-0.304-0.248l0.315-0.387l0.314-0.389l0.254,0.205l0.061,0.051l0.354,0.287l0.322,0.262l0.854-0.822l0.434-0.42l0.178-0.17
		l0.55-0.529l0.332,0.344l0.362,0.375l-0.012,0.013l-0.611,0.588L4.228,19.45l-0.663-0.539L3.206,18.62L2.853,18.334z"/>
</g>
<g>
</g>
<g>
</g>
<g>
</g>
<g>
</g>
<g>
</g>
<g>
</g>
<g>
</g>
<g>
</g>
<g>
</g>
<g>
</g>
<g>
</g>
<g>
</g>
<g>
</g>
<g>
</g>
<g>
</g>
</svg>
