<?xml version="1.0" encoding="iso-8859-1"?>
<!-- Generator: Adobe Illustrator 16.0.0, SVG Export Plug-In . SVG Version: 6.00 Build 0)  -->
<!DOCTYPE svg PUBLIC "-//W3C//DTD SVG 1.1//EN" "http://www.w3.org/Graphics/SVG/1.1/DTD/svg11.dtd">
<svg version="1.1" id="Capa_1" xmlns="http://www.w3.org/2000/svg" xmlns:xlink="http://www.w3.org/1999/xlink" x="0px" y="0px"
	 width="28.614px" height="28.614px" viewBox="0 0 28.614 28.614" style="enable-background:new 0 0 28.614 28.614;"
	 xml:space="preserve">
<g>
	<path d="M14.804,1.307c-0.036,0-0.07,0.008-0.104,0.008c-0.106-0.002-0.211-0.01-0.318-0.008H14.804z M14.64,17.581
		c-0.019,0-0.036-0.005-0.056-0.005c-0.014,0-0.026,0.005-0.041,0.005H14.64z M8.694,11.592c0.014-0.002,0.024-0.018,0.04-0.023
		c0.941,3.405,3.378,5.952,5.853,6.007c2.255-0.103,5.021-2.604,5.943-5.991c0.424,0.025,0.85-0.475,0.967-1.17
		c0.123-0.727-0.133-1.373-0.571-1.449c-0.029-0.004-0.058,0.014-0.084,0.014c-0.127-5.604-2.789-7.578-6.142-7.664
		c-3.457,0.016-6.552,2.42-6.355,7.666C8.312,8.98,8.281,8.961,8.249,8.966C7.81,9.042,7.554,9.689,7.677,10.415
		C7.795,11.137,8.25,11.667,8.694,11.592z M0.558,27.307c0-1.551,0.301-2.846,0.836-3.934C0.553,22.715,0,21.705,0,20.557
		c0-1.975,1.608-3.582,3.584-3.582c1.492,0,2.771,0.916,3.311,2.215c0.939-0.284,1.956-0.495,3.035-0.641l3.137,6.146l0.497-3.998
		l-0.776-0.636h1.717h1.879l-0.778,0.636l0.497,3.998l3.14-6.146c5.455,0.733,9.371,3.071,9.371,8.758H0.558z M1,20.557
		c0,0.779,0.354,1.472,0.902,1.945c0.452,0.393,1.036,0.639,1.682,0.639c1.426,0,2.584-1.158,2.584-2.584
		c0-0.371-0.082-0.723-0.223-1.041c-0.402-0.906-1.308-1.541-2.361-1.541C2.161,17.975,1,19.133,1,20.557z M2.426,21.833
		l0.688,0.559l2.652-2.557l-0.17-0.179l-0.178-0.185L5.07,19.113l-0.728,0.7l-1.287,1.242l-0.735-0.6l-0.255-0.205L1.75,20.638
		l-0.314,0.389L2.426,21.833z"/>
</g>
<g>
</g>
<g>
</g>
<g>
</g>
<g>
</g>
<g>
</g>
<g>
</g>
<g>
</g>
<g>
</g>
<g>
</g>
<g>
</g>
<g>
</g>
<g>
</g>
<g>
</g>
<g>
</g>
<g>
</g>
</svg>
