<?xml version="1.0" encoding="iso-8859-1"?>
<!-- Generator: Adobe Illustrator 16.0.0, SVG Export Plug-In . SVG Version: 6.00 Build 0)  -->
<!DOCTYPE svg PUBLIC "-//W3C//DTD SVG 1.1//EN" "http://www.w3.org/Graphics/SVG/1.1/DTD/svg11.dtd">
<svg version="1.1" id="Capa_1" xmlns="http://www.w3.org/2000/svg" xmlns:xlink="http://www.w3.org/1999/xlink" x="0px" y="0px"
	 width="28.451px" height="28.451px" viewBox="0 0 28.451 28.451" style="enable-background:new 0 0 28.451 28.451;"
	 xml:space="preserve">
<g>
	<g>
		<path d="M21.077,16.614H7.376c0-2.791,1.831-5.168,4.406-6.11c-0.554-0.561-0.955-1.417-1.154-2.707
			c-0.267,0.054-0.679-0.25-0.801-0.713C9.705,6.613,9.624,5.853,9.89,5.78c0.08-0.021,0.164-0.006,0.245,0.037V4.508
			c0-2.061-0.486-3.27,2.88-3.616l-0.028-0.008c0,0,2.653-0.255,3.352-0.884c0,0,0.02,0.53,0.303,1.113
			c1.553,0.596,1.748,1.971,1.703,3.395v1.309c0.084-0.042,0.166-0.058,0.246-0.037c0.268,0.073,0.125,0.862,0.001,1.334
			c-0.119,0.458-0.47,0.731-0.731,0.683c-0.195,1.228-0.626,2.108-1.224,2.694C19.228,11.423,21.077,13.808,21.077,16.614z
			 M4.142,17.451v3.5v0.667v6.833h2v-6.833H22.31v6.833h2v-6.833v-0.667v-3.5H4.142z"/>
	</g>
</g>
<g>
</g>
<g>
</g>
<g>
</g>
<g>
</g>
<g>
</g>
<g>
</g>
<g>
</g>
<g>
</g>
<g>
</g>
<g>
</g>
<g>
</g>
<g>
</g>
<g>
</g>
<g>
</g>
<g>
</g>
</svg>
