<?xml version="1.0" encoding="iso-8859-1"?>
<!-- Generator: Adobe Illustrator 16.0.0, SVG Export Plug-In . SVG Version: 6.00 Build 0)  -->
<!DOCTYPE svg PUBLIC "-//W3C//DTD SVG 1.1//EN" "http://www.w3.org/Graphics/SVG/1.1/DTD/svg11.dtd">
<svg version="1.1" id="Capa_1" xmlns="http://www.w3.org/2000/svg" xmlns:xlink="http://www.w3.org/1999/xlink" x="0px" y="0px"
	 width="24.576px" height="24.576px" viewBox="0 0 24.576 24.576" style="enable-background:new 0 0 24.576 24.576;"
	 xml:space="preserve">
<g>
	<g>
		<path d="M24.211,22.374l-0.689-4.178c-0.185-1.121-1.196-2.195-2.307-2.441l-4.652-1.043c0.645-0.842,1.164-1.825,1.551-2.813
			c0.688-0.237,1.382-0.84,1.59-1.631c0.277-1.052,0.012-1.994-0.639-2.41l0.02-1.51c0.045-3.63-2.69-6.3-6.507-6.347
			c-3.816-0.047-6.615,2.554-6.66,6.185l-0.019,1.51C5.239,8.093,4.948,9.032,5.2,10.089c0.188,0.799,0.875,1.42,1.558,1.674
			c0.355,0.994,0.846,1.99,1.463,2.848l-0.576,0.112c-0.479-1.418-1.806-2.449-3.383-2.449c-1.978,0-3.584,1.607-3.584,3.583
			c0,0.688,0.204,1.326,0.543,1.873c-0.019,0.062-0.041,0.125-0.055,0.189l-0.793,4.16c-0.111,0.582,0.021,1.141,0.371,1.568
			c0.35,0.429,0.871,0.671,1.465,0.68l20.112,0.248h0.026c0.588,0,1.104-0.23,1.461-0.65C24.164,23.506,24.309,22.954,24.211,22.374
			z M1.675,15.855c0-1.424,1.159-2.584,2.584-2.584c1.092,0,2.023,0.685,2.4,1.646c0.018,0.041,0.025,0.084,0.04,0.127
			c0.032,0.101,0.071,0.199,0.092,0.306c0.029,0.146,0.042,0.297,0.046,0.448c0,0.021,0.006,0.039,0.006,0.06
			c0,0.136-0.02,0.268-0.039,0.396c-0.192,1.235-1.256,2.188-2.545,2.188c-0.797,0-1.502-0.368-1.977-0.938
			c-0.104-0.123-0.193-0.256-0.271-0.396c-0.084-0.148-0.151-0.31-0.205-0.478C1.727,16.382,1.675,16.126,1.675,15.855z
			 M7.817,15.604l1.047-0.207c0.688,0.74,1.5,1.304,2.427,1.562l-0.14,0.123l0.773,0.726l-0.591,2.34l-3.513-4.09
			c0.004-0.065,0.021-0.132,0.021-0.199C7.843,15.77,7.823,15.688,7.817,15.604z M13.319,20.267l-0.555-2.451l0.793-0.704
			l-0.133-0.125c0.932-0.232,1.758-0.775,2.469-1.5l1.354,0.303L13.319,20.267z M7.479,10.931c-0.365,0.072-1.199-0.395-1.357-1.062
			C5.96,9.188,6.13,8.558,6.501,8.458c0.109-0.026,0.223-0.004,0.334,0.06l0.029-2.32c0.041-3.28,2.588-5.284,5.699-5.245
			c3.114,0.036,5.609,2.104,5.569,5.385l-0.027,2.319c0.113-0.059,0.229-0.079,0.336-0.049c0.367,0.106,0.521,0.744,0.344,1.418
			c-0.174,0.658-1.014,1.104-1.375,1.029c-0.373,1.09-1.016,2.401-1.891,3.425c-0.113,0.134-0.23,0.261-0.354,0.384
			c-0.131,0.132-0.268,0.254-0.405,0.368c-0.648,0.539-1.394,0.893-2.223,0.925c-0.056,0.002-0.106,0.011-0.162,0.011
			c-0.062,0-0.118-0.013-0.18-0.018c-0.834-0.058-1.568-0.424-2.201-0.978c-0.138-0.118-0.271-0.243-0.397-0.379
			c-0.117-0.125-0.231-0.256-0.342-0.394C8.421,13.368,7.824,12.049,7.479,10.931z M22.331,23.675l-3.889-0.049l0.025-2.109
			c0.004-0.248-0.195-0.453-0.443-0.455c-0.002,0-0.004,0-0.006,0c-0.246,0-0.447,0.197-0.45,0.443l-0.026,2.11L7.006,23.483
			l0.026-2.109c0.003-0.248-0.196-0.451-0.444-0.455c-0.28-0.006-0.452,0.196-0.456,0.444l-0.025,2.108L2.22,23.424
			c-0.324-0.004-0.601-0.127-0.779-0.348c-0.18-0.22-0.244-0.515-0.184-0.832l0.698-3.668c0.625,0.526,1.423,0.858,2.304,0.858
			c1.514,0,2.805-0.944,3.328-2.272l4.438,5.164c0.086,0.1,0.21,0.155,0.341,0.157h0.002c0.13,0,0.253-0.057,0.338-0.153l5.544-6.32
			l2.771,0.619c0.752,0.168,1.49,0.951,1.613,1.709l0.69,4.181c0.053,0.315-0.02,0.606-0.201,0.821
			c-0.182,0.216-0.456,0.332-0.772,0.332v0.447L22.331,23.675z"/>
		<polygon points="2.433,16.976 2.57,17.114 2.785,17.329 3.14,17.683 4.259,16.562 5.379,17.683 5.731,17.329 6.086,16.976 
			5.227,16.116 4.966,15.855 5.147,15.675 5.72,15.102 6.086,14.734 5.731,14.382 5.379,14.028 4.259,15.148 3.14,14.028 
			2.785,14.382 2.433,14.734 3.3,15.602 3.552,15.855 3.352,16.056 		"/>
	</g>
</g>
<g>
</g>
<g>
</g>
<g>
</g>
<g>
</g>
<g>
</g>
<g>
</g>
<g>
</g>
<g>
</g>
<g>
</g>
<g>
</g>
<g>
</g>
<g>
</g>
<g>
</g>
<g>
</g>
<g>
</g>
</svg>
