<?xml version="1.0" encoding="iso-8859-1"?>
<!-- Generator: Adobe Illustrator 16.0.0, SVG Export Plug-In . SVG Version: 6.00 Build 0)  -->
<!DOCTYPE svg PUBLIC "-//W3C//DTD SVG 1.1//EN" "http://www.w3.org/Graphics/SVG/1.1/DTD/svg11.dtd">
<svg version="1.1" id="Capa_1" xmlns="http://www.w3.org/2000/svg" xmlns:xlink="http://www.w3.org/1999/xlink" x="0px" y="0px"
	 width="27.967px" height="27.967px" viewBox="0 0 27.967 27.967" style="enable-background:new 0 0 27.967 27.967;"
	 xml:space="preserve">
<g>
	<g>
		<path d="M22.229,16.809c0.771-0.759,1.326-1.896,1.584-3.482c0.338,0.063,0.789-0.291,0.943-0.884
			c0.158-0.609,0.342-1.63-0.002-1.724c-0.104-0.027-0.211-0.008-0.318,0.047V9.075c0.06-1.842-0.195-3.618-2.201-4.389
			c-0.365-0.752-0.391-1.438-0.391-1.438c-0.902,0.813-4.332,1.143-4.332,1.143l0.037,0.01c-4.352,0.447-3.724,2.01-3.724,4.673
			v1.691c-0.104-0.055-0.213-0.074-0.313-0.047c-0.135,0.036-0.199,0.204-0.223,0.43h-2.685v3.713H5.308v3.715H0v6.143h1.401V19.98
			h3.806v4.738h1.502v-8.455h3.807v6.438c-0.166,0.646-0.256,1.322-0.256,2.018h0.256h1.488h3.809h1.4h10.754
			C27.967,21.094,25.576,18.012,22.229,16.809z M15.814,16.881c-1.526,0.588-2.842,1.566-3.809,2.812V12.55h1.49
			c0.198,0.509,0.654,0.84,0.969,0.776c0.237,1.552,0.707,2.614,1.35,3.338V16.881z"/>
	</g>
</g>
<g>
</g>
<g>
</g>
<g>
</g>
<g>
</g>
<g>
</g>
<g>
</g>
<g>
</g>
<g>
</g>
<g>
</g>
<g>
</g>
<g>
</g>
<g>
</g>
<g>
</g>
<g>
</g>
<g>
</g>
</svg>
