<?xml version="1.0" encoding="iso-8859-1"?>
<!-- Generator: Adobe Illustrator 16.0.0, SVG Export Plug-In . SVG Version: 6.00 Build 0)  -->
<!DOCTYPE svg PUBLIC "-//W3C//DTD SVG 1.1//EN" "http://www.w3.org/Graphics/SVG/1.1/DTD/svg11.dtd">
<svg version="1.1" id="Capa_1" xmlns="http://www.w3.org/2000/svg" xmlns:xlink="http://www.w3.org/1999/xlink" x="0px" y="0px"
	 width="41.582px" height="41.583px" viewBox="0 0 41.582 41.583" style="enable-background:new 0 0 41.582 41.583;"
	 xml:space="preserve">
<g>
	<path d="M41.562,27.292l-0.444-2.693c-0.132-0.803-0.855-1.572-1.649-1.75l-3.192-0.713c0.395-0.531,0.709-1.146,0.941-1.763
		c0.43-0.156,0.858-0.537,0.982-1.033c0.166-0.66-0.009-1.25-0.418-1.506v-0.463c0.372-1.125,0.569-2.965-1.128-3.955
		c-0.762-0.445-1.385-0.465-1.86-0.309c-0.085-0.191,0.145-0.48,0.145-0.48c-0.398-0.016-0.604,0.203-0.688,0.32
		c-0.521-0.242-1.196-0.354-2.071-0.168c-2.812,0.59-3.159,4.268-2.642,5.059c-0.406,0.256-0.58,0.842-0.415,1.5
		c0.125,0.498,0.56,0.883,0.986,1.035c0.227,0.604,0.531,1.208,0.912,1.731l-3.052,0.604c-0.46,0.092-0.887,0.392-1.208,0.771
		l-2.477-0.556c0.608-0.774,1.099-1.692,1.446-2.619c0.597-0.217,1.193-0.746,1.365-1.438c0.23-0.914-0.012-1.733-0.58-2.09V16.13
		c0.521-1.562,0.791-4.117-1.563-5.494c-1.058-0.614-1.933-0.655-2.593-0.438c-0.104-0.271,0.203-0.656,0.203-0.656
		c-0.543-0.02-0.826,0.271-0.942,0.434c-0.726-0.334-1.675-0.477-2.892-0.223c-3.896,0.818-4.394,5.926-3.68,7.041
		c-0.556,0.359-0.794,1.166-0.566,2.074c0.175,0.69,0.776,1.225,1.373,1.438c0.338,0.91,0.812,1.811,1.4,2.576l-2.57,0.511
		c-0.278-0.261-0.605-0.468-0.955-0.545l-3.192-0.714c0.394-0.53,0.71-1.145,0.942-1.764c0.428-0.155,0.856-0.536,0.98-1.032
		c0.166-0.66-0.008-1.25-0.417-1.506v-0.466c0.373-1.125,0.567-2.963-1.127-3.953c-0.763-0.444-1.386-0.465-1.86-0.309
		c-0.086-0.191,0.144-0.479,0.144-0.479c-0.399-0.017-0.604,0.204-0.688,0.319c-0.521-0.242-1.195-0.352-2.07-0.168
		c-2.812,0.59-3.159,4.269-2.642,5.06c-0.407,0.256-0.579,0.842-0.415,1.5c0.124,0.498,0.559,0.883,0.987,1.034
		c0.226,0.605,0.53,1.208,0.912,1.731L2.23,22.707c-0.797,0.159-1.539,0.907-1.69,1.704l-0.513,2.686
		c-0.082,0.432,0.021,0.864,0.285,1.187c0.263,0.321,0.664,0.508,1.104,0.514l8.744,0.106l-0.148,0.785
		c-0.104,0.543,0.024,1.084,0.353,1.485c0.327,0.401,0.834,0.638,1.388,0.644l18.037,0.224h0.024c0.557,0,1.047-0.219,1.384-0.617
		c0.339-0.397,0.475-0.92,0.383-1.469l-0.185-1.104l8.733,0.106h0.021c0.438,0,0.839-0.181,1.104-0.494
		C41.52,28.149,41.632,27.721,41.562,27.292z M33.396,24.377l-0.323,1.289l-2.166-2.521l0.916-0.182
		c0.409,0.34,0.877,0.574,1.394,0.664l-0.317,0.283L33.396,24.377z M34.232,25.688l-0.293-1.306l0.514-0.454l-0.326-0.306
		c0.495-0.092,0.943-0.317,1.343-0.644l0.952,0.213L34.232,25.688z M30.554,19.847c-0.227,0.049-0.753-0.236-0.857-0.652
		c-0.104-0.426-0.004-0.821,0.229-0.887c0.068-0.02,0.14-0.004,0.21,0.033v-0.635c0.001-0.002,0.004-0.002,0.004-0.004
		c-0.002-0.008-0.003-0.021-0.004-0.031v-0.215c0.057-0.537,0.562-1.561,3.365-0.643c0.964,0.315,1.557-0.187,1.854-0.851
		c0.955,0.104,1.59,1.188,1.832,1.854v0.523c0.07-0.039,0.143-0.055,0.211-0.035c0.23,0.064,0.33,0.461,0.228,0.887
		c-0.104,0.412-0.626,0.695-0.854,0.654c-0.224,0.68-0.609,1.498-1.145,2.14c-0.125,0.152-0.258,0.297-0.398,0.424
		c-0.174,0.156-0.358,0.283-0.557,0.392c-0.312,0.173-0.646,0.281-1.011,0.281c-0.372,0-0.715-0.108-1.025-0.281
		c-0.198-0.106-0.387-0.239-0.561-0.397c-0.145-0.131-0.279-0.272-0.405-0.43C31.148,21.34,30.773,20.535,30.554,19.847z
		 M20.43,25.874l-0.512,2.021l-3.316-3.861l1.455-0.289c0.615,0.557,1.323,0.947,2.121,1.084l-0.443,0.396L20.43,25.874z
		 M21.644,27.926l-0.461-2.045l0.711-0.633l-0.453-0.426c0.767-0.143,1.447-0.521,2.047-1.051l1.508,0.336L21.644,27.926z
		 M16.477,19.578c-0.315,0.068-1.047-0.33-1.191-0.908c-0.146-0.59-0.008-1.141,0.314-1.23c0.094-0.027,0.193-0.006,0.291,0.045
		v-0.884c0.002-0.002,0.004-0.004,0.006-0.006c-0.002-0.01-0.004-0.025-0.006-0.037v-0.309c0.082-0.748,0.791-2.16,4.678-0.889
		c1.339,0.438,2.167-0.256,2.583-1.179c1.324,0.146,2.205,1.65,2.543,2.574v0.729c0.049-0.025,0.098-0.045,0.146-0.054
		c-0.002,0.007-0.001,0.019-0.003,0.021c0.01,0.013,0.029,0.003,0.055-0.02c0.03,0,0.062-0.004,0.094,0.004
		c0.322,0.09,0.462,0.641,0.314,1.23c-0.144,0.574-0.869,0.969-1.186,0.908c-0.33,1.006-0.921,2.226-1.734,3.144
		c-0.131,0.148-0.269,0.291-0.41,0.423c-0.162,0.147-0.337,0.278-0.516,0.396c-0.499,0.33-1.054,0.537-1.664,0.537
		c-0.621,0-1.182-0.207-1.684-0.539c-0.183-0.121-0.357-0.257-0.523-0.406c-0.145-0.133-0.281-0.276-0.413-0.428
		C17.375,21.797,16.805,20.595,16.477,19.578z M4.249,26.178c-0.276-0.045-0.502,0.217-0.506,0.494l-0.015,1.15l-2.301-0.027
		c-0.145-0.002-0.266-0.055-0.341-0.146c-0.075-0.094-0.104-0.223-0.075-0.364L1.522,24.6c0.074-0.397,0.506-0.832,0.904-0.912
		l1.616-0.319l3.494,4.067c0.094,0.109,0.231,0.172,0.376,0.174c0.001,0,0.002,0,0.003,0c0.144,0,0.281-0.062,0.376-0.17
		l3.505-3.998l1.238,0.277l-0.117,0.023c-1.034,0.207-2,1.18-2.196,2.215l-0.371,1.947l-5.623-0.068l0.015-1.152
		C4.747,26.409,4.525,26.182,4.249,26.178z M9.734,22.981l0.951,0.213l-2.188,2.494l-0.294-1.306l0.513-0.454l-0.326-0.305
		C8.887,23.532,9.335,23.305,9.734,22.981z M7.664,24.377l-0.325,1.289l-2.166-2.521l0.916-0.182
		c0.411,0.34,0.877,0.574,1.395,0.664l-0.318,0.283L7.664,24.377z M4.818,19.847C4.59,19.896,4.064,19.61,3.96,19.194
		c-0.104-0.426-0.005-0.821,0.227-0.887c0.068-0.02,0.141-0.004,0.211,0.033v-0.635c0-0.002,0.002-0.002,0.004-0.004
		C4.4,17.694,4.398,17.681,4.398,17.67v-0.211c0.055-0.537,0.556-1.566,3.365-0.646c0.963,0.316,1.555-0.186,1.854-0.85
		c0.955,0.104,1.59,1.189,1.833,1.855v0.522c0.07-0.039,0.142-0.056,0.21-0.035c0.231,0.063,0.331,0.461,0.228,0.888
		c-0.104,0.412-0.627,0.694-0.854,0.653c-0.224,0.681-0.611,1.498-1.146,2.143c-0.125,0.149-0.258,0.295-0.398,0.422
		c-0.172,0.155-0.359,0.282-0.557,0.392c-0.31,0.172-0.646,0.28-1.011,0.28c-0.372,0-0.712-0.108-1.024-0.28
		c-0.198-0.107-0.387-0.24-0.562-0.398c-0.144-0.131-0.278-0.272-0.405-0.43C5.416,21.34,5.041,20.535,4.818,19.847z M29.8,31.04
		l-3.388-0.041l0.021-1.797c0.002-0.275-0.219-0.502-0.494-0.506c-0.002,0-0.004,0-0.006,0c-0.272,0-0.496,0.221-0.5,0.494
		l-0.021,1.797l-9.258-0.115l0.021-1.797c0.003-0.277-0.218-0.504-0.493-0.506c-0.002,0-0.004,0-0.007,0
		c-0.272,0-0.497,0.219-0.5,0.494l-0.021,1.797l-3.391-0.043c-0.261-0.002-0.481-0.104-0.625-0.275
		c-0.143-0.174-0.193-0.41-0.146-0.666l0.183-0.959l0.039-0.205l0.057-0.295l0.096-0.498l0.312-1.639l0.024-0.135
		c0.12-0.633,0.78-1.297,1.41-1.424l1.181-0.232l0.491-0.1l0.489-0.096l0.197-0.039l4.928,5.737c0.096,0.108,0.203,0.164,0.38,0.175
		c0.144,0,0.28-0.062,0.376-0.17l4.948-5.643l0.178,0.039l0.484,0.107l0.487,0.109l1.345,0.301c0.567,0.127,1.127,0.699,1.312,1.277
		c0.02,0.059,0.055,0.117,0.063,0.178l0.24,1.463l0.083,0.502l0.047,0.285l0.035,0.215l0.212,1.283
		c0.042,0.254-0.014,0.488-0.158,0.658c-0.144,0.17-0.363,0.264-0.621,0.264v0.498L29.8,31.04z M40.144,27.956l-2.297-0.027
		l0.014-1.152c0.002-0.275-0.219-0.504-0.493-0.506c-0.276,0-0.505,0.218-0.507,0.494l-0.014,1.15l-5.615-0.068l-0.271-1.639
		c-0.172-1.041-1.112-2.037-2.145-2.27l-0.819-0.186c0.057-0.021,0.108-0.059,0.166-0.064l1.616-0.32l3.494,4.066
		c0.095,0.109,0.23,0.174,0.375,0.176c0.002,0,0.002,0,0.004,0c0.145,0,0.281-0.062,0.375-0.17l3.507-3.998l1.713,0.383
		c0.396,0.088,0.815,0.533,0.882,0.934l0.445,2.697c0.021,0.143-0.008,0.27-0.082,0.361c-0.077,0.09-0.198,0.139-0.342,0.139v0.498
		L40.144,27.956z"/>
</g>
<g>
</g>
<g>
</g>
<g>
</g>
<g>
</g>
<g>
</g>
<g>
</g>
<g>
</g>
<g>
</g>
<g>
</g>
<g>
</g>
<g>
</g>
<g>
</g>
<g>
</g>
<g>
</g>
<g>
</g>
</svg>
