<?xml version="1.0" encoding="iso-8859-1"?>
<!-- Generator: Adobe Illustrator 16.0.0, SVG Export Plug-In . SVG Version: 6.00 Build 0)  -->
<!DOCTYPE svg PUBLIC "-//W3C//DTD SVG 1.1//EN" "http://www.w3.org/Graphics/SVG/1.1/DTD/svg11.dtd">
<svg version="1.1" id="Capa_1" xmlns="http://www.w3.org/2000/svg" xmlns:xlink="http://www.w3.org/1999/xlink" x="0px" y="0px"
	 width="35.358px" height="35.359px" viewBox="0 0 35.358 35.359" style="enable-background:new 0 0 35.358 35.359;"
	 xml:space="preserve">
<g>
	<g>
		<path d="M14.704,20.165h14.856V8.722H14.704V20.165z M17.675,19.632H15.47c0.228-0.187,0.777-0.679,2.196-2.019h0.009V19.632
			L17.675,19.632z M20.514,17.083h-2.287c0.618-0.588,1.375-1.312,2.287-2.188V17.083z M23.352,15.152l-0.946-0.373h0.946V15.152z
			 M29.031,11.406h-0.918l0.918-1.529V11.406z M26.723,9.254h2.061l-1.291,2.151h-0.77V9.254z M26.723,11.937h0.449l-0.449,0.748
			V11.937z M26.723,13.72l1.069-1.783h1.238v2.307h-2.308V13.72L26.723,13.72z M26.723,14.779h2.309v2.305h-2.309V14.779z
			 M26.723,17.615h2.309v2.02h-2.309V17.615z M23.885,9.254h2.308v2.151h-2.308V9.254z M23.885,11.937h2.308v1.635l-0.403,0.672
			h-1.902v-2.307H23.885z M23.885,14.779h1.584l-0.586,0.977l-0.998-0.395V14.779z M23.885,15.933l1.223,0.482l0.982-1.639h0.103
			v2.307h-2.308V15.933z M23.885,17.615h2.308v2.02h-2.308V17.615z M21.047,9.254h2.305v2.151h-2.305V9.254z M21.047,11.937h2.305
			v2.307h-2.295l-0.01-0.002V11.937z M21.047,14.812l2.305,0.91v1.36h-2.305V14.812z M21.047,17.615h2.305v2.02h-2.305V17.615z
			 M18.207,9.254h2.307v2.151h-2.307V9.254z M18.207,11.937h2.307v2.221l-0.027,0.027c-0.021,0.021-0.042,0.04-0.062,0.059h-2.216
			L18.207,11.937L18.207,11.937z M18.207,14.779h1.662c-0.531,0.51-1.104,1.055-1.662,1.586V14.779z M18.207,17.615h2.307v2.02
			h-2.307V17.615z M15.237,9.254h2.438v2.151h-2.438V9.254z M15.237,11.937h2.438v2.307h-2.438V11.937z M15.237,14.779h2.438v2.094
			c-0.075,0.07-0.148,0.142-0.223,0.211h-2.216L15.237,14.779L15.237,14.779z M15.237,17.615h1.651
			c-0.758,0.717-1.371,1.285-1.651,1.529V17.615z M15.237,19.568l0.021,0.064h-0.021V19.568z M13.786,17.199
			c-0.055,0.317-0.248,0.545-0.44,0.535c-0.42,1.545-1.681,2.688-2.708,2.734c-1.127-0.023-2.239-1.185-2.671-2.737
			c-0.007,0.004-0.013,0.01-0.02,0.012c-0.201,0.033-0.408-0.205-0.465-0.537c-0.058-0.332,0.062-0.625,0.259-0.66
			c0.015-0.002,0.031,0.006,0.044,0.007c-0.092-2.392,1.317-3.489,2.894-3.499c1.53,0.038,2.744,0.936,2.807,3.492
			c0.013-0.002,0.023-0.01,0.038-0.008C13.722,16.572,13.842,16.868,13.786,17.199z M35.358,26.312V5.525H0v20.787h12.165v1.834
			h-1.152v1.688h1.152h11.027h1.151v-1.688h-1.151v-1.834H35.358z M17.025,24.812c-0.046-2.523-1.813-3.572-4.271-3.902
			l-1.428,2.805l-0.229-1.822l0.354-0.289h-0.856H9.812l0.354,0.291l-0.224,1.824l-1.435-2.805C6.054,21.25,4.292,22.3,4.246,24.812
			H1.499V7.025h32.356v17.787H17.025L17.025,24.812z"/>
	</g>
</g>
<g>
</g>
<g>
</g>
<g>
</g>
<g>
</g>
<g>
</g>
<g>
</g>
<g>
</g>
<g>
</g>
<g>
</g>
<g>
</g>
<g>
</g>
<g>
</g>
<g>
</g>
<g>
</g>
<g>
</g>
</svg>
