<?xml version="1.0" encoding="iso-8859-1"?>
<!-- Generator: Adobe Illustrator 16.0.0, SVG Export Plug-In . SVG Version: 6.00 Build 0)  -->
<!DOCTYPE svg PUBLIC "-//W3C//DTD SVG 1.1//EN" "http://www.w3.org/Graphics/SVG/1.1/DTD/svg11.dtd">
<svg version="1.1" id="Capa_1" xmlns="http://www.w3.org/2000/svg" xmlns:xlink="http://www.w3.org/1999/xlink" x="0px" y="0px"
	 width="38.505px" height="38.505px" viewBox="0 0 38.505 38.505" style="enable-background:new 0 0 38.505 38.505;"
	 xml:space="preserve">
<g>
	<g>
		<path d="M22.934,25.45c-0.201-1.097-1.212-2.136-2.306-2.358l-5.116-1.051c0.707-0.896,1.26-1.98,1.648-3.067
			c0.655-0.252,1.31-0.854,1.487-1.623c0.238-1.02-0.047-1.925-0.686-2.309l-0.013-0.721c0.545-1.743,0.797-4.586-1.847-6.068
			c-1.184-0.662-2.154-0.688-2.886-0.438c-0.118-0.297,0.215-0.733,0.215-0.733c-0.603-0.009-0.914,0.317-1.043,0.502
			c-0.812-0.356-1.867-0.497-3.211-0.19c-4.31,0.984-4.763,6.659-3.949,7.885c-0.609,0.41-0.856,1.313-0.587,2.314
			c0.207,0.77,0.887,1.348,1.553,1.573c0.411,1.056,0.986,2.104,1.704,2.966L6.189,22.5l-3.158,0.688
			c-1.093,0.232-2.096,1.28-2.284,2.379l-0.716,4.155c-0.1,0.571,0.04,1.111,0.389,1.525c0.35,0.409,0.86,0.635,1.438,0.634
			l20.028-0.105h0.027c0.57-0.01,1.07-0.242,1.408-0.655c0.342-0.415,0.471-0.955,0.365-1.521L22.934,25.45z M16.688,23.113
			l-3.876,4.578l-0.595-2.438l0.774-0.717l-0.5-0.451c0.906-0.186,1.706-0.672,2.39-1.342L16.688,23.113z M6.87,18.344
			c-0.351,0.081-1.169-0.347-1.341-0.986c-0.178-0.649-0.031-1.265,0.322-1.373c0.105-0.029,0.216-0.01,0.327,0.045l-0.017-0.978
			c0.001-0.004,0.004-0.004,0.004-0.009c-0.002-0.012-0.004-0.031-0.006-0.046l-0.006-0.335c0.072-0.829,0.829-2.419,5.175-1.081
			c1.496,0.464,2.399-0.327,2.845-1.356c1.471,0.137,2.478,1.784,2.872,2.805l0.015,0.812c0.053-0.029,0.108-0.05,0.162-0.062
			c-0.001,0.007-0.001,0.021-0.003,0.025c0.012,0.014,0.034,0.006,0.062-0.021c0.034-0.004,0.067-0.01,0.103,0
			c0.357,0.095,0.525,0.703,0.373,1.363c-0.149,0.638-0.946,1.09-1.298,1.029c-0.144,0.463-0.347,0.967-0.583,1.474
			c-0.891,0.879-2.45,0.938-3.324,0.891c-0.125-0.264-0.39-0.449-0.701-0.449c-0.432,0-0.781,0.35-0.781,0.781
			c0,0.431,0.351,0.781,0.781,0.781c0.254,0,0.468-0.129,0.611-0.315c0.162,0.011,0.34,0.019,0.542,0.019
			c0.617,0,1.383-0.073,2.104-0.328c-0.19,0.283-0.396,0.558-0.619,0.806c-0.11,0.12-0.225,0.235-0.342,0.346
			c-0.127,0.12-0.26,0.229-0.396,0.337c-0.589,0.444-1.257,0.729-2.002,0.741c-0.763,0.017-1.447-0.248-2.058-0.679
			c-0.142-0.102-0.278-0.209-0.41-0.325c-0.122-0.106-0.239-0.224-0.354-0.341C7.965,20.906,7.27,19.519,6.87,18.344z M8.553,22.822
			c0.725,0.672,1.566,1.146,2.512,1.296l-0.47,0.433l0.784,0.709l-0.567,2.432l-3.997-4.49L8.553,22.822z M22.698,30.603
			c-0.186,0.227-0.468,0.354-0.796,0.356l0.007,0.407l-0.022-0.407l-3.911,0.021l-0.011-2.144c-0.002-0.226-0.185-0.405-0.411-0.405
			c-0.001,0-0.003,0-0.006,0c-0.222,0.006-0.398,0.188-0.398,0.409l0.012,2.146L6.586,31.04l-0.012-2.144
			c-0.001-0.225-0.185-0.408-0.41-0.406c0,0-0.003,0-0.004,0c-0.225,0.005-0.401,0.187-0.401,0.41l0.013,2.146l-3.915,0.021
			c-0.332,0.002-0.619-0.119-0.812-0.347c-0.19-0.227-0.264-0.53-0.208-0.856l0.718-4.156c0.132-0.77,0.889-1.562,1.654-1.727
			L5.9,23.398l5.642,6.338c0.079,0.088,0.19,0.141,0.31,0.138h0.001c0.117-0.003,0.228-0.056,0.305-0.146l5.44-6.428l2.864,0.59
			c0.767,0.158,1.53,0.939,1.67,1.707l0.76,4.149C22.953,30.068,22.884,30.376,22.698,30.603z M34.217,13.163h-4.105V8.971
			C32.309,9.177,34.052,10.947,34.217,13.163z M24.866,13.676c0-2.486,1.993-4.503,4.47-4.55v4.724h4.632
			c-0.09,2.435-2.086,4.383-4.544,4.383C26.905,18.231,24.866,16.19,24.866,13.676z M20.551,6.625V20.83h4.191v4.568l4.568-4.568
			h9.194V6.625H20.551z M37.244,19.566H28.79l-2.785,2.787v-2.786h-4.19V7.885h15.432L37.244,19.566L37.244,19.566z"/>
	</g>
</g>
<g>
</g>
<g>
</g>
<g>
</g>
<g>
</g>
<g>
</g>
<g>
</g>
<g>
</g>
<g>
</g>
<g>
</g>
<g>
</g>
<g>
</g>
<g>
</g>
<g>
</g>
<g>
</g>
<g>
</g>
</svg>
