<?xml version="1.0" encoding="iso-8859-1"?>
<!-- Generator: Adobe Illustrator 16.0.0, SVG Export Plug-In . SVG Version: 6.00 Build 0)  -->
<!DOCTYPE svg PUBLIC "-//W3C//DTD SVG 1.1//EN" "http://www.w3.org/Graphics/SVG/1.1/DTD/svg11.dtd">
<svg version="1.1" id="Capa_1" xmlns="http://www.w3.org/2000/svg" xmlns:xlink="http://www.w3.org/1999/xlink" x="0px" y="0px"
	 width="34.688px" height="34.687px" viewBox="0 0 34.688 34.687" style="enable-background:new 0 0 34.688 34.687;"
	 xml:space="preserve">
<g>
	<g>
		<path d="M34.663,26.238l-0.53-2.979c-0.142-0.795-0.869-1.545-1.656-1.713l-0.5-0.104v-5.31c0-4.931-2.604-6.802-5.822-6.802
			c-2.204,0-4.12,0.88-5.107,3.021V9.06h1.571V6.882H0V9.06h1.18v12.862h17.891c-0.446,0.332-0.801,0.813-0.895,1.336l-0.529,2.979
			c-0.073,0.412,0.023,0.807,0.273,1.104c0.252,0.299,0.621,0.463,1.039,0.463h14.39c0.42,0,0.789-0.164,1.039-0.463
			S34.738,26.652,34.663,26.238z M22.146,16.458c0.076-0.021,0.15-0.004,0.228,0.037v-0.67h4.517l0.377-2.267v2.356h2.67v0.578
			c0.078-0.041,0.152-0.059,0.228-0.037c0.25,0.074,0.354,0.527,0.244,1.014c-0.112,0.47-0.673,0.796-0.914,0.746
			c-0.259,0.83-0.854,1.726-1.537,2.375c-0.095,0.088-0.188,0.172-0.282,0.252c-0.105,0.086-0.213,0.168-0.318,0.242l2.326,0.487
			l-1.242,1.449l-1.537,1.797l-0.393-1.797l-0.056-0.242l0.562-0.561l-0.704-0.705l-0.155-0.156L26,21.515l-0.701,0.703l0.562,0.561
			l-0.056,0.242l-0.377,1.729l-1.52-1.729l-1.279-1.449l2.313-0.483c-0.11-0.072-0.218-0.156-0.323-0.244
			c-0.095-0.078-0.188-0.16-0.281-0.248c-0.674-0.646-1.254-1.533-1.51-2.381c-0.242,0.057-0.811-0.271-0.92-0.746
			C21.79,16.985,21.898,16.532,22.146,16.458z M1.904,21.197V9.06H20.32v12.135H1.904V21.197z M33.926,26.951
			c-0.136,0.16-0.338,0.248-0.576,0.248h-2.803v-1.526c0-0.168-0.134-0.304-0.302-0.304s-0.304,0.136-0.304,0.304v1.526h-7.575
			v-1.526c0-0.168-0.136-0.304-0.306-0.304c-0.166,0-0.301,0.136-0.301,0.304v1.526h-2.804c-0.236,0-0.439-0.088-0.574-0.248
			c-0.133-0.157-0.184-0.375-0.143-0.606l0.53-2.983c0.099-0.545,0.642-1.105,1.187-1.224l0.373-0.078l0.647-0.137h0.063v-0.015
			l0.901-0.188l1.148,1.306l2.883,3.274c0.06,0.062,0.144,0.103,0.228,0.103c0.002,0,0.004,0,0.004,0
			c0.089,0,0.17-0.039,0.228-0.104l2.799-3.272l1.121-1.308l1.621,0.342l0.375,0.078c0.545,0.117,1.086,0.679,1.187,1.228
			l0.53,2.979C34.109,26.576,34.059,26.793,33.926,26.951z M4.171,19.656h14.062v0.362H3.807V10.3H4.17v6.707l3.908-1.541
			l3.223,0.419l2.049-2.092l3.605-1.604l-0.812-0.354l0.146-0.334l1.387,0.604l-0.604,1.386l-0.334-0.146l0.357-0.821l-3.566,1.586
			l-2.092,2.154l-3.311-0.428l-3.947,1.556l-0.008-0.021V19.656L4.171,19.656z"/>
	</g>
</g>
<g>
</g>
<g>
</g>
<g>
</g>
<g>
</g>
<g>
</g>
<g>
</g>
<g>
</g>
<g>
</g>
<g>
</g>
<g>
</g>
<g>
</g>
<g>
</g>
<g>
</g>
<g>
</g>
<g>
</g>
</svg>
